%TF.GenerationSoftware,KiCad,Pcbnew,7.0.9-7.0.9~ubuntu20.04.1*%
%TF.CreationDate,2023-12-22T19:52:33+01:00*%
%TF.ProjectId,kicad-trans_pwr,6b696361-642d-4747-9261-6e735f707772,1.0*%
%TF.SameCoordinates,Original*%
%TF.FileFunction,Drillmap*%
%TF.FilePolarity,Positive*%
%FSLAX45Y45*%
G04 Gerber Fmt 4.5, Leading zero omitted, Abs format (unit mm)*
G04 Created by KiCad (PCBNEW 7.0.9-7.0.9~ubuntu20.04.1) date 2023-12-22 19:52:33*
%MOMM*%
%LPD*%
G01*
G04 APERTURE LIST*
%ADD10C,0.100000*%
%ADD11C,0.200000*%
%ADD12C,0.110000*%
%ADD13C,0.120000*%
%ADD14C,0.150000*%
%ADD15C,0.152000*%
%ADD16C,0.320000*%
%ADD17C,0.350000*%
G04 APERTURE END LIST*
D10*
X15748000Y-3048000D02*
X15748000Y-12293600D01*
X7264400Y-2921000D02*
X15621000Y-2921000D01*
X7112000Y-12293600D02*
X7112000Y-3073400D01*
X7264400Y-2921000D02*
G75*
G03*
X7112000Y-3073400I0J-152400D01*
G01*
X15595600Y-12446000D02*
G75*
G03*
X15748000Y-12293600I0J152400D01*
G01*
X15595600Y-12446000D02*
X7264400Y-12446000D01*
X15748000Y-3048000D02*
G75*
G03*
X15621000Y-2921000I-127000J0D01*
G01*
X7112000Y-12293600D02*
G75*
G03*
X7264400Y-12446000I152400J0D01*
G01*
D11*
D10*
X10183500Y-9866000D02*
X10263500Y-9946000D01*
X10263500Y-9866000D02*
X10183500Y-9946000D01*
X10183500Y-10366000D02*
X10263500Y-10446000D01*
X10263500Y-10366000D02*
X10183500Y-10446000D01*
X10501000Y-10120000D02*
X10581000Y-10200000D01*
X10581000Y-10120000D02*
X10501000Y-10200000D01*
X10501000Y-10620000D02*
X10581000Y-10700000D01*
X10581000Y-10620000D02*
X10501000Y-10700000D01*
X11009000Y-10244511D02*
X11089000Y-10324511D01*
X11089000Y-10244511D02*
X11009000Y-10324511D01*
X11009000Y-10494511D02*
X11089000Y-10574511D01*
X11089000Y-10494511D02*
X11009000Y-10574511D01*
X11009000Y-11514511D02*
X11089000Y-11594511D01*
X11089000Y-11514511D02*
X11009000Y-11594511D01*
X11009000Y-11764511D02*
X11089000Y-11844511D01*
X11089000Y-11764511D02*
X11009000Y-11844511D01*
X11517000Y-11398000D02*
X11597000Y-11478000D01*
X11597000Y-11398000D02*
X11517000Y-11478000D01*
X11517000Y-11898000D02*
X11597000Y-11978000D01*
X11597000Y-11898000D02*
X11517000Y-11978000D01*
X11771000Y-10244511D02*
X11851000Y-10324511D01*
X11851000Y-10244511D02*
X11771000Y-10324511D01*
X11771000Y-10494511D02*
X11851000Y-10574511D01*
X11851000Y-10494511D02*
X11771000Y-10574511D01*
X11834500Y-11144000D02*
X11914500Y-11224000D01*
X11914500Y-11144000D02*
X11834500Y-11224000D01*
X11834500Y-11644000D02*
X11914500Y-11724000D01*
X11914500Y-11644000D02*
X11834500Y-11724000D01*
X12279000Y-10124000D02*
X12359000Y-10204000D01*
X12359000Y-10124000D02*
X12279000Y-10204000D01*
X12279000Y-10624000D02*
X12359000Y-10704000D01*
X12359000Y-10624000D02*
X12279000Y-10704000D01*
X12596500Y-9874000D02*
X12676500Y-9954000D01*
X12676500Y-9874000D02*
X12596500Y-9954000D01*
X12596500Y-10374000D02*
X12676500Y-10454000D01*
X12676500Y-10374000D02*
X12596500Y-10454000D01*
D12*
X9897500Y-10160000D02*
G75*
G03*
X9897500Y-10160000I-55000J0D01*
G01*
X9897500Y-10414000D02*
G75*
G03*
X9897500Y-10414000I-55000J0D01*
G01*
X9897500Y-10668000D02*
G75*
G03*
X9897500Y-10668000I-55000J0D01*
G01*
X12310500Y-11430000D02*
G75*
G03*
X12310500Y-11430000I-55000J0D01*
G01*
X12310500Y-11684000D02*
G75*
G03*
X12310500Y-11684000I-55000J0D01*
G01*
X12310500Y-11938000D02*
G75*
G03*
X12310500Y-11938000I-55000J0D01*
G01*
X13072500Y-10160000D02*
G75*
G03*
X13072500Y-10160000I-55000J0D01*
G01*
X13072500Y-10414000D02*
G75*
G03*
X13072500Y-10414000I-55000J0D01*
G01*
X13072500Y-10668000D02*
G75*
G03*
X13072500Y-10668000I-55000J0D01*
G01*
D13*
X7874000Y-6798000D02*
X7874000Y-6918000D01*
X7814000Y-6858000D02*
X7934000Y-6858000D01*
X7874000Y-8703000D02*
X7874000Y-8823000D01*
X7814000Y-8763000D02*
X7934000Y-8763000D01*
X7886000Y-4893000D02*
X7886000Y-5013000D01*
X7826000Y-4953000D02*
X7946000Y-4953000D01*
X8624000Y-6798000D02*
X8624000Y-6918000D01*
X8564000Y-6858000D02*
X8684000Y-6858000D01*
X8624000Y-8703000D02*
X8624000Y-8823000D01*
X8564000Y-8763000D02*
X8684000Y-8763000D01*
X8636000Y-4893000D02*
X8636000Y-5013000D01*
X8576000Y-4953000D02*
X8696000Y-4953000D01*
X14236000Y-4893000D02*
X14236000Y-5013000D01*
X14176000Y-4953000D02*
X14296000Y-4953000D01*
X14236000Y-6798000D02*
X14236000Y-6918000D01*
X14176000Y-6858000D02*
X14296000Y-6858000D01*
X14236000Y-8703000D02*
X14236000Y-8823000D01*
X14176000Y-8763000D02*
X14296000Y-8763000D01*
X14986000Y-4893000D02*
X14986000Y-5013000D01*
X14926000Y-4953000D02*
X15046000Y-4953000D01*
X14986000Y-6798000D02*
X14986000Y-6918000D01*
X14926000Y-6858000D02*
X15046000Y-6858000D01*
X14986000Y-8703000D02*
X14986000Y-8823000D01*
X14926000Y-8763000D02*
X15046000Y-8763000D01*
D14*
X10483034Y-9433034D02*
X10483034Y-9326967D01*
X10376967Y-9326967D01*
X10376967Y-9433034D01*
X10483034Y-9433034D01*
X10883034Y-4433034D02*
X10883034Y-4326967D01*
X10776967Y-4326967D01*
X10776967Y-4433034D01*
X10883034Y-4433034D01*
X11483033Y-9433034D02*
X11483033Y-9326967D01*
X11376966Y-9326967D01*
X11376966Y-9433034D01*
X11483033Y-9433034D01*
X12083033Y-4433034D02*
X12083033Y-4326967D01*
X11976966Y-4326967D01*
X11976966Y-4433034D01*
X12083033Y-4433034D01*
X12483033Y-9433034D02*
X12483033Y-9326967D01*
X12376966Y-9326967D01*
X12376966Y-9433034D01*
X12483033Y-9433034D01*
D15*
X8636000Y-12014000D02*
X8712000Y-11938000D01*
X8636000Y-11862000D01*
X8560000Y-11938000D01*
X8636000Y-12014000D01*
X9144000Y-12014000D02*
X9220000Y-11938000D01*
X9144000Y-11862000D01*
X9068000Y-11938000D01*
X9144000Y-12014000D01*
X9652000Y-12014000D02*
X9728000Y-11938000D01*
X9652000Y-11862000D01*
X9576000Y-11938000D01*
X9652000Y-12014000D01*
X10160000Y-12014000D02*
X10236000Y-11938000D01*
X10160000Y-11862000D01*
X10084000Y-11938000D01*
X10160000Y-12014000D01*
X11176000Y-3505000D02*
X11252000Y-3429000D01*
X11176000Y-3353000D01*
X11100000Y-3429000D01*
X11176000Y-3505000D01*
X11684000Y-3505000D02*
X11760000Y-3429000D01*
X11684000Y-3353000D01*
X11608000Y-3429000D01*
X11684000Y-3505000D01*
D16*
X7587000Y-3396000D02*
X7907000Y-3716000D01*
X7907000Y-3396000D02*
X7587000Y-3716000D01*
X7907000Y-3556000D02*
G75*
G03*
X7907000Y-3556000I-160000J0D01*
G01*
X7587000Y-11651000D02*
X7907000Y-11971000D01*
X7907000Y-11651000D02*
X7587000Y-11971000D01*
X7907000Y-11811000D02*
G75*
G03*
X7907000Y-11811000I-160000J0D01*
G01*
X14953000Y-3396000D02*
X15273000Y-3716000D01*
X15273000Y-3396000D02*
X14953000Y-3716000D01*
X15273000Y-3556000D02*
G75*
G03*
X15273000Y-3556000I-160000J0D01*
G01*
X14953000Y-11651000D02*
X15273000Y-11971000D01*
X15273000Y-11651000D02*
X14953000Y-11971000D01*
X15273000Y-11811000D02*
G75*
G03*
X15273000Y-11811000I-160000J0D01*
G01*
D17*
X13746500Y-11509000D02*
X14096500Y-11859000D01*
X14096500Y-11509000D02*
X13746500Y-11859000D01*
X13921500Y-11509000D02*
X13921500Y-11859000D01*
X13746500Y-11684000D02*
X14096500Y-11684000D01*
X14508500Y-10239000D02*
X14858500Y-10589000D01*
X14858500Y-10239000D02*
X14508500Y-10589000D01*
X14683500Y-10239000D02*
X14683500Y-10589000D01*
X14508500Y-10414000D02*
X14858500Y-10414000D01*
D11*
X7367777Y-12762484D02*
X7367777Y-12562484D01*
X7367777Y-12562484D02*
X7415396Y-12562484D01*
X7415396Y-12562484D02*
X7443967Y-12572008D01*
X7443967Y-12572008D02*
X7463015Y-12591055D01*
X7463015Y-12591055D02*
X7472539Y-12610103D01*
X7472539Y-12610103D02*
X7482062Y-12648198D01*
X7482062Y-12648198D02*
X7482062Y-12676769D01*
X7482062Y-12676769D02*
X7472539Y-12714865D01*
X7472539Y-12714865D02*
X7463015Y-12733912D01*
X7463015Y-12733912D02*
X7443967Y-12752960D01*
X7443967Y-12752960D02*
X7415396Y-12762484D01*
X7415396Y-12762484D02*
X7367777Y-12762484D01*
X7567777Y-12762484D02*
X7567777Y-12629150D01*
X7567777Y-12667246D02*
X7577301Y-12648198D01*
X7577301Y-12648198D02*
X7586824Y-12638674D01*
X7586824Y-12638674D02*
X7605872Y-12629150D01*
X7605872Y-12629150D02*
X7624920Y-12629150D01*
X7691586Y-12762484D02*
X7691586Y-12629150D01*
X7691586Y-12562484D02*
X7682062Y-12572008D01*
X7682062Y-12572008D02*
X7691586Y-12581531D01*
X7691586Y-12581531D02*
X7701110Y-12572008D01*
X7701110Y-12572008D02*
X7691586Y-12562484D01*
X7691586Y-12562484D02*
X7691586Y-12581531D01*
X7815396Y-12762484D02*
X7796348Y-12752960D01*
X7796348Y-12752960D02*
X7786824Y-12733912D01*
X7786824Y-12733912D02*
X7786824Y-12562484D01*
X7920158Y-12762484D02*
X7901110Y-12752960D01*
X7901110Y-12752960D02*
X7891586Y-12733912D01*
X7891586Y-12733912D02*
X7891586Y-12562484D01*
X8148729Y-12762484D02*
X8148729Y-12562484D01*
X8148729Y-12562484D02*
X8215396Y-12705341D01*
X8215396Y-12705341D02*
X8282062Y-12562484D01*
X8282062Y-12562484D02*
X8282062Y-12762484D01*
X8463015Y-12762484D02*
X8463015Y-12657722D01*
X8463015Y-12657722D02*
X8453491Y-12638674D01*
X8453491Y-12638674D02*
X8434444Y-12629150D01*
X8434444Y-12629150D02*
X8396348Y-12629150D01*
X8396348Y-12629150D02*
X8377301Y-12638674D01*
X8463015Y-12752960D02*
X8443967Y-12762484D01*
X8443967Y-12762484D02*
X8396348Y-12762484D01*
X8396348Y-12762484D02*
X8377301Y-12752960D01*
X8377301Y-12752960D02*
X8367777Y-12733912D01*
X8367777Y-12733912D02*
X8367777Y-12714865D01*
X8367777Y-12714865D02*
X8377301Y-12695817D01*
X8377301Y-12695817D02*
X8396348Y-12686293D01*
X8396348Y-12686293D02*
X8443967Y-12686293D01*
X8443967Y-12686293D02*
X8463015Y-12676769D01*
X8558253Y-12629150D02*
X8558253Y-12829150D01*
X8558253Y-12638674D02*
X8577301Y-12629150D01*
X8577301Y-12629150D02*
X8615396Y-12629150D01*
X8615396Y-12629150D02*
X8634444Y-12638674D01*
X8634444Y-12638674D02*
X8643967Y-12648198D01*
X8643967Y-12648198D02*
X8653491Y-12667246D01*
X8653491Y-12667246D02*
X8653491Y-12724388D01*
X8653491Y-12724388D02*
X8643967Y-12743436D01*
X8643967Y-12743436D02*
X8634444Y-12752960D01*
X8634444Y-12752960D02*
X8615396Y-12762484D01*
X8615396Y-12762484D02*
X8577301Y-12762484D01*
X8577301Y-12762484D02*
X8558253Y-12752960D01*
X8739205Y-12743436D02*
X8748729Y-12752960D01*
X8748729Y-12752960D02*
X8739205Y-12762484D01*
X8739205Y-12762484D02*
X8729682Y-12752960D01*
X8729682Y-12752960D02*
X8739205Y-12743436D01*
X8739205Y-12743436D02*
X8739205Y-12762484D01*
X8739205Y-12638674D02*
X8748729Y-12648198D01*
X8748729Y-12648198D02*
X8739205Y-12657722D01*
X8739205Y-12657722D02*
X8729682Y-12648198D01*
X8729682Y-12648198D02*
X8739205Y-12638674D01*
X8739205Y-12638674D02*
X8739205Y-12657722D01*
D10*
X7027000Y-13051000D02*
X7107000Y-13131000D01*
X7107000Y-13051000D02*
X7027000Y-13131000D01*
D11*
X7405872Y-12982484D02*
X7424920Y-12982484D01*
X7424920Y-12982484D02*
X7443967Y-12992008D01*
X7443967Y-12992008D02*
X7453491Y-13001531D01*
X7453491Y-13001531D02*
X7463015Y-13020579D01*
X7463015Y-13020579D02*
X7472539Y-13058674D01*
X7472539Y-13058674D02*
X7472539Y-13106293D01*
X7472539Y-13106293D02*
X7463015Y-13144388D01*
X7463015Y-13144388D02*
X7453491Y-13163436D01*
X7453491Y-13163436D02*
X7443967Y-13172960D01*
X7443967Y-13172960D02*
X7424920Y-13182484D01*
X7424920Y-13182484D02*
X7405872Y-13182484D01*
X7405872Y-13182484D02*
X7386824Y-13172960D01*
X7386824Y-13172960D02*
X7377301Y-13163436D01*
X7377301Y-13163436D02*
X7367777Y-13144388D01*
X7367777Y-13144388D02*
X7358253Y-13106293D01*
X7358253Y-13106293D02*
X7358253Y-13058674D01*
X7358253Y-13058674D02*
X7367777Y-13020579D01*
X7367777Y-13020579D02*
X7377301Y-13001531D01*
X7377301Y-13001531D02*
X7386824Y-12992008D01*
X7386824Y-12992008D02*
X7405872Y-12982484D01*
X7558253Y-13163436D02*
X7567777Y-13172960D01*
X7567777Y-13172960D02*
X7558253Y-13182484D01*
X7558253Y-13182484D02*
X7548729Y-13172960D01*
X7548729Y-13172960D02*
X7558253Y-13163436D01*
X7558253Y-13163436D02*
X7558253Y-13182484D01*
X7682062Y-13068198D02*
X7663015Y-13058674D01*
X7663015Y-13058674D02*
X7653491Y-13049150D01*
X7653491Y-13049150D02*
X7643967Y-13030103D01*
X7643967Y-13030103D02*
X7643967Y-13020579D01*
X7643967Y-13020579D02*
X7653491Y-13001531D01*
X7653491Y-13001531D02*
X7663015Y-12992008D01*
X7663015Y-12992008D02*
X7682062Y-12982484D01*
X7682062Y-12982484D02*
X7720158Y-12982484D01*
X7720158Y-12982484D02*
X7739205Y-12992008D01*
X7739205Y-12992008D02*
X7748729Y-13001531D01*
X7748729Y-13001531D02*
X7758253Y-13020579D01*
X7758253Y-13020579D02*
X7758253Y-13030103D01*
X7758253Y-13030103D02*
X7748729Y-13049150D01*
X7748729Y-13049150D02*
X7739205Y-13058674D01*
X7739205Y-13058674D02*
X7720158Y-13068198D01*
X7720158Y-13068198D02*
X7682062Y-13068198D01*
X7682062Y-13068198D02*
X7663015Y-13077722D01*
X7663015Y-13077722D02*
X7653491Y-13087246D01*
X7653491Y-13087246D02*
X7643967Y-13106293D01*
X7643967Y-13106293D02*
X7643967Y-13144388D01*
X7643967Y-13144388D02*
X7653491Y-13163436D01*
X7653491Y-13163436D02*
X7663015Y-13172960D01*
X7663015Y-13172960D02*
X7682062Y-13182484D01*
X7682062Y-13182484D02*
X7720158Y-13182484D01*
X7720158Y-13182484D02*
X7739205Y-13172960D01*
X7739205Y-13172960D02*
X7748729Y-13163436D01*
X7748729Y-13163436D02*
X7758253Y-13144388D01*
X7758253Y-13144388D02*
X7758253Y-13106293D01*
X7758253Y-13106293D02*
X7748729Y-13087246D01*
X7748729Y-13087246D02*
X7739205Y-13077722D01*
X7739205Y-13077722D02*
X7720158Y-13068198D01*
X7882062Y-12982484D02*
X7901110Y-12982484D01*
X7901110Y-12982484D02*
X7920158Y-12992008D01*
X7920158Y-12992008D02*
X7929682Y-13001531D01*
X7929682Y-13001531D02*
X7939205Y-13020579D01*
X7939205Y-13020579D02*
X7948729Y-13058674D01*
X7948729Y-13058674D02*
X7948729Y-13106293D01*
X7948729Y-13106293D02*
X7939205Y-13144388D01*
X7939205Y-13144388D02*
X7929682Y-13163436D01*
X7929682Y-13163436D02*
X7920158Y-13172960D01*
X7920158Y-13172960D02*
X7901110Y-13182484D01*
X7901110Y-13182484D02*
X7882062Y-13182484D01*
X7882062Y-13182484D02*
X7863015Y-13172960D01*
X7863015Y-13172960D02*
X7853491Y-13163436D01*
X7853491Y-13163436D02*
X7843967Y-13144388D01*
X7843967Y-13144388D02*
X7834443Y-13106293D01*
X7834443Y-13106293D02*
X7834443Y-13058674D01*
X7834443Y-13058674D02*
X7843967Y-13020579D01*
X7843967Y-13020579D02*
X7853491Y-13001531D01*
X7853491Y-13001531D02*
X7863015Y-12992008D01*
X7863015Y-12992008D02*
X7882062Y-12982484D01*
X8072539Y-12982484D02*
X8091586Y-12982484D01*
X8091586Y-12982484D02*
X8110634Y-12992008D01*
X8110634Y-12992008D02*
X8120158Y-13001531D01*
X8120158Y-13001531D02*
X8129682Y-13020579D01*
X8129682Y-13020579D02*
X8139205Y-13058674D01*
X8139205Y-13058674D02*
X8139205Y-13106293D01*
X8139205Y-13106293D02*
X8129682Y-13144388D01*
X8129682Y-13144388D02*
X8120158Y-13163436D01*
X8120158Y-13163436D02*
X8110634Y-13172960D01*
X8110634Y-13172960D02*
X8091586Y-13182484D01*
X8091586Y-13182484D02*
X8072539Y-13182484D01*
X8072539Y-13182484D02*
X8053491Y-13172960D01*
X8053491Y-13172960D02*
X8043967Y-13163436D01*
X8043967Y-13163436D02*
X8034443Y-13144388D01*
X8034443Y-13144388D02*
X8024920Y-13106293D01*
X8024920Y-13106293D02*
X8024920Y-13058674D01*
X8024920Y-13058674D02*
X8034443Y-13020579D01*
X8034443Y-13020579D02*
X8043967Y-13001531D01*
X8043967Y-13001531D02*
X8053491Y-12992008D01*
X8053491Y-12992008D02*
X8072539Y-12982484D01*
X8224920Y-13182484D02*
X8224920Y-13049150D01*
X8224920Y-13068198D02*
X8234443Y-13058674D01*
X8234443Y-13058674D02*
X8253491Y-13049150D01*
X8253491Y-13049150D02*
X8282063Y-13049150D01*
X8282063Y-13049150D02*
X8301110Y-13058674D01*
X8301110Y-13058674D02*
X8310634Y-13077722D01*
X8310634Y-13077722D02*
X8310634Y-13182484D01*
X8310634Y-13077722D02*
X8320158Y-13058674D01*
X8320158Y-13058674D02*
X8339205Y-13049150D01*
X8339205Y-13049150D02*
X8367777Y-13049150D01*
X8367777Y-13049150D02*
X8386824Y-13058674D01*
X8386824Y-13058674D02*
X8396348Y-13077722D01*
X8396348Y-13077722D02*
X8396348Y-13182484D01*
X8491586Y-13182484D02*
X8491586Y-13049150D01*
X8491586Y-13068198D02*
X8501110Y-13058674D01*
X8501110Y-13058674D02*
X8520158Y-13049150D01*
X8520158Y-13049150D02*
X8548729Y-13049150D01*
X8548729Y-13049150D02*
X8567777Y-13058674D01*
X8567777Y-13058674D02*
X8577301Y-13077722D01*
X8577301Y-13077722D02*
X8577301Y-13182484D01*
X8577301Y-13077722D02*
X8586825Y-13058674D01*
X8586825Y-13058674D02*
X8605872Y-13049150D01*
X8605872Y-13049150D02*
X8634444Y-13049150D01*
X8634444Y-13049150D02*
X8653491Y-13058674D01*
X8653491Y-13058674D02*
X8663015Y-13077722D01*
X8663015Y-13077722D02*
X8663015Y-13182484D01*
X9053491Y-12972960D02*
X8882063Y-13230103D01*
X9310634Y-12982484D02*
X9329682Y-12982484D01*
X9329682Y-12982484D02*
X9348729Y-12992008D01*
X9348729Y-12992008D02*
X9358253Y-13001531D01*
X9358253Y-13001531D02*
X9367777Y-13020579D01*
X9367777Y-13020579D02*
X9377301Y-13058674D01*
X9377301Y-13058674D02*
X9377301Y-13106293D01*
X9377301Y-13106293D02*
X9367777Y-13144388D01*
X9367777Y-13144388D02*
X9358253Y-13163436D01*
X9358253Y-13163436D02*
X9348729Y-13172960D01*
X9348729Y-13172960D02*
X9329682Y-13182484D01*
X9329682Y-13182484D02*
X9310634Y-13182484D01*
X9310634Y-13182484D02*
X9291587Y-13172960D01*
X9291587Y-13172960D02*
X9282063Y-13163436D01*
X9282063Y-13163436D02*
X9272539Y-13144388D01*
X9272539Y-13144388D02*
X9263015Y-13106293D01*
X9263015Y-13106293D02*
X9263015Y-13058674D01*
X9263015Y-13058674D02*
X9272539Y-13020579D01*
X9272539Y-13020579D02*
X9282063Y-13001531D01*
X9282063Y-13001531D02*
X9291587Y-12992008D01*
X9291587Y-12992008D02*
X9310634Y-12982484D01*
X9463015Y-13163436D02*
X9472539Y-13172960D01*
X9472539Y-13172960D02*
X9463015Y-13182484D01*
X9463015Y-13182484D02*
X9453491Y-13172960D01*
X9453491Y-13172960D02*
X9463015Y-13163436D01*
X9463015Y-13163436D02*
X9463015Y-13182484D01*
X9596348Y-12982484D02*
X9615396Y-12982484D01*
X9615396Y-12982484D02*
X9634444Y-12992008D01*
X9634444Y-12992008D02*
X9643968Y-13001531D01*
X9643968Y-13001531D02*
X9653491Y-13020579D01*
X9653491Y-13020579D02*
X9663015Y-13058674D01*
X9663015Y-13058674D02*
X9663015Y-13106293D01*
X9663015Y-13106293D02*
X9653491Y-13144388D01*
X9653491Y-13144388D02*
X9643968Y-13163436D01*
X9643968Y-13163436D02*
X9634444Y-13172960D01*
X9634444Y-13172960D02*
X9615396Y-13182484D01*
X9615396Y-13182484D02*
X9596348Y-13182484D01*
X9596348Y-13182484D02*
X9577301Y-13172960D01*
X9577301Y-13172960D02*
X9567777Y-13163436D01*
X9567777Y-13163436D02*
X9558253Y-13144388D01*
X9558253Y-13144388D02*
X9548729Y-13106293D01*
X9548729Y-13106293D02*
X9548729Y-13058674D01*
X9548729Y-13058674D02*
X9558253Y-13020579D01*
X9558253Y-13020579D02*
X9567777Y-13001531D01*
X9567777Y-13001531D02*
X9577301Y-12992008D01*
X9577301Y-12992008D02*
X9596348Y-12982484D01*
X9729682Y-12982484D02*
X9853491Y-12982484D01*
X9853491Y-12982484D02*
X9786825Y-13058674D01*
X9786825Y-13058674D02*
X9815396Y-13058674D01*
X9815396Y-13058674D02*
X9834444Y-13068198D01*
X9834444Y-13068198D02*
X9843968Y-13077722D01*
X9843968Y-13077722D02*
X9853491Y-13096769D01*
X9853491Y-13096769D02*
X9853491Y-13144388D01*
X9853491Y-13144388D02*
X9843968Y-13163436D01*
X9843968Y-13163436D02*
X9834444Y-13172960D01*
X9834444Y-13172960D02*
X9815396Y-13182484D01*
X9815396Y-13182484D02*
X9758253Y-13182484D01*
X9758253Y-13182484D02*
X9739206Y-13172960D01*
X9739206Y-13172960D02*
X9729682Y-13163436D01*
X10043968Y-13182484D02*
X9929682Y-13182484D01*
X9986825Y-13182484D02*
X9986825Y-12982484D01*
X9986825Y-12982484D02*
X9967777Y-13011055D01*
X9967777Y-13011055D02*
X9948729Y-13030103D01*
X9948729Y-13030103D02*
X9929682Y-13039627D01*
X10224920Y-12982484D02*
X10129682Y-12982484D01*
X10129682Y-12982484D02*
X10120158Y-13077722D01*
X10120158Y-13077722D02*
X10129682Y-13068198D01*
X10129682Y-13068198D02*
X10148729Y-13058674D01*
X10148729Y-13058674D02*
X10196349Y-13058674D01*
X10196349Y-13058674D02*
X10215396Y-13068198D01*
X10215396Y-13068198D02*
X10224920Y-13077722D01*
X10224920Y-13077722D02*
X10234444Y-13096769D01*
X10234444Y-13096769D02*
X10234444Y-13144388D01*
X10234444Y-13144388D02*
X10224920Y-13163436D01*
X10224920Y-13163436D02*
X10215396Y-13172960D01*
X10215396Y-13172960D02*
X10196349Y-13182484D01*
X10196349Y-13182484D02*
X10148729Y-13182484D01*
X10148729Y-13182484D02*
X10129682Y-13172960D01*
X10129682Y-13172960D02*
X10120158Y-13163436D01*
X10310634Y-12982484D02*
X10310634Y-13020579D01*
X10386825Y-12982484D02*
X10386825Y-13020579D01*
X10682063Y-13258674D02*
X10672539Y-13249150D01*
X10672539Y-13249150D02*
X10653491Y-13220579D01*
X10653491Y-13220579D02*
X10643968Y-13201531D01*
X10643968Y-13201531D02*
X10634444Y-13172960D01*
X10634444Y-13172960D02*
X10624920Y-13125341D01*
X10624920Y-13125341D02*
X10624920Y-13087246D01*
X10624920Y-13087246D02*
X10634444Y-13039627D01*
X10634444Y-13039627D02*
X10643968Y-13011055D01*
X10643968Y-13011055D02*
X10653491Y-12992008D01*
X10653491Y-12992008D02*
X10672539Y-12963436D01*
X10672539Y-12963436D02*
X10682063Y-12953912D01*
X10863015Y-13182484D02*
X10748730Y-13182484D01*
X10805872Y-13182484D02*
X10805872Y-12982484D01*
X10805872Y-12982484D02*
X10786825Y-13011055D01*
X10786825Y-13011055D02*
X10767777Y-13030103D01*
X10767777Y-13030103D02*
X10748730Y-13039627D01*
X10977301Y-13068198D02*
X10958253Y-13058674D01*
X10958253Y-13058674D02*
X10948730Y-13049150D01*
X10948730Y-13049150D02*
X10939206Y-13030103D01*
X10939206Y-13030103D02*
X10939206Y-13020579D01*
X10939206Y-13020579D02*
X10948730Y-13001531D01*
X10948730Y-13001531D02*
X10958253Y-12992008D01*
X10958253Y-12992008D02*
X10977301Y-12982484D01*
X10977301Y-12982484D02*
X11015396Y-12982484D01*
X11015396Y-12982484D02*
X11034444Y-12992008D01*
X11034444Y-12992008D02*
X11043968Y-13001531D01*
X11043968Y-13001531D02*
X11053491Y-13020579D01*
X11053491Y-13020579D02*
X11053491Y-13030103D01*
X11053491Y-13030103D02*
X11043968Y-13049150D01*
X11043968Y-13049150D02*
X11034444Y-13058674D01*
X11034444Y-13058674D02*
X11015396Y-13068198D01*
X11015396Y-13068198D02*
X10977301Y-13068198D01*
X10977301Y-13068198D02*
X10958253Y-13077722D01*
X10958253Y-13077722D02*
X10948730Y-13087246D01*
X10948730Y-13087246D02*
X10939206Y-13106293D01*
X10939206Y-13106293D02*
X10939206Y-13144388D01*
X10939206Y-13144388D02*
X10948730Y-13163436D01*
X10948730Y-13163436D02*
X10958253Y-13172960D01*
X10958253Y-13172960D02*
X10977301Y-13182484D01*
X10977301Y-13182484D02*
X11015396Y-13182484D01*
X11015396Y-13182484D02*
X11034444Y-13172960D01*
X11034444Y-13172960D02*
X11043968Y-13163436D01*
X11043968Y-13163436D02*
X11053491Y-13144388D01*
X11053491Y-13144388D02*
X11053491Y-13106293D01*
X11053491Y-13106293D02*
X11043968Y-13087246D01*
X11043968Y-13087246D02*
X11034444Y-13077722D01*
X11034444Y-13077722D02*
X11015396Y-13068198D01*
X11291587Y-13182484D02*
X11291587Y-12982484D01*
X11377301Y-13182484D02*
X11377301Y-13077722D01*
X11377301Y-13077722D02*
X11367777Y-13058674D01*
X11367777Y-13058674D02*
X11348730Y-13049150D01*
X11348730Y-13049150D02*
X11320158Y-13049150D01*
X11320158Y-13049150D02*
X11301110Y-13058674D01*
X11301110Y-13058674D02*
X11291587Y-13068198D01*
X11501110Y-13182484D02*
X11482063Y-13172960D01*
X11482063Y-13172960D02*
X11472539Y-13163436D01*
X11472539Y-13163436D02*
X11463015Y-13144388D01*
X11463015Y-13144388D02*
X11463015Y-13087246D01*
X11463015Y-13087246D02*
X11472539Y-13068198D01*
X11472539Y-13068198D02*
X11482063Y-13058674D01*
X11482063Y-13058674D02*
X11501110Y-13049150D01*
X11501110Y-13049150D02*
X11529682Y-13049150D01*
X11529682Y-13049150D02*
X11548730Y-13058674D01*
X11548730Y-13058674D02*
X11558253Y-13068198D01*
X11558253Y-13068198D02*
X11567777Y-13087246D01*
X11567777Y-13087246D02*
X11567777Y-13144388D01*
X11567777Y-13144388D02*
X11558253Y-13163436D01*
X11558253Y-13163436D02*
X11548730Y-13172960D01*
X11548730Y-13172960D02*
X11529682Y-13182484D01*
X11529682Y-13182484D02*
X11501110Y-13182484D01*
X11682063Y-13182484D02*
X11663015Y-13172960D01*
X11663015Y-13172960D02*
X11653491Y-13153912D01*
X11653491Y-13153912D02*
X11653491Y-12982484D01*
X11834444Y-13172960D02*
X11815396Y-13182484D01*
X11815396Y-13182484D02*
X11777301Y-13182484D01*
X11777301Y-13182484D02*
X11758253Y-13172960D01*
X11758253Y-13172960D02*
X11748730Y-13153912D01*
X11748730Y-13153912D02*
X11748730Y-13077722D01*
X11748730Y-13077722D02*
X11758253Y-13058674D01*
X11758253Y-13058674D02*
X11777301Y-13049150D01*
X11777301Y-13049150D02*
X11815396Y-13049150D01*
X11815396Y-13049150D02*
X11834444Y-13058674D01*
X11834444Y-13058674D02*
X11843968Y-13077722D01*
X11843968Y-13077722D02*
X11843968Y-13096769D01*
X11843968Y-13096769D02*
X11748730Y-13115817D01*
X11920158Y-13172960D02*
X11939206Y-13182484D01*
X11939206Y-13182484D02*
X11977301Y-13182484D01*
X11977301Y-13182484D02*
X11996349Y-13172960D01*
X11996349Y-13172960D02*
X12005872Y-13153912D01*
X12005872Y-13153912D02*
X12005872Y-13144388D01*
X12005872Y-13144388D02*
X11996349Y-13125341D01*
X11996349Y-13125341D02*
X11977301Y-13115817D01*
X11977301Y-13115817D02*
X11948730Y-13115817D01*
X11948730Y-13115817D02*
X11929682Y-13106293D01*
X11929682Y-13106293D02*
X11920158Y-13087246D01*
X11920158Y-13087246D02*
X11920158Y-13077722D01*
X11920158Y-13077722D02*
X11929682Y-13058674D01*
X11929682Y-13058674D02*
X11948730Y-13049150D01*
X11948730Y-13049150D02*
X11977301Y-13049150D01*
X11977301Y-13049150D02*
X11996349Y-13058674D01*
X12072539Y-13258674D02*
X12082063Y-13249150D01*
X12082063Y-13249150D02*
X12101111Y-13220579D01*
X12101111Y-13220579D02*
X12110634Y-13201531D01*
X12110634Y-13201531D02*
X12120158Y-13172960D01*
X12120158Y-13172960D02*
X12129682Y-13125341D01*
X12129682Y-13125341D02*
X12129682Y-13087246D01*
X12129682Y-13087246D02*
X12120158Y-13039627D01*
X12120158Y-13039627D02*
X12110634Y-13011055D01*
X12110634Y-13011055D02*
X12101111Y-12992008D01*
X12101111Y-12992008D02*
X12082063Y-12963436D01*
X12082063Y-12963436D02*
X12072539Y-12953912D01*
D12*
X7107000Y-13355000D02*
G75*
G03*
X7107000Y-13355000I-55000J0D01*
G01*
D11*
X7472539Y-13446484D02*
X7358253Y-13446484D01*
X7415396Y-13446484D02*
X7415396Y-13246484D01*
X7415396Y-13246484D02*
X7396348Y-13275055D01*
X7396348Y-13275055D02*
X7377301Y-13294103D01*
X7377301Y-13294103D02*
X7358253Y-13303627D01*
X7558253Y-13427436D02*
X7567777Y-13436960D01*
X7567777Y-13436960D02*
X7558253Y-13446484D01*
X7558253Y-13446484D02*
X7548729Y-13436960D01*
X7548729Y-13436960D02*
X7558253Y-13427436D01*
X7558253Y-13427436D02*
X7558253Y-13446484D01*
X7758253Y-13446484D02*
X7643967Y-13446484D01*
X7701110Y-13446484D02*
X7701110Y-13246484D01*
X7701110Y-13246484D02*
X7682062Y-13275055D01*
X7682062Y-13275055D02*
X7663015Y-13294103D01*
X7663015Y-13294103D02*
X7643967Y-13303627D01*
X7882062Y-13246484D02*
X7901110Y-13246484D01*
X7901110Y-13246484D02*
X7920158Y-13256008D01*
X7920158Y-13256008D02*
X7929682Y-13265531D01*
X7929682Y-13265531D02*
X7939205Y-13284579D01*
X7939205Y-13284579D02*
X7948729Y-13322674D01*
X7948729Y-13322674D02*
X7948729Y-13370293D01*
X7948729Y-13370293D02*
X7939205Y-13408388D01*
X7939205Y-13408388D02*
X7929682Y-13427436D01*
X7929682Y-13427436D02*
X7920158Y-13436960D01*
X7920158Y-13436960D02*
X7901110Y-13446484D01*
X7901110Y-13446484D02*
X7882062Y-13446484D01*
X7882062Y-13446484D02*
X7863015Y-13436960D01*
X7863015Y-13436960D02*
X7853491Y-13427436D01*
X7853491Y-13427436D02*
X7843967Y-13408388D01*
X7843967Y-13408388D02*
X7834443Y-13370293D01*
X7834443Y-13370293D02*
X7834443Y-13322674D01*
X7834443Y-13322674D02*
X7843967Y-13284579D01*
X7843967Y-13284579D02*
X7853491Y-13265531D01*
X7853491Y-13265531D02*
X7863015Y-13256008D01*
X7863015Y-13256008D02*
X7882062Y-13246484D01*
X8072539Y-13246484D02*
X8091586Y-13246484D01*
X8091586Y-13246484D02*
X8110634Y-13256008D01*
X8110634Y-13256008D02*
X8120158Y-13265531D01*
X8120158Y-13265531D02*
X8129682Y-13284579D01*
X8129682Y-13284579D02*
X8139205Y-13322674D01*
X8139205Y-13322674D02*
X8139205Y-13370293D01*
X8139205Y-13370293D02*
X8129682Y-13408388D01*
X8129682Y-13408388D02*
X8120158Y-13427436D01*
X8120158Y-13427436D02*
X8110634Y-13436960D01*
X8110634Y-13436960D02*
X8091586Y-13446484D01*
X8091586Y-13446484D02*
X8072539Y-13446484D01*
X8072539Y-13446484D02*
X8053491Y-13436960D01*
X8053491Y-13436960D02*
X8043967Y-13427436D01*
X8043967Y-13427436D02*
X8034443Y-13408388D01*
X8034443Y-13408388D02*
X8024920Y-13370293D01*
X8024920Y-13370293D02*
X8024920Y-13322674D01*
X8024920Y-13322674D02*
X8034443Y-13284579D01*
X8034443Y-13284579D02*
X8043967Y-13265531D01*
X8043967Y-13265531D02*
X8053491Y-13256008D01*
X8053491Y-13256008D02*
X8072539Y-13246484D01*
X8224920Y-13446484D02*
X8224920Y-13313150D01*
X8224920Y-13332198D02*
X8234443Y-13322674D01*
X8234443Y-13322674D02*
X8253491Y-13313150D01*
X8253491Y-13313150D02*
X8282063Y-13313150D01*
X8282063Y-13313150D02*
X8301110Y-13322674D01*
X8301110Y-13322674D02*
X8310634Y-13341722D01*
X8310634Y-13341722D02*
X8310634Y-13446484D01*
X8310634Y-13341722D02*
X8320158Y-13322674D01*
X8320158Y-13322674D02*
X8339205Y-13313150D01*
X8339205Y-13313150D02*
X8367777Y-13313150D01*
X8367777Y-13313150D02*
X8386824Y-13322674D01*
X8386824Y-13322674D02*
X8396348Y-13341722D01*
X8396348Y-13341722D02*
X8396348Y-13446484D01*
X8491586Y-13446484D02*
X8491586Y-13313150D01*
X8491586Y-13332198D02*
X8501110Y-13322674D01*
X8501110Y-13322674D02*
X8520158Y-13313150D01*
X8520158Y-13313150D02*
X8548729Y-13313150D01*
X8548729Y-13313150D02*
X8567777Y-13322674D01*
X8567777Y-13322674D02*
X8577301Y-13341722D01*
X8577301Y-13341722D02*
X8577301Y-13446484D01*
X8577301Y-13341722D02*
X8586825Y-13322674D01*
X8586825Y-13322674D02*
X8605872Y-13313150D01*
X8605872Y-13313150D02*
X8634444Y-13313150D01*
X8634444Y-13313150D02*
X8653491Y-13322674D01*
X8653491Y-13322674D02*
X8663015Y-13341722D01*
X8663015Y-13341722D02*
X8663015Y-13446484D01*
X9053491Y-13236960D02*
X8882063Y-13494103D01*
X9310634Y-13246484D02*
X9329682Y-13246484D01*
X9329682Y-13246484D02*
X9348729Y-13256008D01*
X9348729Y-13256008D02*
X9358253Y-13265531D01*
X9358253Y-13265531D02*
X9367777Y-13284579D01*
X9367777Y-13284579D02*
X9377301Y-13322674D01*
X9377301Y-13322674D02*
X9377301Y-13370293D01*
X9377301Y-13370293D02*
X9367777Y-13408388D01*
X9367777Y-13408388D02*
X9358253Y-13427436D01*
X9358253Y-13427436D02*
X9348729Y-13436960D01*
X9348729Y-13436960D02*
X9329682Y-13446484D01*
X9329682Y-13446484D02*
X9310634Y-13446484D01*
X9310634Y-13446484D02*
X9291587Y-13436960D01*
X9291587Y-13436960D02*
X9282063Y-13427436D01*
X9282063Y-13427436D02*
X9272539Y-13408388D01*
X9272539Y-13408388D02*
X9263015Y-13370293D01*
X9263015Y-13370293D02*
X9263015Y-13322674D01*
X9263015Y-13322674D02*
X9272539Y-13284579D01*
X9272539Y-13284579D02*
X9282063Y-13265531D01*
X9282063Y-13265531D02*
X9291587Y-13256008D01*
X9291587Y-13256008D02*
X9310634Y-13246484D01*
X9463015Y-13427436D02*
X9472539Y-13436960D01*
X9472539Y-13436960D02*
X9463015Y-13446484D01*
X9463015Y-13446484D02*
X9453491Y-13436960D01*
X9453491Y-13436960D02*
X9463015Y-13427436D01*
X9463015Y-13427436D02*
X9463015Y-13446484D01*
X9596348Y-13246484D02*
X9615396Y-13246484D01*
X9615396Y-13246484D02*
X9634444Y-13256008D01*
X9634444Y-13256008D02*
X9643968Y-13265531D01*
X9643968Y-13265531D02*
X9653491Y-13284579D01*
X9653491Y-13284579D02*
X9663015Y-13322674D01*
X9663015Y-13322674D02*
X9663015Y-13370293D01*
X9663015Y-13370293D02*
X9653491Y-13408388D01*
X9653491Y-13408388D02*
X9643968Y-13427436D01*
X9643968Y-13427436D02*
X9634444Y-13436960D01*
X9634444Y-13436960D02*
X9615396Y-13446484D01*
X9615396Y-13446484D02*
X9596348Y-13446484D01*
X9596348Y-13446484D02*
X9577301Y-13436960D01*
X9577301Y-13436960D02*
X9567777Y-13427436D01*
X9567777Y-13427436D02*
X9558253Y-13408388D01*
X9558253Y-13408388D02*
X9548729Y-13370293D01*
X9548729Y-13370293D02*
X9548729Y-13322674D01*
X9548729Y-13322674D02*
X9558253Y-13284579D01*
X9558253Y-13284579D02*
X9567777Y-13265531D01*
X9567777Y-13265531D02*
X9577301Y-13256008D01*
X9577301Y-13256008D02*
X9596348Y-13246484D01*
X9834444Y-13313150D02*
X9834444Y-13446484D01*
X9786825Y-13236960D02*
X9739206Y-13379817D01*
X9739206Y-13379817D02*
X9863015Y-13379817D01*
X9920158Y-13246484D02*
X10043968Y-13246484D01*
X10043968Y-13246484D02*
X9977301Y-13322674D01*
X9977301Y-13322674D02*
X10005872Y-13322674D01*
X10005872Y-13322674D02*
X10024920Y-13332198D01*
X10024920Y-13332198D02*
X10034444Y-13341722D01*
X10034444Y-13341722D02*
X10043968Y-13360769D01*
X10043968Y-13360769D02*
X10043968Y-13408388D01*
X10043968Y-13408388D02*
X10034444Y-13427436D01*
X10034444Y-13427436D02*
X10024920Y-13436960D01*
X10024920Y-13436960D02*
X10005872Y-13446484D01*
X10005872Y-13446484D02*
X9948729Y-13446484D01*
X9948729Y-13446484D02*
X9929682Y-13436960D01*
X9929682Y-13436960D02*
X9920158Y-13427436D01*
X10110634Y-13246484D02*
X10234444Y-13246484D01*
X10234444Y-13246484D02*
X10167777Y-13322674D01*
X10167777Y-13322674D02*
X10196349Y-13322674D01*
X10196349Y-13322674D02*
X10215396Y-13332198D01*
X10215396Y-13332198D02*
X10224920Y-13341722D01*
X10224920Y-13341722D02*
X10234444Y-13360769D01*
X10234444Y-13360769D02*
X10234444Y-13408388D01*
X10234444Y-13408388D02*
X10224920Y-13427436D01*
X10224920Y-13427436D02*
X10215396Y-13436960D01*
X10215396Y-13436960D02*
X10196349Y-13446484D01*
X10196349Y-13446484D02*
X10139206Y-13446484D01*
X10139206Y-13446484D02*
X10120158Y-13436960D01*
X10120158Y-13436960D02*
X10110634Y-13427436D01*
X10310634Y-13246484D02*
X10310634Y-13284579D01*
X10386825Y-13246484D02*
X10386825Y-13284579D01*
X10682063Y-13522674D02*
X10672539Y-13513150D01*
X10672539Y-13513150D02*
X10653491Y-13484579D01*
X10653491Y-13484579D02*
X10643968Y-13465531D01*
X10643968Y-13465531D02*
X10634444Y-13436960D01*
X10634444Y-13436960D02*
X10624920Y-13389341D01*
X10624920Y-13389341D02*
X10624920Y-13351246D01*
X10624920Y-13351246D02*
X10634444Y-13303627D01*
X10634444Y-13303627D02*
X10643968Y-13275055D01*
X10643968Y-13275055D02*
X10653491Y-13256008D01*
X10653491Y-13256008D02*
X10672539Y-13227436D01*
X10672539Y-13227436D02*
X10682063Y-13217912D01*
X10767777Y-13446484D02*
X10805872Y-13446484D01*
X10805872Y-13446484D02*
X10824920Y-13436960D01*
X10824920Y-13436960D02*
X10834444Y-13427436D01*
X10834444Y-13427436D02*
X10853491Y-13398865D01*
X10853491Y-13398865D02*
X10863015Y-13360769D01*
X10863015Y-13360769D02*
X10863015Y-13284579D01*
X10863015Y-13284579D02*
X10853491Y-13265531D01*
X10853491Y-13265531D02*
X10843968Y-13256008D01*
X10843968Y-13256008D02*
X10824920Y-13246484D01*
X10824920Y-13246484D02*
X10786825Y-13246484D01*
X10786825Y-13246484D02*
X10767777Y-13256008D01*
X10767777Y-13256008D02*
X10758253Y-13265531D01*
X10758253Y-13265531D02*
X10748730Y-13284579D01*
X10748730Y-13284579D02*
X10748730Y-13332198D01*
X10748730Y-13332198D02*
X10758253Y-13351246D01*
X10758253Y-13351246D02*
X10767777Y-13360769D01*
X10767777Y-13360769D02*
X10786825Y-13370293D01*
X10786825Y-13370293D02*
X10824920Y-13370293D01*
X10824920Y-13370293D02*
X10843968Y-13360769D01*
X10843968Y-13360769D02*
X10853491Y-13351246D01*
X10853491Y-13351246D02*
X10863015Y-13332198D01*
X11101111Y-13446484D02*
X11101111Y-13246484D01*
X11186825Y-13446484D02*
X11186825Y-13341722D01*
X11186825Y-13341722D02*
X11177301Y-13322674D01*
X11177301Y-13322674D02*
X11158253Y-13313150D01*
X11158253Y-13313150D02*
X11129682Y-13313150D01*
X11129682Y-13313150D02*
X11110634Y-13322674D01*
X11110634Y-13322674D02*
X11101111Y-13332198D01*
X11310634Y-13446484D02*
X11291587Y-13436960D01*
X11291587Y-13436960D02*
X11282063Y-13427436D01*
X11282063Y-13427436D02*
X11272539Y-13408388D01*
X11272539Y-13408388D02*
X11272539Y-13351246D01*
X11272539Y-13351246D02*
X11282063Y-13332198D01*
X11282063Y-13332198D02*
X11291587Y-13322674D01*
X11291587Y-13322674D02*
X11310634Y-13313150D01*
X11310634Y-13313150D02*
X11339206Y-13313150D01*
X11339206Y-13313150D02*
X11358253Y-13322674D01*
X11358253Y-13322674D02*
X11367777Y-13332198D01*
X11367777Y-13332198D02*
X11377301Y-13351246D01*
X11377301Y-13351246D02*
X11377301Y-13408388D01*
X11377301Y-13408388D02*
X11367777Y-13427436D01*
X11367777Y-13427436D02*
X11358253Y-13436960D01*
X11358253Y-13436960D02*
X11339206Y-13446484D01*
X11339206Y-13446484D02*
X11310634Y-13446484D01*
X11491587Y-13446484D02*
X11472539Y-13436960D01*
X11472539Y-13436960D02*
X11463015Y-13417912D01*
X11463015Y-13417912D02*
X11463015Y-13246484D01*
X11643968Y-13436960D02*
X11624920Y-13446484D01*
X11624920Y-13446484D02*
X11586825Y-13446484D01*
X11586825Y-13446484D02*
X11567777Y-13436960D01*
X11567777Y-13436960D02*
X11558253Y-13417912D01*
X11558253Y-13417912D02*
X11558253Y-13341722D01*
X11558253Y-13341722D02*
X11567777Y-13322674D01*
X11567777Y-13322674D02*
X11586825Y-13313150D01*
X11586825Y-13313150D02*
X11624920Y-13313150D01*
X11624920Y-13313150D02*
X11643968Y-13322674D01*
X11643968Y-13322674D02*
X11653491Y-13341722D01*
X11653491Y-13341722D02*
X11653491Y-13360769D01*
X11653491Y-13360769D02*
X11558253Y-13379817D01*
X11729682Y-13436960D02*
X11748730Y-13446484D01*
X11748730Y-13446484D02*
X11786825Y-13446484D01*
X11786825Y-13446484D02*
X11805872Y-13436960D01*
X11805872Y-13436960D02*
X11815396Y-13417912D01*
X11815396Y-13417912D02*
X11815396Y-13408388D01*
X11815396Y-13408388D02*
X11805872Y-13389341D01*
X11805872Y-13389341D02*
X11786825Y-13379817D01*
X11786825Y-13379817D02*
X11758253Y-13379817D01*
X11758253Y-13379817D02*
X11739206Y-13370293D01*
X11739206Y-13370293D02*
X11729682Y-13351246D01*
X11729682Y-13351246D02*
X11729682Y-13341722D01*
X11729682Y-13341722D02*
X11739206Y-13322674D01*
X11739206Y-13322674D02*
X11758253Y-13313150D01*
X11758253Y-13313150D02*
X11786825Y-13313150D01*
X11786825Y-13313150D02*
X11805872Y-13322674D01*
X11882063Y-13522674D02*
X11891587Y-13513150D01*
X11891587Y-13513150D02*
X11910634Y-13484579D01*
X11910634Y-13484579D02*
X11920158Y-13465531D01*
X11920158Y-13465531D02*
X11929682Y-13436960D01*
X11929682Y-13436960D02*
X11939206Y-13389341D01*
X11939206Y-13389341D02*
X11939206Y-13351246D01*
X11939206Y-13351246D02*
X11929682Y-13303627D01*
X11929682Y-13303627D02*
X11920158Y-13275055D01*
X11920158Y-13275055D02*
X11910634Y-13256008D01*
X11910634Y-13256008D02*
X11891587Y-13227436D01*
X11891587Y-13227436D02*
X11882063Y-13217912D01*
D13*
X7047000Y-13559000D02*
X7047000Y-13679000D01*
X6987000Y-13619000D02*
X7107000Y-13619000D01*
D11*
X7472539Y-13710484D02*
X7358253Y-13710484D01*
X7415396Y-13710484D02*
X7415396Y-13510484D01*
X7415396Y-13510484D02*
X7396348Y-13539055D01*
X7396348Y-13539055D02*
X7377301Y-13558103D01*
X7377301Y-13558103D02*
X7358253Y-13567627D01*
X7558253Y-13691436D02*
X7567777Y-13700960D01*
X7567777Y-13700960D02*
X7558253Y-13710484D01*
X7558253Y-13710484D02*
X7548729Y-13700960D01*
X7548729Y-13700960D02*
X7558253Y-13691436D01*
X7558253Y-13691436D02*
X7558253Y-13710484D01*
X7643967Y-13529531D02*
X7653491Y-13520008D01*
X7653491Y-13520008D02*
X7672539Y-13510484D01*
X7672539Y-13510484D02*
X7720158Y-13510484D01*
X7720158Y-13510484D02*
X7739205Y-13520008D01*
X7739205Y-13520008D02*
X7748729Y-13529531D01*
X7748729Y-13529531D02*
X7758253Y-13548579D01*
X7758253Y-13548579D02*
X7758253Y-13567627D01*
X7758253Y-13567627D02*
X7748729Y-13596198D01*
X7748729Y-13596198D02*
X7634443Y-13710484D01*
X7634443Y-13710484D02*
X7758253Y-13710484D01*
X7882062Y-13510484D02*
X7901110Y-13510484D01*
X7901110Y-13510484D02*
X7920158Y-13520008D01*
X7920158Y-13520008D02*
X7929682Y-13529531D01*
X7929682Y-13529531D02*
X7939205Y-13548579D01*
X7939205Y-13548579D02*
X7948729Y-13586674D01*
X7948729Y-13586674D02*
X7948729Y-13634293D01*
X7948729Y-13634293D02*
X7939205Y-13672388D01*
X7939205Y-13672388D02*
X7929682Y-13691436D01*
X7929682Y-13691436D02*
X7920158Y-13700960D01*
X7920158Y-13700960D02*
X7901110Y-13710484D01*
X7901110Y-13710484D02*
X7882062Y-13710484D01*
X7882062Y-13710484D02*
X7863015Y-13700960D01*
X7863015Y-13700960D02*
X7853491Y-13691436D01*
X7853491Y-13691436D02*
X7843967Y-13672388D01*
X7843967Y-13672388D02*
X7834443Y-13634293D01*
X7834443Y-13634293D02*
X7834443Y-13586674D01*
X7834443Y-13586674D02*
X7843967Y-13548579D01*
X7843967Y-13548579D02*
X7853491Y-13529531D01*
X7853491Y-13529531D02*
X7863015Y-13520008D01*
X7863015Y-13520008D02*
X7882062Y-13510484D01*
X8072539Y-13510484D02*
X8091586Y-13510484D01*
X8091586Y-13510484D02*
X8110634Y-13520008D01*
X8110634Y-13520008D02*
X8120158Y-13529531D01*
X8120158Y-13529531D02*
X8129682Y-13548579D01*
X8129682Y-13548579D02*
X8139205Y-13586674D01*
X8139205Y-13586674D02*
X8139205Y-13634293D01*
X8139205Y-13634293D02*
X8129682Y-13672388D01*
X8129682Y-13672388D02*
X8120158Y-13691436D01*
X8120158Y-13691436D02*
X8110634Y-13700960D01*
X8110634Y-13700960D02*
X8091586Y-13710484D01*
X8091586Y-13710484D02*
X8072539Y-13710484D01*
X8072539Y-13710484D02*
X8053491Y-13700960D01*
X8053491Y-13700960D02*
X8043967Y-13691436D01*
X8043967Y-13691436D02*
X8034443Y-13672388D01*
X8034443Y-13672388D02*
X8024920Y-13634293D01*
X8024920Y-13634293D02*
X8024920Y-13586674D01*
X8024920Y-13586674D02*
X8034443Y-13548579D01*
X8034443Y-13548579D02*
X8043967Y-13529531D01*
X8043967Y-13529531D02*
X8053491Y-13520008D01*
X8053491Y-13520008D02*
X8072539Y-13510484D01*
X8224920Y-13710484D02*
X8224920Y-13577150D01*
X8224920Y-13596198D02*
X8234443Y-13586674D01*
X8234443Y-13586674D02*
X8253491Y-13577150D01*
X8253491Y-13577150D02*
X8282063Y-13577150D01*
X8282063Y-13577150D02*
X8301110Y-13586674D01*
X8301110Y-13586674D02*
X8310634Y-13605722D01*
X8310634Y-13605722D02*
X8310634Y-13710484D01*
X8310634Y-13605722D02*
X8320158Y-13586674D01*
X8320158Y-13586674D02*
X8339205Y-13577150D01*
X8339205Y-13577150D02*
X8367777Y-13577150D01*
X8367777Y-13577150D02*
X8386824Y-13586674D01*
X8386824Y-13586674D02*
X8396348Y-13605722D01*
X8396348Y-13605722D02*
X8396348Y-13710484D01*
X8491586Y-13710484D02*
X8491586Y-13577150D01*
X8491586Y-13596198D02*
X8501110Y-13586674D01*
X8501110Y-13586674D02*
X8520158Y-13577150D01*
X8520158Y-13577150D02*
X8548729Y-13577150D01*
X8548729Y-13577150D02*
X8567777Y-13586674D01*
X8567777Y-13586674D02*
X8577301Y-13605722D01*
X8577301Y-13605722D02*
X8577301Y-13710484D01*
X8577301Y-13605722D02*
X8586825Y-13586674D01*
X8586825Y-13586674D02*
X8605872Y-13577150D01*
X8605872Y-13577150D02*
X8634444Y-13577150D01*
X8634444Y-13577150D02*
X8653491Y-13586674D01*
X8653491Y-13586674D02*
X8663015Y-13605722D01*
X8663015Y-13605722D02*
X8663015Y-13710484D01*
X9053491Y-13500960D02*
X8882063Y-13758103D01*
X9310634Y-13510484D02*
X9329682Y-13510484D01*
X9329682Y-13510484D02*
X9348729Y-13520008D01*
X9348729Y-13520008D02*
X9358253Y-13529531D01*
X9358253Y-13529531D02*
X9367777Y-13548579D01*
X9367777Y-13548579D02*
X9377301Y-13586674D01*
X9377301Y-13586674D02*
X9377301Y-13634293D01*
X9377301Y-13634293D02*
X9367777Y-13672388D01*
X9367777Y-13672388D02*
X9358253Y-13691436D01*
X9358253Y-13691436D02*
X9348729Y-13700960D01*
X9348729Y-13700960D02*
X9329682Y-13710484D01*
X9329682Y-13710484D02*
X9310634Y-13710484D01*
X9310634Y-13710484D02*
X9291587Y-13700960D01*
X9291587Y-13700960D02*
X9282063Y-13691436D01*
X9282063Y-13691436D02*
X9272539Y-13672388D01*
X9272539Y-13672388D02*
X9263015Y-13634293D01*
X9263015Y-13634293D02*
X9263015Y-13586674D01*
X9263015Y-13586674D02*
X9272539Y-13548579D01*
X9272539Y-13548579D02*
X9282063Y-13529531D01*
X9282063Y-13529531D02*
X9291587Y-13520008D01*
X9291587Y-13520008D02*
X9310634Y-13510484D01*
X9463015Y-13691436D02*
X9472539Y-13700960D01*
X9472539Y-13700960D02*
X9463015Y-13710484D01*
X9463015Y-13710484D02*
X9453491Y-13700960D01*
X9453491Y-13700960D02*
X9463015Y-13691436D01*
X9463015Y-13691436D02*
X9463015Y-13710484D01*
X9596348Y-13510484D02*
X9615396Y-13510484D01*
X9615396Y-13510484D02*
X9634444Y-13520008D01*
X9634444Y-13520008D02*
X9643968Y-13529531D01*
X9643968Y-13529531D02*
X9653491Y-13548579D01*
X9653491Y-13548579D02*
X9663015Y-13586674D01*
X9663015Y-13586674D02*
X9663015Y-13634293D01*
X9663015Y-13634293D02*
X9653491Y-13672388D01*
X9653491Y-13672388D02*
X9643968Y-13691436D01*
X9643968Y-13691436D02*
X9634444Y-13700960D01*
X9634444Y-13700960D02*
X9615396Y-13710484D01*
X9615396Y-13710484D02*
X9596348Y-13710484D01*
X9596348Y-13710484D02*
X9577301Y-13700960D01*
X9577301Y-13700960D02*
X9567777Y-13691436D01*
X9567777Y-13691436D02*
X9558253Y-13672388D01*
X9558253Y-13672388D02*
X9548729Y-13634293D01*
X9548729Y-13634293D02*
X9548729Y-13586674D01*
X9548729Y-13586674D02*
X9558253Y-13548579D01*
X9558253Y-13548579D02*
X9567777Y-13529531D01*
X9567777Y-13529531D02*
X9577301Y-13520008D01*
X9577301Y-13520008D02*
X9596348Y-13510484D01*
X9834444Y-13577150D02*
X9834444Y-13710484D01*
X9786825Y-13500960D02*
X9739206Y-13643817D01*
X9739206Y-13643817D02*
X9863015Y-13643817D01*
X9920158Y-13510484D02*
X10053491Y-13510484D01*
X10053491Y-13510484D02*
X9967777Y-13710484D01*
X10120158Y-13529531D02*
X10129682Y-13520008D01*
X10129682Y-13520008D02*
X10148729Y-13510484D01*
X10148729Y-13510484D02*
X10196349Y-13510484D01*
X10196349Y-13510484D02*
X10215396Y-13520008D01*
X10215396Y-13520008D02*
X10224920Y-13529531D01*
X10224920Y-13529531D02*
X10234444Y-13548579D01*
X10234444Y-13548579D02*
X10234444Y-13567627D01*
X10234444Y-13567627D02*
X10224920Y-13596198D01*
X10224920Y-13596198D02*
X10110634Y-13710484D01*
X10110634Y-13710484D02*
X10234444Y-13710484D01*
X10310634Y-13510484D02*
X10310634Y-13548579D01*
X10386825Y-13510484D02*
X10386825Y-13548579D01*
X10682063Y-13786674D02*
X10672539Y-13777150D01*
X10672539Y-13777150D02*
X10653491Y-13748579D01*
X10653491Y-13748579D02*
X10643968Y-13729531D01*
X10643968Y-13729531D02*
X10634444Y-13700960D01*
X10634444Y-13700960D02*
X10624920Y-13653341D01*
X10624920Y-13653341D02*
X10624920Y-13615246D01*
X10624920Y-13615246D02*
X10634444Y-13567627D01*
X10634444Y-13567627D02*
X10643968Y-13539055D01*
X10643968Y-13539055D02*
X10653491Y-13520008D01*
X10653491Y-13520008D02*
X10672539Y-13491436D01*
X10672539Y-13491436D02*
X10682063Y-13481912D01*
X10863015Y-13710484D02*
X10748730Y-13710484D01*
X10805872Y-13710484D02*
X10805872Y-13510484D01*
X10805872Y-13510484D02*
X10786825Y-13539055D01*
X10786825Y-13539055D02*
X10767777Y-13558103D01*
X10767777Y-13558103D02*
X10748730Y-13567627D01*
X10939206Y-13529531D02*
X10948730Y-13520008D01*
X10948730Y-13520008D02*
X10967777Y-13510484D01*
X10967777Y-13510484D02*
X11015396Y-13510484D01*
X11015396Y-13510484D02*
X11034444Y-13520008D01*
X11034444Y-13520008D02*
X11043968Y-13529531D01*
X11043968Y-13529531D02*
X11053491Y-13548579D01*
X11053491Y-13548579D02*
X11053491Y-13567627D01*
X11053491Y-13567627D02*
X11043968Y-13596198D01*
X11043968Y-13596198D02*
X10929682Y-13710484D01*
X10929682Y-13710484D02*
X11053491Y-13710484D01*
X11291587Y-13710484D02*
X11291587Y-13510484D01*
X11377301Y-13710484D02*
X11377301Y-13605722D01*
X11377301Y-13605722D02*
X11367777Y-13586674D01*
X11367777Y-13586674D02*
X11348730Y-13577150D01*
X11348730Y-13577150D02*
X11320158Y-13577150D01*
X11320158Y-13577150D02*
X11301110Y-13586674D01*
X11301110Y-13586674D02*
X11291587Y-13596198D01*
X11501110Y-13710484D02*
X11482063Y-13700960D01*
X11482063Y-13700960D02*
X11472539Y-13691436D01*
X11472539Y-13691436D02*
X11463015Y-13672388D01*
X11463015Y-13672388D02*
X11463015Y-13615246D01*
X11463015Y-13615246D02*
X11472539Y-13596198D01*
X11472539Y-13596198D02*
X11482063Y-13586674D01*
X11482063Y-13586674D02*
X11501110Y-13577150D01*
X11501110Y-13577150D02*
X11529682Y-13577150D01*
X11529682Y-13577150D02*
X11548730Y-13586674D01*
X11548730Y-13586674D02*
X11558253Y-13596198D01*
X11558253Y-13596198D02*
X11567777Y-13615246D01*
X11567777Y-13615246D02*
X11567777Y-13672388D01*
X11567777Y-13672388D02*
X11558253Y-13691436D01*
X11558253Y-13691436D02*
X11548730Y-13700960D01*
X11548730Y-13700960D02*
X11529682Y-13710484D01*
X11529682Y-13710484D02*
X11501110Y-13710484D01*
X11682063Y-13710484D02*
X11663015Y-13700960D01*
X11663015Y-13700960D02*
X11653491Y-13681912D01*
X11653491Y-13681912D02*
X11653491Y-13510484D01*
X11834444Y-13700960D02*
X11815396Y-13710484D01*
X11815396Y-13710484D02*
X11777301Y-13710484D01*
X11777301Y-13710484D02*
X11758253Y-13700960D01*
X11758253Y-13700960D02*
X11748730Y-13681912D01*
X11748730Y-13681912D02*
X11748730Y-13605722D01*
X11748730Y-13605722D02*
X11758253Y-13586674D01*
X11758253Y-13586674D02*
X11777301Y-13577150D01*
X11777301Y-13577150D02*
X11815396Y-13577150D01*
X11815396Y-13577150D02*
X11834444Y-13586674D01*
X11834444Y-13586674D02*
X11843968Y-13605722D01*
X11843968Y-13605722D02*
X11843968Y-13624769D01*
X11843968Y-13624769D02*
X11748730Y-13643817D01*
X11920158Y-13700960D02*
X11939206Y-13710484D01*
X11939206Y-13710484D02*
X11977301Y-13710484D01*
X11977301Y-13710484D02*
X11996349Y-13700960D01*
X11996349Y-13700960D02*
X12005872Y-13681912D01*
X12005872Y-13681912D02*
X12005872Y-13672388D01*
X12005872Y-13672388D02*
X11996349Y-13653341D01*
X11996349Y-13653341D02*
X11977301Y-13643817D01*
X11977301Y-13643817D02*
X11948730Y-13643817D01*
X11948730Y-13643817D02*
X11929682Y-13634293D01*
X11929682Y-13634293D02*
X11920158Y-13615246D01*
X11920158Y-13615246D02*
X11920158Y-13605722D01*
X11920158Y-13605722D02*
X11929682Y-13586674D01*
X11929682Y-13586674D02*
X11948730Y-13577150D01*
X11948730Y-13577150D02*
X11977301Y-13577150D01*
X11977301Y-13577150D02*
X11996349Y-13586674D01*
X12072539Y-13786674D02*
X12082063Y-13777150D01*
X12082063Y-13777150D02*
X12101111Y-13748579D01*
X12101111Y-13748579D02*
X12110634Y-13729531D01*
X12110634Y-13729531D02*
X12120158Y-13700960D01*
X12120158Y-13700960D02*
X12129682Y-13653341D01*
X12129682Y-13653341D02*
X12129682Y-13615246D01*
X12129682Y-13615246D02*
X12120158Y-13567627D01*
X12120158Y-13567627D02*
X12110634Y-13539055D01*
X12110634Y-13539055D02*
X12101111Y-13520008D01*
X12101111Y-13520008D02*
X12082063Y-13491436D01*
X12082063Y-13491436D02*
X12072539Y-13481912D01*
D14*
X7085033Y-13936033D02*
X7085033Y-13829966D01*
X6978966Y-13829966D01*
X6978966Y-13936033D01*
X7085033Y-13936033D01*
D11*
X7472539Y-13974484D02*
X7358253Y-13974484D01*
X7415396Y-13974484D02*
X7415396Y-13774484D01*
X7415396Y-13774484D02*
X7396348Y-13803055D01*
X7396348Y-13803055D02*
X7377301Y-13822103D01*
X7377301Y-13822103D02*
X7358253Y-13831627D01*
X7558253Y-13955436D02*
X7567777Y-13964960D01*
X7567777Y-13964960D02*
X7558253Y-13974484D01*
X7558253Y-13974484D02*
X7548729Y-13964960D01*
X7548729Y-13964960D02*
X7558253Y-13955436D01*
X7558253Y-13955436D02*
X7558253Y-13974484D01*
X7748729Y-13774484D02*
X7653491Y-13774484D01*
X7653491Y-13774484D02*
X7643967Y-13869722D01*
X7643967Y-13869722D02*
X7653491Y-13860198D01*
X7653491Y-13860198D02*
X7672539Y-13850674D01*
X7672539Y-13850674D02*
X7720158Y-13850674D01*
X7720158Y-13850674D02*
X7739205Y-13860198D01*
X7739205Y-13860198D02*
X7748729Y-13869722D01*
X7748729Y-13869722D02*
X7758253Y-13888769D01*
X7758253Y-13888769D02*
X7758253Y-13936388D01*
X7758253Y-13936388D02*
X7748729Y-13955436D01*
X7748729Y-13955436D02*
X7739205Y-13964960D01*
X7739205Y-13964960D02*
X7720158Y-13974484D01*
X7720158Y-13974484D02*
X7672539Y-13974484D01*
X7672539Y-13974484D02*
X7653491Y-13964960D01*
X7653491Y-13964960D02*
X7643967Y-13955436D01*
X7882062Y-13774484D02*
X7901110Y-13774484D01*
X7901110Y-13774484D02*
X7920158Y-13784008D01*
X7920158Y-13784008D02*
X7929682Y-13793531D01*
X7929682Y-13793531D02*
X7939205Y-13812579D01*
X7939205Y-13812579D02*
X7948729Y-13850674D01*
X7948729Y-13850674D02*
X7948729Y-13898293D01*
X7948729Y-13898293D02*
X7939205Y-13936388D01*
X7939205Y-13936388D02*
X7929682Y-13955436D01*
X7929682Y-13955436D02*
X7920158Y-13964960D01*
X7920158Y-13964960D02*
X7901110Y-13974484D01*
X7901110Y-13974484D02*
X7882062Y-13974484D01*
X7882062Y-13974484D02*
X7863015Y-13964960D01*
X7863015Y-13964960D02*
X7853491Y-13955436D01*
X7853491Y-13955436D02*
X7843967Y-13936388D01*
X7843967Y-13936388D02*
X7834443Y-13898293D01*
X7834443Y-13898293D02*
X7834443Y-13850674D01*
X7834443Y-13850674D02*
X7843967Y-13812579D01*
X7843967Y-13812579D02*
X7853491Y-13793531D01*
X7853491Y-13793531D02*
X7863015Y-13784008D01*
X7863015Y-13784008D02*
X7882062Y-13774484D01*
X8072539Y-13774484D02*
X8091586Y-13774484D01*
X8091586Y-13774484D02*
X8110634Y-13784008D01*
X8110634Y-13784008D02*
X8120158Y-13793531D01*
X8120158Y-13793531D02*
X8129682Y-13812579D01*
X8129682Y-13812579D02*
X8139205Y-13850674D01*
X8139205Y-13850674D02*
X8139205Y-13898293D01*
X8139205Y-13898293D02*
X8129682Y-13936388D01*
X8129682Y-13936388D02*
X8120158Y-13955436D01*
X8120158Y-13955436D02*
X8110634Y-13964960D01*
X8110634Y-13964960D02*
X8091586Y-13974484D01*
X8091586Y-13974484D02*
X8072539Y-13974484D01*
X8072539Y-13974484D02*
X8053491Y-13964960D01*
X8053491Y-13964960D02*
X8043967Y-13955436D01*
X8043967Y-13955436D02*
X8034443Y-13936388D01*
X8034443Y-13936388D02*
X8024920Y-13898293D01*
X8024920Y-13898293D02*
X8024920Y-13850674D01*
X8024920Y-13850674D02*
X8034443Y-13812579D01*
X8034443Y-13812579D02*
X8043967Y-13793531D01*
X8043967Y-13793531D02*
X8053491Y-13784008D01*
X8053491Y-13784008D02*
X8072539Y-13774484D01*
X8224920Y-13974484D02*
X8224920Y-13841150D01*
X8224920Y-13860198D02*
X8234443Y-13850674D01*
X8234443Y-13850674D02*
X8253491Y-13841150D01*
X8253491Y-13841150D02*
X8282063Y-13841150D01*
X8282063Y-13841150D02*
X8301110Y-13850674D01*
X8301110Y-13850674D02*
X8310634Y-13869722D01*
X8310634Y-13869722D02*
X8310634Y-13974484D01*
X8310634Y-13869722D02*
X8320158Y-13850674D01*
X8320158Y-13850674D02*
X8339205Y-13841150D01*
X8339205Y-13841150D02*
X8367777Y-13841150D01*
X8367777Y-13841150D02*
X8386824Y-13850674D01*
X8386824Y-13850674D02*
X8396348Y-13869722D01*
X8396348Y-13869722D02*
X8396348Y-13974484D01*
X8491586Y-13974484D02*
X8491586Y-13841150D01*
X8491586Y-13860198D02*
X8501110Y-13850674D01*
X8501110Y-13850674D02*
X8520158Y-13841150D01*
X8520158Y-13841150D02*
X8548729Y-13841150D01*
X8548729Y-13841150D02*
X8567777Y-13850674D01*
X8567777Y-13850674D02*
X8577301Y-13869722D01*
X8577301Y-13869722D02*
X8577301Y-13974484D01*
X8577301Y-13869722D02*
X8586825Y-13850674D01*
X8586825Y-13850674D02*
X8605872Y-13841150D01*
X8605872Y-13841150D02*
X8634444Y-13841150D01*
X8634444Y-13841150D02*
X8653491Y-13850674D01*
X8653491Y-13850674D02*
X8663015Y-13869722D01*
X8663015Y-13869722D02*
X8663015Y-13974484D01*
X9053491Y-13764960D02*
X8882063Y-14022103D01*
X9310634Y-13774484D02*
X9329682Y-13774484D01*
X9329682Y-13774484D02*
X9348729Y-13784008D01*
X9348729Y-13784008D02*
X9358253Y-13793531D01*
X9358253Y-13793531D02*
X9367777Y-13812579D01*
X9367777Y-13812579D02*
X9377301Y-13850674D01*
X9377301Y-13850674D02*
X9377301Y-13898293D01*
X9377301Y-13898293D02*
X9367777Y-13936388D01*
X9367777Y-13936388D02*
X9358253Y-13955436D01*
X9358253Y-13955436D02*
X9348729Y-13964960D01*
X9348729Y-13964960D02*
X9329682Y-13974484D01*
X9329682Y-13974484D02*
X9310634Y-13974484D01*
X9310634Y-13974484D02*
X9291587Y-13964960D01*
X9291587Y-13964960D02*
X9282063Y-13955436D01*
X9282063Y-13955436D02*
X9272539Y-13936388D01*
X9272539Y-13936388D02*
X9263015Y-13898293D01*
X9263015Y-13898293D02*
X9263015Y-13850674D01*
X9263015Y-13850674D02*
X9272539Y-13812579D01*
X9272539Y-13812579D02*
X9282063Y-13793531D01*
X9282063Y-13793531D02*
X9291587Y-13784008D01*
X9291587Y-13784008D02*
X9310634Y-13774484D01*
X9463015Y-13955436D02*
X9472539Y-13964960D01*
X9472539Y-13964960D02*
X9463015Y-13974484D01*
X9463015Y-13974484D02*
X9453491Y-13964960D01*
X9453491Y-13964960D02*
X9463015Y-13955436D01*
X9463015Y-13955436D02*
X9463015Y-13974484D01*
X9596348Y-13774484D02*
X9615396Y-13774484D01*
X9615396Y-13774484D02*
X9634444Y-13784008D01*
X9634444Y-13784008D02*
X9643968Y-13793531D01*
X9643968Y-13793531D02*
X9653491Y-13812579D01*
X9653491Y-13812579D02*
X9663015Y-13850674D01*
X9663015Y-13850674D02*
X9663015Y-13898293D01*
X9663015Y-13898293D02*
X9653491Y-13936388D01*
X9653491Y-13936388D02*
X9643968Y-13955436D01*
X9643968Y-13955436D02*
X9634444Y-13964960D01*
X9634444Y-13964960D02*
X9615396Y-13974484D01*
X9615396Y-13974484D02*
X9596348Y-13974484D01*
X9596348Y-13974484D02*
X9577301Y-13964960D01*
X9577301Y-13964960D02*
X9567777Y-13955436D01*
X9567777Y-13955436D02*
X9558253Y-13936388D01*
X9558253Y-13936388D02*
X9548729Y-13898293D01*
X9548729Y-13898293D02*
X9548729Y-13850674D01*
X9548729Y-13850674D02*
X9558253Y-13812579D01*
X9558253Y-13812579D02*
X9567777Y-13793531D01*
X9567777Y-13793531D02*
X9577301Y-13784008D01*
X9577301Y-13784008D02*
X9596348Y-13774484D01*
X9843968Y-13774484D02*
X9748729Y-13774484D01*
X9748729Y-13774484D02*
X9739206Y-13869722D01*
X9739206Y-13869722D02*
X9748729Y-13860198D01*
X9748729Y-13860198D02*
X9767777Y-13850674D01*
X9767777Y-13850674D02*
X9815396Y-13850674D01*
X9815396Y-13850674D02*
X9834444Y-13860198D01*
X9834444Y-13860198D02*
X9843968Y-13869722D01*
X9843968Y-13869722D02*
X9853491Y-13888769D01*
X9853491Y-13888769D02*
X9853491Y-13936388D01*
X9853491Y-13936388D02*
X9843968Y-13955436D01*
X9843968Y-13955436D02*
X9834444Y-13964960D01*
X9834444Y-13964960D02*
X9815396Y-13974484D01*
X9815396Y-13974484D02*
X9767777Y-13974484D01*
X9767777Y-13974484D02*
X9748729Y-13964960D01*
X9748729Y-13964960D02*
X9739206Y-13955436D01*
X9948729Y-13974484D02*
X9986825Y-13974484D01*
X9986825Y-13974484D02*
X10005872Y-13964960D01*
X10005872Y-13964960D02*
X10015396Y-13955436D01*
X10015396Y-13955436D02*
X10034444Y-13926865D01*
X10034444Y-13926865D02*
X10043968Y-13888769D01*
X10043968Y-13888769D02*
X10043968Y-13812579D01*
X10043968Y-13812579D02*
X10034444Y-13793531D01*
X10034444Y-13793531D02*
X10024920Y-13784008D01*
X10024920Y-13784008D02*
X10005872Y-13774484D01*
X10005872Y-13774484D02*
X9967777Y-13774484D01*
X9967777Y-13774484D02*
X9948729Y-13784008D01*
X9948729Y-13784008D02*
X9939206Y-13793531D01*
X9939206Y-13793531D02*
X9929682Y-13812579D01*
X9929682Y-13812579D02*
X9929682Y-13860198D01*
X9929682Y-13860198D02*
X9939206Y-13879246D01*
X9939206Y-13879246D02*
X9948729Y-13888769D01*
X9948729Y-13888769D02*
X9967777Y-13898293D01*
X9967777Y-13898293D02*
X10005872Y-13898293D01*
X10005872Y-13898293D02*
X10024920Y-13888769D01*
X10024920Y-13888769D02*
X10034444Y-13879246D01*
X10034444Y-13879246D02*
X10043968Y-13860198D01*
X10234444Y-13974484D02*
X10120158Y-13974484D01*
X10177301Y-13974484D02*
X10177301Y-13774484D01*
X10177301Y-13774484D02*
X10158253Y-13803055D01*
X10158253Y-13803055D02*
X10139206Y-13822103D01*
X10139206Y-13822103D02*
X10120158Y-13831627D01*
X10310634Y-13774484D02*
X10310634Y-13812579D01*
X10386825Y-13774484D02*
X10386825Y-13812579D01*
X10682063Y-14050674D02*
X10672539Y-14041150D01*
X10672539Y-14041150D02*
X10653491Y-14012579D01*
X10653491Y-14012579D02*
X10643968Y-13993531D01*
X10643968Y-13993531D02*
X10634444Y-13964960D01*
X10634444Y-13964960D02*
X10624920Y-13917341D01*
X10624920Y-13917341D02*
X10624920Y-13879246D01*
X10624920Y-13879246D02*
X10634444Y-13831627D01*
X10634444Y-13831627D02*
X10643968Y-13803055D01*
X10643968Y-13803055D02*
X10653491Y-13784008D01*
X10653491Y-13784008D02*
X10672539Y-13755436D01*
X10672539Y-13755436D02*
X10682063Y-13745912D01*
X10853491Y-13774484D02*
X10758253Y-13774484D01*
X10758253Y-13774484D02*
X10748730Y-13869722D01*
X10748730Y-13869722D02*
X10758253Y-13860198D01*
X10758253Y-13860198D02*
X10777301Y-13850674D01*
X10777301Y-13850674D02*
X10824920Y-13850674D01*
X10824920Y-13850674D02*
X10843968Y-13860198D01*
X10843968Y-13860198D02*
X10853491Y-13869722D01*
X10853491Y-13869722D02*
X10863015Y-13888769D01*
X10863015Y-13888769D02*
X10863015Y-13936388D01*
X10863015Y-13936388D02*
X10853491Y-13955436D01*
X10853491Y-13955436D02*
X10843968Y-13964960D01*
X10843968Y-13964960D02*
X10824920Y-13974484D01*
X10824920Y-13974484D02*
X10777301Y-13974484D01*
X10777301Y-13974484D02*
X10758253Y-13964960D01*
X10758253Y-13964960D02*
X10748730Y-13955436D01*
X11101111Y-13974484D02*
X11101111Y-13774484D01*
X11186825Y-13974484D02*
X11186825Y-13869722D01*
X11186825Y-13869722D02*
X11177301Y-13850674D01*
X11177301Y-13850674D02*
X11158253Y-13841150D01*
X11158253Y-13841150D02*
X11129682Y-13841150D01*
X11129682Y-13841150D02*
X11110634Y-13850674D01*
X11110634Y-13850674D02*
X11101111Y-13860198D01*
X11310634Y-13974484D02*
X11291587Y-13964960D01*
X11291587Y-13964960D02*
X11282063Y-13955436D01*
X11282063Y-13955436D02*
X11272539Y-13936388D01*
X11272539Y-13936388D02*
X11272539Y-13879246D01*
X11272539Y-13879246D02*
X11282063Y-13860198D01*
X11282063Y-13860198D02*
X11291587Y-13850674D01*
X11291587Y-13850674D02*
X11310634Y-13841150D01*
X11310634Y-13841150D02*
X11339206Y-13841150D01*
X11339206Y-13841150D02*
X11358253Y-13850674D01*
X11358253Y-13850674D02*
X11367777Y-13860198D01*
X11367777Y-13860198D02*
X11377301Y-13879246D01*
X11377301Y-13879246D02*
X11377301Y-13936388D01*
X11377301Y-13936388D02*
X11367777Y-13955436D01*
X11367777Y-13955436D02*
X11358253Y-13964960D01*
X11358253Y-13964960D02*
X11339206Y-13974484D01*
X11339206Y-13974484D02*
X11310634Y-13974484D01*
X11491587Y-13974484D02*
X11472539Y-13964960D01*
X11472539Y-13964960D02*
X11463015Y-13945912D01*
X11463015Y-13945912D02*
X11463015Y-13774484D01*
X11643968Y-13964960D02*
X11624920Y-13974484D01*
X11624920Y-13974484D02*
X11586825Y-13974484D01*
X11586825Y-13974484D02*
X11567777Y-13964960D01*
X11567777Y-13964960D02*
X11558253Y-13945912D01*
X11558253Y-13945912D02*
X11558253Y-13869722D01*
X11558253Y-13869722D02*
X11567777Y-13850674D01*
X11567777Y-13850674D02*
X11586825Y-13841150D01*
X11586825Y-13841150D02*
X11624920Y-13841150D01*
X11624920Y-13841150D02*
X11643968Y-13850674D01*
X11643968Y-13850674D02*
X11653491Y-13869722D01*
X11653491Y-13869722D02*
X11653491Y-13888769D01*
X11653491Y-13888769D02*
X11558253Y-13907817D01*
X11729682Y-13964960D02*
X11748730Y-13974484D01*
X11748730Y-13974484D02*
X11786825Y-13974484D01*
X11786825Y-13974484D02*
X11805872Y-13964960D01*
X11805872Y-13964960D02*
X11815396Y-13945912D01*
X11815396Y-13945912D02*
X11815396Y-13936388D01*
X11815396Y-13936388D02*
X11805872Y-13917341D01*
X11805872Y-13917341D02*
X11786825Y-13907817D01*
X11786825Y-13907817D02*
X11758253Y-13907817D01*
X11758253Y-13907817D02*
X11739206Y-13898293D01*
X11739206Y-13898293D02*
X11729682Y-13879246D01*
X11729682Y-13879246D02*
X11729682Y-13869722D01*
X11729682Y-13869722D02*
X11739206Y-13850674D01*
X11739206Y-13850674D02*
X11758253Y-13841150D01*
X11758253Y-13841150D02*
X11786825Y-13841150D01*
X11786825Y-13841150D02*
X11805872Y-13850674D01*
X11882063Y-14050674D02*
X11891587Y-14041150D01*
X11891587Y-14041150D02*
X11910634Y-14012579D01*
X11910634Y-14012579D02*
X11920158Y-13993531D01*
X11920158Y-13993531D02*
X11929682Y-13964960D01*
X11929682Y-13964960D02*
X11939206Y-13917341D01*
X11939206Y-13917341D02*
X11939206Y-13879246D01*
X11939206Y-13879246D02*
X11929682Y-13831627D01*
X11929682Y-13831627D02*
X11920158Y-13803055D01*
X11920158Y-13803055D02*
X11910634Y-13784008D01*
X11910634Y-13784008D02*
X11891587Y-13755436D01*
X11891587Y-13755436D02*
X11882063Y-13745912D01*
D15*
X7031000Y-14229000D02*
X7107000Y-14153000D01*
X7031000Y-14077000D01*
X6955000Y-14153000D01*
X7031000Y-14229000D01*
D11*
X7472539Y-14244484D02*
X7358253Y-14244484D01*
X7415396Y-14244484D02*
X7415396Y-14044484D01*
X7415396Y-14044484D02*
X7396348Y-14073055D01*
X7396348Y-14073055D02*
X7377301Y-14092103D01*
X7377301Y-14092103D02*
X7358253Y-14101627D01*
X7558253Y-14225436D02*
X7567777Y-14234960D01*
X7567777Y-14234960D02*
X7558253Y-14244484D01*
X7558253Y-14244484D02*
X7548729Y-14234960D01*
X7548729Y-14234960D02*
X7558253Y-14225436D01*
X7558253Y-14225436D02*
X7558253Y-14244484D01*
X7748729Y-14044484D02*
X7653491Y-14044484D01*
X7653491Y-14044484D02*
X7643967Y-14139722D01*
X7643967Y-14139722D02*
X7653491Y-14130198D01*
X7653491Y-14130198D02*
X7672539Y-14120674D01*
X7672539Y-14120674D02*
X7720158Y-14120674D01*
X7720158Y-14120674D02*
X7739205Y-14130198D01*
X7739205Y-14130198D02*
X7748729Y-14139722D01*
X7748729Y-14139722D02*
X7758253Y-14158769D01*
X7758253Y-14158769D02*
X7758253Y-14206388D01*
X7758253Y-14206388D02*
X7748729Y-14225436D01*
X7748729Y-14225436D02*
X7739205Y-14234960D01*
X7739205Y-14234960D02*
X7720158Y-14244484D01*
X7720158Y-14244484D02*
X7672539Y-14244484D01*
X7672539Y-14244484D02*
X7653491Y-14234960D01*
X7653491Y-14234960D02*
X7643967Y-14225436D01*
X7834443Y-14063531D02*
X7843967Y-14054008D01*
X7843967Y-14054008D02*
X7863015Y-14044484D01*
X7863015Y-14044484D02*
X7910634Y-14044484D01*
X7910634Y-14044484D02*
X7929682Y-14054008D01*
X7929682Y-14054008D02*
X7939205Y-14063531D01*
X7939205Y-14063531D02*
X7948729Y-14082579D01*
X7948729Y-14082579D02*
X7948729Y-14101627D01*
X7948729Y-14101627D02*
X7939205Y-14130198D01*
X7939205Y-14130198D02*
X7824920Y-14244484D01*
X7824920Y-14244484D02*
X7948729Y-14244484D01*
X8072539Y-14044484D02*
X8091586Y-14044484D01*
X8091586Y-14044484D02*
X8110634Y-14054008D01*
X8110634Y-14054008D02*
X8120158Y-14063531D01*
X8120158Y-14063531D02*
X8129682Y-14082579D01*
X8129682Y-14082579D02*
X8139205Y-14120674D01*
X8139205Y-14120674D02*
X8139205Y-14168293D01*
X8139205Y-14168293D02*
X8129682Y-14206388D01*
X8129682Y-14206388D02*
X8120158Y-14225436D01*
X8120158Y-14225436D02*
X8110634Y-14234960D01*
X8110634Y-14234960D02*
X8091586Y-14244484D01*
X8091586Y-14244484D02*
X8072539Y-14244484D01*
X8072539Y-14244484D02*
X8053491Y-14234960D01*
X8053491Y-14234960D02*
X8043967Y-14225436D01*
X8043967Y-14225436D02*
X8034443Y-14206388D01*
X8034443Y-14206388D02*
X8024920Y-14168293D01*
X8024920Y-14168293D02*
X8024920Y-14120674D01*
X8024920Y-14120674D02*
X8034443Y-14082579D01*
X8034443Y-14082579D02*
X8043967Y-14063531D01*
X8043967Y-14063531D02*
X8053491Y-14054008D01*
X8053491Y-14054008D02*
X8072539Y-14044484D01*
X8224920Y-14244484D02*
X8224920Y-14111150D01*
X8224920Y-14130198D02*
X8234443Y-14120674D01*
X8234443Y-14120674D02*
X8253491Y-14111150D01*
X8253491Y-14111150D02*
X8282063Y-14111150D01*
X8282063Y-14111150D02*
X8301110Y-14120674D01*
X8301110Y-14120674D02*
X8310634Y-14139722D01*
X8310634Y-14139722D02*
X8310634Y-14244484D01*
X8310634Y-14139722D02*
X8320158Y-14120674D01*
X8320158Y-14120674D02*
X8339205Y-14111150D01*
X8339205Y-14111150D02*
X8367777Y-14111150D01*
X8367777Y-14111150D02*
X8386824Y-14120674D01*
X8386824Y-14120674D02*
X8396348Y-14139722D01*
X8396348Y-14139722D02*
X8396348Y-14244484D01*
X8491586Y-14244484D02*
X8491586Y-14111150D01*
X8491586Y-14130198D02*
X8501110Y-14120674D01*
X8501110Y-14120674D02*
X8520158Y-14111150D01*
X8520158Y-14111150D02*
X8548729Y-14111150D01*
X8548729Y-14111150D02*
X8567777Y-14120674D01*
X8567777Y-14120674D02*
X8577301Y-14139722D01*
X8577301Y-14139722D02*
X8577301Y-14244484D01*
X8577301Y-14139722D02*
X8586825Y-14120674D01*
X8586825Y-14120674D02*
X8605872Y-14111150D01*
X8605872Y-14111150D02*
X8634444Y-14111150D01*
X8634444Y-14111150D02*
X8653491Y-14120674D01*
X8653491Y-14120674D02*
X8663015Y-14139722D01*
X8663015Y-14139722D02*
X8663015Y-14244484D01*
X9053491Y-14034960D02*
X8882063Y-14292103D01*
X9310634Y-14044484D02*
X9329682Y-14044484D01*
X9329682Y-14044484D02*
X9348729Y-14054008D01*
X9348729Y-14054008D02*
X9358253Y-14063531D01*
X9358253Y-14063531D02*
X9367777Y-14082579D01*
X9367777Y-14082579D02*
X9377301Y-14120674D01*
X9377301Y-14120674D02*
X9377301Y-14168293D01*
X9377301Y-14168293D02*
X9367777Y-14206388D01*
X9367777Y-14206388D02*
X9358253Y-14225436D01*
X9358253Y-14225436D02*
X9348729Y-14234960D01*
X9348729Y-14234960D02*
X9329682Y-14244484D01*
X9329682Y-14244484D02*
X9310634Y-14244484D01*
X9310634Y-14244484D02*
X9291587Y-14234960D01*
X9291587Y-14234960D02*
X9282063Y-14225436D01*
X9282063Y-14225436D02*
X9272539Y-14206388D01*
X9272539Y-14206388D02*
X9263015Y-14168293D01*
X9263015Y-14168293D02*
X9263015Y-14120674D01*
X9263015Y-14120674D02*
X9272539Y-14082579D01*
X9272539Y-14082579D02*
X9282063Y-14063531D01*
X9282063Y-14063531D02*
X9291587Y-14054008D01*
X9291587Y-14054008D02*
X9310634Y-14044484D01*
X9463015Y-14225436D02*
X9472539Y-14234960D01*
X9472539Y-14234960D02*
X9463015Y-14244484D01*
X9463015Y-14244484D02*
X9453491Y-14234960D01*
X9453491Y-14234960D02*
X9463015Y-14225436D01*
X9463015Y-14225436D02*
X9463015Y-14244484D01*
X9596348Y-14044484D02*
X9615396Y-14044484D01*
X9615396Y-14044484D02*
X9634444Y-14054008D01*
X9634444Y-14054008D02*
X9643968Y-14063531D01*
X9643968Y-14063531D02*
X9653491Y-14082579D01*
X9653491Y-14082579D02*
X9663015Y-14120674D01*
X9663015Y-14120674D02*
X9663015Y-14168293D01*
X9663015Y-14168293D02*
X9653491Y-14206388D01*
X9653491Y-14206388D02*
X9643968Y-14225436D01*
X9643968Y-14225436D02*
X9634444Y-14234960D01*
X9634444Y-14234960D02*
X9615396Y-14244484D01*
X9615396Y-14244484D02*
X9596348Y-14244484D01*
X9596348Y-14244484D02*
X9577301Y-14234960D01*
X9577301Y-14234960D02*
X9567777Y-14225436D01*
X9567777Y-14225436D02*
X9558253Y-14206388D01*
X9558253Y-14206388D02*
X9548729Y-14168293D01*
X9548729Y-14168293D02*
X9548729Y-14120674D01*
X9548729Y-14120674D02*
X9558253Y-14082579D01*
X9558253Y-14082579D02*
X9567777Y-14063531D01*
X9567777Y-14063531D02*
X9577301Y-14054008D01*
X9577301Y-14054008D02*
X9596348Y-14044484D01*
X9843968Y-14044484D02*
X9748729Y-14044484D01*
X9748729Y-14044484D02*
X9739206Y-14139722D01*
X9739206Y-14139722D02*
X9748729Y-14130198D01*
X9748729Y-14130198D02*
X9767777Y-14120674D01*
X9767777Y-14120674D02*
X9815396Y-14120674D01*
X9815396Y-14120674D02*
X9834444Y-14130198D01*
X9834444Y-14130198D02*
X9843968Y-14139722D01*
X9843968Y-14139722D02*
X9853491Y-14158769D01*
X9853491Y-14158769D02*
X9853491Y-14206388D01*
X9853491Y-14206388D02*
X9843968Y-14225436D01*
X9843968Y-14225436D02*
X9834444Y-14234960D01*
X9834444Y-14234960D02*
X9815396Y-14244484D01*
X9815396Y-14244484D02*
X9767777Y-14244484D01*
X9767777Y-14244484D02*
X9748729Y-14234960D01*
X9748729Y-14234960D02*
X9739206Y-14225436D01*
X9948729Y-14244484D02*
X9986825Y-14244484D01*
X9986825Y-14244484D02*
X10005872Y-14234960D01*
X10005872Y-14234960D02*
X10015396Y-14225436D01*
X10015396Y-14225436D02*
X10034444Y-14196865D01*
X10034444Y-14196865D02*
X10043968Y-14158769D01*
X10043968Y-14158769D02*
X10043968Y-14082579D01*
X10043968Y-14082579D02*
X10034444Y-14063531D01*
X10034444Y-14063531D02*
X10024920Y-14054008D01*
X10024920Y-14054008D02*
X10005872Y-14044484D01*
X10005872Y-14044484D02*
X9967777Y-14044484D01*
X9967777Y-14044484D02*
X9948729Y-14054008D01*
X9948729Y-14054008D02*
X9939206Y-14063531D01*
X9939206Y-14063531D02*
X9929682Y-14082579D01*
X9929682Y-14082579D02*
X9929682Y-14130198D01*
X9929682Y-14130198D02*
X9939206Y-14149246D01*
X9939206Y-14149246D02*
X9948729Y-14158769D01*
X9948729Y-14158769D02*
X9967777Y-14168293D01*
X9967777Y-14168293D02*
X10005872Y-14168293D01*
X10005872Y-14168293D02*
X10024920Y-14158769D01*
X10024920Y-14158769D02*
X10034444Y-14149246D01*
X10034444Y-14149246D02*
X10043968Y-14130198D01*
X10158253Y-14130198D02*
X10139206Y-14120674D01*
X10139206Y-14120674D02*
X10129682Y-14111150D01*
X10129682Y-14111150D02*
X10120158Y-14092103D01*
X10120158Y-14092103D02*
X10120158Y-14082579D01*
X10120158Y-14082579D02*
X10129682Y-14063531D01*
X10129682Y-14063531D02*
X10139206Y-14054008D01*
X10139206Y-14054008D02*
X10158253Y-14044484D01*
X10158253Y-14044484D02*
X10196349Y-14044484D01*
X10196349Y-14044484D02*
X10215396Y-14054008D01*
X10215396Y-14054008D02*
X10224920Y-14063531D01*
X10224920Y-14063531D02*
X10234444Y-14082579D01*
X10234444Y-14082579D02*
X10234444Y-14092103D01*
X10234444Y-14092103D02*
X10224920Y-14111150D01*
X10224920Y-14111150D02*
X10215396Y-14120674D01*
X10215396Y-14120674D02*
X10196349Y-14130198D01*
X10196349Y-14130198D02*
X10158253Y-14130198D01*
X10158253Y-14130198D02*
X10139206Y-14139722D01*
X10139206Y-14139722D02*
X10129682Y-14149246D01*
X10129682Y-14149246D02*
X10120158Y-14168293D01*
X10120158Y-14168293D02*
X10120158Y-14206388D01*
X10120158Y-14206388D02*
X10129682Y-14225436D01*
X10129682Y-14225436D02*
X10139206Y-14234960D01*
X10139206Y-14234960D02*
X10158253Y-14244484D01*
X10158253Y-14244484D02*
X10196349Y-14244484D01*
X10196349Y-14244484D02*
X10215396Y-14234960D01*
X10215396Y-14234960D02*
X10224920Y-14225436D01*
X10224920Y-14225436D02*
X10234444Y-14206388D01*
X10234444Y-14206388D02*
X10234444Y-14168293D01*
X10234444Y-14168293D02*
X10224920Y-14149246D01*
X10224920Y-14149246D02*
X10215396Y-14139722D01*
X10215396Y-14139722D02*
X10196349Y-14130198D01*
X10310634Y-14044484D02*
X10310634Y-14082579D01*
X10386825Y-14044484D02*
X10386825Y-14082579D01*
X10682063Y-14320674D02*
X10672539Y-14311150D01*
X10672539Y-14311150D02*
X10653491Y-14282579D01*
X10653491Y-14282579D02*
X10643968Y-14263531D01*
X10643968Y-14263531D02*
X10634444Y-14234960D01*
X10634444Y-14234960D02*
X10624920Y-14187341D01*
X10624920Y-14187341D02*
X10624920Y-14149246D01*
X10624920Y-14149246D02*
X10634444Y-14101627D01*
X10634444Y-14101627D02*
X10643968Y-14073055D01*
X10643968Y-14073055D02*
X10653491Y-14054008D01*
X10653491Y-14054008D02*
X10672539Y-14025436D01*
X10672539Y-14025436D02*
X10682063Y-14015912D01*
X10843968Y-14044484D02*
X10805872Y-14044484D01*
X10805872Y-14044484D02*
X10786825Y-14054008D01*
X10786825Y-14054008D02*
X10777301Y-14063531D01*
X10777301Y-14063531D02*
X10758253Y-14092103D01*
X10758253Y-14092103D02*
X10748730Y-14130198D01*
X10748730Y-14130198D02*
X10748730Y-14206388D01*
X10748730Y-14206388D02*
X10758253Y-14225436D01*
X10758253Y-14225436D02*
X10767777Y-14234960D01*
X10767777Y-14234960D02*
X10786825Y-14244484D01*
X10786825Y-14244484D02*
X10824920Y-14244484D01*
X10824920Y-14244484D02*
X10843968Y-14234960D01*
X10843968Y-14234960D02*
X10853491Y-14225436D01*
X10853491Y-14225436D02*
X10863015Y-14206388D01*
X10863015Y-14206388D02*
X10863015Y-14158769D01*
X10863015Y-14158769D02*
X10853491Y-14139722D01*
X10853491Y-14139722D02*
X10843968Y-14130198D01*
X10843968Y-14130198D02*
X10824920Y-14120674D01*
X10824920Y-14120674D02*
X10786825Y-14120674D01*
X10786825Y-14120674D02*
X10767777Y-14130198D01*
X10767777Y-14130198D02*
X10758253Y-14139722D01*
X10758253Y-14139722D02*
X10748730Y-14158769D01*
X11101111Y-14244484D02*
X11101111Y-14044484D01*
X11186825Y-14244484D02*
X11186825Y-14139722D01*
X11186825Y-14139722D02*
X11177301Y-14120674D01*
X11177301Y-14120674D02*
X11158253Y-14111150D01*
X11158253Y-14111150D02*
X11129682Y-14111150D01*
X11129682Y-14111150D02*
X11110634Y-14120674D01*
X11110634Y-14120674D02*
X11101111Y-14130198D01*
X11310634Y-14244484D02*
X11291587Y-14234960D01*
X11291587Y-14234960D02*
X11282063Y-14225436D01*
X11282063Y-14225436D02*
X11272539Y-14206388D01*
X11272539Y-14206388D02*
X11272539Y-14149246D01*
X11272539Y-14149246D02*
X11282063Y-14130198D01*
X11282063Y-14130198D02*
X11291587Y-14120674D01*
X11291587Y-14120674D02*
X11310634Y-14111150D01*
X11310634Y-14111150D02*
X11339206Y-14111150D01*
X11339206Y-14111150D02*
X11358253Y-14120674D01*
X11358253Y-14120674D02*
X11367777Y-14130198D01*
X11367777Y-14130198D02*
X11377301Y-14149246D01*
X11377301Y-14149246D02*
X11377301Y-14206388D01*
X11377301Y-14206388D02*
X11367777Y-14225436D01*
X11367777Y-14225436D02*
X11358253Y-14234960D01*
X11358253Y-14234960D02*
X11339206Y-14244484D01*
X11339206Y-14244484D02*
X11310634Y-14244484D01*
X11491587Y-14244484D02*
X11472539Y-14234960D01*
X11472539Y-14234960D02*
X11463015Y-14215912D01*
X11463015Y-14215912D02*
X11463015Y-14044484D01*
X11643968Y-14234960D02*
X11624920Y-14244484D01*
X11624920Y-14244484D02*
X11586825Y-14244484D01*
X11586825Y-14244484D02*
X11567777Y-14234960D01*
X11567777Y-14234960D02*
X11558253Y-14215912D01*
X11558253Y-14215912D02*
X11558253Y-14139722D01*
X11558253Y-14139722D02*
X11567777Y-14120674D01*
X11567777Y-14120674D02*
X11586825Y-14111150D01*
X11586825Y-14111150D02*
X11624920Y-14111150D01*
X11624920Y-14111150D02*
X11643968Y-14120674D01*
X11643968Y-14120674D02*
X11653491Y-14139722D01*
X11653491Y-14139722D02*
X11653491Y-14158769D01*
X11653491Y-14158769D02*
X11558253Y-14177817D01*
X11729682Y-14234960D02*
X11748730Y-14244484D01*
X11748730Y-14244484D02*
X11786825Y-14244484D01*
X11786825Y-14244484D02*
X11805872Y-14234960D01*
X11805872Y-14234960D02*
X11815396Y-14215912D01*
X11815396Y-14215912D02*
X11815396Y-14206388D01*
X11815396Y-14206388D02*
X11805872Y-14187341D01*
X11805872Y-14187341D02*
X11786825Y-14177817D01*
X11786825Y-14177817D02*
X11758253Y-14177817D01*
X11758253Y-14177817D02*
X11739206Y-14168293D01*
X11739206Y-14168293D02*
X11729682Y-14149246D01*
X11729682Y-14149246D02*
X11729682Y-14139722D01*
X11729682Y-14139722D02*
X11739206Y-14120674D01*
X11739206Y-14120674D02*
X11758253Y-14111150D01*
X11758253Y-14111150D02*
X11786825Y-14111150D01*
X11786825Y-14111150D02*
X11805872Y-14120674D01*
X11882063Y-14320674D02*
X11891587Y-14311150D01*
X11891587Y-14311150D02*
X11910634Y-14282579D01*
X11910634Y-14282579D02*
X11920158Y-14263531D01*
X11920158Y-14263531D02*
X11929682Y-14234960D01*
X11929682Y-14234960D02*
X11939206Y-14187341D01*
X11939206Y-14187341D02*
X11939206Y-14149246D01*
X11939206Y-14149246D02*
X11929682Y-14101627D01*
X11929682Y-14101627D02*
X11920158Y-14073055D01*
X11920158Y-14073055D02*
X11910634Y-14054008D01*
X11910634Y-14054008D02*
X11891587Y-14025436D01*
X11891587Y-14025436D02*
X11882063Y-14015912D01*
X6907000Y-14325000D02*
X7107000Y-14525000D01*
X7107000Y-14325000D02*
X6907000Y-14525000D01*
X7107000Y-14425000D02*
G75*
G03*
X7107000Y-14425000I-100000J0D01*
G01*
X7348729Y-14316484D02*
X7472539Y-14316484D01*
X7472539Y-14316484D02*
X7405872Y-14392674D01*
X7405872Y-14392674D02*
X7434443Y-14392674D01*
X7434443Y-14392674D02*
X7453491Y-14402198D01*
X7453491Y-14402198D02*
X7463015Y-14411722D01*
X7463015Y-14411722D02*
X7472539Y-14430769D01*
X7472539Y-14430769D02*
X7472539Y-14478388D01*
X7472539Y-14478388D02*
X7463015Y-14497436D01*
X7463015Y-14497436D02*
X7453491Y-14506960D01*
X7453491Y-14506960D02*
X7434443Y-14516484D01*
X7434443Y-14516484D02*
X7377301Y-14516484D01*
X7377301Y-14516484D02*
X7358253Y-14506960D01*
X7358253Y-14506960D02*
X7348729Y-14497436D01*
X7558253Y-14497436D02*
X7567777Y-14506960D01*
X7567777Y-14506960D02*
X7558253Y-14516484D01*
X7558253Y-14516484D02*
X7548729Y-14506960D01*
X7548729Y-14506960D02*
X7558253Y-14497436D01*
X7558253Y-14497436D02*
X7558253Y-14516484D01*
X7643967Y-14335531D02*
X7653491Y-14326008D01*
X7653491Y-14326008D02*
X7672539Y-14316484D01*
X7672539Y-14316484D02*
X7720158Y-14316484D01*
X7720158Y-14316484D02*
X7739205Y-14326008D01*
X7739205Y-14326008D02*
X7748729Y-14335531D01*
X7748729Y-14335531D02*
X7758253Y-14354579D01*
X7758253Y-14354579D02*
X7758253Y-14373627D01*
X7758253Y-14373627D02*
X7748729Y-14402198D01*
X7748729Y-14402198D02*
X7634443Y-14516484D01*
X7634443Y-14516484D02*
X7758253Y-14516484D01*
X7882062Y-14316484D02*
X7901110Y-14316484D01*
X7901110Y-14316484D02*
X7920158Y-14326008D01*
X7920158Y-14326008D02*
X7929682Y-14335531D01*
X7929682Y-14335531D02*
X7939205Y-14354579D01*
X7939205Y-14354579D02*
X7948729Y-14392674D01*
X7948729Y-14392674D02*
X7948729Y-14440293D01*
X7948729Y-14440293D02*
X7939205Y-14478388D01*
X7939205Y-14478388D02*
X7929682Y-14497436D01*
X7929682Y-14497436D02*
X7920158Y-14506960D01*
X7920158Y-14506960D02*
X7901110Y-14516484D01*
X7901110Y-14516484D02*
X7882062Y-14516484D01*
X7882062Y-14516484D02*
X7863015Y-14506960D01*
X7863015Y-14506960D02*
X7853491Y-14497436D01*
X7853491Y-14497436D02*
X7843967Y-14478388D01*
X7843967Y-14478388D02*
X7834443Y-14440293D01*
X7834443Y-14440293D02*
X7834443Y-14392674D01*
X7834443Y-14392674D02*
X7843967Y-14354579D01*
X7843967Y-14354579D02*
X7853491Y-14335531D01*
X7853491Y-14335531D02*
X7863015Y-14326008D01*
X7863015Y-14326008D02*
X7882062Y-14316484D01*
X8072539Y-14316484D02*
X8091586Y-14316484D01*
X8091586Y-14316484D02*
X8110634Y-14326008D01*
X8110634Y-14326008D02*
X8120158Y-14335531D01*
X8120158Y-14335531D02*
X8129682Y-14354579D01*
X8129682Y-14354579D02*
X8139205Y-14392674D01*
X8139205Y-14392674D02*
X8139205Y-14440293D01*
X8139205Y-14440293D02*
X8129682Y-14478388D01*
X8129682Y-14478388D02*
X8120158Y-14497436D01*
X8120158Y-14497436D02*
X8110634Y-14506960D01*
X8110634Y-14506960D02*
X8091586Y-14516484D01*
X8091586Y-14516484D02*
X8072539Y-14516484D01*
X8072539Y-14516484D02*
X8053491Y-14506960D01*
X8053491Y-14506960D02*
X8043967Y-14497436D01*
X8043967Y-14497436D02*
X8034443Y-14478388D01*
X8034443Y-14478388D02*
X8024920Y-14440293D01*
X8024920Y-14440293D02*
X8024920Y-14392674D01*
X8024920Y-14392674D02*
X8034443Y-14354579D01*
X8034443Y-14354579D02*
X8043967Y-14335531D01*
X8043967Y-14335531D02*
X8053491Y-14326008D01*
X8053491Y-14326008D02*
X8072539Y-14316484D01*
X8224920Y-14516484D02*
X8224920Y-14383150D01*
X8224920Y-14402198D02*
X8234443Y-14392674D01*
X8234443Y-14392674D02*
X8253491Y-14383150D01*
X8253491Y-14383150D02*
X8282063Y-14383150D01*
X8282063Y-14383150D02*
X8301110Y-14392674D01*
X8301110Y-14392674D02*
X8310634Y-14411722D01*
X8310634Y-14411722D02*
X8310634Y-14516484D01*
X8310634Y-14411722D02*
X8320158Y-14392674D01*
X8320158Y-14392674D02*
X8339205Y-14383150D01*
X8339205Y-14383150D02*
X8367777Y-14383150D01*
X8367777Y-14383150D02*
X8386824Y-14392674D01*
X8386824Y-14392674D02*
X8396348Y-14411722D01*
X8396348Y-14411722D02*
X8396348Y-14516484D01*
X8491586Y-14516484D02*
X8491586Y-14383150D01*
X8491586Y-14402198D02*
X8501110Y-14392674D01*
X8501110Y-14392674D02*
X8520158Y-14383150D01*
X8520158Y-14383150D02*
X8548729Y-14383150D01*
X8548729Y-14383150D02*
X8567777Y-14392674D01*
X8567777Y-14392674D02*
X8577301Y-14411722D01*
X8577301Y-14411722D02*
X8577301Y-14516484D01*
X8577301Y-14411722D02*
X8586825Y-14392674D01*
X8586825Y-14392674D02*
X8605872Y-14383150D01*
X8605872Y-14383150D02*
X8634444Y-14383150D01*
X8634444Y-14383150D02*
X8653491Y-14392674D01*
X8653491Y-14392674D02*
X8663015Y-14411722D01*
X8663015Y-14411722D02*
X8663015Y-14516484D01*
X9053491Y-14306960D02*
X8882063Y-14564103D01*
X9310634Y-14316484D02*
X9329682Y-14316484D01*
X9329682Y-14316484D02*
X9348729Y-14326008D01*
X9348729Y-14326008D02*
X9358253Y-14335531D01*
X9358253Y-14335531D02*
X9367777Y-14354579D01*
X9367777Y-14354579D02*
X9377301Y-14392674D01*
X9377301Y-14392674D02*
X9377301Y-14440293D01*
X9377301Y-14440293D02*
X9367777Y-14478388D01*
X9367777Y-14478388D02*
X9358253Y-14497436D01*
X9358253Y-14497436D02*
X9348729Y-14506960D01*
X9348729Y-14506960D02*
X9329682Y-14516484D01*
X9329682Y-14516484D02*
X9310634Y-14516484D01*
X9310634Y-14516484D02*
X9291587Y-14506960D01*
X9291587Y-14506960D02*
X9282063Y-14497436D01*
X9282063Y-14497436D02*
X9272539Y-14478388D01*
X9272539Y-14478388D02*
X9263015Y-14440293D01*
X9263015Y-14440293D02*
X9263015Y-14392674D01*
X9263015Y-14392674D02*
X9272539Y-14354579D01*
X9272539Y-14354579D02*
X9282063Y-14335531D01*
X9282063Y-14335531D02*
X9291587Y-14326008D01*
X9291587Y-14326008D02*
X9310634Y-14316484D01*
X9463015Y-14497436D02*
X9472539Y-14506960D01*
X9472539Y-14506960D02*
X9463015Y-14516484D01*
X9463015Y-14516484D02*
X9453491Y-14506960D01*
X9453491Y-14506960D02*
X9463015Y-14497436D01*
X9463015Y-14497436D02*
X9463015Y-14516484D01*
X9663015Y-14516484D02*
X9548729Y-14516484D01*
X9605872Y-14516484D02*
X9605872Y-14316484D01*
X9605872Y-14316484D02*
X9586825Y-14345055D01*
X9586825Y-14345055D02*
X9567777Y-14364103D01*
X9567777Y-14364103D02*
X9548729Y-14373627D01*
X9739206Y-14335531D02*
X9748729Y-14326008D01*
X9748729Y-14326008D02*
X9767777Y-14316484D01*
X9767777Y-14316484D02*
X9815396Y-14316484D01*
X9815396Y-14316484D02*
X9834444Y-14326008D01*
X9834444Y-14326008D02*
X9843968Y-14335531D01*
X9843968Y-14335531D02*
X9853491Y-14354579D01*
X9853491Y-14354579D02*
X9853491Y-14373627D01*
X9853491Y-14373627D02*
X9843968Y-14402198D01*
X9843968Y-14402198D02*
X9729682Y-14516484D01*
X9729682Y-14516484D02*
X9853491Y-14516484D01*
X10024920Y-14316484D02*
X9986825Y-14316484D01*
X9986825Y-14316484D02*
X9967777Y-14326008D01*
X9967777Y-14326008D02*
X9958253Y-14335531D01*
X9958253Y-14335531D02*
X9939206Y-14364103D01*
X9939206Y-14364103D02*
X9929682Y-14402198D01*
X9929682Y-14402198D02*
X9929682Y-14478388D01*
X9929682Y-14478388D02*
X9939206Y-14497436D01*
X9939206Y-14497436D02*
X9948729Y-14506960D01*
X9948729Y-14506960D02*
X9967777Y-14516484D01*
X9967777Y-14516484D02*
X10005872Y-14516484D01*
X10005872Y-14516484D02*
X10024920Y-14506960D01*
X10024920Y-14506960D02*
X10034444Y-14497436D01*
X10034444Y-14497436D02*
X10043968Y-14478388D01*
X10043968Y-14478388D02*
X10043968Y-14430769D01*
X10043968Y-14430769D02*
X10034444Y-14411722D01*
X10034444Y-14411722D02*
X10024920Y-14402198D01*
X10024920Y-14402198D02*
X10005872Y-14392674D01*
X10005872Y-14392674D02*
X9967777Y-14392674D01*
X9967777Y-14392674D02*
X9948729Y-14402198D01*
X9948729Y-14402198D02*
X9939206Y-14411722D01*
X9939206Y-14411722D02*
X9929682Y-14430769D01*
X10167777Y-14316484D02*
X10186825Y-14316484D01*
X10186825Y-14316484D02*
X10205872Y-14326008D01*
X10205872Y-14326008D02*
X10215396Y-14335531D01*
X10215396Y-14335531D02*
X10224920Y-14354579D01*
X10224920Y-14354579D02*
X10234444Y-14392674D01*
X10234444Y-14392674D02*
X10234444Y-14440293D01*
X10234444Y-14440293D02*
X10224920Y-14478388D01*
X10224920Y-14478388D02*
X10215396Y-14497436D01*
X10215396Y-14497436D02*
X10205872Y-14506960D01*
X10205872Y-14506960D02*
X10186825Y-14516484D01*
X10186825Y-14516484D02*
X10167777Y-14516484D01*
X10167777Y-14516484D02*
X10148729Y-14506960D01*
X10148729Y-14506960D02*
X10139206Y-14497436D01*
X10139206Y-14497436D02*
X10129682Y-14478388D01*
X10129682Y-14478388D02*
X10120158Y-14440293D01*
X10120158Y-14440293D02*
X10120158Y-14392674D01*
X10120158Y-14392674D02*
X10129682Y-14354579D01*
X10129682Y-14354579D02*
X10139206Y-14335531D01*
X10139206Y-14335531D02*
X10148729Y-14326008D01*
X10148729Y-14326008D02*
X10167777Y-14316484D01*
X10310634Y-14316484D02*
X10310634Y-14354579D01*
X10386825Y-14316484D02*
X10386825Y-14354579D01*
X10682063Y-14592674D02*
X10672539Y-14583150D01*
X10672539Y-14583150D02*
X10653491Y-14554579D01*
X10653491Y-14554579D02*
X10643968Y-14535531D01*
X10643968Y-14535531D02*
X10634444Y-14506960D01*
X10634444Y-14506960D02*
X10624920Y-14459341D01*
X10624920Y-14459341D02*
X10624920Y-14421246D01*
X10624920Y-14421246D02*
X10634444Y-14373627D01*
X10634444Y-14373627D02*
X10643968Y-14345055D01*
X10643968Y-14345055D02*
X10653491Y-14326008D01*
X10653491Y-14326008D02*
X10672539Y-14297436D01*
X10672539Y-14297436D02*
X10682063Y-14287912D01*
X10843968Y-14383150D02*
X10843968Y-14516484D01*
X10796349Y-14306960D02*
X10748730Y-14449817D01*
X10748730Y-14449817D02*
X10872539Y-14449817D01*
X11101111Y-14516484D02*
X11101111Y-14316484D01*
X11186825Y-14516484D02*
X11186825Y-14411722D01*
X11186825Y-14411722D02*
X11177301Y-14392674D01*
X11177301Y-14392674D02*
X11158253Y-14383150D01*
X11158253Y-14383150D02*
X11129682Y-14383150D01*
X11129682Y-14383150D02*
X11110634Y-14392674D01*
X11110634Y-14392674D02*
X11101111Y-14402198D01*
X11310634Y-14516484D02*
X11291587Y-14506960D01*
X11291587Y-14506960D02*
X11282063Y-14497436D01*
X11282063Y-14497436D02*
X11272539Y-14478388D01*
X11272539Y-14478388D02*
X11272539Y-14421246D01*
X11272539Y-14421246D02*
X11282063Y-14402198D01*
X11282063Y-14402198D02*
X11291587Y-14392674D01*
X11291587Y-14392674D02*
X11310634Y-14383150D01*
X11310634Y-14383150D02*
X11339206Y-14383150D01*
X11339206Y-14383150D02*
X11358253Y-14392674D01*
X11358253Y-14392674D02*
X11367777Y-14402198D01*
X11367777Y-14402198D02*
X11377301Y-14421246D01*
X11377301Y-14421246D02*
X11377301Y-14478388D01*
X11377301Y-14478388D02*
X11367777Y-14497436D01*
X11367777Y-14497436D02*
X11358253Y-14506960D01*
X11358253Y-14506960D02*
X11339206Y-14516484D01*
X11339206Y-14516484D02*
X11310634Y-14516484D01*
X11491587Y-14516484D02*
X11472539Y-14506960D01*
X11472539Y-14506960D02*
X11463015Y-14487912D01*
X11463015Y-14487912D02*
X11463015Y-14316484D01*
X11643968Y-14506960D02*
X11624920Y-14516484D01*
X11624920Y-14516484D02*
X11586825Y-14516484D01*
X11586825Y-14516484D02*
X11567777Y-14506960D01*
X11567777Y-14506960D02*
X11558253Y-14487912D01*
X11558253Y-14487912D02*
X11558253Y-14411722D01*
X11558253Y-14411722D02*
X11567777Y-14392674D01*
X11567777Y-14392674D02*
X11586825Y-14383150D01*
X11586825Y-14383150D02*
X11624920Y-14383150D01*
X11624920Y-14383150D02*
X11643968Y-14392674D01*
X11643968Y-14392674D02*
X11653491Y-14411722D01*
X11653491Y-14411722D02*
X11653491Y-14430769D01*
X11653491Y-14430769D02*
X11558253Y-14449817D01*
X11729682Y-14506960D02*
X11748730Y-14516484D01*
X11748730Y-14516484D02*
X11786825Y-14516484D01*
X11786825Y-14516484D02*
X11805872Y-14506960D01*
X11805872Y-14506960D02*
X11815396Y-14487912D01*
X11815396Y-14487912D02*
X11815396Y-14478388D01*
X11815396Y-14478388D02*
X11805872Y-14459341D01*
X11805872Y-14459341D02*
X11786825Y-14449817D01*
X11786825Y-14449817D02*
X11758253Y-14449817D01*
X11758253Y-14449817D02*
X11739206Y-14440293D01*
X11739206Y-14440293D02*
X11729682Y-14421246D01*
X11729682Y-14421246D02*
X11729682Y-14411722D01*
X11729682Y-14411722D02*
X11739206Y-14392674D01*
X11739206Y-14392674D02*
X11758253Y-14383150D01*
X11758253Y-14383150D02*
X11786825Y-14383150D01*
X11786825Y-14383150D02*
X11805872Y-14392674D01*
X11882063Y-14592674D02*
X11891587Y-14583150D01*
X11891587Y-14583150D02*
X11910634Y-14554579D01*
X11910634Y-14554579D02*
X11920158Y-14535531D01*
X11920158Y-14535531D02*
X11929682Y-14506960D01*
X11929682Y-14506960D02*
X11939206Y-14459341D01*
X11939206Y-14459341D02*
X11939206Y-14421246D01*
X11939206Y-14421246D02*
X11929682Y-14373627D01*
X11929682Y-14373627D02*
X11920158Y-14345055D01*
X11920158Y-14345055D02*
X11910634Y-14326008D01*
X11910634Y-14326008D02*
X11891587Y-14297436D01*
X11891587Y-14297436D02*
X11882063Y-14287912D01*
X6907000Y-14645000D02*
X7107000Y-14845000D01*
X7107000Y-14645000D02*
X6907000Y-14845000D01*
X7007000Y-14645000D02*
X7007000Y-14845000D01*
X6907000Y-14745000D02*
X7107000Y-14745000D01*
X7348729Y-14636484D02*
X7472539Y-14636484D01*
X7472539Y-14636484D02*
X7405872Y-14712674D01*
X7405872Y-14712674D02*
X7434443Y-14712674D01*
X7434443Y-14712674D02*
X7453491Y-14722198D01*
X7453491Y-14722198D02*
X7463015Y-14731722D01*
X7463015Y-14731722D02*
X7472539Y-14750769D01*
X7472539Y-14750769D02*
X7472539Y-14798388D01*
X7472539Y-14798388D02*
X7463015Y-14817436D01*
X7463015Y-14817436D02*
X7453491Y-14826960D01*
X7453491Y-14826960D02*
X7434443Y-14836484D01*
X7434443Y-14836484D02*
X7377301Y-14836484D01*
X7377301Y-14836484D02*
X7358253Y-14826960D01*
X7358253Y-14826960D02*
X7348729Y-14817436D01*
X7558253Y-14817436D02*
X7567777Y-14826960D01*
X7567777Y-14826960D02*
X7558253Y-14836484D01*
X7558253Y-14836484D02*
X7548729Y-14826960D01*
X7548729Y-14826960D02*
X7558253Y-14817436D01*
X7558253Y-14817436D02*
X7558253Y-14836484D01*
X7748729Y-14636484D02*
X7653491Y-14636484D01*
X7653491Y-14636484D02*
X7643967Y-14731722D01*
X7643967Y-14731722D02*
X7653491Y-14722198D01*
X7653491Y-14722198D02*
X7672539Y-14712674D01*
X7672539Y-14712674D02*
X7720158Y-14712674D01*
X7720158Y-14712674D02*
X7739205Y-14722198D01*
X7739205Y-14722198D02*
X7748729Y-14731722D01*
X7748729Y-14731722D02*
X7758253Y-14750769D01*
X7758253Y-14750769D02*
X7758253Y-14798388D01*
X7758253Y-14798388D02*
X7748729Y-14817436D01*
X7748729Y-14817436D02*
X7739205Y-14826960D01*
X7739205Y-14826960D02*
X7720158Y-14836484D01*
X7720158Y-14836484D02*
X7672539Y-14836484D01*
X7672539Y-14836484D02*
X7653491Y-14826960D01*
X7653491Y-14826960D02*
X7643967Y-14817436D01*
X7882062Y-14636484D02*
X7901110Y-14636484D01*
X7901110Y-14636484D02*
X7920158Y-14646008D01*
X7920158Y-14646008D02*
X7929682Y-14655531D01*
X7929682Y-14655531D02*
X7939205Y-14674579D01*
X7939205Y-14674579D02*
X7948729Y-14712674D01*
X7948729Y-14712674D02*
X7948729Y-14760293D01*
X7948729Y-14760293D02*
X7939205Y-14798388D01*
X7939205Y-14798388D02*
X7929682Y-14817436D01*
X7929682Y-14817436D02*
X7920158Y-14826960D01*
X7920158Y-14826960D02*
X7901110Y-14836484D01*
X7901110Y-14836484D02*
X7882062Y-14836484D01*
X7882062Y-14836484D02*
X7863015Y-14826960D01*
X7863015Y-14826960D02*
X7853491Y-14817436D01*
X7853491Y-14817436D02*
X7843967Y-14798388D01*
X7843967Y-14798388D02*
X7834443Y-14760293D01*
X7834443Y-14760293D02*
X7834443Y-14712674D01*
X7834443Y-14712674D02*
X7843967Y-14674579D01*
X7843967Y-14674579D02*
X7853491Y-14655531D01*
X7853491Y-14655531D02*
X7863015Y-14646008D01*
X7863015Y-14646008D02*
X7882062Y-14636484D01*
X8072539Y-14636484D02*
X8091586Y-14636484D01*
X8091586Y-14636484D02*
X8110634Y-14646008D01*
X8110634Y-14646008D02*
X8120158Y-14655531D01*
X8120158Y-14655531D02*
X8129682Y-14674579D01*
X8129682Y-14674579D02*
X8139205Y-14712674D01*
X8139205Y-14712674D02*
X8139205Y-14760293D01*
X8139205Y-14760293D02*
X8129682Y-14798388D01*
X8129682Y-14798388D02*
X8120158Y-14817436D01*
X8120158Y-14817436D02*
X8110634Y-14826960D01*
X8110634Y-14826960D02*
X8091586Y-14836484D01*
X8091586Y-14836484D02*
X8072539Y-14836484D01*
X8072539Y-14836484D02*
X8053491Y-14826960D01*
X8053491Y-14826960D02*
X8043967Y-14817436D01*
X8043967Y-14817436D02*
X8034443Y-14798388D01*
X8034443Y-14798388D02*
X8024920Y-14760293D01*
X8024920Y-14760293D02*
X8024920Y-14712674D01*
X8024920Y-14712674D02*
X8034443Y-14674579D01*
X8034443Y-14674579D02*
X8043967Y-14655531D01*
X8043967Y-14655531D02*
X8053491Y-14646008D01*
X8053491Y-14646008D02*
X8072539Y-14636484D01*
X8224920Y-14836484D02*
X8224920Y-14703150D01*
X8224920Y-14722198D02*
X8234443Y-14712674D01*
X8234443Y-14712674D02*
X8253491Y-14703150D01*
X8253491Y-14703150D02*
X8282063Y-14703150D01*
X8282063Y-14703150D02*
X8301110Y-14712674D01*
X8301110Y-14712674D02*
X8310634Y-14731722D01*
X8310634Y-14731722D02*
X8310634Y-14836484D01*
X8310634Y-14731722D02*
X8320158Y-14712674D01*
X8320158Y-14712674D02*
X8339205Y-14703150D01*
X8339205Y-14703150D02*
X8367777Y-14703150D01*
X8367777Y-14703150D02*
X8386824Y-14712674D01*
X8386824Y-14712674D02*
X8396348Y-14731722D01*
X8396348Y-14731722D02*
X8396348Y-14836484D01*
X8491586Y-14836484D02*
X8491586Y-14703150D01*
X8491586Y-14722198D02*
X8501110Y-14712674D01*
X8501110Y-14712674D02*
X8520158Y-14703150D01*
X8520158Y-14703150D02*
X8548729Y-14703150D01*
X8548729Y-14703150D02*
X8567777Y-14712674D01*
X8567777Y-14712674D02*
X8577301Y-14731722D01*
X8577301Y-14731722D02*
X8577301Y-14836484D01*
X8577301Y-14731722D02*
X8586825Y-14712674D01*
X8586825Y-14712674D02*
X8605872Y-14703150D01*
X8605872Y-14703150D02*
X8634444Y-14703150D01*
X8634444Y-14703150D02*
X8653491Y-14712674D01*
X8653491Y-14712674D02*
X8663015Y-14731722D01*
X8663015Y-14731722D02*
X8663015Y-14836484D01*
X9053491Y-14626960D02*
X8882063Y-14884103D01*
X9310634Y-14636484D02*
X9329682Y-14636484D01*
X9329682Y-14636484D02*
X9348729Y-14646008D01*
X9348729Y-14646008D02*
X9358253Y-14655531D01*
X9358253Y-14655531D02*
X9367777Y-14674579D01*
X9367777Y-14674579D02*
X9377301Y-14712674D01*
X9377301Y-14712674D02*
X9377301Y-14760293D01*
X9377301Y-14760293D02*
X9367777Y-14798388D01*
X9367777Y-14798388D02*
X9358253Y-14817436D01*
X9358253Y-14817436D02*
X9348729Y-14826960D01*
X9348729Y-14826960D02*
X9329682Y-14836484D01*
X9329682Y-14836484D02*
X9310634Y-14836484D01*
X9310634Y-14836484D02*
X9291587Y-14826960D01*
X9291587Y-14826960D02*
X9282063Y-14817436D01*
X9282063Y-14817436D02*
X9272539Y-14798388D01*
X9272539Y-14798388D02*
X9263015Y-14760293D01*
X9263015Y-14760293D02*
X9263015Y-14712674D01*
X9263015Y-14712674D02*
X9272539Y-14674579D01*
X9272539Y-14674579D02*
X9282063Y-14655531D01*
X9282063Y-14655531D02*
X9291587Y-14646008D01*
X9291587Y-14646008D02*
X9310634Y-14636484D01*
X9463015Y-14817436D02*
X9472539Y-14826960D01*
X9472539Y-14826960D02*
X9463015Y-14836484D01*
X9463015Y-14836484D02*
X9453491Y-14826960D01*
X9453491Y-14826960D02*
X9463015Y-14817436D01*
X9463015Y-14817436D02*
X9463015Y-14836484D01*
X9663015Y-14836484D02*
X9548729Y-14836484D01*
X9605872Y-14836484D02*
X9605872Y-14636484D01*
X9605872Y-14636484D02*
X9586825Y-14665055D01*
X9586825Y-14665055D02*
X9567777Y-14684103D01*
X9567777Y-14684103D02*
X9548729Y-14693627D01*
X9729682Y-14636484D02*
X9853491Y-14636484D01*
X9853491Y-14636484D02*
X9786825Y-14712674D01*
X9786825Y-14712674D02*
X9815396Y-14712674D01*
X9815396Y-14712674D02*
X9834444Y-14722198D01*
X9834444Y-14722198D02*
X9843968Y-14731722D01*
X9843968Y-14731722D02*
X9853491Y-14750769D01*
X9853491Y-14750769D02*
X9853491Y-14798388D01*
X9853491Y-14798388D02*
X9843968Y-14817436D01*
X9843968Y-14817436D02*
X9834444Y-14826960D01*
X9834444Y-14826960D02*
X9815396Y-14836484D01*
X9815396Y-14836484D02*
X9758253Y-14836484D01*
X9758253Y-14836484D02*
X9739206Y-14826960D01*
X9739206Y-14826960D02*
X9729682Y-14817436D01*
X9920158Y-14636484D02*
X10053491Y-14636484D01*
X10053491Y-14636484D02*
X9967777Y-14836484D01*
X10158253Y-14722198D02*
X10139206Y-14712674D01*
X10139206Y-14712674D02*
X10129682Y-14703150D01*
X10129682Y-14703150D02*
X10120158Y-14684103D01*
X10120158Y-14684103D02*
X10120158Y-14674579D01*
X10120158Y-14674579D02*
X10129682Y-14655531D01*
X10129682Y-14655531D02*
X10139206Y-14646008D01*
X10139206Y-14646008D02*
X10158253Y-14636484D01*
X10158253Y-14636484D02*
X10196349Y-14636484D01*
X10196349Y-14636484D02*
X10215396Y-14646008D01*
X10215396Y-14646008D02*
X10224920Y-14655531D01*
X10224920Y-14655531D02*
X10234444Y-14674579D01*
X10234444Y-14674579D02*
X10234444Y-14684103D01*
X10234444Y-14684103D02*
X10224920Y-14703150D01*
X10224920Y-14703150D02*
X10215396Y-14712674D01*
X10215396Y-14712674D02*
X10196349Y-14722198D01*
X10196349Y-14722198D02*
X10158253Y-14722198D01*
X10158253Y-14722198D02*
X10139206Y-14731722D01*
X10139206Y-14731722D02*
X10129682Y-14741246D01*
X10129682Y-14741246D02*
X10120158Y-14760293D01*
X10120158Y-14760293D02*
X10120158Y-14798388D01*
X10120158Y-14798388D02*
X10129682Y-14817436D01*
X10129682Y-14817436D02*
X10139206Y-14826960D01*
X10139206Y-14826960D02*
X10158253Y-14836484D01*
X10158253Y-14836484D02*
X10196349Y-14836484D01*
X10196349Y-14836484D02*
X10215396Y-14826960D01*
X10215396Y-14826960D02*
X10224920Y-14817436D01*
X10224920Y-14817436D02*
X10234444Y-14798388D01*
X10234444Y-14798388D02*
X10234444Y-14760293D01*
X10234444Y-14760293D02*
X10224920Y-14741246D01*
X10224920Y-14741246D02*
X10215396Y-14731722D01*
X10215396Y-14731722D02*
X10196349Y-14722198D01*
X10310634Y-14636484D02*
X10310634Y-14674579D01*
X10386825Y-14636484D02*
X10386825Y-14674579D01*
X10682063Y-14912674D02*
X10672539Y-14903150D01*
X10672539Y-14903150D02*
X10653491Y-14874579D01*
X10653491Y-14874579D02*
X10643968Y-14855531D01*
X10643968Y-14855531D02*
X10634444Y-14826960D01*
X10634444Y-14826960D02*
X10624920Y-14779341D01*
X10624920Y-14779341D02*
X10624920Y-14741246D01*
X10624920Y-14741246D02*
X10634444Y-14693627D01*
X10634444Y-14693627D02*
X10643968Y-14665055D01*
X10643968Y-14665055D02*
X10653491Y-14646008D01*
X10653491Y-14646008D02*
X10672539Y-14617436D01*
X10672539Y-14617436D02*
X10682063Y-14607912D01*
X10748730Y-14655531D02*
X10758253Y-14646008D01*
X10758253Y-14646008D02*
X10777301Y-14636484D01*
X10777301Y-14636484D02*
X10824920Y-14636484D01*
X10824920Y-14636484D02*
X10843968Y-14646008D01*
X10843968Y-14646008D02*
X10853491Y-14655531D01*
X10853491Y-14655531D02*
X10863015Y-14674579D01*
X10863015Y-14674579D02*
X10863015Y-14693627D01*
X10863015Y-14693627D02*
X10853491Y-14722198D01*
X10853491Y-14722198D02*
X10739206Y-14836484D01*
X10739206Y-14836484D02*
X10863015Y-14836484D01*
X11101111Y-14836484D02*
X11101111Y-14636484D01*
X11186825Y-14836484D02*
X11186825Y-14731722D01*
X11186825Y-14731722D02*
X11177301Y-14712674D01*
X11177301Y-14712674D02*
X11158253Y-14703150D01*
X11158253Y-14703150D02*
X11129682Y-14703150D01*
X11129682Y-14703150D02*
X11110634Y-14712674D01*
X11110634Y-14712674D02*
X11101111Y-14722198D01*
X11310634Y-14836484D02*
X11291587Y-14826960D01*
X11291587Y-14826960D02*
X11282063Y-14817436D01*
X11282063Y-14817436D02*
X11272539Y-14798388D01*
X11272539Y-14798388D02*
X11272539Y-14741246D01*
X11272539Y-14741246D02*
X11282063Y-14722198D01*
X11282063Y-14722198D02*
X11291587Y-14712674D01*
X11291587Y-14712674D02*
X11310634Y-14703150D01*
X11310634Y-14703150D02*
X11339206Y-14703150D01*
X11339206Y-14703150D02*
X11358253Y-14712674D01*
X11358253Y-14712674D02*
X11367777Y-14722198D01*
X11367777Y-14722198D02*
X11377301Y-14741246D01*
X11377301Y-14741246D02*
X11377301Y-14798388D01*
X11377301Y-14798388D02*
X11367777Y-14817436D01*
X11367777Y-14817436D02*
X11358253Y-14826960D01*
X11358253Y-14826960D02*
X11339206Y-14836484D01*
X11339206Y-14836484D02*
X11310634Y-14836484D01*
X11491587Y-14836484D02*
X11472539Y-14826960D01*
X11472539Y-14826960D02*
X11463015Y-14807912D01*
X11463015Y-14807912D02*
X11463015Y-14636484D01*
X11643968Y-14826960D02*
X11624920Y-14836484D01*
X11624920Y-14836484D02*
X11586825Y-14836484D01*
X11586825Y-14836484D02*
X11567777Y-14826960D01*
X11567777Y-14826960D02*
X11558253Y-14807912D01*
X11558253Y-14807912D02*
X11558253Y-14731722D01*
X11558253Y-14731722D02*
X11567777Y-14712674D01*
X11567777Y-14712674D02*
X11586825Y-14703150D01*
X11586825Y-14703150D02*
X11624920Y-14703150D01*
X11624920Y-14703150D02*
X11643968Y-14712674D01*
X11643968Y-14712674D02*
X11653491Y-14731722D01*
X11653491Y-14731722D02*
X11653491Y-14750769D01*
X11653491Y-14750769D02*
X11558253Y-14769817D01*
X11729682Y-14826960D02*
X11748730Y-14836484D01*
X11748730Y-14836484D02*
X11786825Y-14836484D01*
X11786825Y-14836484D02*
X11805872Y-14826960D01*
X11805872Y-14826960D02*
X11815396Y-14807912D01*
X11815396Y-14807912D02*
X11815396Y-14798388D01*
X11815396Y-14798388D02*
X11805872Y-14779341D01*
X11805872Y-14779341D02*
X11786825Y-14769817D01*
X11786825Y-14769817D02*
X11758253Y-14769817D01*
X11758253Y-14769817D02*
X11739206Y-14760293D01*
X11739206Y-14760293D02*
X11729682Y-14741246D01*
X11729682Y-14741246D02*
X11729682Y-14731722D01*
X11729682Y-14731722D02*
X11739206Y-14712674D01*
X11739206Y-14712674D02*
X11758253Y-14703150D01*
X11758253Y-14703150D02*
X11786825Y-14703150D01*
X11786825Y-14703150D02*
X11805872Y-14712674D01*
X11882063Y-14912674D02*
X11891587Y-14903150D01*
X11891587Y-14903150D02*
X11910634Y-14874579D01*
X11910634Y-14874579D02*
X11920158Y-14855531D01*
X11920158Y-14855531D02*
X11929682Y-14826960D01*
X11929682Y-14826960D02*
X11939206Y-14779341D01*
X11939206Y-14779341D02*
X11939206Y-14741246D01*
X11939206Y-14741246D02*
X11929682Y-14693627D01*
X11929682Y-14693627D02*
X11920158Y-14665055D01*
X11920158Y-14665055D02*
X11910634Y-14646008D01*
X11910634Y-14646008D02*
X11891587Y-14617436D01*
X11891587Y-14617436D02*
X11882063Y-14607912D01*
M02*
