G04 #@! TF.GenerationSoftware,KiCad,Pcbnew,7.0.9-7.0.9~ubuntu20.04.1*
G04 #@! TF.CreationDate,2023-12-22T19:52:23+01:00*
G04 #@! TF.ProjectId,kicad-trans_pwr,6b696361-642d-4747-9261-6e735f707772,1.0*
G04 #@! TF.SameCoordinates,Original*
G04 #@! TF.FileFunction,Legend,Bot*
G04 #@! TF.FilePolarity,Positive*
%FSLAX46Y46*%
G04 Gerber Fmt 4.6, Leading zero omitted, Abs format (unit mm)*
G04 Created by KiCad (PCBNEW 7.0.9-7.0.9~ubuntu20.04.1) date 2023-12-22 19:52:23*
%MOMM*%
%LPD*%
G01*
G04 APERTURE LIST*
G04 Aperture macros list*
%AMRoundRect*
0 Rectangle with rounded corners*
0 $1 Rounding radius*
0 $2 $3 $4 $5 $6 $7 $8 $9 X,Y pos of 4 corners*
0 Add a 4 corners polygon primitive as box body*
4,1,4,$2,$3,$4,$5,$6,$7,$8,$9,$2,$3,0*
0 Add four circle primitives for the rounded corners*
1,1,$1+$1,$2,$3*
1,1,$1+$1,$4,$5*
1,1,$1+$1,$6,$7*
1,1,$1+$1,$8,$9*
0 Add four rect primitives between the rounded corners*
20,1,$1+$1,$2,$3,$4,$5,0*
20,1,$1+$1,$4,$5,$6,$7,0*
20,1,$1+$1,$6,$7,$8,$9,0*
20,1,$1+$1,$8,$9,$2,$3,0*%
G04 Aperture macros list end*
%ADD10C,0.150000*%
%ADD11C,0.120000*%
%ADD12C,6.400000*%
%ADD13C,1.600000*%
%ADD14R,2.400000X2.400000*%
%ADD15C,2.400000*%
%ADD16R,2.000000X1.905000*%
%ADD17C,4.900000*%
%ADD18O,2.000000X1.905000*%
%ADD19R,3.000000X3.000000*%
%ADD20C,3.000000*%
%ADD21R,1.600000X1.600000*%
%ADD22O,3.500000X3.500000*%
%ADD23C,3.200000*%
%ADD24RoundRect,0.225000X-0.375000X0.225000X-0.375000X-0.225000X0.375000X-0.225000X0.375000X0.225000X0*%
%ADD25RoundRect,0.225000X0.375000X-0.225000X0.375000X0.225000X-0.375000X0.225000X-0.375000X-0.225000X0*%
%ADD26RoundRect,0.225000X0.225000X0.375000X-0.225000X0.375000X-0.225000X-0.375000X0.225000X-0.375000X0*%
%ADD27RoundRect,0.225000X-0.225000X-0.375000X0.225000X-0.375000X0.225000X0.375000X-0.225000X0.375000X0*%
%ADD28R,2.000000X1.500000*%
%ADD29R,2.000000X3.800000*%
G04 APERTURE END LIST*
D10*
X87098094Y-63446819D02*
X87098094Y-62446819D01*
X87098094Y-62446819D02*
X86859999Y-62446819D01*
X86859999Y-62446819D02*
X86717142Y-62494438D01*
X86717142Y-62494438D02*
X86621904Y-62589676D01*
X86621904Y-62589676D02*
X86574285Y-62684914D01*
X86574285Y-62684914D02*
X86526666Y-62875390D01*
X86526666Y-62875390D02*
X86526666Y-63018247D01*
X86526666Y-63018247D02*
X86574285Y-63208723D01*
X86574285Y-63208723D02*
X86621904Y-63303961D01*
X86621904Y-63303961D02*
X86717142Y-63399200D01*
X86717142Y-63399200D02*
X86859999Y-63446819D01*
X86859999Y-63446819D02*
X87098094Y-63446819D01*
X85669523Y-62446819D02*
X85859999Y-62446819D01*
X85859999Y-62446819D02*
X85955237Y-62494438D01*
X85955237Y-62494438D02*
X86002856Y-62542057D01*
X86002856Y-62542057D02*
X86098094Y-62684914D01*
X86098094Y-62684914D02*
X86145713Y-62875390D01*
X86145713Y-62875390D02*
X86145713Y-63256342D01*
X86145713Y-63256342D02*
X86098094Y-63351580D01*
X86098094Y-63351580D02*
X86050475Y-63399200D01*
X86050475Y-63399200D02*
X85955237Y-63446819D01*
X85955237Y-63446819D02*
X85764761Y-63446819D01*
X85764761Y-63446819D02*
X85669523Y-63399200D01*
X85669523Y-63399200D02*
X85621904Y-63351580D01*
X85621904Y-63351580D02*
X85574285Y-63256342D01*
X85574285Y-63256342D02*
X85574285Y-63018247D01*
X85574285Y-63018247D02*
X85621904Y-62923009D01*
X85621904Y-62923009D02*
X85669523Y-62875390D01*
X85669523Y-62875390D02*
X85764761Y-62827771D01*
X85764761Y-62827771D02*
X85955237Y-62827771D01*
X85955237Y-62827771D02*
X86050475Y-62875390D01*
X86050475Y-62875390D02*
X86098094Y-62923009D01*
X86098094Y-62923009D02*
X86145713Y-63018247D01*
X142978094Y-63446819D02*
X142978094Y-62446819D01*
X142978094Y-62446819D02*
X142739999Y-62446819D01*
X142739999Y-62446819D02*
X142597142Y-62494438D01*
X142597142Y-62494438D02*
X142501904Y-62589676D01*
X142501904Y-62589676D02*
X142454285Y-62684914D01*
X142454285Y-62684914D02*
X142406666Y-62875390D01*
X142406666Y-62875390D02*
X142406666Y-63018247D01*
X142406666Y-63018247D02*
X142454285Y-63208723D01*
X142454285Y-63208723D02*
X142501904Y-63303961D01*
X142501904Y-63303961D02*
X142597142Y-63399200D01*
X142597142Y-63399200D02*
X142739999Y-63446819D01*
X142739999Y-63446819D02*
X142978094Y-63446819D01*
X142073332Y-62446819D02*
X141454285Y-62446819D01*
X141454285Y-62446819D02*
X141787618Y-62827771D01*
X141787618Y-62827771D02*
X141644761Y-62827771D01*
X141644761Y-62827771D02*
X141549523Y-62875390D01*
X141549523Y-62875390D02*
X141501904Y-62923009D01*
X141501904Y-62923009D02*
X141454285Y-63018247D01*
X141454285Y-63018247D02*
X141454285Y-63256342D01*
X141454285Y-63256342D02*
X141501904Y-63351580D01*
X141501904Y-63351580D02*
X141549523Y-63399200D01*
X141549523Y-63399200D02*
X141644761Y-63446819D01*
X141644761Y-63446819D02*
X141930475Y-63446819D01*
X141930475Y-63446819D02*
X142025713Y-63399200D01*
X142025713Y-63399200D02*
X142073332Y-63351580D01*
X135993094Y-90624819D02*
X135993094Y-89624819D01*
X135993094Y-89624819D02*
X135754999Y-89624819D01*
X135754999Y-89624819D02*
X135612142Y-89672438D01*
X135612142Y-89672438D02*
X135516904Y-89767676D01*
X135516904Y-89767676D02*
X135469285Y-89862914D01*
X135469285Y-89862914D02*
X135421666Y-90053390D01*
X135421666Y-90053390D02*
X135421666Y-90196247D01*
X135421666Y-90196247D02*
X135469285Y-90386723D01*
X135469285Y-90386723D02*
X135516904Y-90481961D01*
X135516904Y-90481961D02*
X135612142Y-90577200D01*
X135612142Y-90577200D02*
X135754999Y-90624819D01*
X135754999Y-90624819D02*
X135993094Y-90624819D01*
X134469285Y-90624819D02*
X135040713Y-90624819D01*
X134754999Y-90624819D02*
X134754999Y-89624819D01*
X134754999Y-89624819D02*
X134850237Y-89767676D01*
X134850237Y-89767676D02*
X134945475Y-89862914D01*
X134945475Y-89862914D02*
X135040713Y-89910533D01*
X91923094Y-90624819D02*
X91923094Y-89624819D01*
X91923094Y-89624819D02*
X91684999Y-89624819D01*
X91684999Y-89624819D02*
X91542142Y-89672438D01*
X91542142Y-89672438D02*
X91446904Y-89767676D01*
X91446904Y-89767676D02*
X91399285Y-89862914D01*
X91399285Y-89862914D02*
X91351666Y-90053390D01*
X91351666Y-90053390D02*
X91351666Y-90196247D01*
X91351666Y-90196247D02*
X91399285Y-90386723D01*
X91399285Y-90386723D02*
X91446904Y-90481961D01*
X91446904Y-90481961D02*
X91542142Y-90577200D01*
X91542142Y-90577200D02*
X91684999Y-90624819D01*
X91684999Y-90624819D02*
X91923094Y-90624819D01*
X90970713Y-89720057D02*
X90923094Y-89672438D01*
X90923094Y-89672438D02*
X90827856Y-89624819D01*
X90827856Y-89624819D02*
X90589761Y-89624819D01*
X90589761Y-89624819D02*
X90494523Y-89672438D01*
X90494523Y-89672438D02*
X90446904Y-89720057D01*
X90446904Y-89720057D02*
X90399285Y-89815295D01*
X90399285Y-89815295D02*
X90399285Y-89910533D01*
X90399285Y-89910533D02*
X90446904Y-90053390D01*
X90446904Y-90053390D02*
X91018332Y-90624819D01*
X91018332Y-90624819D02*
X90399285Y-90624819D01*
X79478094Y-63446819D02*
X79478094Y-62446819D01*
X79478094Y-62446819D02*
X79239999Y-62446819D01*
X79239999Y-62446819D02*
X79097142Y-62494438D01*
X79097142Y-62494438D02*
X79001904Y-62589676D01*
X79001904Y-62589676D02*
X78954285Y-62684914D01*
X78954285Y-62684914D02*
X78906666Y-62875390D01*
X78906666Y-62875390D02*
X78906666Y-63018247D01*
X78906666Y-63018247D02*
X78954285Y-63208723D01*
X78954285Y-63208723D02*
X79001904Y-63303961D01*
X79001904Y-63303961D02*
X79097142Y-63399200D01*
X79097142Y-63399200D02*
X79239999Y-63446819D01*
X79239999Y-63446819D02*
X79478094Y-63446819D01*
X78001904Y-62446819D02*
X78478094Y-62446819D01*
X78478094Y-62446819D02*
X78525713Y-62923009D01*
X78525713Y-62923009D02*
X78478094Y-62875390D01*
X78478094Y-62875390D02*
X78382856Y-62827771D01*
X78382856Y-62827771D02*
X78144761Y-62827771D01*
X78144761Y-62827771D02*
X78049523Y-62875390D01*
X78049523Y-62875390D02*
X78001904Y-62923009D01*
X78001904Y-62923009D02*
X77954285Y-63018247D01*
X77954285Y-63018247D02*
X77954285Y-63256342D01*
X77954285Y-63256342D02*
X78001904Y-63351580D01*
X78001904Y-63351580D02*
X78049523Y-63399200D01*
X78049523Y-63399200D02*
X78144761Y-63446819D01*
X78144761Y-63446819D02*
X78382856Y-63446819D01*
X78382856Y-63446819D02*
X78478094Y-63399200D01*
X78478094Y-63399200D02*
X78525713Y-63351580D01*
X130936904Y-120794819D02*
X130936904Y-121604342D01*
X130936904Y-121604342D02*
X130889285Y-121699580D01*
X130889285Y-121699580D02*
X130841666Y-121747200D01*
X130841666Y-121747200D02*
X130746428Y-121794819D01*
X130746428Y-121794819D02*
X130555952Y-121794819D01*
X130555952Y-121794819D02*
X130460714Y-121747200D01*
X130460714Y-121747200D02*
X130413095Y-121699580D01*
X130413095Y-121699580D02*
X130365476Y-121604342D01*
X130365476Y-121604342D02*
X130365476Y-120794819D01*
X129460714Y-121128152D02*
X129460714Y-121794819D01*
X129698809Y-120747200D02*
X129936904Y-121461485D01*
X129936904Y-121461485D02*
X129317857Y-121461485D01*
X150598094Y-63446819D02*
X150598094Y-62446819D01*
X150598094Y-62446819D02*
X150359999Y-62446819D01*
X150359999Y-62446819D02*
X150217142Y-62494438D01*
X150217142Y-62494438D02*
X150121904Y-62589676D01*
X150121904Y-62589676D02*
X150074285Y-62684914D01*
X150074285Y-62684914D02*
X150026666Y-62875390D01*
X150026666Y-62875390D02*
X150026666Y-63018247D01*
X150026666Y-63018247D02*
X150074285Y-63208723D01*
X150074285Y-63208723D02*
X150121904Y-63303961D01*
X150121904Y-63303961D02*
X150217142Y-63399200D01*
X150217142Y-63399200D02*
X150359999Y-63446819D01*
X150359999Y-63446819D02*
X150598094Y-63446819D01*
X149169523Y-62780152D02*
X149169523Y-63446819D01*
X149407618Y-62399200D02*
X149645713Y-63113485D01*
X149645713Y-63113485D02*
X149026666Y-63113485D01*
D11*
X87360000Y-56695000D02*
X87360000Y-60705000D01*
X85360000Y-56695000D02*
X87360000Y-56695000D01*
X85360000Y-56695000D02*
X85360000Y-60705000D01*
X141240000Y-61415000D02*
X141240000Y-57405000D01*
X143240000Y-61415000D02*
X141240000Y-61415000D01*
X143240000Y-61415000D02*
X143240000Y-57405000D01*
X137615000Y-88630000D02*
X133605000Y-88630000D01*
X137615000Y-86630000D02*
X137615000Y-88630000D01*
X137615000Y-86630000D02*
X133605000Y-86630000D01*
X88825000Y-86630000D02*
X92835000Y-86630000D01*
X88825000Y-88630000D02*
X88825000Y-86630000D01*
X88825000Y-88630000D02*
X92835000Y-88630000D01*
X77740000Y-61415000D02*
X77740000Y-57405000D01*
X79740000Y-61415000D02*
X77740000Y-61415000D01*
X79740000Y-61415000D02*
X79740000Y-57405000D01*
X126075000Y-120250000D02*
X132085000Y-120250000D01*
X128325000Y-113430000D02*
X132085000Y-113430000D01*
X132085000Y-113430000D02*
X132085000Y-114690000D01*
X132085000Y-120250000D02*
X132085000Y-118990000D01*
X150860000Y-56695000D02*
X150860000Y-60705000D01*
X148860000Y-56695000D02*
X150860000Y-56695000D01*
X148860000Y-56695000D02*
X148860000Y-60705000D01*
%LPC*%
D12*
X77470000Y-118110000D03*
D13*
X102235000Y-99060000D03*
X102235000Y-104060000D03*
D12*
X151130000Y-118110000D03*
D13*
X118745000Y-111840000D03*
X118745000Y-116840000D03*
D12*
X151130000Y-35560000D03*
D13*
X123190000Y-106640000D03*
X123190000Y-101640000D03*
D14*
X142360000Y-87630000D03*
D15*
X149860000Y-87630000D03*
D16*
X130175000Y-101600000D03*
D17*
X146835000Y-104140000D03*
D18*
X130175000Y-104140000D03*
X130175000Y-106680000D03*
D19*
X86360000Y-119380000D03*
D20*
X91440000Y-119380000D03*
D13*
X105410000Y-106600000D03*
X105410000Y-101600000D03*
D19*
X96520000Y-119380000D03*
D20*
X101600000Y-119380000D03*
D19*
X116840000Y-34290000D03*
D20*
X111760000Y-34290000D03*
D13*
X126365000Y-99140000D03*
X126365000Y-104140000D03*
D12*
X77470000Y-35560000D03*
D16*
X122555000Y-114300000D03*
D17*
X139215000Y-116840000D03*
D18*
X122555000Y-116840000D03*
X122555000Y-119380000D03*
D13*
X115570000Y-119380000D03*
X115570000Y-114380000D03*
D21*
X110490000Y-105345112D03*
D13*
X110490000Y-102845112D03*
D22*
X81765000Y-104140000D03*
D16*
X98425000Y-106680000D03*
D18*
X98425000Y-104140000D03*
X98425000Y-101600000D03*
D21*
X110490000Y-118045113D03*
D13*
X110490000Y-115545113D03*
D14*
X78740000Y-68580000D03*
D15*
X86240000Y-68580000D03*
D23*
X114300000Y-86800000D03*
X114300000Y-50800000D03*
D20*
X120300000Y-43800000D03*
X108300000Y-43800000D03*
X104300000Y-93800000D03*
X114300000Y-93800000D03*
X124300000Y-93800000D03*
D14*
X86360000Y-49530000D03*
D15*
X78860000Y-49530000D03*
D21*
X118110000Y-105345113D03*
D13*
X118110000Y-102845113D03*
D14*
X86240000Y-87630000D03*
D15*
X78740000Y-87630000D03*
D14*
X142360000Y-68580000D03*
D15*
X149860000Y-68580000D03*
D14*
X149860000Y-49530000D03*
D15*
X142360000Y-49530000D03*
D24*
X86360000Y-57405000D03*
X86360000Y-60705000D03*
D25*
X142240000Y-60705000D03*
X142240000Y-57405000D03*
D26*
X136905000Y-87630000D03*
X133605000Y-87630000D03*
D27*
X89535000Y-87630000D03*
X92835000Y-87630000D03*
D25*
X78740000Y-60705000D03*
X78740000Y-57405000D03*
D28*
X127025000Y-119140000D03*
X127025000Y-116840000D03*
D29*
X133325000Y-116840000D03*
D28*
X127025000Y-114540000D03*
D24*
X149860000Y-57405000D03*
X149860000Y-60705000D03*
%LPD*%
M02*
