%TF.GenerationSoftware,KiCad,Pcbnew,7.0.9-7.0.9~ubuntu20.04.1*%
%TF.CreationDate,2023-12-22T19:52:33+01:00*%
%TF.ProjectId,kicad-trans_pwr,6b696361-642d-4747-9261-6e735f707772,1.0*%
%TF.SameCoordinates,Original*%
%TF.FileFunction,Drillmap*%
%TF.FilePolarity,Positive*%
%FSLAX45Y45*%
G04 Gerber Fmt 4.5, Leading zero omitted, Abs format (unit mm)*
G04 Created by KiCad (PCBNEW 7.0.9-7.0.9~ubuntu20.04.1) date 2023-12-22 19:52:33*
%MOMM*%
%LPD*%
G01*
G04 APERTURE LIST*
%ADD10C,0.100000*%
%ADD11C,0.200000*%
%ADD12C,0.320000*%
%ADD13C,0.350000*%
G04 APERTURE END LIST*
D10*
X15748000Y-3048000D02*
X15748000Y-12293600D01*
X7264400Y-2921000D02*
X15621000Y-2921000D01*
X7112000Y-12293600D02*
X7112000Y-3073400D01*
X7264400Y-2921000D02*
G75*
G03*
X7112000Y-3073400I0J-152400D01*
G01*
X15595600Y-12446000D02*
G75*
G03*
X15748000Y-12293600I0J152400D01*
G01*
X15595600Y-12446000D02*
X7264400Y-12446000D01*
X15748000Y-3048000D02*
G75*
G03*
X15621000Y-2921000I-127000J0D01*
G01*
X7112000Y-12293600D02*
G75*
G03*
X7264400Y-12446000I152400J0D01*
G01*
D11*
D12*
X11270000Y-4920000D02*
X11590000Y-5240000D01*
X11590000Y-4920000D02*
X11270000Y-5240000D01*
X11270000Y-8520000D02*
X11590000Y-8840000D01*
X11590000Y-8520000D02*
X11270000Y-8840000D01*
D13*
X8351500Y-10414000D02*
G75*
G03*
X8351500Y-10414000I-175000J0D01*
G01*
D11*
X7367777Y-12762484D02*
X7367777Y-12562484D01*
X7367777Y-12562484D02*
X7415396Y-12562484D01*
X7415396Y-12562484D02*
X7443967Y-12572008D01*
X7443967Y-12572008D02*
X7463015Y-12591055D01*
X7463015Y-12591055D02*
X7472539Y-12610103D01*
X7472539Y-12610103D02*
X7482062Y-12648198D01*
X7482062Y-12648198D02*
X7482062Y-12676769D01*
X7482062Y-12676769D02*
X7472539Y-12714865D01*
X7472539Y-12714865D02*
X7463015Y-12733912D01*
X7463015Y-12733912D02*
X7443967Y-12752960D01*
X7443967Y-12752960D02*
X7415396Y-12762484D01*
X7415396Y-12762484D02*
X7367777Y-12762484D01*
X7567777Y-12762484D02*
X7567777Y-12629150D01*
X7567777Y-12667246D02*
X7577301Y-12648198D01*
X7577301Y-12648198D02*
X7586824Y-12638674D01*
X7586824Y-12638674D02*
X7605872Y-12629150D01*
X7605872Y-12629150D02*
X7624920Y-12629150D01*
X7691586Y-12762484D02*
X7691586Y-12629150D01*
X7691586Y-12562484D02*
X7682062Y-12572008D01*
X7682062Y-12572008D02*
X7691586Y-12581531D01*
X7691586Y-12581531D02*
X7701110Y-12572008D01*
X7701110Y-12572008D02*
X7691586Y-12562484D01*
X7691586Y-12562484D02*
X7691586Y-12581531D01*
X7815396Y-12762484D02*
X7796348Y-12752960D01*
X7796348Y-12752960D02*
X7786824Y-12733912D01*
X7786824Y-12733912D02*
X7786824Y-12562484D01*
X7920158Y-12762484D02*
X7901110Y-12752960D01*
X7901110Y-12752960D02*
X7891586Y-12733912D01*
X7891586Y-12733912D02*
X7891586Y-12562484D01*
X8148729Y-12762484D02*
X8148729Y-12562484D01*
X8148729Y-12562484D02*
X8215396Y-12705341D01*
X8215396Y-12705341D02*
X8282062Y-12562484D01*
X8282062Y-12562484D02*
X8282062Y-12762484D01*
X8463015Y-12762484D02*
X8463015Y-12657722D01*
X8463015Y-12657722D02*
X8453491Y-12638674D01*
X8453491Y-12638674D02*
X8434444Y-12629150D01*
X8434444Y-12629150D02*
X8396348Y-12629150D01*
X8396348Y-12629150D02*
X8377301Y-12638674D01*
X8463015Y-12752960D02*
X8443967Y-12762484D01*
X8443967Y-12762484D02*
X8396348Y-12762484D01*
X8396348Y-12762484D02*
X8377301Y-12752960D01*
X8377301Y-12752960D02*
X8367777Y-12733912D01*
X8367777Y-12733912D02*
X8367777Y-12714865D01*
X8367777Y-12714865D02*
X8377301Y-12695817D01*
X8377301Y-12695817D02*
X8396348Y-12686293D01*
X8396348Y-12686293D02*
X8443967Y-12686293D01*
X8443967Y-12686293D02*
X8463015Y-12676769D01*
X8558253Y-12629150D02*
X8558253Y-12829150D01*
X8558253Y-12638674D02*
X8577301Y-12629150D01*
X8577301Y-12629150D02*
X8615396Y-12629150D01*
X8615396Y-12629150D02*
X8634444Y-12638674D01*
X8634444Y-12638674D02*
X8643967Y-12648198D01*
X8643967Y-12648198D02*
X8653491Y-12667246D01*
X8653491Y-12667246D02*
X8653491Y-12724388D01*
X8653491Y-12724388D02*
X8643967Y-12743436D01*
X8643967Y-12743436D02*
X8634444Y-12752960D01*
X8634444Y-12752960D02*
X8615396Y-12762484D01*
X8615396Y-12762484D02*
X8577301Y-12762484D01*
X8577301Y-12762484D02*
X8558253Y-12752960D01*
X8739205Y-12743436D02*
X8748729Y-12752960D01*
X8748729Y-12752960D02*
X8739205Y-12762484D01*
X8739205Y-12762484D02*
X8729682Y-12752960D01*
X8729682Y-12752960D02*
X8739205Y-12743436D01*
X8739205Y-12743436D02*
X8739205Y-12762484D01*
X8739205Y-12638674D02*
X8748729Y-12648198D01*
X8748729Y-12648198D02*
X8739205Y-12657722D01*
X8739205Y-12657722D02*
X8729682Y-12648198D01*
X8729682Y-12648198D02*
X8739205Y-12638674D01*
X8739205Y-12638674D02*
X8739205Y-12657722D01*
X6907000Y-12991000D02*
X7107000Y-13191000D01*
X7107000Y-12991000D02*
X6907000Y-13191000D01*
X7348729Y-12982484D02*
X7472539Y-12982484D01*
X7472539Y-12982484D02*
X7405872Y-13058674D01*
X7405872Y-13058674D02*
X7434443Y-13058674D01*
X7434443Y-13058674D02*
X7453491Y-13068198D01*
X7453491Y-13068198D02*
X7463015Y-13077722D01*
X7463015Y-13077722D02*
X7472539Y-13096769D01*
X7472539Y-13096769D02*
X7472539Y-13144388D01*
X7472539Y-13144388D02*
X7463015Y-13163436D01*
X7463015Y-13163436D02*
X7453491Y-13172960D01*
X7453491Y-13172960D02*
X7434443Y-13182484D01*
X7434443Y-13182484D02*
X7377301Y-13182484D01*
X7377301Y-13182484D02*
X7358253Y-13172960D01*
X7358253Y-13172960D02*
X7348729Y-13163436D01*
X7558253Y-13163436D02*
X7567777Y-13172960D01*
X7567777Y-13172960D02*
X7558253Y-13182484D01*
X7558253Y-13182484D02*
X7548729Y-13172960D01*
X7548729Y-13172960D02*
X7558253Y-13163436D01*
X7558253Y-13163436D02*
X7558253Y-13182484D01*
X7643967Y-13001531D02*
X7653491Y-12992008D01*
X7653491Y-12992008D02*
X7672539Y-12982484D01*
X7672539Y-12982484D02*
X7720158Y-12982484D01*
X7720158Y-12982484D02*
X7739205Y-12992008D01*
X7739205Y-12992008D02*
X7748729Y-13001531D01*
X7748729Y-13001531D02*
X7758253Y-13020579D01*
X7758253Y-13020579D02*
X7758253Y-13039627D01*
X7758253Y-13039627D02*
X7748729Y-13068198D01*
X7748729Y-13068198D02*
X7634443Y-13182484D01*
X7634443Y-13182484D02*
X7758253Y-13182484D01*
X7882062Y-12982484D02*
X7901110Y-12982484D01*
X7901110Y-12982484D02*
X7920158Y-12992008D01*
X7920158Y-12992008D02*
X7929682Y-13001531D01*
X7929682Y-13001531D02*
X7939205Y-13020579D01*
X7939205Y-13020579D02*
X7948729Y-13058674D01*
X7948729Y-13058674D02*
X7948729Y-13106293D01*
X7948729Y-13106293D02*
X7939205Y-13144388D01*
X7939205Y-13144388D02*
X7929682Y-13163436D01*
X7929682Y-13163436D02*
X7920158Y-13172960D01*
X7920158Y-13172960D02*
X7901110Y-13182484D01*
X7901110Y-13182484D02*
X7882062Y-13182484D01*
X7882062Y-13182484D02*
X7863015Y-13172960D01*
X7863015Y-13172960D02*
X7853491Y-13163436D01*
X7853491Y-13163436D02*
X7843967Y-13144388D01*
X7843967Y-13144388D02*
X7834443Y-13106293D01*
X7834443Y-13106293D02*
X7834443Y-13058674D01*
X7834443Y-13058674D02*
X7843967Y-13020579D01*
X7843967Y-13020579D02*
X7853491Y-13001531D01*
X7853491Y-13001531D02*
X7863015Y-12992008D01*
X7863015Y-12992008D02*
X7882062Y-12982484D01*
X8072539Y-12982484D02*
X8091586Y-12982484D01*
X8091586Y-12982484D02*
X8110634Y-12992008D01*
X8110634Y-12992008D02*
X8120158Y-13001531D01*
X8120158Y-13001531D02*
X8129682Y-13020579D01*
X8129682Y-13020579D02*
X8139205Y-13058674D01*
X8139205Y-13058674D02*
X8139205Y-13106293D01*
X8139205Y-13106293D02*
X8129682Y-13144388D01*
X8129682Y-13144388D02*
X8120158Y-13163436D01*
X8120158Y-13163436D02*
X8110634Y-13172960D01*
X8110634Y-13172960D02*
X8091586Y-13182484D01*
X8091586Y-13182484D02*
X8072539Y-13182484D01*
X8072539Y-13182484D02*
X8053491Y-13172960D01*
X8053491Y-13172960D02*
X8043967Y-13163436D01*
X8043967Y-13163436D02*
X8034443Y-13144388D01*
X8034443Y-13144388D02*
X8024920Y-13106293D01*
X8024920Y-13106293D02*
X8024920Y-13058674D01*
X8024920Y-13058674D02*
X8034443Y-13020579D01*
X8034443Y-13020579D02*
X8043967Y-13001531D01*
X8043967Y-13001531D02*
X8053491Y-12992008D01*
X8053491Y-12992008D02*
X8072539Y-12982484D01*
X8224920Y-13182484D02*
X8224920Y-13049150D01*
X8224920Y-13068198D02*
X8234443Y-13058674D01*
X8234443Y-13058674D02*
X8253491Y-13049150D01*
X8253491Y-13049150D02*
X8282063Y-13049150D01*
X8282063Y-13049150D02*
X8301110Y-13058674D01*
X8301110Y-13058674D02*
X8310634Y-13077722D01*
X8310634Y-13077722D02*
X8310634Y-13182484D01*
X8310634Y-13077722D02*
X8320158Y-13058674D01*
X8320158Y-13058674D02*
X8339205Y-13049150D01*
X8339205Y-13049150D02*
X8367777Y-13049150D01*
X8367777Y-13049150D02*
X8386824Y-13058674D01*
X8386824Y-13058674D02*
X8396348Y-13077722D01*
X8396348Y-13077722D02*
X8396348Y-13182484D01*
X8491586Y-13182484D02*
X8491586Y-13049150D01*
X8491586Y-13068198D02*
X8501110Y-13058674D01*
X8501110Y-13058674D02*
X8520158Y-13049150D01*
X8520158Y-13049150D02*
X8548729Y-13049150D01*
X8548729Y-13049150D02*
X8567777Y-13058674D01*
X8567777Y-13058674D02*
X8577301Y-13077722D01*
X8577301Y-13077722D02*
X8577301Y-13182484D01*
X8577301Y-13077722D02*
X8586825Y-13058674D01*
X8586825Y-13058674D02*
X8605872Y-13049150D01*
X8605872Y-13049150D02*
X8634444Y-13049150D01*
X8634444Y-13049150D02*
X8653491Y-13058674D01*
X8653491Y-13058674D02*
X8663015Y-13077722D01*
X8663015Y-13077722D02*
X8663015Y-13182484D01*
X9053491Y-12972960D02*
X8882063Y-13230103D01*
X9310634Y-12982484D02*
X9329682Y-12982484D01*
X9329682Y-12982484D02*
X9348729Y-12992008D01*
X9348729Y-12992008D02*
X9358253Y-13001531D01*
X9358253Y-13001531D02*
X9367777Y-13020579D01*
X9367777Y-13020579D02*
X9377301Y-13058674D01*
X9377301Y-13058674D02*
X9377301Y-13106293D01*
X9377301Y-13106293D02*
X9367777Y-13144388D01*
X9367777Y-13144388D02*
X9358253Y-13163436D01*
X9358253Y-13163436D02*
X9348729Y-13172960D01*
X9348729Y-13172960D02*
X9329682Y-13182484D01*
X9329682Y-13182484D02*
X9310634Y-13182484D01*
X9310634Y-13182484D02*
X9291587Y-13172960D01*
X9291587Y-13172960D02*
X9282063Y-13163436D01*
X9282063Y-13163436D02*
X9272539Y-13144388D01*
X9272539Y-13144388D02*
X9263015Y-13106293D01*
X9263015Y-13106293D02*
X9263015Y-13058674D01*
X9263015Y-13058674D02*
X9272539Y-13020579D01*
X9272539Y-13020579D02*
X9282063Y-13001531D01*
X9282063Y-13001531D02*
X9291587Y-12992008D01*
X9291587Y-12992008D02*
X9310634Y-12982484D01*
X9463015Y-13163436D02*
X9472539Y-13172960D01*
X9472539Y-13172960D02*
X9463015Y-13182484D01*
X9463015Y-13182484D02*
X9453491Y-13172960D01*
X9453491Y-13172960D02*
X9463015Y-13163436D01*
X9463015Y-13163436D02*
X9463015Y-13182484D01*
X9663015Y-13182484D02*
X9548729Y-13182484D01*
X9605872Y-13182484D02*
X9605872Y-12982484D01*
X9605872Y-12982484D02*
X9586825Y-13011055D01*
X9586825Y-13011055D02*
X9567777Y-13030103D01*
X9567777Y-13030103D02*
X9548729Y-13039627D01*
X9739206Y-13001531D02*
X9748729Y-12992008D01*
X9748729Y-12992008D02*
X9767777Y-12982484D01*
X9767777Y-12982484D02*
X9815396Y-12982484D01*
X9815396Y-12982484D02*
X9834444Y-12992008D01*
X9834444Y-12992008D02*
X9843968Y-13001531D01*
X9843968Y-13001531D02*
X9853491Y-13020579D01*
X9853491Y-13020579D02*
X9853491Y-13039627D01*
X9853491Y-13039627D02*
X9843968Y-13068198D01*
X9843968Y-13068198D02*
X9729682Y-13182484D01*
X9729682Y-13182484D02*
X9853491Y-13182484D01*
X10024920Y-12982484D02*
X9986825Y-12982484D01*
X9986825Y-12982484D02*
X9967777Y-12992008D01*
X9967777Y-12992008D02*
X9958253Y-13001531D01*
X9958253Y-13001531D02*
X9939206Y-13030103D01*
X9939206Y-13030103D02*
X9929682Y-13068198D01*
X9929682Y-13068198D02*
X9929682Y-13144388D01*
X9929682Y-13144388D02*
X9939206Y-13163436D01*
X9939206Y-13163436D02*
X9948729Y-13172960D01*
X9948729Y-13172960D02*
X9967777Y-13182484D01*
X9967777Y-13182484D02*
X10005872Y-13182484D01*
X10005872Y-13182484D02*
X10024920Y-13172960D01*
X10024920Y-13172960D02*
X10034444Y-13163436D01*
X10034444Y-13163436D02*
X10043968Y-13144388D01*
X10043968Y-13144388D02*
X10043968Y-13096769D01*
X10043968Y-13096769D02*
X10034444Y-13077722D01*
X10034444Y-13077722D02*
X10024920Y-13068198D01*
X10024920Y-13068198D02*
X10005872Y-13058674D01*
X10005872Y-13058674D02*
X9967777Y-13058674D01*
X9967777Y-13058674D02*
X9948729Y-13068198D01*
X9948729Y-13068198D02*
X9939206Y-13077722D01*
X9939206Y-13077722D02*
X9929682Y-13096769D01*
X10167777Y-12982484D02*
X10186825Y-12982484D01*
X10186825Y-12982484D02*
X10205872Y-12992008D01*
X10205872Y-12992008D02*
X10215396Y-13001531D01*
X10215396Y-13001531D02*
X10224920Y-13020579D01*
X10224920Y-13020579D02*
X10234444Y-13058674D01*
X10234444Y-13058674D02*
X10234444Y-13106293D01*
X10234444Y-13106293D02*
X10224920Y-13144388D01*
X10224920Y-13144388D02*
X10215396Y-13163436D01*
X10215396Y-13163436D02*
X10205872Y-13172960D01*
X10205872Y-13172960D02*
X10186825Y-13182484D01*
X10186825Y-13182484D02*
X10167777Y-13182484D01*
X10167777Y-13182484D02*
X10148729Y-13172960D01*
X10148729Y-13172960D02*
X10139206Y-13163436D01*
X10139206Y-13163436D02*
X10129682Y-13144388D01*
X10129682Y-13144388D02*
X10120158Y-13106293D01*
X10120158Y-13106293D02*
X10120158Y-13058674D01*
X10120158Y-13058674D02*
X10129682Y-13020579D01*
X10129682Y-13020579D02*
X10139206Y-13001531D01*
X10139206Y-13001531D02*
X10148729Y-12992008D01*
X10148729Y-12992008D02*
X10167777Y-12982484D01*
X10310634Y-12982484D02*
X10310634Y-13020579D01*
X10386825Y-12982484D02*
X10386825Y-13020579D01*
X10682063Y-13258674D02*
X10672539Y-13249150D01*
X10672539Y-13249150D02*
X10653491Y-13220579D01*
X10653491Y-13220579D02*
X10643968Y-13201531D01*
X10643968Y-13201531D02*
X10634444Y-13172960D01*
X10634444Y-13172960D02*
X10624920Y-13125341D01*
X10624920Y-13125341D02*
X10624920Y-13087246D01*
X10624920Y-13087246D02*
X10634444Y-13039627D01*
X10634444Y-13039627D02*
X10643968Y-13011055D01*
X10643968Y-13011055D02*
X10653491Y-12992008D01*
X10653491Y-12992008D02*
X10672539Y-12963436D01*
X10672539Y-12963436D02*
X10682063Y-12953912D01*
X10748730Y-13001531D02*
X10758253Y-12992008D01*
X10758253Y-12992008D02*
X10777301Y-12982484D01*
X10777301Y-12982484D02*
X10824920Y-12982484D01*
X10824920Y-12982484D02*
X10843968Y-12992008D01*
X10843968Y-12992008D02*
X10853491Y-13001531D01*
X10853491Y-13001531D02*
X10863015Y-13020579D01*
X10863015Y-13020579D02*
X10863015Y-13039627D01*
X10863015Y-13039627D02*
X10853491Y-13068198D01*
X10853491Y-13068198D02*
X10739206Y-13182484D01*
X10739206Y-13182484D02*
X10863015Y-13182484D01*
X11101111Y-13182484D02*
X11101111Y-12982484D01*
X11186825Y-13182484D02*
X11186825Y-13077722D01*
X11186825Y-13077722D02*
X11177301Y-13058674D01*
X11177301Y-13058674D02*
X11158253Y-13049150D01*
X11158253Y-13049150D02*
X11129682Y-13049150D01*
X11129682Y-13049150D02*
X11110634Y-13058674D01*
X11110634Y-13058674D02*
X11101111Y-13068198D01*
X11310634Y-13182484D02*
X11291587Y-13172960D01*
X11291587Y-13172960D02*
X11282063Y-13163436D01*
X11282063Y-13163436D02*
X11272539Y-13144388D01*
X11272539Y-13144388D02*
X11272539Y-13087246D01*
X11272539Y-13087246D02*
X11282063Y-13068198D01*
X11282063Y-13068198D02*
X11291587Y-13058674D01*
X11291587Y-13058674D02*
X11310634Y-13049150D01*
X11310634Y-13049150D02*
X11339206Y-13049150D01*
X11339206Y-13049150D02*
X11358253Y-13058674D01*
X11358253Y-13058674D02*
X11367777Y-13068198D01*
X11367777Y-13068198D02*
X11377301Y-13087246D01*
X11377301Y-13087246D02*
X11377301Y-13144388D01*
X11377301Y-13144388D02*
X11367777Y-13163436D01*
X11367777Y-13163436D02*
X11358253Y-13172960D01*
X11358253Y-13172960D02*
X11339206Y-13182484D01*
X11339206Y-13182484D02*
X11310634Y-13182484D01*
X11491587Y-13182484D02*
X11472539Y-13172960D01*
X11472539Y-13172960D02*
X11463015Y-13153912D01*
X11463015Y-13153912D02*
X11463015Y-12982484D01*
X11643968Y-13172960D02*
X11624920Y-13182484D01*
X11624920Y-13182484D02*
X11586825Y-13182484D01*
X11586825Y-13182484D02*
X11567777Y-13172960D01*
X11567777Y-13172960D02*
X11558253Y-13153912D01*
X11558253Y-13153912D02*
X11558253Y-13077722D01*
X11558253Y-13077722D02*
X11567777Y-13058674D01*
X11567777Y-13058674D02*
X11586825Y-13049150D01*
X11586825Y-13049150D02*
X11624920Y-13049150D01*
X11624920Y-13049150D02*
X11643968Y-13058674D01*
X11643968Y-13058674D02*
X11653491Y-13077722D01*
X11653491Y-13077722D02*
X11653491Y-13096769D01*
X11653491Y-13096769D02*
X11558253Y-13115817D01*
X11729682Y-13172960D02*
X11748730Y-13182484D01*
X11748730Y-13182484D02*
X11786825Y-13182484D01*
X11786825Y-13182484D02*
X11805872Y-13172960D01*
X11805872Y-13172960D02*
X11815396Y-13153912D01*
X11815396Y-13153912D02*
X11815396Y-13144388D01*
X11815396Y-13144388D02*
X11805872Y-13125341D01*
X11805872Y-13125341D02*
X11786825Y-13115817D01*
X11786825Y-13115817D02*
X11758253Y-13115817D01*
X11758253Y-13115817D02*
X11739206Y-13106293D01*
X11739206Y-13106293D02*
X11729682Y-13087246D01*
X11729682Y-13087246D02*
X11729682Y-13077722D01*
X11729682Y-13077722D02*
X11739206Y-13058674D01*
X11739206Y-13058674D02*
X11758253Y-13049150D01*
X11758253Y-13049150D02*
X11786825Y-13049150D01*
X11786825Y-13049150D02*
X11805872Y-13058674D01*
X11882063Y-13258674D02*
X11891587Y-13249150D01*
X11891587Y-13249150D02*
X11910634Y-13220579D01*
X11910634Y-13220579D02*
X11920158Y-13201531D01*
X11920158Y-13201531D02*
X11929682Y-13172960D01*
X11929682Y-13172960D02*
X11939206Y-13125341D01*
X11939206Y-13125341D02*
X11939206Y-13087246D01*
X11939206Y-13087246D02*
X11929682Y-13039627D01*
X11929682Y-13039627D02*
X11920158Y-13011055D01*
X11920158Y-13011055D02*
X11910634Y-12992008D01*
X11910634Y-12992008D02*
X11891587Y-12963436D01*
X11891587Y-12963436D02*
X11882063Y-12953912D01*
X12243968Y-13258674D02*
X12234444Y-13249150D01*
X12234444Y-13249150D02*
X12215396Y-13220579D01*
X12215396Y-13220579D02*
X12205872Y-13201531D01*
X12205872Y-13201531D02*
X12196349Y-13172960D01*
X12196349Y-13172960D02*
X12186825Y-13125341D01*
X12186825Y-13125341D02*
X12186825Y-13087246D01*
X12186825Y-13087246D02*
X12196349Y-13039627D01*
X12196349Y-13039627D02*
X12205872Y-13011055D01*
X12205872Y-13011055D02*
X12215396Y-12992008D01*
X12215396Y-12992008D02*
X12234444Y-12963436D01*
X12234444Y-12963436D02*
X12243968Y-12953912D01*
X12320158Y-13049150D02*
X12320158Y-13182484D01*
X12320158Y-13068198D02*
X12329682Y-13058674D01*
X12329682Y-13058674D02*
X12348730Y-13049150D01*
X12348730Y-13049150D02*
X12377301Y-13049150D01*
X12377301Y-13049150D02*
X12396349Y-13058674D01*
X12396349Y-13058674D02*
X12405872Y-13077722D01*
X12405872Y-13077722D02*
X12405872Y-13182484D01*
X12529682Y-13182484D02*
X12510634Y-13172960D01*
X12510634Y-13172960D02*
X12501111Y-13163436D01*
X12501111Y-13163436D02*
X12491587Y-13144388D01*
X12491587Y-13144388D02*
X12491587Y-13087246D01*
X12491587Y-13087246D02*
X12501111Y-13068198D01*
X12501111Y-13068198D02*
X12510634Y-13058674D01*
X12510634Y-13058674D02*
X12529682Y-13049150D01*
X12529682Y-13049150D02*
X12558253Y-13049150D01*
X12558253Y-13049150D02*
X12577301Y-13058674D01*
X12577301Y-13058674D02*
X12586825Y-13068198D01*
X12586825Y-13068198D02*
X12596349Y-13087246D01*
X12596349Y-13087246D02*
X12596349Y-13144388D01*
X12596349Y-13144388D02*
X12586825Y-13163436D01*
X12586825Y-13163436D02*
X12577301Y-13172960D01*
X12577301Y-13172960D02*
X12558253Y-13182484D01*
X12558253Y-13182484D02*
X12529682Y-13182484D01*
X12653492Y-13049150D02*
X12729682Y-13049150D01*
X12682063Y-12982484D02*
X12682063Y-13153912D01*
X12682063Y-13153912D02*
X12691587Y-13172960D01*
X12691587Y-13172960D02*
X12710634Y-13182484D01*
X12710634Y-13182484D02*
X12729682Y-13182484D01*
X12948730Y-13049150D02*
X12948730Y-13249150D01*
X12948730Y-13058674D02*
X12967777Y-13049150D01*
X12967777Y-13049150D02*
X13005873Y-13049150D01*
X13005873Y-13049150D02*
X13024920Y-13058674D01*
X13024920Y-13058674D02*
X13034444Y-13068198D01*
X13034444Y-13068198D02*
X13043968Y-13087246D01*
X13043968Y-13087246D02*
X13043968Y-13144388D01*
X13043968Y-13144388D02*
X13034444Y-13163436D01*
X13034444Y-13163436D02*
X13024920Y-13172960D01*
X13024920Y-13172960D02*
X13005873Y-13182484D01*
X13005873Y-13182484D02*
X12967777Y-13182484D01*
X12967777Y-13182484D02*
X12948730Y-13172960D01*
X13158253Y-13182484D02*
X13139206Y-13172960D01*
X13139206Y-13172960D02*
X13129682Y-13153912D01*
X13129682Y-13153912D02*
X13129682Y-12982484D01*
X13320158Y-13182484D02*
X13320158Y-13077722D01*
X13320158Y-13077722D02*
X13310634Y-13058674D01*
X13310634Y-13058674D02*
X13291587Y-13049150D01*
X13291587Y-13049150D02*
X13253492Y-13049150D01*
X13253492Y-13049150D02*
X13234444Y-13058674D01*
X13320158Y-13172960D02*
X13301111Y-13182484D01*
X13301111Y-13182484D02*
X13253492Y-13182484D01*
X13253492Y-13182484D02*
X13234444Y-13172960D01*
X13234444Y-13172960D02*
X13224920Y-13153912D01*
X13224920Y-13153912D02*
X13224920Y-13134865D01*
X13224920Y-13134865D02*
X13234444Y-13115817D01*
X13234444Y-13115817D02*
X13253492Y-13106293D01*
X13253492Y-13106293D02*
X13301111Y-13106293D01*
X13301111Y-13106293D02*
X13320158Y-13096769D01*
X13386825Y-13049150D02*
X13463015Y-13049150D01*
X13415396Y-12982484D02*
X13415396Y-13153912D01*
X13415396Y-13153912D02*
X13424920Y-13172960D01*
X13424920Y-13172960D02*
X13443968Y-13182484D01*
X13443968Y-13182484D02*
X13463015Y-13182484D01*
X13605873Y-13172960D02*
X13586825Y-13182484D01*
X13586825Y-13182484D02*
X13548730Y-13182484D01*
X13548730Y-13182484D02*
X13529682Y-13172960D01*
X13529682Y-13172960D02*
X13520158Y-13153912D01*
X13520158Y-13153912D02*
X13520158Y-13077722D01*
X13520158Y-13077722D02*
X13529682Y-13058674D01*
X13529682Y-13058674D02*
X13548730Y-13049150D01*
X13548730Y-13049150D02*
X13586825Y-13049150D01*
X13586825Y-13049150D02*
X13605873Y-13058674D01*
X13605873Y-13058674D02*
X13615396Y-13077722D01*
X13615396Y-13077722D02*
X13615396Y-13096769D01*
X13615396Y-13096769D02*
X13520158Y-13115817D01*
X13786825Y-13182484D02*
X13786825Y-12982484D01*
X13786825Y-13172960D02*
X13767777Y-13182484D01*
X13767777Y-13182484D02*
X13729682Y-13182484D01*
X13729682Y-13182484D02*
X13710634Y-13172960D01*
X13710634Y-13172960D02*
X13701111Y-13163436D01*
X13701111Y-13163436D02*
X13691587Y-13144388D01*
X13691587Y-13144388D02*
X13691587Y-13087246D01*
X13691587Y-13087246D02*
X13701111Y-13068198D01*
X13701111Y-13068198D02*
X13710634Y-13058674D01*
X13710634Y-13058674D02*
X13729682Y-13049150D01*
X13729682Y-13049150D02*
X13767777Y-13049150D01*
X13767777Y-13049150D02*
X13786825Y-13058674D01*
X13863015Y-13258674D02*
X13872539Y-13249150D01*
X13872539Y-13249150D02*
X13891587Y-13220579D01*
X13891587Y-13220579D02*
X13901111Y-13201531D01*
X13901111Y-13201531D02*
X13910634Y-13172960D01*
X13910634Y-13172960D02*
X13920158Y-13125341D01*
X13920158Y-13125341D02*
X13920158Y-13087246D01*
X13920158Y-13087246D02*
X13910634Y-13039627D01*
X13910634Y-13039627D02*
X13901111Y-13011055D01*
X13901111Y-13011055D02*
X13891587Y-12992008D01*
X13891587Y-12992008D02*
X13872539Y-12963436D01*
X13872539Y-12963436D02*
X13863015Y-12953912D01*
X7107000Y-13411000D02*
G75*
G03*
X7107000Y-13411000I-100000J0D01*
G01*
X7348729Y-13302484D02*
X7472539Y-13302484D01*
X7472539Y-13302484D02*
X7405872Y-13378674D01*
X7405872Y-13378674D02*
X7434443Y-13378674D01*
X7434443Y-13378674D02*
X7453491Y-13388198D01*
X7453491Y-13388198D02*
X7463015Y-13397722D01*
X7463015Y-13397722D02*
X7472539Y-13416769D01*
X7472539Y-13416769D02*
X7472539Y-13464388D01*
X7472539Y-13464388D02*
X7463015Y-13483436D01*
X7463015Y-13483436D02*
X7453491Y-13492960D01*
X7453491Y-13492960D02*
X7434443Y-13502484D01*
X7434443Y-13502484D02*
X7377301Y-13502484D01*
X7377301Y-13502484D02*
X7358253Y-13492960D01*
X7358253Y-13492960D02*
X7348729Y-13483436D01*
X7558253Y-13483436D02*
X7567777Y-13492960D01*
X7567777Y-13492960D02*
X7558253Y-13502484D01*
X7558253Y-13502484D02*
X7548729Y-13492960D01*
X7548729Y-13492960D02*
X7558253Y-13483436D01*
X7558253Y-13483436D02*
X7558253Y-13502484D01*
X7748729Y-13302484D02*
X7653491Y-13302484D01*
X7653491Y-13302484D02*
X7643967Y-13397722D01*
X7643967Y-13397722D02*
X7653491Y-13388198D01*
X7653491Y-13388198D02*
X7672539Y-13378674D01*
X7672539Y-13378674D02*
X7720158Y-13378674D01*
X7720158Y-13378674D02*
X7739205Y-13388198D01*
X7739205Y-13388198D02*
X7748729Y-13397722D01*
X7748729Y-13397722D02*
X7758253Y-13416769D01*
X7758253Y-13416769D02*
X7758253Y-13464388D01*
X7758253Y-13464388D02*
X7748729Y-13483436D01*
X7748729Y-13483436D02*
X7739205Y-13492960D01*
X7739205Y-13492960D02*
X7720158Y-13502484D01*
X7720158Y-13502484D02*
X7672539Y-13502484D01*
X7672539Y-13502484D02*
X7653491Y-13492960D01*
X7653491Y-13492960D02*
X7643967Y-13483436D01*
X7882062Y-13302484D02*
X7901110Y-13302484D01*
X7901110Y-13302484D02*
X7920158Y-13312008D01*
X7920158Y-13312008D02*
X7929682Y-13321531D01*
X7929682Y-13321531D02*
X7939205Y-13340579D01*
X7939205Y-13340579D02*
X7948729Y-13378674D01*
X7948729Y-13378674D02*
X7948729Y-13426293D01*
X7948729Y-13426293D02*
X7939205Y-13464388D01*
X7939205Y-13464388D02*
X7929682Y-13483436D01*
X7929682Y-13483436D02*
X7920158Y-13492960D01*
X7920158Y-13492960D02*
X7901110Y-13502484D01*
X7901110Y-13502484D02*
X7882062Y-13502484D01*
X7882062Y-13502484D02*
X7863015Y-13492960D01*
X7863015Y-13492960D02*
X7853491Y-13483436D01*
X7853491Y-13483436D02*
X7843967Y-13464388D01*
X7843967Y-13464388D02*
X7834443Y-13426293D01*
X7834443Y-13426293D02*
X7834443Y-13378674D01*
X7834443Y-13378674D02*
X7843967Y-13340579D01*
X7843967Y-13340579D02*
X7853491Y-13321531D01*
X7853491Y-13321531D02*
X7863015Y-13312008D01*
X7863015Y-13312008D02*
X7882062Y-13302484D01*
X8072539Y-13302484D02*
X8091586Y-13302484D01*
X8091586Y-13302484D02*
X8110634Y-13312008D01*
X8110634Y-13312008D02*
X8120158Y-13321531D01*
X8120158Y-13321531D02*
X8129682Y-13340579D01*
X8129682Y-13340579D02*
X8139205Y-13378674D01*
X8139205Y-13378674D02*
X8139205Y-13426293D01*
X8139205Y-13426293D02*
X8129682Y-13464388D01*
X8129682Y-13464388D02*
X8120158Y-13483436D01*
X8120158Y-13483436D02*
X8110634Y-13492960D01*
X8110634Y-13492960D02*
X8091586Y-13502484D01*
X8091586Y-13502484D02*
X8072539Y-13502484D01*
X8072539Y-13502484D02*
X8053491Y-13492960D01*
X8053491Y-13492960D02*
X8043967Y-13483436D01*
X8043967Y-13483436D02*
X8034443Y-13464388D01*
X8034443Y-13464388D02*
X8024920Y-13426293D01*
X8024920Y-13426293D02*
X8024920Y-13378674D01*
X8024920Y-13378674D02*
X8034443Y-13340579D01*
X8034443Y-13340579D02*
X8043967Y-13321531D01*
X8043967Y-13321531D02*
X8053491Y-13312008D01*
X8053491Y-13312008D02*
X8072539Y-13302484D01*
X8224920Y-13502484D02*
X8224920Y-13369150D01*
X8224920Y-13388198D02*
X8234443Y-13378674D01*
X8234443Y-13378674D02*
X8253491Y-13369150D01*
X8253491Y-13369150D02*
X8282063Y-13369150D01*
X8282063Y-13369150D02*
X8301110Y-13378674D01*
X8301110Y-13378674D02*
X8310634Y-13397722D01*
X8310634Y-13397722D02*
X8310634Y-13502484D01*
X8310634Y-13397722D02*
X8320158Y-13378674D01*
X8320158Y-13378674D02*
X8339205Y-13369150D01*
X8339205Y-13369150D02*
X8367777Y-13369150D01*
X8367777Y-13369150D02*
X8386824Y-13378674D01*
X8386824Y-13378674D02*
X8396348Y-13397722D01*
X8396348Y-13397722D02*
X8396348Y-13502484D01*
X8491586Y-13502484D02*
X8491586Y-13369150D01*
X8491586Y-13388198D02*
X8501110Y-13378674D01*
X8501110Y-13378674D02*
X8520158Y-13369150D01*
X8520158Y-13369150D02*
X8548729Y-13369150D01*
X8548729Y-13369150D02*
X8567777Y-13378674D01*
X8567777Y-13378674D02*
X8577301Y-13397722D01*
X8577301Y-13397722D02*
X8577301Y-13502484D01*
X8577301Y-13397722D02*
X8586825Y-13378674D01*
X8586825Y-13378674D02*
X8605872Y-13369150D01*
X8605872Y-13369150D02*
X8634444Y-13369150D01*
X8634444Y-13369150D02*
X8653491Y-13378674D01*
X8653491Y-13378674D02*
X8663015Y-13397722D01*
X8663015Y-13397722D02*
X8663015Y-13502484D01*
X9053491Y-13292960D02*
X8882063Y-13550103D01*
X9310634Y-13302484D02*
X9329682Y-13302484D01*
X9329682Y-13302484D02*
X9348729Y-13312008D01*
X9348729Y-13312008D02*
X9358253Y-13321531D01*
X9358253Y-13321531D02*
X9367777Y-13340579D01*
X9367777Y-13340579D02*
X9377301Y-13378674D01*
X9377301Y-13378674D02*
X9377301Y-13426293D01*
X9377301Y-13426293D02*
X9367777Y-13464388D01*
X9367777Y-13464388D02*
X9358253Y-13483436D01*
X9358253Y-13483436D02*
X9348729Y-13492960D01*
X9348729Y-13492960D02*
X9329682Y-13502484D01*
X9329682Y-13502484D02*
X9310634Y-13502484D01*
X9310634Y-13502484D02*
X9291587Y-13492960D01*
X9291587Y-13492960D02*
X9282063Y-13483436D01*
X9282063Y-13483436D02*
X9272539Y-13464388D01*
X9272539Y-13464388D02*
X9263015Y-13426293D01*
X9263015Y-13426293D02*
X9263015Y-13378674D01*
X9263015Y-13378674D02*
X9272539Y-13340579D01*
X9272539Y-13340579D02*
X9282063Y-13321531D01*
X9282063Y-13321531D02*
X9291587Y-13312008D01*
X9291587Y-13312008D02*
X9310634Y-13302484D01*
X9463015Y-13483436D02*
X9472539Y-13492960D01*
X9472539Y-13492960D02*
X9463015Y-13502484D01*
X9463015Y-13502484D02*
X9453491Y-13492960D01*
X9453491Y-13492960D02*
X9463015Y-13483436D01*
X9463015Y-13483436D02*
X9463015Y-13502484D01*
X9663015Y-13502484D02*
X9548729Y-13502484D01*
X9605872Y-13502484D02*
X9605872Y-13302484D01*
X9605872Y-13302484D02*
X9586825Y-13331055D01*
X9586825Y-13331055D02*
X9567777Y-13350103D01*
X9567777Y-13350103D02*
X9548729Y-13359627D01*
X9729682Y-13302484D02*
X9853491Y-13302484D01*
X9853491Y-13302484D02*
X9786825Y-13378674D01*
X9786825Y-13378674D02*
X9815396Y-13378674D01*
X9815396Y-13378674D02*
X9834444Y-13388198D01*
X9834444Y-13388198D02*
X9843968Y-13397722D01*
X9843968Y-13397722D02*
X9853491Y-13416769D01*
X9853491Y-13416769D02*
X9853491Y-13464388D01*
X9853491Y-13464388D02*
X9843968Y-13483436D01*
X9843968Y-13483436D02*
X9834444Y-13492960D01*
X9834444Y-13492960D02*
X9815396Y-13502484D01*
X9815396Y-13502484D02*
X9758253Y-13502484D01*
X9758253Y-13502484D02*
X9739206Y-13492960D01*
X9739206Y-13492960D02*
X9729682Y-13483436D01*
X9920158Y-13302484D02*
X10053491Y-13302484D01*
X10053491Y-13302484D02*
X9967777Y-13502484D01*
X10158253Y-13388198D02*
X10139206Y-13378674D01*
X10139206Y-13378674D02*
X10129682Y-13369150D01*
X10129682Y-13369150D02*
X10120158Y-13350103D01*
X10120158Y-13350103D02*
X10120158Y-13340579D01*
X10120158Y-13340579D02*
X10129682Y-13321531D01*
X10129682Y-13321531D02*
X10139206Y-13312008D01*
X10139206Y-13312008D02*
X10158253Y-13302484D01*
X10158253Y-13302484D02*
X10196349Y-13302484D01*
X10196349Y-13302484D02*
X10215396Y-13312008D01*
X10215396Y-13312008D02*
X10224920Y-13321531D01*
X10224920Y-13321531D02*
X10234444Y-13340579D01*
X10234444Y-13340579D02*
X10234444Y-13350103D01*
X10234444Y-13350103D02*
X10224920Y-13369150D01*
X10224920Y-13369150D02*
X10215396Y-13378674D01*
X10215396Y-13378674D02*
X10196349Y-13388198D01*
X10196349Y-13388198D02*
X10158253Y-13388198D01*
X10158253Y-13388198D02*
X10139206Y-13397722D01*
X10139206Y-13397722D02*
X10129682Y-13407246D01*
X10129682Y-13407246D02*
X10120158Y-13426293D01*
X10120158Y-13426293D02*
X10120158Y-13464388D01*
X10120158Y-13464388D02*
X10129682Y-13483436D01*
X10129682Y-13483436D02*
X10139206Y-13492960D01*
X10139206Y-13492960D02*
X10158253Y-13502484D01*
X10158253Y-13502484D02*
X10196349Y-13502484D01*
X10196349Y-13502484D02*
X10215396Y-13492960D01*
X10215396Y-13492960D02*
X10224920Y-13483436D01*
X10224920Y-13483436D02*
X10234444Y-13464388D01*
X10234444Y-13464388D02*
X10234444Y-13426293D01*
X10234444Y-13426293D02*
X10224920Y-13407246D01*
X10224920Y-13407246D02*
X10215396Y-13397722D01*
X10215396Y-13397722D02*
X10196349Y-13388198D01*
X10310634Y-13302484D02*
X10310634Y-13340579D01*
X10386825Y-13302484D02*
X10386825Y-13340579D01*
X10682063Y-13578674D02*
X10672539Y-13569150D01*
X10672539Y-13569150D02*
X10653491Y-13540579D01*
X10653491Y-13540579D02*
X10643968Y-13521531D01*
X10643968Y-13521531D02*
X10634444Y-13492960D01*
X10634444Y-13492960D02*
X10624920Y-13445341D01*
X10624920Y-13445341D02*
X10624920Y-13407246D01*
X10624920Y-13407246D02*
X10634444Y-13359627D01*
X10634444Y-13359627D02*
X10643968Y-13331055D01*
X10643968Y-13331055D02*
X10653491Y-13312008D01*
X10653491Y-13312008D02*
X10672539Y-13283436D01*
X10672539Y-13283436D02*
X10682063Y-13273912D01*
X10863015Y-13502484D02*
X10748730Y-13502484D01*
X10805872Y-13502484D02*
X10805872Y-13302484D01*
X10805872Y-13302484D02*
X10786825Y-13331055D01*
X10786825Y-13331055D02*
X10767777Y-13350103D01*
X10767777Y-13350103D02*
X10748730Y-13359627D01*
X11101111Y-13502484D02*
X11101111Y-13302484D01*
X11186825Y-13502484D02*
X11186825Y-13397722D01*
X11186825Y-13397722D02*
X11177301Y-13378674D01*
X11177301Y-13378674D02*
X11158253Y-13369150D01*
X11158253Y-13369150D02*
X11129682Y-13369150D01*
X11129682Y-13369150D02*
X11110634Y-13378674D01*
X11110634Y-13378674D02*
X11101111Y-13388198D01*
X11310634Y-13502484D02*
X11291587Y-13492960D01*
X11291587Y-13492960D02*
X11282063Y-13483436D01*
X11282063Y-13483436D02*
X11272539Y-13464388D01*
X11272539Y-13464388D02*
X11272539Y-13407246D01*
X11272539Y-13407246D02*
X11282063Y-13388198D01*
X11282063Y-13388198D02*
X11291587Y-13378674D01*
X11291587Y-13378674D02*
X11310634Y-13369150D01*
X11310634Y-13369150D02*
X11339206Y-13369150D01*
X11339206Y-13369150D02*
X11358253Y-13378674D01*
X11358253Y-13378674D02*
X11367777Y-13388198D01*
X11367777Y-13388198D02*
X11377301Y-13407246D01*
X11377301Y-13407246D02*
X11377301Y-13464388D01*
X11377301Y-13464388D02*
X11367777Y-13483436D01*
X11367777Y-13483436D02*
X11358253Y-13492960D01*
X11358253Y-13492960D02*
X11339206Y-13502484D01*
X11339206Y-13502484D02*
X11310634Y-13502484D01*
X11491587Y-13502484D02*
X11472539Y-13492960D01*
X11472539Y-13492960D02*
X11463015Y-13473912D01*
X11463015Y-13473912D02*
X11463015Y-13302484D01*
X11643968Y-13492960D02*
X11624920Y-13502484D01*
X11624920Y-13502484D02*
X11586825Y-13502484D01*
X11586825Y-13502484D02*
X11567777Y-13492960D01*
X11567777Y-13492960D02*
X11558253Y-13473912D01*
X11558253Y-13473912D02*
X11558253Y-13397722D01*
X11558253Y-13397722D02*
X11567777Y-13378674D01*
X11567777Y-13378674D02*
X11586825Y-13369150D01*
X11586825Y-13369150D02*
X11624920Y-13369150D01*
X11624920Y-13369150D02*
X11643968Y-13378674D01*
X11643968Y-13378674D02*
X11653491Y-13397722D01*
X11653491Y-13397722D02*
X11653491Y-13416769D01*
X11653491Y-13416769D02*
X11558253Y-13435817D01*
X11720158Y-13578674D02*
X11729682Y-13569150D01*
X11729682Y-13569150D02*
X11748730Y-13540579D01*
X11748730Y-13540579D02*
X11758253Y-13521531D01*
X11758253Y-13521531D02*
X11767777Y-13492960D01*
X11767777Y-13492960D02*
X11777301Y-13445341D01*
X11777301Y-13445341D02*
X11777301Y-13407246D01*
X11777301Y-13407246D02*
X11767777Y-13359627D01*
X11767777Y-13359627D02*
X11758253Y-13331055D01*
X11758253Y-13331055D02*
X11748730Y-13312008D01*
X11748730Y-13312008D02*
X11729682Y-13283436D01*
X11729682Y-13283436D02*
X11720158Y-13273912D01*
X12082063Y-13578674D02*
X12072539Y-13569150D01*
X12072539Y-13569150D02*
X12053491Y-13540579D01*
X12053491Y-13540579D02*
X12043968Y-13521531D01*
X12043968Y-13521531D02*
X12034444Y-13492960D01*
X12034444Y-13492960D02*
X12024920Y-13445341D01*
X12024920Y-13445341D02*
X12024920Y-13407246D01*
X12024920Y-13407246D02*
X12034444Y-13359627D01*
X12034444Y-13359627D02*
X12043968Y-13331055D01*
X12043968Y-13331055D02*
X12053491Y-13312008D01*
X12053491Y-13312008D02*
X12072539Y-13283436D01*
X12072539Y-13283436D02*
X12082063Y-13273912D01*
X12158253Y-13369150D02*
X12158253Y-13502484D01*
X12158253Y-13388198D02*
X12167777Y-13378674D01*
X12167777Y-13378674D02*
X12186825Y-13369150D01*
X12186825Y-13369150D02*
X12215396Y-13369150D01*
X12215396Y-13369150D02*
X12234444Y-13378674D01*
X12234444Y-13378674D02*
X12243968Y-13397722D01*
X12243968Y-13397722D02*
X12243968Y-13502484D01*
X12367777Y-13502484D02*
X12348730Y-13492960D01*
X12348730Y-13492960D02*
X12339206Y-13483436D01*
X12339206Y-13483436D02*
X12329682Y-13464388D01*
X12329682Y-13464388D02*
X12329682Y-13407246D01*
X12329682Y-13407246D02*
X12339206Y-13388198D01*
X12339206Y-13388198D02*
X12348730Y-13378674D01*
X12348730Y-13378674D02*
X12367777Y-13369150D01*
X12367777Y-13369150D02*
X12396349Y-13369150D01*
X12396349Y-13369150D02*
X12415396Y-13378674D01*
X12415396Y-13378674D02*
X12424920Y-13388198D01*
X12424920Y-13388198D02*
X12434444Y-13407246D01*
X12434444Y-13407246D02*
X12434444Y-13464388D01*
X12434444Y-13464388D02*
X12424920Y-13483436D01*
X12424920Y-13483436D02*
X12415396Y-13492960D01*
X12415396Y-13492960D02*
X12396349Y-13502484D01*
X12396349Y-13502484D02*
X12367777Y-13502484D01*
X12491587Y-13369150D02*
X12567777Y-13369150D01*
X12520158Y-13302484D02*
X12520158Y-13473912D01*
X12520158Y-13473912D02*
X12529682Y-13492960D01*
X12529682Y-13492960D02*
X12548730Y-13502484D01*
X12548730Y-13502484D02*
X12567777Y-13502484D01*
X12786825Y-13369150D02*
X12786825Y-13569150D01*
X12786825Y-13378674D02*
X12805872Y-13369150D01*
X12805872Y-13369150D02*
X12843968Y-13369150D01*
X12843968Y-13369150D02*
X12863015Y-13378674D01*
X12863015Y-13378674D02*
X12872539Y-13388198D01*
X12872539Y-13388198D02*
X12882063Y-13407246D01*
X12882063Y-13407246D02*
X12882063Y-13464388D01*
X12882063Y-13464388D02*
X12872539Y-13483436D01*
X12872539Y-13483436D02*
X12863015Y-13492960D01*
X12863015Y-13492960D02*
X12843968Y-13502484D01*
X12843968Y-13502484D02*
X12805872Y-13502484D01*
X12805872Y-13502484D02*
X12786825Y-13492960D01*
X12996349Y-13502484D02*
X12977301Y-13492960D01*
X12977301Y-13492960D02*
X12967777Y-13473912D01*
X12967777Y-13473912D02*
X12967777Y-13302484D01*
X13158253Y-13502484D02*
X13158253Y-13397722D01*
X13158253Y-13397722D02*
X13148730Y-13378674D01*
X13148730Y-13378674D02*
X13129682Y-13369150D01*
X13129682Y-13369150D02*
X13091587Y-13369150D01*
X13091587Y-13369150D02*
X13072539Y-13378674D01*
X13158253Y-13492960D02*
X13139206Y-13502484D01*
X13139206Y-13502484D02*
X13091587Y-13502484D01*
X13091587Y-13502484D02*
X13072539Y-13492960D01*
X13072539Y-13492960D02*
X13063015Y-13473912D01*
X13063015Y-13473912D02*
X13063015Y-13454865D01*
X13063015Y-13454865D02*
X13072539Y-13435817D01*
X13072539Y-13435817D02*
X13091587Y-13426293D01*
X13091587Y-13426293D02*
X13139206Y-13426293D01*
X13139206Y-13426293D02*
X13158253Y-13416769D01*
X13224920Y-13369150D02*
X13301111Y-13369150D01*
X13253492Y-13302484D02*
X13253492Y-13473912D01*
X13253492Y-13473912D02*
X13263015Y-13492960D01*
X13263015Y-13492960D02*
X13282063Y-13502484D01*
X13282063Y-13502484D02*
X13301111Y-13502484D01*
X13443968Y-13492960D02*
X13424920Y-13502484D01*
X13424920Y-13502484D02*
X13386825Y-13502484D01*
X13386825Y-13502484D02*
X13367777Y-13492960D01*
X13367777Y-13492960D02*
X13358253Y-13473912D01*
X13358253Y-13473912D02*
X13358253Y-13397722D01*
X13358253Y-13397722D02*
X13367777Y-13378674D01*
X13367777Y-13378674D02*
X13386825Y-13369150D01*
X13386825Y-13369150D02*
X13424920Y-13369150D01*
X13424920Y-13369150D02*
X13443968Y-13378674D01*
X13443968Y-13378674D02*
X13453492Y-13397722D01*
X13453492Y-13397722D02*
X13453492Y-13416769D01*
X13453492Y-13416769D02*
X13358253Y-13435817D01*
X13624920Y-13502484D02*
X13624920Y-13302484D01*
X13624920Y-13492960D02*
X13605873Y-13502484D01*
X13605873Y-13502484D02*
X13567777Y-13502484D01*
X13567777Y-13502484D02*
X13548730Y-13492960D01*
X13548730Y-13492960D02*
X13539206Y-13483436D01*
X13539206Y-13483436D02*
X13529682Y-13464388D01*
X13529682Y-13464388D02*
X13529682Y-13407246D01*
X13529682Y-13407246D02*
X13539206Y-13388198D01*
X13539206Y-13388198D02*
X13548730Y-13378674D01*
X13548730Y-13378674D02*
X13567777Y-13369150D01*
X13567777Y-13369150D02*
X13605873Y-13369150D01*
X13605873Y-13369150D02*
X13624920Y-13378674D01*
X13701111Y-13578674D02*
X13710634Y-13569150D01*
X13710634Y-13569150D02*
X13729682Y-13540579D01*
X13729682Y-13540579D02*
X13739206Y-13521531D01*
X13739206Y-13521531D02*
X13748730Y-13492960D01*
X13748730Y-13492960D02*
X13758253Y-13445341D01*
X13758253Y-13445341D02*
X13758253Y-13407246D01*
X13758253Y-13407246D02*
X13748730Y-13359627D01*
X13748730Y-13359627D02*
X13739206Y-13331055D01*
X13739206Y-13331055D02*
X13729682Y-13312008D01*
X13729682Y-13312008D02*
X13710634Y-13283436D01*
X13710634Y-13283436D02*
X13701111Y-13273912D01*
M02*
