M48
; DRILL file {KiCad 7.0.9-7.0.9~ubuntu20.04.1} date pet 22 dec 2023 19:52:31
; FORMAT={-:-/ absolute / metric / decimal}
; #@! TF.CreationDate,2023-12-22T19:52:31+01:00
; #@! TF.GenerationSoftware,Kicad,Pcbnew,7.0.9-7.0.9~ubuntu20.04.1
; #@! TF.FileFunction,Plated,1,2,PTH
FMAT,2
METRIC
; #@! TA.AperFunction,Plated,PTH,ComponentDrill
T1C0.800
; #@! TA.AperFunction,Plated,PTH,ComponentDrill
T2C1.100
; #@! TA.AperFunction,Plated,PTH,ComponentDrill
T3C1.200
; #@! TA.AperFunction,Plated,PTH,ComponentDrill
T4C1.500
; #@! TA.AperFunction,Plated,PTH,ComponentDrill
T5C1.520
; #@! TA.AperFunction,Plated,PTH,ComponentDrill
T6C3.200
; #@! TA.AperFunction,Plated,PTH,ComponentDrill
T7C3.500
%
G90
G05
T1
X102.235Y-99.06
X102.235Y-104.06
X105.41Y-101.6
X105.41Y-106.6
X110.49Y-102.845
X110.49Y-105.345
X110.49Y-115.545
X110.49Y-118.045
X115.57Y-114.38
X115.57Y-119.38
X118.11Y-102.845
X118.11Y-105.345
X118.745Y-111.84
X118.745Y-116.84
X123.19Y-101.64
X123.19Y-106.64
X126.365Y-99.14
X126.365Y-104.14
T2
X98.425Y-101.6
X98.425Y-104.14
X98.425Y-106.68
X122.555Y-114.3
X122.555Y-116.84
X122.555Y-119.38
X130.175Y-101.6
X130.175Y-104.14
X130.175Y-106.68
T3
X78.74Y-68.58
X78.74Y-87.63
X78.86Y-49.53
X86.24Y-68.58
X86.24Y-87.63
X86.36Y-49.53
X142.36Y-49.53
X142.36Y-68.58
X142.36Y-87.63
X149.86Y-49.53
X149.86Y-68.58
X149.86Y-87.63
T4
X104.3Y-93.8
X108.3Y-43.8
X114.3Y-93.8
X120.3Y-43.8
X124.3Y-93.8
T5
X86.36Y-119.38
X91.44Y-119.38
X96.52Y-119.38
X101.6Y-119.38
X111.76Y-34.29
X116.84Y-34.29
T6
X77.47Y-35.56
X77.47Y-118.11
X151.13Y-35.56
X151.13Y-118.11
T7
X139.215Y-116.84
X146.835Y-104.14
T0
M30
