G04 #@! TF.GenerationSoftware,KiCad,Pcbnew,7.0.9-7.0.9~ubuntu20.04.1*
G04 #@! TF.CreationDate,2023-12-22T19:52:23+01:00*
G04 #@! TF.ProjectId,kicad-trans_pwr,6b696361-642d-4747-9261-6e735f707772,1.0*
G04 #@! TF.SameCoordinates,Original*
G04 #@! TF.FileFunction,Soldermask,Bot*
G04 #@! TF.FilePolarity,Negative*
%FSLAX46Y46*%
G04 Gerber Fmt 4.6, Leading zero omitted, Abs format (unit mm)*
G04 Created by KiCad (PCBNEW 7.0.9-7.0.9~ubuntu20.04.1) date 2023-12-22 19:52:23*
%MOMM*%
%LPD*%
G01*
G04 APERTURE LIST*
G04 Aperture macros list*
%AMRoundRect*
0 Rectangle with rounded corners*
0 $1 Rounding radius*
0 $2 $3 $4 $5 $6 $7 $8 $9 X,Y pos of 4 corners*
0 Add a 4 corners polygon primitive as box body*
4,1,4,$2,$3,$4,$5,$6,$7,$8,$9,$2,$3,0*
0 Add four circle primitives for the rounded corners*
1,1,$1+$1,$2,$3*
1,1,$1+$1,$4,$5*
1,1,$1+$1,$6,$7*
1,1,$1+$1,$8,$9*
0 Add four rect primitives between the rounded corners*
20,1,$1+$1,$2,$3,$4,$5,0*
20,1,$1+$1,$4,$5,$6,$7,0*
20,1,$1+$1,$6,$7,$8,$9,0*
20,1,$1+$1,$8,$9,$2,$3,0*%
G04 Aperture macros list end*
%ADD10C,6.400000*%
%ADD11C,1.600000*%
%ADD12R,2.400000X2.400000*%
%ADD13C,2.400000*%
%ADD14R,2.000000X1.905000*%
%ADD15C,4.900000*%
%ADD16O,2.000000X1.905000*%
%ADD17R,3.000000X3.000000*%
%ADD18C,3.000000*%
%ADD19R,1.600000X1.600000*%
%ADD20O,3.500000X3.500000*%
%ADD21C,3.200000*%
%ADD22RoundRect,0.225000X-0.375000X0.225000X-0.375000X-0.225000X0.375000X-0.225000X0.375000X0.225000X0*%
%ADD23RoundRect,0.225000X0.375000X-0.225000X0.375000X0.225000X-0.375000X0.225000X-0.375000X-0.225000X0*%
%ADD24RoundRect,0.225000X0.225000X0.375000X-0.225000X0.375000X-0.225000X-0.375000X0.225000X-0.375000X0*%
%ADD25RoundRect,0.225000X-0.225000X-0.375000X0.225000X-0.375000X0.225000X0.375000X-0.225000X0.375000X0*%
%ADD26R,2.000000X1.500000*%
%ADD27R,2.000000X3.800000*%
G04 APERTURE END LIST*
D10*
X77470000Y-118110000D03*
D11*
X102235000Y-99060000D03*
X102235000Y-104060000D03*
D10*
X151130000Y-118110000D03*
D11*
X118745000Y-111840000D03*
X118745000Y-116840000D03*
D10*
X151130000Y-35560000D03*
D11*
X123190000Y-106640000D03*
X123190000Y-101640000D03*
D12*
X142360000Y-87630000D03*
D13*
X149860000Y-87630000D03*
D14*
X130175000Y-101600000D03*
D15*
X146835000Y-104140000D03*
D16*
X130175000Y-104140000D03*
X130175000Y-106680000D03*
D17*
X86360000Y-119380000D03*
D18*
X91440000Y-119380000D03*
D11*
X105410000Y-106600000D03*
X105410000Y-101600000D03*
D17*
X96520000Y-119380000D03*
D18*
X101600000Y-119380000D03*
D17*
X116840000Y-34290000D03*
D18*
X111760000Y-34290000D03*
D11*
X126365000Y-99140000D03*
X126365000Y-104140000D03*
D10*
X77470000Y-35560000D03*
D14*
X122555000Y-114300000D03*
D15*
X139215000Y-116840000D03*
D16*
X122555000Y-116840000D03*
X122555000Y-119380000D03*
D11*
X115570000Y-119380000D03*
X115570000Y-114380000D03*
D19*
X110490000Y-105345112D03*
D11*
X110490000Y-102845112D03*
D20*
X81765000Y-104140000D03*
D14*
X98425000Y-106680000D03*
D16*
X98425000Y-104140000D03*
X98425000Y-101600000D03*
D19*
X110490000Y-118045113D03*
D11*
X110490000Y-115545113D03*
D12*
X78740000Y-68580000D03*
D13*
X86240000Y-68580000D03*
D21*
X114300000Y-86800000D03*
X114300000Y-50800000D03*
D18*
X120300000Y-43800000D03*
X108300000Y-43800000D03*
X104300000Y-93800000D03*
X114300000Y-93800000D03*
X124300000Y-93800000D03*
D12*
X86360000Y-49530000D03*
D13*
X78860000Y-49530000D03*
D19*
X118110000Y-105345113D03*
D11*
X118110000Y-102845113D03*
D12*
X86240000Y-87630000D03*
D13*
X78740000Y-87630000D03*
D12*
X142360000Y-68580000D03*
D13*
X149860000Y-68580000D03*
D12*
X149860000Y-49530000D03*
D13*
X142360000Y-49530000D03*
D22*
X86360000Y-57405000D03*
X86360000Y-60705000D03*
D23*
X142240000Y-60705000D03*
X142240000Y-57405000D03*
D24*
X136905000Y-87630000D03*
X133605000Y-87630000D03*
D25*
X89535000Y-87630000D03*
X92835000Y-87630000D03*
D23*
X78740000Y-60705000D03*
X78740000Y-57405000D03*
D26*
X127025000Y-119140000D03*
X127025000Y-116840000D03*
D27*
X133325000Y-116840000D03*
D26*
X127025000Y-114540000D03*
D22*
X149860000Y-57405000D03*
X149860000Y-60705000D03*
M02*
