G04 #@! TF.GenerationSoftware,KiCad,Pcbnew,7.0.9-7.0.9~ubuntu20.04.1*
G04 #@! TF.CreationDate,2023-12-22T19:52:21+01:00*
G04 #@! TF.ProjectId,kicad-trans_pwr,6b696361-642d-4747-9261-6e735f707772,1.0*
G04 #@! TF.SameCoordinates,Original*
G04 #@! TF.FileFunction,Copper,L1,Top*
G04 #@! TF.FilePolarity,Positive*
%FSLAX46Y46*%
G04 Gerber Fmt 4.6, Leading zero omitted, Abs format (unit mm)*
G04 Created by KiCad (PCBNEW 7.0.9-7.0.9~ubuntu20.04.1) date 2023-12-22 19:52:21*
%MOMM*%
%LPD*%
G01*
G04 APERTURE LIST*
G04 Aperture macros list*
%AMRoundRect*
0 Rectangle with rounded corners*
0 $1 Rounding radius*
0 $2 $3 $4 $5 $6 $7 $8 $9 X,Y pos of 4 corners*
0 Add a 4 corners polygon primitive as box body*
4,1,4,$2,$3,$4,$5,$6,$7,$8,$9,$2,$3,0*
0 Add four circle primitives for the rounded corners*
1,1,$1+$1,$2,$3*
1,1,$1+$1,$4,$5*
1,1,$1+$1,$6,$7*
1,1,$1+$1,$8,$9*
0 Add four rect primitives between the rounded corners*
20,1,$1+$1,$2,$3,$4,$5,0*
20,1,$1+$1,$4,$5,$6,$7,0*
20,1,$1+$1,$6,$7,$8,$9,0*
20,1,$1+$1,$8,$9,$2,$3,0*%
G04 Aperture macros list end*
G04 #@! TA.AperFunction,ComponentPad*
%ADD10C,6.400000*%
G04 #@! TD*
G04 #@! TA.AperFunction,ComponentPad*
%ADD11C,1.600000*%
G04 #@! TD*
G04 #@! TA.AperFunction,ComponentPad*
%ADD12R,2.400000X2.400000*%
G04 #@! TD*
G04 #@! TA.AperFunction,ComponentPad*
%ADD13C,2.400000*%
G04 #@! TD*
G04 #@! TA.AperFunction,SMDPad,CuDef*
%ADD14RoundRect,0.237500X-0.250000X-0.237500X0.250000X-0.237500X0.250000X0.237500X-0.250000X0.237500X0*%
G04 #@! TD*
G04 #@! TA.AperFunction,ComponentPad*
%ADD15R,2.000000X1.905000*%
G04 #@! TD*
G04 #@! TA.AperFunction,ComponentPad*
%ADD16C,4.900000*%
G04 #@! TD*
G04 #@! TA.AperFunction,ComponentPad*
%ADD17O,2.000000X1.905000*%
G04 #@! TD*
G04 #@! TA.AperFunction,SMDPad,CuDef*
%ADD18RoundRect,0.237500X0.287500X0.237500X-0.287500X0.237500X-0.287500X-0.237500X0.287500X-0.237500X0*%
G04 #@! TD*
G04 #@! TA.AperFunction,ComponentPad*
%ADD19R,3.000000X3.000000*%
G04 #@! TD*
G04 #@! TA.AperFunction,ComponentPad*
%ADD20C,3.000000*%
G04 #@! TD*
G04 #@! TA.AperFunction,SMDPad,CuDef*
%ADD21RoundRect,0.237500X0.250000X0.237500X-0.250000X0.237500X-0.250000X-0.237500X0.250000X-0.237500X0*%
G04 #@! TD*
G04 #@! TA.AperFunction,SMDPad,CuDef*
%ADD22RoundRect,0.237500X-0.287500X-0.237500X0.287500X-0.237500X0.287500X0.237500X-0.287500X0.237500X0*%
G04 #@! TD*
G04 #@! TA.AperFunction,ComponentPad*
%ADD23R,1.600000X1.600000*%
G04 #@! TD*
G04 #@! TA.AperFunction,Conductor*
%ADD24C,1.000000*%
G04 #@! TD*
G04 APERTURE END LIST*
D10*
X77470000Y-118110000D03*
D11*
X102235000Y-99060000D03*
X102235000Y-104060000D03*
D10*
X151130000Y-118110000D03*
D11*
X118745000Y-111840000D03*
X118745000Y-116840000D03*
D10*
X151130000Y-35560000D03*
D11*
X123190000Y-106640000D03*
X123190000Y-101640000D03*
D12*
X142360000Y-87630000D03*
D13*
X149860000Y-87630000D03*
D14*
X113387500Y-99060000D03*
X115212500Y-99060000D03*
D15*
X130175000Y-101600000D03*
D16*
X146835000Y-104140000D03*
D17*
X130175000Y-104140000D03*
X130175000Y-106680000D03*
D18*
X118985000Y-99060000D03*
X117235000Y-99060000D03*
D19*
X86360000Y-119380000D03*
D20*
X91440000Y-119380000D03*
D11*
X105410000Y-106600000D03*
X105410000Y-101600000D03*
D19*
X96520000Y-119380000D03*
D20*
X101600000Y-119380000D03*
D19*
X116840000Y-34290000D03*
D20*
X111760000Y-34290000D03*
D21*
X115570000Y-122174000D03*
X113745000Y-122174000D03*
D11*
X126365000Y-99140000D03*
X126365000Y-104140000D03*
D10*
X77470000Y-35560000D03*
D15*
X122555000Y-114300000D03*
D16*
X139215000Y-116840000D03*
D17*
X122555000Y-116840000D03*
X122555000Y-119380000D03*
D22*
X109615000Y-122174000D03*
X111365000Y-122174000D03*
D11*
X115570000Y-119380000D03*
X115570000Y-114380000D03*
D23*
X110490000Y-105345112D03*
D11*
X110490000Y-102845112D03*
D15*
X98425000Y-106680000D03*
D17*
X98425000Y-104140000D03*
X98425000Y-101600000D03*
D22*
X109615000Y-99060000D03*
X111365000Y-99060000D03*
D23*
X110490000Y-118045113D03*
D11*
X110490000Y-115545113D03*
D12*
X78740000Y-68580000D03*
D13*
X86240000Y-68580000D03*
D20*
X120300000Y-43800000D03*
X108300000Y-43800000D03*
X104300000Y-93800000D03*
X114300000Y-93800000D03*
X124300000Y-93800000D03*
D12*
X86360000Y-49530000D03*
D13*
X78860000Y-49530000D03*
D23*
X118110000Y-105345113D03*
D11*
X118110000Y-102845113D03*
D14*
X105410000Y-99060000D03*
X107235000Y-99060000D03*
D12*
X86240000Y-87630000D03*
D13*
X78740000Y-87630000D03*
D12*
X142360000Y-68580000D03*
D13*
X149860000Y-68580000D03*
D12*
X149860000Y-49530000D03*
D13*
X142360000Y-49530000D03*
D24*
X90170000Y-68580000D02*
X90170000Y-72390000D01*
X88070000Y-66480000D02*
X90170000Y-68580000D01*
X82550000Y-83820000D02*
X82550000Y-68580000D01*
X90170000Y-72390000D02*
X111580000Y-93800000D01*
X111580000Y-93800000D02*
X114300000Y-93800000D01*
X84650000Y-66480000D02*
X88070000Y-66480000D01*
X82550000Y-68580000D02*
X84650000Y-66480000D01*
X78740000Y-87630000D02*
X82550000Y-83820000D01*
X118745000Y-111840000D02*
X120730000Y-109855000D01*
X122555000Y-112395000D02*
X122000000Y-111840000D01*
X132334000Y-108458000D02*
X132334000Y-98606892D01*
X122555000Y-114300000D02*
X122555000Y-112395000D01*
X120730000Y-109855000D02*
X130937000Y-109855000D01*
X133142892Y-97798000D02*
X136591898Y-97798000D01*
X130937000Y-109855000D02*
X132334000Y-108458000D01*
X136591898Y-97798000D02*
X142360000Y-92029898D01*
X132334000Y-98606892D02*
X133142892Y-97798000D01*
X122000000Y-111840000D02*
X118745000Y-111840000D01*
X142360000Y-92029898D02*
X142360000Y-87630000D01*
X115570000Y-122174000D02*
X115570000Y-119380000D01*
X98920000Y-121780000D02*
X104280000Y-121780000D01*
X96520000Y-119380000D02*
X98920000Y-121780000D01*
X104280000Y-121780000D02*
X108014887Y-118045113D01*
X115570000Y-119380000D02*
X122555000Y-119380000D01*
X108014887Y-118045113D02*
X110490000Y-118045113D01*
X114235113Y-118045113D02*
X115570000Y-119380000D01*
X110490000Y-118045113D02*
X114235113Y-118045113D01*
X124300000Y-93800000D02*
X124300000Y-61435000D01*
X132835000Y-59055000D02*
X142360000Y-49530000D01*
X124300000Y-93800000D02*
X124300000Y-61755000D01*
X124300000Y-61435000D02*
X121920000Y-59055000D01*
X121920000Y-59055000D02*
X95885000Y-59055000D01*
X95885000Y-59055000D02*
X86360000Y-49530000D01*
X127000000Y-59055000D02*
X132835000Y-59055000D01*
X124300000Y-61755000D02*
X127000000Y-59055000D01*
X140260000Y-75005000D02*
X142360000Y-72905000D01*
X130934000Y-98026994D02*
X132562994Y-96398000D01*
X126365000Y-99140000D02*
X127715000Y-99140000D01*
X142360000Y-72905000D02*
X142360000Y-68580000D01*
X127715000Y-99140000D02*
X130175000Y-101600000D01*
X126365000Y-99140000D02*
X130934000Y-99140000D01*
X132562994Y-96398000D02*
X136012000Y-96398000D01*
X130934000Y-99140000D02*
X130934000Y-98026994D01*
X136012000Y-96398000D02*
X140260000Y-92150000D01*
X140260000Y-92150000D02*
X140260000Y-75005000D01*
X115634887Y-105345113D02*
X115634887Y-103823887D01*
X123230000Y-106680000D02*
X123190000Y-106640000D01*
X101600000Y-119380000D02*
X115634887Y-105345113D01*
X115634887Y-105345113D02*
X118110000Y-105345113D01*
X113387500Y-101576500D02*
X113387500Y-99060000D01*
X130175000Y-106680000D02*
X123230000Y-106680000D01*
X115634887Y-103823887D02*
X113387500Y-101576500D01*
X119404887Y-106640000D02*
X118110000Y-105345113D01*
X123190000Y-106640000D02*
X119404887Y-106640000D01*
X96425000Y-104140000D02*
X95885000Y-103600000D01*
X95885000Y-87630000D02*
X86240000Y-77985000D01*
X95885000Y-103600000D02*
X95885000Y-87630000D01*
X102235000Y-104060000D02*
X98505000Y-104060000D01*
X98505000Y-104060000D02*
X98425000Y-104140000D01*
X98425000Y-104140000D02*
X96425000Y-104140000D01*
X86240000Y-77985000D02*
X86240000Y-68580000D01*
X109244888Y-101600000D02*
X105410000Y-101600000D01*
X107950000Y-106680000D02*
X100965000Y-113665000D01*
X109358630Y-102845112D02*
X107950000Y-104253742D01*
X87630000Y-113665000D02*
X86360000Y-114935000D01*
X107950000Y-104253742D02*
X107950000Y-106680000D01*
X86360000Y-114935000D02*
X86360000Y-119380000D01*
X110490000Y-102845112D02*
X109244888Y-101600000D01*
X98425000Y-101600000D02*
X105410000Y-101600000D01*
X100965000Y-113665000D02*
X87630000Y-113665000D01*
X105410000Y-99060000D02*
X105410000Y-101600000D01*
X110490000Y-102845112D02*
X109358630Y-102845112D01*
X113745000Y-122174000D02*
X111365000Y-122174000D01*
X115212500Y-99060000D02*
X117235000Y-99060000D01*
X107235000Y-99060000D02*
X109615000Y-99060000D01*
G04 #@! TA.AperFunction,Conductor*
G36*
X116839859Y-106365298D02*
G01*
X116872085Y-106395300D01*
X116952454Y-106502659D01*
X116998643Y-106537236D01*
X117067664Y-106588906D01*
X117067671Y-106588910D01*
X117097411Y-106600002D01*
X117202517Y-106639204D01*
X117262127Y-106645613D01*
X117944216Y-106645612D01*
X118011255Y-106665296D01*
X118031897Y-106681931D01*
X118688453Y-107338487D01*
X118749825Y-107403050D01*
X118749828Y-107403053D01*
X118800168Y-107438092D01*
X118803930Y-107440928D01*
X118851474Y-107479694D01*
X118851477Y-107479695D01*
X118851480Y-107479698D01*
X118881932Y-107495604D01*
X118888645Y-107499672D01*
X118916838Y-107519295D01*
X118973216Y-107543489D01*
X118977465Y-107545507D01*
X119031838Y-107573909D01*
X119059376Y-107581788D01*
X119064861Y-107583358D01*
X119072255Y-107585990D01*
X119103829Y-107599540D01*
X119103832Y-107599540D01*
X119103833Y-107599541D01*
X119163909Y-107611887D01*
X119168487Y-107613010D01*
X119182388Y-107616987D01*
X119227469Y-107629887D01*
X119261726Y-107632495D01*
X119269501Y-107633586D01*
X119303142Y-107640500D01*
X119303146Y-107640500D01*
X119364486Y-107640500D01*
X119369192Y-107640678D01*
X119403950Y-107643325D01*
X119430363Y-107645337D01*
X119430363Y-107645336D01*
X119430364Y-107645337D01*
X119464447Y-107640996D01*
X119472277Y-107640500D01*
X122312412Y-107640500D01*
X122379451Y-107660185D01*
X122383523Y-107662917D01*
X122537266Y-107770568D01*
X122743504Y-107866739D01*
X122743509Y-107866740D01*
X122743511Y-107866741D01*
X122796415Y-107880916D01*
X122963308Y-107925635D01*
X123125230Y-107939801D01*
X123189998Y-107945468D01*
X123190000Y-107945468D01*
X123190002Y-107945468D01*
X123246673Y-107940509D01*
X123416692Y-107925635D01*
X123636496Y-107866739D01*
X123842734Y-107770568D01*
X123939339Y-107702924D01*
X124005545Y-107680598D01*
X124010462Y-107680500D01*
X129020606Y-107680500D01*
X129087645Y-107700185D01*
X129104587Y-107713268D01*
X129231990Y-107830551D01*
X129433578Y-107962255D01*
X129654095Y-108058983D01*
X129887524Y-108118095D01*
X130067400Y-108133000D01*
X130067402Y-108133000D01*
X130282598Y-108133000D01*
X130282600Y-108133000D01*
X130462476Y-108118095D01*
X130695905Y-108058983D01*
X130916422Y-107962255D01*
X131118010Y-107830551D01*
X131125517Y-107823639D01*
X131188171Y-107792718D01*
X131257598Y-107800578D01*
X131311753Y-107844725D01*
X131333444Y-107911143D01*
X131333500Y-107914870D01*
X131333500Y-107992217D01*
X131313815Y-108059256D01*
X131297181Y-108079898D01*
X130558899Y-108818181D01*
X130497576Y-108851666D01*
X130471218Y-108854500D01*
X120742717Y-108854500D01*
X120653637Y-108852243D01*
X120653628Y-108852243D01*
X120600636Y-108861741D01*
X120593254Y-108863064D01*
X120588595Y-108863718D01*
X120527564Y-108869925D01*
X120527562Y-108869926D01*
X120494780Y-108880210D01*
X120487156Y-108882081D01*
X120479308Y-108883488D01*
X120453349Y-108888141D01*
X120396381Y-108910895D01*
X120391945Y-108912474D01*
X120333414Y-108930840D01*
X120333410Y-108930842D01*
X120303378Y-108947510D01*
X120296284Y-108950879D01*
X120264382Y-108963623D01*
X120264377Y-108963625D01*
X120213156Y-108997381D01*
X120209128Y-108999822D01*
X120155501Y-109029588D01*
X120129434Y-109051965D01*
X120123165Y-109056692D01*
X120094484Y-109075595D01*
X120094478Y-109075600D01*
X120051109Y-109118968D01*
X120047655Y-109122169D01*
X120001102Y-109162136D01*
X119980076Y-109189298D01*
X119974885Y-109195192D01*
X118656966Y-110513111D01*
X118595643Y-110546596D01*
X118580095Y-110548958D01*
X118518307Y-110554365D01*
X118298511Y-110613258D01*
X118298502Y-110613261D01*
X118092267Y-110709431D01*
X118092265Y-110709432D01*
X117905858Y-110839954D01*
X117744954Y-111000858D01*
X117614432Y-111187265D01*
X117614431Y-111187267D01*
X117518261Y-111393502D01*
X117518258Y-111393511D01*
X117459366Y-111613302D01*
X117459364Y-111613313D01*
X117439532Y-111839998D01*
X117439532Y-111840001D01*
X117459364Y-112066686D01*
X117459366Y-112066697D01*
X117518258Y-112286488D01*
X117518261Y-112286497D01*
X117614431Y-112492732D01*
X117614432Y-112492734D01*
X117744954Y-112679141D01*
X117905858Y-112840045D01*
X117905861Y-112840047D01*
X118092266Y-112970568D01*
X118298504Y-113066739D01*
X118298509Y-113066740D01*
X118298511Y-113066741D01*
X118351415Y-113080916D01*
X118518308Y-113125635D01*
X118680230Y-113139801D01*
X118744998Y-113145468D01*
X118745000Y-113145468D01*
X118745002Y-113145468D01*
X118801673Y-113140509D01*
X118971692Y-113125635D01*
X119191496Y-113066739D01*
X119397734Y-112970568D01*
X119551465Y-112862924D01*
X119617671Y-112840598D01*
X119622588Y-112840500D01*
X121061613Y-112840500D01*
X121128652Y-112860185D01*
X121174407Y-112912989D01*
X121184351Y-112982147D01*
X121160879Y-113038811D01*
X121111206Y-113105164D01*
X121111202Y-113105171D01*
X121060908Y-113240017D01*
X121054501Y-113299616D01*
X121054501Y-113299623D01*
X121054500Y-113299635D01*
X121054500Y-115300370D01*
X121054501Y-115300376D01*
X121060908Y-115359983D01*
X121111202Y-115494828D01*
X121111206Y-115494835D01*
X121197452Y-115610044D01*
X121197455Y-115610047D01*
X121312664Y-115696293D01*
X121312671Y-115696297D01*
X121312674Y-115696298D01*
X121343802Y-115707907D01*
X121399736Y-115749777D01*
X121424155Y-115815241D01*
X121409305Y-115883514D01*
X121398325Y-115900252D01*
X121287345Y-116042838D01*
X121287344Y-116042840D01*
X121172784Y-116254531D01*
X121172778Y-116254545D01*
X121094619Y-116482208D01*
X121076633Y-116589999D01*
X121076634Y-116590000D01*
X122060148Y-116590000D01*
X122011441Y-116727047D01*
X122001123Y-116877886D01*
X122031884Y-117025915D01*
X122065090Y-117090000D01*
X121076633Y-117090000D01*
X121094619Y-117197791D01*
X121172778Y-117425454D01*
X121172784Y-117425468D01*
X121287344Y-117637159D01*
X121287350Y-117637168D01*
X121435193Y-117827116D01*
X121435202Y-117827126D01*
X121612297Y-117990154D01*
X121612296Y-117990154D01*
X121636385Y-118005892D01*
X121681742Y-118059038D01*
X121691166Y-118128269D01*
X121661664Y-118191605D01*
X121636389Y-118213507D01*
X121611994Y-118229446D01*
X121611988Y-118229450D01*
X121484589Y-118346730D01*
X121421934Y-118377652D01*
X121400606Y-118379500D01*
X118904332Y-118379500D01*
X118837293Y-118359815D01*
X118791538Y-118307011D01*
X118781594Y-118237853D01*
X118810619Y-118174297D01*
X118869397Y-118136523D01*
X118893525Y-118131972D01*
X118971599Y-118125141D01*
X118971610Y-118125139D01*
X119191317Y-118066269D01*
X119191331Y-118066264D01*
X119397478Y-117970136D01*
X119470472Y-117919025D01*
X118789401Y-117237953D01*
X118870148Y-117225165D01*
X118983045Y-117167641D01*
X119072641Y-117078045D01*
X119130165Y-116965148D01*
X119142953Y-116884400D01*
X119824025Y-117565472D01*
X119875136Y-117492478D01*
X119971264Y-117286331D01*
X119971269Y-117286317D01*
X120030139Y-117066610D01*
X120030141Y-117066599D01*
X120049966Y-116840002D01*
X120049966Y-116839997D01*
X120030141Y-116613400D01*
X120030139Y-116613389D01*
X119971269Y-116393682D01*
X119971265Y-116393673D01*
X119875133Y-116187516D01*
X119875131Y-116187512D01*
X119824026Y-116114526D01*
X119824025Y-116114526D01*
X119142953Y-116795598D01*
X119130165Y-116714852D01*
X119072641Y-116601955D01*
X118983045Y-116512359D01*
X118870148Y-116454835D01*
X118789400Y-116442046D01*
X119470472Y-115760974D01*
X119470471Y-115760973D01*
X119397483Y-115709866D01*
X119397481Y-115709865D01*
X119191326Y-115613734D01*
X119191317Y-115613730D01*
X118971610Y-115554860D01*
X118971599Y-115554858D01*
X118745002Y-115535034D01*
X118744998Y-115535034D01*
X118518400Y-115554858D01*
X118518389Y-115554860D01*
X118298682Y-115613730D01*
X118298673Y-115613734D01*
X118092513Y-115709868D01*
X118019527Y-115760972D01*
X118019526Y-115760973D01*
X118700600Y-116442046D01*
X118619852Y-116454835D01*
X118506955Y-116512359D01*
X118417359Y-116601955D01*
X118359835Y-116714852D01*
X118347046Y-116795599D01*
X117665973Y-116114526D01*
X117665972Y-116114527D01*
X117614868Y-116187513D01*
X117518734Y-116393673D01*
X117518730Y-116393682D01*
X117459860Y-116613389D01*
X117459858Y-116613400D01*
X117440034Y-116839997D01*
X117440034Y-116840002D01*
X117459858Y-117066599D01*
X117459860Y-117066610D01*
X117518730Y-117286317D01*
X117518734Y-117286326D01*
X117614865Y-117492481D01*
X117614866Y-117492483D01*
X117665973Y-117565471D01*
X117665974Y-117565472D01*
X118347046Y-116884399D01*
X118359835Y-116965148D01*
X118417359Y-117078045D01*
X118506955Y-117167641D01*
X118619852Y-117225165D01*
X118700599Y-117237953D01*
X118019526Y-117919025D01*
X118019526Y-117919026D01*
X118092512Y-117970131D01*
X118092516Y-117970133D01*
X118298673Y-118066265D01*
X118298682Y-118066269D01*
X118518389Y-118125139D01*
X118518400Y-118125141D01*
X118596475Y-118131972D01*
X118661544Y-118157424D01*
X118702523Y-118214015D01*
X118706401Y-118283777D01*
X118671947Y-118344561D01*
X118610100Y-118377069D01*
X118585668Y-118379500D01*
X116447588Y-118379500D01*
X116380549Y-118359815D01*
X116376465Y-118357075D01*
X116222734Y-118249432D01*
X116222732Y-118249431D01*
X116016497Y-118153261D01*
X116016488Y-118153258D01*
X115796697Y-118094366D01*
X115796688Y-118094364D01*
X115734903Y-118088958D01*
X115669835Y-118063504D01*
X115658032Y-118053111D01*
X114951564Y-117346644D01*
X114890174Y-117282062D01*
X114890173Y-117282061D01*
X114890172Y-117282060D01*
X114852012Y-117255500D01*
X114839822Y-117247015D01*
X114836059Y-117244177D01*
X114788526Y-117205418D01*
X114788519Y-117205413D01*
X114758072Y-117189510D01*
X114751364Y-117185447D01*
X114723162Y-117165818D01*
X114723159Y-117165816D01*
X114723158Y-117165816D01*
X114723154Y-117165814D01*
X114666793Y-117141627D01*
X114662537Y-117139606D01*
X114608170Y-117111207D01*
X114608163Y-117111204D01*
X114608162Y-117111204D01*
X114602121Y-117109475D01*
X114575143Y-117101755D01*
X114567743Y-117099121D01*
X114536170Y-117085572D01*
X114536171Y-117085572D01*
X114476079Y-117073222D01*
X114471504Y-117072099D01*
X114412533Y-117055226D01*
X114412538Y-117055226D01*
X114378271Y-117052616D01*
X114370493Y-117051525D01*
X114336855Y-117044613D01*
X114336854Y-117044613D01*
X114275515Y-117044613D01*
X114270808Y-117044434D01*
X114265234Y-117044009D01*
X114209637Y-117039775D01*
X114189702Y-117042314D01*
X114175553Y-117044116D01*
X114167724Y-117044613D01*
X111827180Y-117044613D01*
X111760141Y-117024928D01*
X111727913Y-116994924D01*
X111647546Y-116887567D01*
X111624709Y-116870471D01*
X111532335Y-116801319D01*
X111532328Y-116801315D01*
X111397482Y-116751021D01*
X111397483Y-116751021D01*
X111337883Y-116744614D01*
X111337881Y-116744613D01*
X111337873Y-116744613D01*
X111337864Y-116744613D01*
X111334548Y-116744435D01*
X111334627Y-116742960D01*
X111273215Y-116724928D01*
X111227460Y-116672124D01*
X111219969Y-116628635D01*
X110534401Y-115943066D01*
X110615148Y-115930278D01*
X110728045Y-115872754D01*
X110817641Y-115783158D01*
X110875165Y-115670261D01*
X110887953Y-115589513D01*
X111569025Y-116270585D01*
X111620136Y-116197591D01*
X111716264Y-115991444D01*
X111716269Y-115991430D01*
X111775139Y-115771723D01*
X111775141Y-115771712D01*
X111794966Y-115545115D01*
X111794966Y-115545110D01*
X111775141Y-115318513D01*
X111775139Y-115318502D01*
X111716269Y-115098795D01*
X111716265Y-115098786D01*
X111620133Y-114892629D01*
X111620131Y-114892625D01*
X111569026Y-114819639D01*
X111569025Y-114819639D01*
X110887953Y-115500711D01*
X110875165Y-115419965D01*
X110817641Y-115307068D01*
X110728045Y-115217472D01*
X110615148Y-115159948D01*
X110534400Y-115147159D01*
X111215472Y-114466087D01*
X111215471Y-114466086D01*
X111142483Y-114414979D01*
X111142481Y-114414978D01*
X111067474Y-114380002D01*
X114265034Y-114380002D01*
X114284858Y-114606599D01*
X114284860Y-114606610D01*
X114343730Y-114826317D01*
X114343734Y-114826326D01*
X114439865Y-115032481D01*
X114439866Y-115032483D01*
X114490973Y-115105471D01*
X114490974Y-115105472D01*
X115172046Y-114424399D01*
X115184835Y-114505148D01*
X115242359Y-114618045D01*
X115331955Y-114707641D01*
X115444852Y-114765165D01*
X115525599Y-114777953D01*
X114844526Y-115459025D01*
X114844526Y-115459026D01*
X114917512Y-115510131D01*
X114917516Y-115510133D01*
X115123673Y-115606265D01*
X115123682Y-115606269D01*
X115343389Y-115665139D01*
X115343400Y-115665141D01*
X115569998Y-115684966D01*
X115570002Y-115684966D01*
X115796599Y-115665141D01*
X115796610Y-115665139D01*
X116016317Y-115606269D01*
X116016331Y-115606264D01*
X116222478Y-115510136D01*
X116295472Y-115459025D01*
X115614401Y-114777953D01*
X115695148Y-114765165D01*
X115808045Y-114707641D01*
X115897641Y-114618045D01*
X115955165Y-114505148D01*
X115967953Y-114424400D01*
X116649025Y-115105472D01*
X116700136Y-115032478D01*
X116796264Y-114826331D01*
X116796269Y-114826317D01*
X116855139Y-114606610D01*
X116855141Y-114606599D01*
X116874966Y-114380002D01*
X116874966Y-114379997D01*
X116855141Y-114153400D01*
X116855139Y-114153389D01*
X116796269Y-113933682D01*
X116796265Y-113933673D01*
X116700133Y-113727516D01*
X116700131Y-113727512D01*
X116649026Y-113654526D01*
X116649025Y-113654526D01*
X115967953Y-114335598D01*
X115955165Y-114254852D01*
X115897641Y-114141955D01*
X115808045Y-114052359D01*
X115695148Y-113994835D01*
X115614400Y-113982046D01*
X116295472Y-113300974D01*
X116295471Y-113300973D01*
X116222483Y-113249866D01*
X116222481Y-113249865D01*
X116016326Y-113153734D01*
X116016317Y-113153730D01*
X115796610Y-113094860D01*
X115796599Y-113094858D01*
X115570002Y-113075034D01*
X115569998Y-113075034D01*
X115343400Y-113094858D01*
X115343389Y-113094860D01*
X115123682Y-113153730D01*
X115123673Y-113153734D01*
X114917513Y-113249868D01*
X114844527Y-113300972D01*
X114844526Y-113300973D01*
X115525600Y-113982046D01*
X115444852Y-113994835D01*
X115331955Y-114052359D01*
X115242359Y-114141955D01*
X115184835Y-114254852D01*
X115172046Y-114335599D01*
X114490973Y-113654526D01*
X114490972Y-113654527D01*
X114439868Y-113727513D01*
X114343734Y-113933673D01*
X114343730Y-113933682D01*
X114284860Y-114153389D01*
X114284858Y-114153400D01*
X114265034Y-114379997D01*
X114265034Y-114380002D01*
X111067474Y-114380002D01*
X110936326Y-114318847D01*
X110936317Y-114318843D01*
X110716610Y-114259973D01*
X110716599Y-114259971D01*
X110490002Y-114240147D01*
X110489998Y-114240147D01*
X110263400Y-114259971D01*
X110263389Y-114259973D01*
X110043682Y-114318843D01*
X110043673Y-114318847D01*
X109837513Y-114414981D01*
X109764527Y-114466085D01*
X109764526Y-114466086D01*
X110445600Y-115147159D01*
X110364852Y-115159948D01*
X110251955Y-115217472D01*
X110162359Y-115307068D01*
X110104835Y-115419965D01*
X110092046Y-115500712D01*
X109410973Y-114819639D01*
X109410972Y-114819640D01*
X109359868Y-114892626D01*
X109263734Y-115098786D01*
X109263730Y-115098795D01*
X109204860Y-115318502D01*
X109204858Y-115318513D01*
X109185034Y-115545110D01*
X109185034Y-115545115D01*
X109204858Y-115771712D01*
X109204860Y-115771723D01*
X109263730Y-115991430D01*
X109263734Y-115991439D01*
X109359865Y-116197594D01*
X109359866Y-116197596D01*
X109410973Y-116270584D01*
X109410974Y-116270585D01*
X110092046Y-115589512D01*
X110104835Y-115670261D01*
X110162359Y-115783158D01*
X110251955Y-115872754D01*
X110364852Y-115930278D01*
X110445599Y-115943066D01*
X109759351Y-116629313D01*
X109749505Y-116678307D01*
X109700889Y-116728489D01*
X109645367Y-116743161D01*
X109645423Y-116744212D01*
X109645429Y-116744259D01*
X109645426Y-116744259D01*
X109645436Y-116744437D01*
X109642123Y-116744614D01*
X109582516Y-116751021D01*
X109447671Y-116801315D01*
X109447664Y-116801319D01*
X109332456Y-116887565D01*
X109332455Y-116887566D01*
X109332454Y-116887567D01*
X109252087Y-116994924D01*
X109196153Y-117036795D01*
X109152820Y-117044613D01*
X108027604Y-117044613D01*
X107938524Y-117042356D01*
X107938515Y-117042356D01*
X107887363Y-117051525D01*
X107878141Y-117053177D01*
X107873482Y-117053831D01*
X107812451Y-117060038D01*
X107812449Y-117060039D01*
X107779667Y-117070323D01*
X107772043Y-117072194D01*
X107768944Y-117072750D01*
X107738236Y-117078254D01*
X107738228Y-117078256D01*
X107681269Y-117101008D01*
X107676833Y-117102587D01*
X107618302Y-117120953D01*
X107618299Y-117120954D01*
X107618297Y-117120955D01*
X107618290Y-117120958D01*
X107588271Y-117137620D01*
X107581177Y-117140989D01*
X107549277Y-117153732D01*
X107549275Y-117153732D01*
X107549270Y-117153735D01*
X107549264Y-117153739D01*
X107498041Y-117187496D01*
X107494013Y-117189937D01*
X107440389Y-117219701D01*
X107440386Y-117219703D01*
X107414314Y-117242083D01*
X107408047Y-117246808D01*
X107379369Y-117265711D01*
X107379362Y-117265716D01*
X107336003Y-117309075D01*
X107332548Y-117312277D01*
X107285993Y-117352245D01*
X107285992Y-117352246D01*
X107264963Y-117379413D01*
X107259771Y-117385307D01*
X103901899Y-120743181D01*
X103840576Y-120776666D01*
X103814218Y-120779500D01*
X103299002Y-120779500D01*
X103231963Y-120759815D01*
X103186208Y-120707011D01*
X103176264Y-120637853D01*
X103199735Y-120581190D01*
X103257144Y-120504500D01*
X103287226Y-120464315D01*
X103424367Y-120213161D01*
X103524369Y-119945046D01*
X103585196Y-119665428D01*
X103605610Y-119380000D01*
X103603150Y-119345611D01*
X103595945Y-119244870D01*
X103585196Y-119094572D01*
X103548694Y-118926777D01*
X103553678Y-118857088D01*
X103582177Y-118812742D01*
X116012989Y-106381932D01*
X116074312Y-106348447D01*
X116100670Y-106345613D01*
X116772820Y-106345613D01*
X116839859Y-106365298D01*
G37*
G04 #@! TD.AperFunction*
G04 #@! TA.AperFunction,Conductor*
G36*
X101543039Y-29230185D02*
G01*
X101588794Y-29282989D01*
X101600000Y-29334500D01*
X101600000Y-55880000D01*
X127000000Y-55880000D01*
X127000000Y-35560000D01*
X147424922Y-35560000D01*
X147445219Y-35947287D01*
X147505886Y-36330323D01*
X147505887Y-36330330D01*
X147606262Y-36704936D01*
X147745244Y-37066994D01*
X147921310Y-37412543D01*
X148132531Y-37737793D01*
X148341095Y-37995350D01*
X148341096Y-37995350D01*
X149832266Y-36504180D01*
X149995130Y-36694870D01*
X150185819Y-36857733D01*
X148694648Y-38348903D01*
X148694649Y-38348904D01*
X148952206Y-38557468D01*
X149277456Y-38768689D01*
X149623005Y-38944755D01*
X149985063Y-39083737D01*
X150359669Y-39184112D01*
X150359676Y-39184113D01*
X150742712Y-39244780D01*
X151129999Y-39265078D01*
X151130001Y-39265078D01*
X151517287Y-39244780D01*
X151900323Y-39184113D01*
X151900330Y-39184112D01*
X152274936Y-39083737D01*
X152636994Y-38944755D01*
X152982543Y-38768689D01*
X153307783Y-38557476D01*
X153307785Y-38557475D01*
X153565349Y-38348902D01*
X152074180Y-36857733D01*
X152264870Y-36694870D01*
X152427733Y-36504180D01*
X153918902Y-37995349D01*
X154127475Y-37737785D01*
X154127476Y-37737783D01*
X154338689Y-37412543D01*
X154514755Y-37066994D01*
X154653737Y-36704936D01*
X154754112Y-36330330D01*
X154754113Y-36330323D01*
X154814780Y-35947287D01*
X154835078Y-35560000D01*
X154835078Y-35559999D01*
X154814780Y-35172712D01*
X154754113Y-34789676D01*
X154754112Y-34789669D01*
X154653737Y-34415063D01*
X154514755Y-34053005D01*
X154338689Y-33707456D01*
X154127468Y-33382206D01*
X153918904Y-33124649D01*
X153918903Y-33124648D01*
X152427732Y-34615818D01*
X152264870Y-34425130D01*
X152074180Y-34262266D01*
X153565350Y-32771096D01*
X153565350Y-32771095D01*
X153307793Y-32562531D01*
X152982543Y-32351310D01*
X152636994Y-32175244D01*
X152274936Y-32036262D01*
X151900330Y-31935887D01*
X151900323Y-31935886D01*
X151517287Y-31875219D01*
X151130001Y-31854922D01*
X151129999Y-31854922D01*
X150742712Y-31875219D01*
X150359676Y-31935886D01*
X150359669Y-31935887D01*
X149985063Y-32036262D01*
X149623005Y-32175244D01*
X149277456Y-32351310D01*
X148952206Y-32562531D01*
X148694648Y-32771095D01*
X148694648Y-32771096D01*
X150185819Y-34262266D01*
X149995130Y-34425130D01*
X149832266Y-34615818D01*
X148341096Y-33124648D01*
X148341095Y-33124648D01*
X148132531Y-33382206D01*
X147921310Y-33707456D01*
X147745244Y-34053005D01*
X147606262Y-34415063D01*
X147505887Y-34789669D01*
X147505886Y-34789676D01*
X147445219Y-35172712D01*
X147424922Y-35559999D01*
X147424922Y-35560000D01*
X127000000Y-35560000D01*
X127000000Y-29334500D01*
X127019685Y-29267461D01*
X127072489Y-29221706D01*
X127124000Y-29210500D01*
X156207562Y-29210500D01*
X156212426Y-29210690D01*
X156266977Y-29214984D01*
X156407579Y-29227285D01*
X156425696Y-29230235D01*
X156506020Y-29249520D01*
X156551511Y-29261709D01*
X156616713Y-29279181D01*
X156624400Y-29281790D01*
X156661685Y-29297233D01*
X156710959Y-29317643D01*
X156804733Y-29361371D01*
X156809955Y-29363806D01*
X156816154Y-29367136D01*
X156896778Y-29416543D01*
X156899926Y-29418608D01*
X156986606Y-29479302D01*
X156991285Y-29482924D01*
X157063840Y-29544892D01*
X157067389Y-29548173D01*
X157141824Y-29622608D01*
X157145109Y-29626162D01*
X157207070Y-29698708D01*
X157210707Y-29703406D01*
X157271385Y-29790064D01*
X157273462Y-29793231D01*
X157322862Y-29873845D01*
X157326192Y-29880042D01*
X157372358Y-29979043D01*
X157408208Y-30065598D01*
X157410817Y-30073284D01*
X157440485Y-30184002D01*
X157459760Y-30264290D01*
X157462714Y-30282429D01*
X157475020Y-30423083D01*
X157479309Y-30477575D01*
X157479500Y-30482441D01*
X157479500Y-122933783D01*
X157479342Y-122938208D01*
X157474519Y-123005631D01*
X157462666Y-123156229D01*
X157461439Y-123164552D01*
X157440573Y-123260474D01*
X157412039Y-123379321D01*
X157409841Y-123386519D01*
X157373423Y-123484165D01*
X157328627Y-123592308D01*
X157325761Y-123598297D01*
X157275306Y-123690702D01*
X157273753Y-123693384D01*
X157214273Y-123790448D01*
X157211041Y-123795211D01*
X157147390Y-123880238D01*
X157144901Y-123883349D01*
X157071487Y-123969305D01*
X157068181Y-123972881D01*
X156992881Y-124048181D01*
X156989305Y-124051487D01*
X156903349Y-124124901D01*
X156900238Y-124127390D01*
X156815211Y-124191041D01*
X156810448Y-124194273D01*
X156713384Y-124253753D01*
X156710702Y-124255306D01*
X156618297Y-124305761D01*
X156612308Y-124308627D01*
X156504165Y-124353423D01*
X156406519Y-124389841D01*
X156399321Y-124392039D01*
X156280474Y-124420573D01*
X156184552Y-124441439D01*
X156176229Y-124442666D01*
X156025631Y-124454519D01*
X155958209Y-124459342D01*
X155953784Y-124459500D01*
X72646216Y-124459500D01*
X72641791Y-124459342D01*
X72574368Y-124454519D01*
X72423769Y-124442666D01*
X72415446Y-124441439D01*
X72319525Y-124420573D01*
X72200677Y-124392039D01*
X72193479Y-124389841D01*
X72095834Y-124353423D01*
X71987690Y-124308627D01*
X71981701Y-124305761D01*
X71889296Y-124255306D01*
X71886614Y-124253753D01*
X71879217Y-124249220D01*
X71789536Y-124194264D01*
X71784805Y-124191053D01*
X71699738Y-124127373D01*
X71696657Y-124124908D01*
X71610693Y-124051487D01*
X71607117Y-124048181D01*
X71531817Y-123972881D01*
X71528511Y-123969305D01*
X71455085Y-123883334D01*
X71452632Y-123880268D01*
X71388939Y-123795185D01*
X71385741Y-123790472D01*
X71326232Y-123693363D01*
X71324708Y-123690730D01*
X71298934Y-123643528D01*
X71274237Y-123598297D01*
X71271371Y-123592307D01*
X71250742Y-123542505D01*
X71226582Y-123484181D01*
X71203515Y-123422335D01*
X71190157Y-123386519D01*
X71187959Y-123379320D01*
X71159426Y-123260474D01*
X71138560Y-123164552D01*
X71137332Y-123156228D01*
X71137114Y-123153458D01*
X71125487Y-123005728D01*
X71120658Y-122938208D01*
X71120500Y-122933785D01*
X71120500Y-118110000D01*
X73764922Y-118110000D01*
X73785219Y-118497287D01*
X73845886Y-118880323D01*
X73845887Y-118880330D01*
X73946262Y-119254936D01*
X74085244Y-119616994D01*
X74261310Y-119962543D01*
X74472531Y-120287793D01*
X74681095Y-120545350D01*
X74681096Y-120545350D01*
X76172266Y-119054180D01*
X76335130Y-119244870D01*
X76525819Y-119407733D01*
X75034648Y-120898903D01*
X75034649Y-120898904D01*
X75292206Y-121107468D01*
X75617456Y-121318689D01*
X75963005Y-121494755D01*
X76325063Y-121633737D01*
X76699669Y-121734112D01*
X76699676Y-121734113D01*
X77082712Y-121794780D01*
X77469999Y-121815078D01*
X77470001Y-121815078D01*
X77857287Y-121794780D01*
X78240323Y-121734113D01*
X78240330Y-121734112D01*
X78614936Y-121633737D01*
X78976994Y-121494755D01*
X79322543Y-121318689D01*
X79647783Y-121107476D01*
X79647785Y-121107475D01*
X79905349Y-120898902D01*
X78414180Y-119407733D01*
X78604870Y-119244870D01*
X78767733Y-119054180D01*
X80258902Y-120545349D01*
X80467475Y-120287785D01*
X80467476Y-120287783D01*
X80678689Y-119962543D01*
X80854755Y-119616994D01*
X80993737Y-119254936D01*
X81094112Y-118880330D01*
X81094113Y-118880323D01*
X81154780Y-118497287D01*
X81175078Y-118110000D01*
X81175078Y-118109999D01*
X81154780Y-117722712D01*
X81094113Y-117339676D01*
X81094112Y-117339669D01*
X80993737Y-116965063D01*
X80854755Y-116603005D01*
X80678689Y-116257456D01*
X80467468Y-115932206D01*
X80258904Y-115674649D01*
X80258903Y-115674648D01*
X78767732Y-117165818D01*
X78604870Y-116975130D01*
X78414180Y-116812266D01*
X79905350Y-115321096D01*
X79905350Y-115321095D01*
X79647793Y-115112531D01*
X79322543Y-114901310D01*
X78976994Y-114725244D01*
X78614936Y-114586262D01*
X78240330Y-114485887D01*
X78240323Y-114485886D01*
X77857287Y-114425219D01*
X77470001Y-114404922D01*
X77469999Y-114404922D01*
X77082712Y-114425219D01*
X76699676Y-114485886D01*
X76699669Y-114485887D01*
X76325063Y-114586262D01*
X75963005Y-114725244D01*
X75617456Y-114901310D01*
X75292206Y-115112531D01*
X75034648Y-115321095D01*
X75034648Y-115321096D01*
X76525819Y-116812266D01*
X76335130Y-116975130D01*
X76172266Y-117165818D01*
X74681096Y-115674648D01*
X74681095Y-115674648D01*
X74472531Y-115932206D01*
X74261310Y-116257456D01*
X74085244Y-116603005D01*
X73946262Y-116965063D01*
X73845887Y-117339669D01*
X73845886Y-117339676D01*
X73785219Y-117722712D01*
X73764922Y-118109999D01*
X73764922Y-118110000D01*
X71120500Y-118110000D01*
X71120500Y-87630004D01*
X77034732Y-87630004D01*
X77053777Y-87884154D01*
X77076464Y-87983553D01*
X77110492Y-88132637D01*
X77203607Y-88369888D01*
X77331041Y-88590612D01*
X77489950Y-88789877D01*
X77676783Y-88963232D01*
X77887366Y-89106805D01*
X77887371Y-89106807D01*
X77887372Y-89106808D01*
X77887373Y-89106809D01*
X78009328Y-89165538D01*
X78116992Y-89217387D01*
X78116993Y-89217387D01*
X78116996Y-89217389D01*
X78360542Y-89292513D01*
X78612565Y-89330500D01*
X78867435Y-89330500D01*
X79119458Y-89292513D01*
X79363004Y-89217389D01*
X79592634Y-89106805D01*
X79803217Y-88963232D01*
X79895216Y-88877870D01*
X84539500Y-88877870D01*
X84539501Y-88877876D01*
X84545908Y-88937483D01*
X84596202Y-89072328D01*
X84596206Y-89072335D01*
X84682452Y-89187544D01*
X84682455Y-89187547D01*
X84797664Y-89273793D01*
X84797671Y-89273797D01*
X84932517Y-89324091D01*
X84932516Y-89324091D01*
X84939444Y-89324835D01*
X84992127Y-89330500D01*
X87487872Y-89330499D01*
X87547483Y-89324091D01*
X87682331Y-89273796D01*
X87797546Y-89187546D01*
X87883796Y-89072331D01*
X87934091Y-88937483D01*
X87940500Y-88877873D01*
X87940499Y-86382128D01*
X87934091Y-86322517D01*
X87924487Y-86296768D01*
X87883797Y-86187671D01*
X87883793Y-86187664D01*
X87797547Y-86072455D01*
X87797544Y-86072452D01*
X87682335Y-85986206D01*
X87682328Y-85986202D01*
X87547482Y-85935908D01*
X87547483Y-85935908D01*
X87487883Y-85929501D01*
X87487881Y-85929500D01*
X87487873Y-85929500D01*
X87487864Y-85929500D01*
X84992129Y-85929500D01*
X84992123Y-85929501D01*
X84932516Y-85935908D01*
X84797671Y-85986202D01*
X84797664Y-85986206D01*
X84682455Y-86072452D01*
X84682452Y-86072455D01*
X84596206Y-86187664D01*
X84596202Y-86187671D01*
X84545908Y-86322517D01*
X84539501Y-86382116D01*
X84539501Y-86382123D01*
X84539500Y-86382135D01*
X84539500Y-88877870D01*
X79895216Y-88877870D01*
X79990050Y-88789877D01*
X80148959Y-88590612D01*
X80276393Y-88369888D01*
X80369508Y-88132637D01*
X80426222Y-87884157D01*
X80445268Y-87630000D01*
X80434671Y-87488587D01*
X80429278Y-87416616D01*
X80443898Y-87348293D01*
X80465247Y-87319672D01*
X83248487Y-84536433D01*
X83313053Y-84475059D01*
X83348112Y-84424686D01*
X83350925Y-84420957D01*
X83389698Y-84373407D01*
X83405607Y-84342948D01*
X83409667Y-84336248D01*
X83429295Y-84308049D01*
X83453492Y-84251660D01*
X83455498Y-84247435D01*
X83483909Y-84193049D01*
X83493360Y-84160015D01*
X83495991Y-84152628D01*
X83509540Y-84121058D01*
X83521893Y-84060940D01*
X83523006Y-84056412D01*
X83539887Y-83997418D01*
X83542495Y-83963155D01*
X83543587Y-83955376D01*
X83550500Y-83921739D01*
X83550500Y-83860401D01*
X83550679Y-83855692D01*
X83555337Y-83794525D01*
X83550997Y-83760441D01*
X83550500Y-83752602D01*
X83550500Y-69045782D01*
X83570185Y-68978743D01*
X83586814Y-68958105D01*
X84348417Y-68196502D01*
X84409738Y-68163019D01*
X84479429Y-68168003D01*
X84535363Y-68209875D01*
X84559780Y-68275339D01*
X84556988Y-68311773D01*
X84553777Y-68325841D01*
X84553777Y-68325844D01*
X84534732Y-68579995D01*
X84534732Y-68580004D01*
X84553777Y-68834154D01*
X84586778Y-68978743D01*
X84610492Y-69082637D01*
X84703607Y-69319888D01*
X84831041Y-69540612D01*
X84989950Y-69739877D01*
X84989955Y-69739881D01*
X84989958Y-69739885D01*
X85176774Y-69913225D01*
X85176779Y-69913228D01*
X85176783Y-69913232D01*
X85185351Y-69919073D01*
X85229652Y-69973099D01*
X85239500Y-70021527D01*
X85239500Y-77972283D01*
X85237243Y-78061362D01*
X85237243Y-78061370D01*
X85248064Y-78121739D01*
X85248718Y-78126404D01*
X85254925Y-78187430D01*
X85254927Y-78187444D01*
X85265208Y-78220213D01*
X85267079Y-78227837D01*
X85273142Y-78261652D01*
X85273142Y-78261655D01*
X85295894Y-78318612D01*
X85297474Y-78323051D01*
X85315841Y-78381588D01*
X85315844Y-78381595D01*
X85332509Y-78411619D01*
X85335879Y-78418714D01*
X85348622Y-78450614D01*
X85348627Y-78450624D01*
X85382377Y-78501833D01*
X85384818Y-78505863D01*
X85414588Y-78559498D01*
X85414589Y-78559499D01*
X85414591Y-78559502D01*
X85436968Y-78585567D01*
X85441693Y-78591835D01*
X85454263Y-78610906D01*
X85460598Y-78620519D01*
X85503978Y-78663899D01*
X85507169Y-78667343D01*
X85547131Y-78713892D01*
X85547130Y-78713892D01*
X85574299Y-78734923D01*
X85580186Y-78740107D01*
X90245660Y-83405580D01*
X94848181Y-88008101D01*
X94881666Y-88069424D01*
X94884500Y-88095782D01*
X94884500Y-98174000D01*
X94864815Y-98241039D01*
X94812011Y-98286794D01*
X94760500Y-98298000D01*
X94742000Y-98298000D01*
X77216000Y-98298000D01*
X77216000Y-109982000D01*
X94742000Y-109982000D01*
X94742000Y-104081228D01*
X94761685Y-104014189D01*
X94814489Y-103968434D01*
X94883647Y-103958490D01*
X94947203Y-103987515D01*
X94974429Y-104021069D01*
X94977516Y-104026632D01*
X94980881Y-104033719D01*
X94985233Y-104044613D01*
X94991378Y-104059998D01*
X94993622Y-104065614D01*
X94993627Y-104065624D01*
X95027377Y-104116833D01*
X95029818Y-104120863D01*
X95059588Y-104174498D01*
X95059589Y-104174499D01*
X95059591Y-104174502D01*
X95081968Y-104200567D01*
X95086693Y-104206835D01*
X95095774Y-104220613D01*
X95105598Y-104235519D01*
X95148978Y-104278899D01*
X95152169Y-104282343D01*
X95192131Y-104328892D01*
X95192134Y-104328895D01*
X95219294Y-104349918D01*
X95225190Y-104355111D01*
X95708566Y-104838487D01*
X95769941Y-104903053D01*
X95769944Y-104903055D01*
X95769947Y-104903058D01*
X95800877Y-104924584D01*
X95820295Y-104938100D01*
X95824050Y-104940932D01*
X95830718Y-104946369D01*
X95871593Y-104979698D01*
X95902045Y-104995604D01*
X95908756Y-104999671D01*
X95936951Y-105019295D01*
X95993332Y-105043490D01*
X95997567Y-105045501D01*
X96051951Y-105073909D01*
X96084973Y-105083356D01*
X96092365Y-105085989D01*
X96123940Y-105099539D01*
X96123941Y-105099540D01*
X96137054Y-105102234D01*
X96184055Y-105111892D01*
X96188595Y-105113006D01*
X96247582Y-105129886D01*
X96281841Y-105132494D01*
X96289609Y-105133585D01*
X96323255Y-105140500D01*
X96323259Y-105140500D01*
X96384601Y-105140500D01*
X96389308Y-105140678D01*
X96425651Y-105143446D01*
X96450475Y-105145337D01*
X96450475Y-105145336D01*
X96450476Y-105145337D01*
X96484559Y-105140996D01*
X96492389Y-105140500D01*
X97002242Y-105140500D01*
X97069281Y-105160185D01*
X97115036Y-105212989D01*
X97124980Y-105282147D01*
X97095955Y-105345703D01*
X97076555Y-105363765D01*
X97067811Y-105370310D01*
X97067809Y-105370312D01*
X96981649Y-105485406D01*
X96981645Y-105485413D01*
X96931403Y-105620120D01*
X96931401Y-105620127D01*
X96925000Y-105679655D01*
X96925000Y-106430000D01*
X97930148Y-106430000D01*
X97881441Y-106567047D01*
X97871123Y-106717886D01*
X97901884Y-106865915D01*
X97935090Y-106930000D01*
X96925000Y-106930000D01*
X96925000Y-107680344D01*
X96931401Y-107739872D01*
X96931403Y-107739879D01*
X96981645Y-107874586D01*
X96981649Y-107874593D01*
X97067809Y-107989687D01*
X97067812Y-107989690D01*
X97182906Y-108075850D01*
X97182913Y-108075854D01*
X97317620Y-108126096D01*
X97317627Y-108126098D01*
X97377155Y-108132499D01*
X97377172Y-108132500D01*
X98175000Y-108132500D01*
X98175000Y-107171683D01*
X98203819Y-107189209D01*
X98349404Y-107230000D01*
X98462622Y-107230000D01*
X98574783Y-107214584D01*
X98675000Y-107171053D01*
X98675000Y-108132500D01*
X99472828Y-108132500D01*
X99472844Y-108132499D01*
X99532372Y-108126098D01*
X99532379Y-108126096D01*
X99667086Y-108075854D01*
X99667093Y-108075850D01*
X99782187Y-107989690D01*
X99782190Y-107989687D01*
X99868350Y-107874593D01*
X99868354Y-107874586D01*
X99918596Y-107739879D01*
X99918598Y-107739872D01*
X99924999Y-107680344D01*
X99925000Y-107680327D01*
X99925000Y-106930000D01*
X98919852Y-106930000D01*
X98968559Y-106792953D01*
X98978877Y-106642114D01*
X98948116Y-106494085D01*
X98914910Y-106430000D01*
X99925000Y-106430000D01*
X99925000Y-105679672D01*
X99924999Y-105679655D01*
X99918598Y-105620127D01*
X99918596Y-105620120D01*
X99868354Y-105485413D01*
X99868350Y-105485406D01*
X99782190Y-105370312D01*
X99782187Y-105370309D01*
X99666581Y-105283766D01*
X99624710Y-105227833D01*
X99619726Y-105158141D01*
X99653212Y-105096818D01*
X99714535Y-105063334D01*
X99740892Y-105060500D01*
X101357412Y-105060500D01*
X101424451Y-105080185D01*
X101428523Y-105082917D01*
X101582266Y-105190568D01*
X101788504Y-105286739D01*
X101788509Y-105286740D01*
X101788511Y-105286741D01*
X101841415Y-105300916D01*
X102008308Y-105345635D01*
X102161505Y-105359038D01*
X102234998Y-105365468D01*
X102235000Y-105365468D01*
X102235002Y-105365468D01*
X102308495Y-105359038D01*
X102461692Y-105345635D01*
X102681496Y-105286739D01*
X102887734Y-105190568D01*
X103074139Y-105060047D01*
X103235047Y-104899139D01*
X103365568Y-104712734D01*
X103461739Y-104506496D01*
X103520635Y-104286692D01*
X103540468Y-104060000D01*
X103539682Y-104051021D01*
X103528317Y-103921113D01*
X103520635Y-103833308D01*
X103461739Y-103613504D01*
X103365568Y-103407266D01*
X103241641Y-103230278D01*
X103235045Y-103220858D01*
X103074141Y-103059954D01*
X102887734Y-102929432D01*
X102887732Y-102929431D01*
X102793807Y-102885633D01*
X102689260Y-102836881D01*
X102636822Y-102790709D01*
X102617670Y-102723516D01*
X102637886Y-102656635D01*
X102691051Y-102611300D01*
X102741666Y-102600500D01*
X104532412Y-102600500D01*
X104599451Y-102620185D01*
X104603523Y-102622917D01*
X104757266Y-102730568D01*
X104963504Y-102826739D01*
X104963509Y-102826740D01*
X104963511Y-102826741D01*
X105001358Y-102836882D01*
X105183308Y-102885635D01*
X105345230Y-102899801D01*
X105409998Y-102905468D01*
X105410000Y-102905468D01*
X105410002Y-102905468D01*
X105466673Y-102900509D01*
X105636692Y-102885635D01*
X105856496Y-102826739D01*
X106062734Y-102730568D01*
X106216465Y-102622924D01*
X106282671Y-102600598D01*
X106287588Y-102600500D01*
X107888960Y-102600500D01*
X107955999Y-102620185D01*
X108001754Y-102672989D01*
X108011698Y-102742147D01*
X107982673Y-102805703D01*
X107976641Y-102812181D01*
X107251532Y-103537288D01*
X107186946Y-103598684D01*
X107151899Y-103649036D01*
X107149062Y-103652798D01*
X107110302Y-103700334D01*
X107110299Y-103700339D01*
X107094392Y-103730789D01*
X107090324Y-103737503D01*
X107070702Y-103765696D01*
X107046509Y-103822072D01*
X107044488Y-103826326D01*
X107016091Y-103880693D01*
X107016090Y-103880694D01*
X107006640Y-103913717D01*
X107004007Y-103921113D01*
X106990459Y-103952685D01*
X106978113Y-104012761D01*
X106976990Y-104017337D01*
X106960113Y-104076319D01*
X106960113Y-104076321D01*
X106957503Y-104110583D01*
X106956414Y-104118350D01*
X106951967Y-104139997D01*
X106949500Y-104152000D01*
X106949500Y-104213339D01*
X106949321Y-104218048D01*
X106944662Y-104279216D01*
X106945615Y-104286697D01*
X106949003Y-104313302D01*
X106949500Y-104321130D01*
X106949500Y-106214217D01*
X106929815Y-106281256D01*
X106913181Y-106301898D01*
X106877977Y-106337102D01*
X106816654Y-106370587D01*
X106746962Y-106365603D01*
X106691029Y-106323731D01*
X106670521Y-106281514D01*
X106636269Y-106153682D01*
X106636265Y-106153673D01*
X106540133Y-105947516D01*
X106540131Y-105947512D01*
X106489026Y-105874526D01*
X106489025Y-105874526D01*
X105807953Y-106555598D01*
X105795165Y-106474852D01*
X105737641Y-106361955D01*
X105648045Y-106272359D01*
X105535148Y-106214835D01*
X105454400Y-106202046D01*
X106135472Y-105520974D01*
X106135471Y-105520973D01*
X106062483Y-105469866D01*
X106062481Y-105469865D01*
X105856326Y-105373734D01*
X105856317Y-105373730D01*
X105636610Y-105314860D01*
X105636599Y-105314858D01*
X105410002Y-105295034D01*
X105409998Y-105295034D01*
X105183400Y-105314858D01*
X105183389Y-105314860D01*
X104963682Y-105373730D01*
X104963673Y-105373734D01*
X104757513Y-105469868D01*
X104684527Y-105520972D01*
X104684526Y-105520973D01*
X105365600Y-106202046D01*
X105284852Y-106214835D01*
X105171955Y-106272359D01*
X105082359Y-106361955D01*
X105024835Y-106474852D01*
X105012046Y-106555599D01*
X104330973Y-105874526D01*
X104330972Y-105874527D01*
X104279868Y-105947513D01*
X104183734Y-106153673D01*
X104183730Y-106153682D01*
X104124860Y-106373389D01*
X104124858Y-106373400D01*
X104105034Y-106599997D01*
X104105034Y-106600002D01*
X104124858Y-106826599D01*
X104124860Y-106826610D01*
X104183730Y-107046317D01*
X104183734Y-107046326D01*
X104279865Y-107252481D01*
X104279866Y-107252483D01*
X104330973Y-107325471D01*
X104330974Y-107325472D01*
X105012046Y-106644399D01*
X105024835Y-106725148D01*
X105082359Y-106838045D01*
X105171955Y-106927641D01*
X105284852Y-106985165D01*
X105365599Y-106997953D01*
X104684526Y-107679025D01*
X104684526Y-107679026D01*
X104757512Y-107730131D01*
X104757516Y-107730133D01*
X104963673Y-107826265D01*
X104963682Y-107826269D01*
X105091513Y-107860521D01*
X105151174Y-107896886D01*
X105181703Y-107959733D01*
X105173408Y-108029108D01*
X105147101Y-108067977D01*
X100586899Y-112628181D01*
X100525576Y-112661666D01*
X100499218Y-112664500D01*
X87642677Y-112664500D01*
X87553637Y-112662244D01*
X87553626Y-112662245D01*
X87493271Y-112673062D01*
X87488607Y-112673716D01*
X87427563Y-112679925D01*
X87427555Y-112679927D01*
X87394781Y-112690210D01*
X87387153Y-112692082D01*
X87353349Y-112698141D01*
X87296381Y-112720895D01*
X87291945Y-112722474D01*
X87233414Y-112740840D01*
X87233410Y-112740842D01*
X87203378Y-112757510D01*
X87196284Y-112760879D01*
X87164382Y-112773623D01*
X87164377Y-112773625D01*
X87113156Y-112807381D01*
X87109128Y-112809822D01*
X87055501Y-112839588D01*
X87029434Y-112861965D01*
X87023165Y-112866692D01*
X86994484Y-112885595D01*
X86994478Y-112885600D01*
X86951109Y-112928968D01*
X86947655Y-112932169D01*
X86901102Y-112972136D01*
X86880076Y-112999298D01*
X86874885Y-113005192D01*
X85661531Y-114218547D01*
X85596946Y-114279942D01*
X85561899Y-114330294D01*
X85559062Y-114334056D01*
X85520302Y-114381592D01*
X85520299Y-114381597D01*
X85504392Y-114412047D01*
X85500324Y-114418761D01*
X85480702Y-114446954D01*
X85456509Y-114503330D01*
X85454488Y-114507584D01*
X85426091Y-114561951D01*
X85426090Y-114561952D01*
X85416640Y-114594975D01*
X85414007Y-114602371D01*
X85400459Y-114633943D01*
X85388113Y-114694019D01*
X85386990Y-114698595D01*
X85370113Y-114757577D01*
X85370113Y-114757579D01*
X85367503Y-114791841D01*
X85366414Y-114799608D01*
X85360980Y-114826052D01*
X85359500Y-114833258D01*
X85359500Y-114894597D01*
X85359321Y-114899306D01*
X85354662Y-114960474D01*
X85356707Y-114976527D01*
X85359003Y-114994560D01*
X85359500Y-115002388D01*
X85359500Y-117255500D01*
X85339815Y-117322539D01*
X85287011Y-117368294D01*
X85235500Y-117379500D01*
X84812129Y-117379500D01*
X84812123Y-117379501D01*
X84752516Y-117385908D01*
X84617671Y-117436202D01*
X84617664Y-117436206D01*
X84502455Y-117522452D01*
X84502452Y-117522455D01*
X84416206Y-117637664D01*
X84416202Y-117637671D01*
X84365908Y-117772517D01*
X84359501Y-117832116D01*
X84359501Y-117832123D01*
X84359500Y-117832135D01*
X84359500Y-120927870D01*
X84359501Y-120927876D01*
X84365908Y-120987483D01*
X84416202Y-121122328D01*
X84416206Y-121122335D01*
X84502452Y-121237544D01*
X84502455Y-121237547D01*
X84617664Y-121323793D01*
X84617671Y-121323797D01*
X84752517Y-121374091D01*
X84752516Y-121374091D01*
X84759444Y-121374835D01*
X84812127Y-121380500D01*
X87907872Y-121380499D01*
X87967483Y-121374091D01*
X88102331Y-121323796D01*
X88217546Y-121237546D01*
X88303796Y-121122331D01*
X88354091Y-120987483D01*
X88360500Y-120927873D01*
X88360500Y-119380001D01*
X89434891Y-119380001D01*
X89455300Y-119665362D01*
X89516109Y-119944895D01*
X89616091Y-120212958D01*
X89753191Y-120464038D01*
X89753196Y-120464046D01*
X89859882Y-120606561D01*
X89859883Y-120606562D01*
X90755195Y-119711250D01*
X90777340Y-119762587D01*
X90883433Y-119905094D01*
X91019530Y-120019294D01*
X91109216Y-120064335D01*
X90213436Y-120960115D01*
X90355960Y-121066807D01*
X90355961Y-121066808D01*
X90607042Y-121203908D01*
X90607041Y-121203908D01*
X90875104Y-121303890D01*
X91154637Y-121364699D01*
X91439999Y-121385109D01*
X91440001Y-121385109D01*
X91725362Y-121364699D01*
X92004895Y-121303890D01*
X92272958Y-121203908D01*
X92524047Y-121066803D01*
X92666561Y-120960116D01*
X92666562Y-120960115D01*
X92634317Y-120927870D01*
X94519500Y-120927870D01*
X94519501Y-120927876D01*
X94525908Y-120987483D01*
X94576202Y-121122328D01*
X94576206Y-121122335D01*
X94662452Y-121237544D01*
X94662455Y-121237547D01*
X94777664Y-121323793D01*
X94777671Y-121323797D01*
X94912517Y-121374091D01*
X94912516Y-121374091D01*
X94919444Y-121374835D01*
X94972127Y-121380500D01*
X97054215Y-121380499D01*
X97121254Y-121400184D01*
X97141896Y-121416818D01*
X98203566Y-122478487D01*
X98264938Y-122543050D01*
X98264941Y-122543053D01*
X98315281Y-122578092D01*
X98319043Y-122580928D01*
X98366587Y-122619694D01*
X98366590Y-122619695D01*
X98366593Y-122619698D01*
X98397045Y-122635604D01*
X98403758Y-122639672D01*
X98431951Y-122659295D01*
X98488329Y-122683489D01*
X98492578Y-122685507D01*
X98546951Y-122713909D01*
X98574489Y-122721788D01*
X98579974Y-122723358D01*
X98587368Y-122725990D01*
X98618942Y-122739540D01*
X98618945Y-122739540D01*
X98618946Y-122739541D01*
X98679022Y-122751887D01*
X98683600Y-122753010D01*
X98685704Y-122753612D01*
X98742582Y-122769887D01*
X98776839Y-122772495D01*
X98784614Y-122773586D01*
X98818255Y-122780500D01*
X98818259Y-122780500D01*
X98879599Y-122780500D01*
X98884305Y-122780678D01*
X98911596Y-122782757D01*
X98945476Y-122785337D01*
X98945476Y-122785336D01*
X98945477Y-122785337D01*
X98979560Y-122780996D01*
X98987390Y-122780500D01*
X104267284Y-122780500D01*
X104356358Y-122782757D01*
X104356358Y-122782756D01*
X104356363Y-122782757D01*
X104416753Y-122771932D01*
X104421412Y-122771280D01*
X104463607Y-122766988D01*
X104482438Y-122765074D01*
X104515227Y-122754786D01*
X104522840Y-122752918D01*
X104556653Y-122746858D01*
X104613621Y-122724101D01*
X104618053Y-122722524D01*
X104676588Y-122704159D01*
X104706627Y-122687484D01*
X104713708Y-122684122D01*
X104745617Y-122671377D01*
X104796854Y-122637608D01*
X104800851Y-122635187D01*
X104854502Y-122605409D01*
X104880568Y-122583030D01*
X104886843Y-122578300D01*
X104887159Y-122578092D01*
X104915519Y-122559402D01*
X104958892Y-122516027D01*
X104962350Y-122512823D01*
X104965613Y-122510020D01*
X105008895Y-122472866D01*
X105029928Y-122445691D01*
X105035098Y-122439821D01*
X105050919Y-122424000D01*
X108590001Y-122424000D01*
X108590001Y-122460654D01*
X108600319Y-122561652D01*
X108654546Y-122725300D01*
X108654551Y-122725311D01*
X108745052Y-122872034D01*
X108745055Y-122872038D01*
X108866961Y-122993944D01*
X108866965Y-122993947D01*
X109013688Y-123084448D01*
X109013699Y-123084453D01*
X109177347Y-123138680D01*
X109278351Y-123148999D01*
X109365000Y-123148998D01*
X109365000Y-122424000D01*
X108590001Y-122424000D01*
X105050919Y-122424000D01*
X105550919Y-121924000D01*
X108590000Y-121924000D01*
X109365000Y-121924000D01*
X109365000Y-121199000D01*
X109364999Y-121198999D01*
X109278360Y-121199000D01*
X109278343Y-121199001D01*
X109177347Y-121209319D01*
X109013699Y-121263546D01*
X109013688Y-121263551D01*
X108866965Y-121354052D01*
X108866961Y-121354055D01*
X108745055Y-121475961D01*
X108745052Y-121475965D01*
X108654551Y-121622688D01*
X108654546Y-121622699D01*
X108600319Y-121786347D01*
X108590000Y-121887345D01*
X108590000Y-121924000D01*
X105550919Y-121924000D01*
X108392988Y-119081932D01*
X108454311Y-119048447D01*
X108480669Y-119045613D01*
X109152820Y-119045613D01*
X109219859Y-119065298D01*
X109252085Y-119095300D01*
X109332454Y-119202659D01*
X109378643Y-119237236D01*
X109447664Y-119288906D01*
X109447671Y-119288910D01*
X109582517Y-119339204D01*
X109582516Y-119339204D01*
X109589444Y-119339948D01*
X109642127Y-119345613D01*
X111337872Y-119345612D01*
X111397483Y-119339204D01*
X111532331Y-119288909D01*
X111647546Y-119202659D01*
X111727914Y-119095301D01*
X111783847Y-119053431D01*
X111827180Y-119045613D01*
X113769330Y-119045613D01*
X113836369Y-119065298D01*
X113857011Y-119081932D01*
X114243112Y-119468033D01*
X114276597Y-119529356D01*
X114278959Y-119544906D01*
X114284364Y-119606687D01*
X114284366Y-119606697D01*
X114343258Y-119826488D01*
X114343261Y-119826497D01*
X114439431Y-120032732D01*
X114439432Y-120032734D01*
X114547075Y-120186465D01*
X114569402Y-120252671D01*
X114569500Y-120257588D01*
X114569500Y-121201585D01*
X114549815Y-121268624D01*
X114497011Y-121314379D01*
X114427853Y-121324323D01*
X114380404Y-121307124D01*
X114309022Y-121263095D01*
X114309017Y-121263093D01*
X114309016Y-121263092D01*
X114145253Y-121208826D01*
X114145251Y-121208825D01*
X114044184Y-121198500D01*
X114044177Y-121198500D01*
X113981006Y-121198500D01*
X113956045Y-121195962D01*
X113846742Y-121173500D01*
X113846741Y-121173500D01*
X111314258Y-121173500D01*
X111314257Y-121173500D01*
X111162563Y-121188925D01*
X111162555Y-121188927D01*
X111150167Y-121192814D01*
X111113050Y-121198500D01*
X111028331Y-121198500D01*
X111028312Y-121198501D01*
X110927247Y-121208825D01*
X110763484Y-121263092D01*
X110763481Y-121263093D01*
X110616648Y-121353661D01*
X110577326Y-121392983D01*
X110516003Y-121426468D01*
X110446311Y-121421482D01*
X110401965Y-121392982D01*
X110363038Y-121354055D01*
X110363034Y-121354052D01*
X110216311Y-121263551D01*
X110216300Y-121263546D01*
X110052652Y-121209319D01*
X109951654Y-121199000D01*
X109865000Y-121199000D01*
X109865000Y-123148999D01*
X109951640Y-123148999D01*
X109951654Y-123148998D01*
X110052652Y-123138680D01*
X110216300Y-123084453D01*
X110216311Y-123084448D01*
X110363034Y-122993947D01*
X110363037Y-122993945D01*
X110401964Y-122955018D01*
X110463287Y-122921532D01*
X110532978Y-122926516D01*
X110577327Y-122955017D01*
X110616650Y-122994340D01*
X110763484Y-123084908D01*
X110927247Y-123139174D01*
X111028323Y-123149500D01*
X111128993Y-123149499D01*
X111153953Y-123152036D01*
X111263259Y-123174500D01*
X113795743Y-123174500D01*
X113871590Y-123166787D01*
X113947438Y-123159074D01*
X113959830Y-123155186D01*
X113996952Y-123149499D01*
X114044170Y-123149499D01*
X114044176Y-123149499D01*
X114145253Y-123139174D01*
X114309016Y-123084908D01*
X114455850Y-122994340D01*
X114569819Y-122880371D01*
X114631142Y-122846886D01*
X114700834Y-122851870D01*
X114745181Y-122880371D01*
X114859150Y-122994340D01*
X115005984Y-123084908D01*
X115169747Y-123139174D01*
X115270823Y-123149500D01*
X115330226Y-123149499D01*
X115361308Y-123153457D01*
X115417711Y-123168062D01*
X115417715Y-123168063D01*
X115620936Y-123178369D01*
X115800053Y-123150928D01*
X115818829Y-123149499D01*
X115869170Y-123149499D01*
X115869176Y-123149499D01*
X115970253Y-123139174D01*
X116134016Y-123084908D01*
X116280850Y-122994340D01*
X116402840Y-122872350D01*
X116493408Y-122725516D01*
X116547674Y-122561753D01*
X116558000Y-122460677D01*
X116557999Y-122349175D01*
X116560538Y-122324212D01*
X116570500Y-122275739D01*
X116570500Y-120504500D01*
X116590185Y-120437461D01*
X116642989Y-120391706D01*
X116694500Y-120380500D01*
X121400606Y-120380500D01*
X121467645Y-120400185D01*
X121484587Y-120413268D01*
X121611990Y-120530551D01*
X121813578Y-120662255D01*
X122034095Y-120758983D01*
X122267524Y-120818095D01*
X122447400Y-120833000D01*
X122447402Y-120833000D01*
X122662598Y-120833000D01*
X122662600Y-120833000D01*
X122842476Y-120818095D01*
X123075905Y-120758983D01*
X123296422Y-120662255D01*
X123498010Y-120530551D01*
X123675171Y-120367463D01*
X123823072Y-120177439D01*
X123937679Y-119965664D01*
X124015866Y-119737913D01*
X124055500Y-119500399D01*
X124055500Y-119259601D01*
X124015866Y-119022087D01*
X124007395Y-118997413D01*
X123967198Y-118880323D01*
X123937679Y-118794336D01*
X123823072Y-118582561D01*
X123675171Y-118392537D01*
X123498010Y-118229449D01*
X123498007Y-118229446D01*
X123473614Y-118213510D01*
X123428257Y-118160364D01*
X123421401Y-118110000D01*
X147424922Y-118110000D01*
X147445219Y-118497287D01*
X147505886Y-118880323D01*
X147505887Y-118880330D01*
X147606262Y-119254936D01*
X147745244Y-119616994D01*
X147921310Y-119962543D01*
X148132531Y-120287793D01*
X148341095Y-120545350D01*
X148341096Y-120545350D01*
X149832266Y-119054180D01*
X149995130Y-119244870D01*
X150185819Y-119407733D01*
X148694648Y-120898903D01*
X148694649Y-120898904D01*
X148952206Y-121107468D01*
X149277456Y-121318689D01*
X149623005Y-121494755D01*
X149985063Y-121633737D01*
X150359669Y-121734112D01*
X150359676Y-121734113D01*
X150742712Y-121794780D01*
X151129999Y-121815078D01*
X151130001Y-121815078D01*
X151517287Y-121794780D01*
X151900323Y-121734113D01*
X151900330Y-121734112D01*
X152274936Y-121633737D01*
X152636994Y-121494755D01*
X152982543Y-121318689D01*
X153307783Y-121107476D01*
X153307785Y-121107475D01*
X153565349Y-120898902D01*
X152074180Y-119407733D01*
X152264870Y-119244870D01*
X152427733Y-119054180D01*
X153918902Y-120545349D01*
X154127475Y-120287785D01*
X154127476Y-120287783D01*
X154338689Y-119962543D01*
X154514755Y-119616994D01*
X154653737Y-119254936D01*
X154754112Y-118880330D01*
X154754113Y-118880323D01*
X154814780Y-118497287D01*
X154835078Y-118110000D01*
X154835078Y-118109999D01*
X154814780Y-117722712D01*
X154754113Y-117339676D01*
X154754112Y-117339669D01*
X154653737Y-116965063D01*
X154514755Y-116603005D01*
X154338689Y-116257456D01*
X154127468Y-115932206D01*
X153918904Y-115674649D01*
X153918903Y-115674648D01*
X152427732Y-117165818D01*
X152264870Y-116975130D01*
X152074180Y-116812266D01*
X153565350Y-115321096D01*
X153565350Y-115321095D01*
X153307793Y-115112531D01*
X152982543Y-114901310D01*
X152636994Y-114725244D01*
X152274936Y-114586262D01*
X151900330Y-114485887D01*
X151900323Y-114485886D01*
X151517287Y-114425219D01*
X151130001Y-114404922D01*
X151129999Y-114404922D01*
X150742712Y-114425219D01*
X150359676Y-114485886D01*
X150359669Y-114485887D01*
X149985063Y-114586262D01*
X149623005Y-114725244D01*
X149277456Y-114901310D01*
X148952206Y-115112531D01*
X148694648Y-115321095D01*
X148694648Y-115321096D01*
X150185819Y-116812266D01*
X149995130Y-116975130D01*
X149832266Y-117165818D01*
X148341096Y-115674648D01*
X148341095Y-115674648D01*
X148132531Y-115932206D01*
X147921310Y-116257456D01*
X147745244Y-116603005D01*
X147606262Y-116965063D01*
X147505887Y-117339669D01*
X147505886Y-117339676D01*
X147445219Y-117722712D01*
X147424922Y-118109999D01*
X147424922Y-118110000D01*
X123421401Y-118110000D01*
X123418833Y-118091132D01*
X123448335Y-118027796D01*
X123473616Y-118005891D01*
X123497701Y-117990155D01*
X123497702Y-117990154D01*
X123674797Y-117827126D01*
X123674806Y-117827116D01*
X123822649Y-117637168D01*
X123822655Y-117637159D01*
X123937215Y-117425468D01*
X123937221Y-117425454D01*
X124015380Y-117197791D01*
X124033367Y-117090000D01*
X123049852Y-117090000D01*
X123098559Y-116952953D01*
X123108877Y-116802114D01*
X123078116Y-116654085D01*
X123044910Y-116590000D01*
X124033366Y-116590000D01*
X124033366Y-116589999D01*
X124015380Y-116482208D01*
X123937221Y-116254545D01*
X123937215Y-116254531D01*
X123822655Y-116042840D01*
X123822649Y-116042831D01*
X123711675Y-115900252D01*
X123686032Y-115835258D01*
X123699598Y-115766719D01*
X123748067Y-115716394D01*
X123766194Y-115707909D01*
X123781209Y-115702308D01*
X123797327Y-115696298D01*
X123797329Y-115696296D01*
X123797331Y-115696296D01*
X123912546Y-115610046D01*
X123998796Y-115494831D01*
X124049091Y-115359983D01*
X124055500Y-115300373D01*
X124055499Y-113299628D01*
X124049091Y-113240017D01*
X124006429Y-113125635D01*
X123998797Y-113105171D01*
X123998793Y-113105164D01*
X123912547Y-112989955D01*
X123912544Y-112989952D01*
X123797335Y-112903706D01*
X123797328Y-112903702D01*
X123662482Y-112853408D01*
X123654938Y-112851626D01*
X123655474Y-112849353D01*
X123601688Y-112827071D01*
X123561843Y-112769677D01*
X123555500Y-112730524D01*
X123555500Y-112407715D01*
X123557757Y-112318642D01*
X123557756Y-112318641D01*
X123557757Y-112318637D01*
X123546930Y-112258234D01*
X123546280Y-112253599D01*
X123540074Y-112192562D01*
X123529790Y-112159786D01*
X123527920Y-112152168D01*
X123521859Y-112118348D01*
X123521858Y-112118346D01*
X123521858Y-112118344D01*
X123499098Y-112061366D01*
X123497517Y-112056925D01*
X123479160Y-111998415D01*
X123479159Y-111998414D01*
X123479159Y-111998412D01*
X123462482Y-111968366D01*
X123459122Y-111961288D01*
X123446378Y-111929383D01*
X123446375Y-111929378D01*
X123446374Y-111929376D01*
X123433853Y-111910378D01*
X123412605Y-111878139D01*
X123410183Y-111874142D01*
X123380409Y-111820498D01*
X123358034Y-111794434D01*
X123353306Y-111788163D01*
X123334404Y-111759484D01*
X123334399Y-111759478D01*
X123312715Y-111737795D01*
X123291019Y-111716099D01*
X123287828Y-111712655D01*
X123247865Y-111666104D01*
X123220694Y-111645072D01*
X123214807Y-111639887D01*
X122716452Y-111141532D01*
X122655059Y-111076947D01*
X122655050Y-111076940D01*
X122651146Y-111073589D01*
X122613099Y-111014987D01*
X122612775Y-110945118D01*
X122650276Y-110886165D01*
X122713696Y-110856845D01*
X122731913Y-110855500D01*
X130924284Y-110855500D01*
X131013358Y-110857757D01*
X131013358Y-110857756D01*
X131013363Y-110857757D01*
X131073753Y-110846932D01*
X131078412Y-110846280D01*
X131120607Y-110841988D01*
X131139438Y-110840074D01*
X131172227Y-110829786D01*
X131179840Y-110827918D01*
X131213653Y-110821858D01*
X131270621Y-110799101D01*
X131275053Y-110797524D01*
X131333588Y-110779159D01*
X131363627Y-110762484D01*
X131370708Y-110759122D01*
X131402617Y-110746377D01*
X131453854Y-110712608D01*
X131457851Y-110710187D01*
X131511502Y-110680409D01*
X131537568Y-110658030D01*
X131543843Y-110653300D01*
X131572519Y-110634402D01*
X131615917Y-110591002D01*
X131619336Y-110587834D01*
X131665895Y-110547866D01*
X131686931Y-110520688D01*
X131692101Y-110514818D01*
X133032487Y-109174433D01*
X133097053Y-109113059D01*
X133119951Y-109080159D01*
X133132097Y-109062709D01*
X133134924Y-109058957D01*
X133173698Y-109011407D01*
X133189607Y-108980948D01*
X133193667Y-108974248D01*
X133213295Y-108946049D01*
X133237492Y-108889660D01*
X133239498Y-108885435D01*
X133267909Y-108831049D01*
X133277357Y-108798022D01*
X133279988Y-108790633D01*
X133293540Y-108759058D01*
X133305895Y-108698930D01*
X133306999Y-108694429D01*
X133323886Y-108635418D01*
X133326494Y-108601157D01*
X133327585Y-108593389D01*
X133334500Y-108559743D01*
X133334500Y-108498398D01*
X133334679Y-108493688D01*
X133339337Y-108432524D01*
X133334997Y-108398442D01*
X133334500Y-108390603D01*
X133334500Y-99072674D01*
X133354185Y-99005635D01*
X133370819Y-98984993D01*
X133520993Y-98834819D01*
X133582316Y-98801334D01*
X133608674Y-98798500D01*
X136579182Y-98798500D01*
X136668256Y-98800757D01*
X136668256Y-98800756D01*
X136668261Y-98800757D01*
X136728651Y-98789932D01*
X136733310Y-98789280D01*
X136775505Y-98784988D01*
X136794336Y-98783074D01*
X136827125Y-98772786D01*
X136834738Y-98770918D01*
X136868551Y-98764858D01*
X136925519Y-98742101D01*
X136929951Y-98740524D01*
X136955975Y-98732359D01*
X136988486Y-98722159D01*
X137018525Y-98705484D01*
X137025606Y-98702122D01*
X137057515Y-98689377D01*
X137108752Y-98655608D01*
X137112749Y-98653187D01*
X137166400Y-98623409D01*
X137192466Y-98601030D01*
X137198741Y-98596300D01*
X137227417Y-98577402D01*
X137270790Y-98534027D01*
X137274248Y-98530823D01*
X137277511Y-98528020D01*
X137320793Y-98490866D01*
X137341826Y-98463691D01*
X137346996Y-98457821D01*
X143058467Y-92746350D01*
X143123053Y-92684957D01*
X143158099Y-92634604D01*
X143160938Y-92630839D01*
X143164612Y-92626333D01*
X143199698Y-92583305D01*
X143215601Y-92552858D01*
X143219674Y-92546137D01*
X143224489Y-92539218D01*
X143239295Y-92517947D01*
X143263492Y-92461558D01*
X143265498Y-92457333D01*
X143293909Y-92402947D01*
X143303360Y-92369913D01*
X143305991Y-92362526D01*
X143319540Y-92330956D01*
X143331893Y-92270838D01*
X143333006Y-92266310D01*
X143349887Y-92207316D01*
X143352495Y-92173053D01*
X143353587Y-92165274D01*
X143360500Y-92131637D01*
X143360500Y-92070299D01*
X143360679Y-92065590D01*
X143365337Y-92004424D01*
X143360997Y-91970340D01*
X143360500Y-91962501D01*
X143360500Y-89454499D01*
X143380185Y-89387460D01*
X143432989Y-89341705D01*
X143484500Y-89330499D01*
X143607871Y-89330499D01*
X143607872Y-89330499D01*
X143667483Y-89324091D01*
X143802331Y-89273796D01*
X143917546Y-89187546D01*
X144003796Y-89072331D01*
X144054091Y-88937483D01*
X144060500Y-88877873D01*
X144060500Y-87630004D01*
X148155233Y-87630004D01*
X148174273Y-87884079D01*
X148230968Y-88132477D01*
X148230973Y-88132494D01*
X148324058Y-88369671D01*
X148324057Y-88369671D01*
X148451457Y-88590332D01*
X148493452Y-88642993D01*
X148493453Y-88642993D01*
X149297226Y-87839219D01*
X149335901Y-87932588D01*
X149432075Y-88057925D01*
X149557412Y-88154099D01*
X149650779Y-88192772D01*
X148846813Y-88996737D01*
X149007623Y-89106375D01*
X149007624Y-89106376D01*
X149237176Y-89216921D01*
X149237174Y-89216921D01*
X149480652Y-89292024D01*
X149480658Y-89292026D01*
X149732595Y-89329999D01*
X149732604Y-89330000D01*
X149987396Y-89330000D01*
X149987404Y-89329999D01*
X150239341Y-89292026D01*
X150239347Y-89292024D01*
X150482824Y-89216921D01*
X150712381Y-89106373D01*
X150873185Y-88996737D01*
X150069220Y-88192772D01*
X150162588Y-88154099D01*
X150287925Y-88057925D01*
X150384099Y-87932589D01*
X150422773Y-87839220D01*
X151226545Y-88642993D01*
X151268545Y-88590327D01*
X151395941Y-88369671D01*
X151489026Y-88132494D01*
X151489031Y-88132477D01*
X151545726Y-87884079D01*
X151564767Y-87630004D01*
X151564767Y-87629995D01*
X151545726Y-87375920D01*
X151489031Y-87127522D01*
X151489026Y-87127505D01*
X151395941Y-86890328D01*
X151395942Y-86890328D01*
X151268544Y-86669671D01*
X151226546Y-86617006D01*
X150422772Y-87420779D01*
X150384099Y-87327412D01*
X150287925Y-87202075D01*
X150162588Y-87105901D01*
X150069220Y-87067227D01*
X150873185Y-86263261D01*
X150712377Y-86153624D01*
X150712376Y-86153623D01*
X150482823Y-86043078D01*
X150482825Y-86043078D01*
X150239347Y-85967975D01*
X150239341Y-85967973D01*
X149987404Y-85930000D01*
X149732595Y-85930000D01*
X149480658Y-85967973D01*
X149480652Y-85967975D01*
X149237175Y-86043078D01*
X149007624Y-86153623D01*
X149007616Y-86153628D01*
X148846813Y-86263261D01*
X149650779Y-87067227D01*
X149557412Y-87105901D01*
X149432075Y-87202075D01*
X149335901Y-87327411D01*
X149297226Y-87420779D01*
X148493453Y-86617006D01*
X148451455Y-86669670D01*
X148324058Y-86890328D01*
X148230973Y-87127505D01*
X148230968Y-87127522D01*
X148174273Y-87375920D01*
X148155233Y-87629995D01*
X148155233Y-87630004D01*
X144060500Y-87630004D01*
X144060499Y-86382128D01*
X144054091Y-86322517D01*
X144044487Y-86296768D01*
X144003797Y-86187671D01*
X144003793Y-86187664D01*
X143917547Y-86072455D01*
X143917544Y-86072452D01*
X143802335Y-85986206D01*
X143802328Y-85986202D01*
X143667482Y-85935908D01*
X143667483Y-85935908D01*
X143607883Y-85929501D01*
X143607881Y-85929500D01*
X143607873Y-85929500D01*
X143607865Y-85929500D01*
X141384500Y-85929500D01*
X141317461Y-85909815D01*
X141271706Y-85857011D01*
X141260500Y-85805500D01*
X141260500Y-75470782D01*
X141280185Y-75403743D01*
X141296814Y-75383106D01*
X143058487Y-73621433D01*
X143123053Y-73560059D01*
X143158119Y-73509675D01*
X143160912Y-73505972D01*
X143199697Y-73458408D01*
X143215604Y-73427952D01*
X143219666Y-73421248D01*
X143239295Y-73393049D01*
X143263497Y-73336650D01*
X143265500Y-73332431D01*
X143293909Y-73278049D01*
X143303357Y-73245022D01*
X143305988Y-73237633D01*
X143319540Y-73206058D01*
X143331895Y-73145930D01*
X143332999Y-73141429D01*
X143349886Y-73082418D01*
X143352494Y-73048157D01*
X143353585Y-73040389D01*
X143360500Y-73006743D01*
X143360500Y-72945398D01*
X143360679Y-72940688D01*
X143363257Y-72906833D01*
X143365337Y-72879524D01*
X143360997Y-72845442D01*
X143360500Y-72837603D01*
X143360500Y-70404499D01*
X143380185Y-70337460D01*
X143432989Y-70291705D01*
X143484500Y-70280499D01*
X143607871Y-70280499D01*
X143607872Y-70280499D01*
X143667483Y-70274091D01*
X143802331Y-70223796D01*
X143917546Y-70137546D01*
X144003796Y-70022331D01*
X144054091Y-69887483D01*
X144060500Y-69827873D01*
X144060500Y-68580004D01*
X148155233Y-68580004D01*
X148174273Y-68834079D01*
X148230968Y-69082477D01*
X148230973Y-69082494D01*
X148324058Y-69319671D01*
X148324057Y-69319671D01*
X148451457Y-69540332D01*
X148493452Y-69592993D01*
X148493453Y-69592993D01*
X149297226Y-68789219D01*
X149335901Y-68882588D01*
X149432075Y-69007925D01*
X149557412Y-69104099D01*
X149650779Y-69142772D01*
X148846813Y-69946737D01*
X149007623Y-70056375D01*
X149007624Y-70056376D01*
X149237176Y-70166921D01*
X149237174Y-70166921D01*
X149480652Y-70242024D01*
X149480658Y-70242026D01*
X149732595Y-70279999D01*
X149732604Y-70280000D01*
X149987396Y-70280000D01*
X149987404Y-70279999D01*
X150239341Y-70242026D01*
X150239347Y-70242024D01*
X150482824Y-70166921D01*
X150712381Y-70056373D01*
X150873185Y-69946737D01*
X150069220Y-69142772D01*
X150162588Y-69104099D01*
X150287925Y-69007925D01*
X150384099Y-68882589D01*
X150422773Y-68789220D01*
X151226545Y-69592993D01*
X151268545Y-69540327D01*
X151395941Y-69319671D01*
X151489026Y-69082494D01*
X151489031Y-69082477D01*
X151545726Y-68834079D01*
X151564767Y-68580004D01*
X151564767Y-68579995D01*
X151545726Y-68325920D01*
X151489031Y-68077522D01*
X151489026Y-68077505D01*
X151395941Y-67840328D01*
X151395942Y-67840328D01*
X151268544Y-67619671D01*
X151226546Y-67567006D01*
X150422772Y-68370779D01*
X150384099Y-68277412D01*
X150287925Y-68152075D01*
X150162588Y-68055901D01*
X150069220Y-68017227D01*
X150873185Y-67213261D01*
X150712377Y-67103624D01*
X150712376Y-67103623D01*
X150482823Y-66993078D01*
X150482825Y-66993078D01*
X150239347Y-66917975D01*
X150239341Y-66917973D01*
X149987404Y-66880000D01*
X149732595Y-66880000D01*
X149480658Y-66917973D01*
X149480652Y-66917975D01*
X149237175Y-66993078D01*
X149007624Y-67103623D01*
X149007616Y-67103628D01*
X148846813Y-67213261D01*
X149650779Y-68017227D01*
X149557412Y-68055901D01*
X149432075Y-68152075D01*
X149335901Y-68277411D01*
X149297226Y-68370779D01*
X148493453Y-67567006D01*
X148451455Y-67619670D01*
X148324058Y-67840328D01*
X148230973Y-68077505D01*
X148230968Y-68077522D01*
X148174273Y-68325920D01*
X148155233Y-68579995D01*
X148155233Y-68580004D01*
X144060500Y-68580004D01*
X144060499Y-67332128D01*
X144054091Y-67272517D01*
X144003884Y-67137906D01*
X144003797Y-67137671D01*
X144003793Y-67137664D01*
X143917547Y-67022455D01*
X143917544Y-67022452D01*
X143802335Y-66936206D01*
X143802328Y-66936202D01*
X143667482Y-66885908D01*
X143667483Y-66885908D01*
X143607883Y-66879501D01*
X143607881Y-66879500D01*
X143607873Y-66879500D01*
X143607864Y-66879500D01*
X141112129Y-66879500D01*
X141112123Y-66879501D01*
X141052516Y-66885908D01*
X140917671Y-66936202D01*
X140917664Y-66936206D01*
X140802455Y-67022452D01*
X140802452Y-67022455D01*
X140716206Y-67137664D01*
X140716202Y-67137671D01*
X140665908Y-67272517D01*
X140659501Y-67332116D01*
X140659501Y-67332123D01*
X140659500Y-67332135D01*
X140659500Y-69827870D01*
X140659501Y-69827876D01*
X140665908Y-69887483D01*
X140716202Y-70022328D01*
X140716206Y-70022335D01*
X140802452Y-70137544D01*
X140802455Y-70137547D01*
X140917664Y-70223793D01*
X140917671Y-70223797D01*
X140962618Y-70240561D01*
X141052517Y-70274091D01*
X141112127Y-70280500D01*
X141235500Y-70280499D01*
X141302539Y-70300183D01*
X141348294Y-70352987D01*
X141359500Y-70404499D01*
X141359500Y-72439216D01*
X141339815Y-72506255D01*
X141323181Y-72526897D01*
X139561531Y-74288547D01*
X139496946Y-74349942D01*
X139461899Y-74400294D01*
X139459062Y-74404056D01*
X139420302Y-74451592D01*
X139420299Y-74451597D01*
X139404392Y-74482047D01*
X139400324Y-74488761D01*
X139380702Y-74516954D01*
X139356509Y-74573330D01*
X139354488Y-74577584D01*
X139326091Y-74631951D01*
X139326090Y-74631952D01*
X139316640Y-74664975D01*
X139314007Y-74672371D01*
X139300459Y-74703943D01*
X139288113Y-74764019D01*
X139286990Y-74768595D01*
X139270113Y-74827577D01*
X139270113Y-74827579D01*
X139267503Y-74861841D01*
X139266414Y-74869608D01*
X139260980Y-74896052D01*
X139259500Y-74903258D01*
X139259500Y-74964597D01*
X139259321Y-74969306D01*
X139254662Y-75030474D01*
X139256707Y-75046527D01*
X139259003Y-75064560D01*
X139259500Y-75072388D01*
X139259500Y-91684217D01*
X139239815Y-91751256D01*
X139223181Y-91771898D01*
X135633899Y-95361181D01*
X135572576Y-95394666D01*
X135546218Y-95397500D01*
X132575670Y-95397500D01*
X132531149Y-95396372D01*
X132486630Y-95395244D01*
X132486629Y-95395244D01*
X132486620Y-95395244D01*
X132426257Y-95406064D01*
X132421591Y-95406718D01*
X132360558Y-95412925D01*
X132327774Y-95423210D01*
X132320147Y-95425082D01*
X132286343Y-95431141D01*
X132229375Y-95453895D01*
X132224939Y-95455474D01*
X132166408Y-95473840D01*
X132166404Y-95473842D01*
X132136372Y-95490510D01*
X132129278Y-95493879D01*
X132097376Y-95506623D01*
X132097371Y-95506625D01*
X132046150Y-95540381D01*
X132042122Y-95542822D01*
X131988495Y-95572588D01*
X131962428Y-95594965D01*
X131956159Y-95599692D01*
X131927478Y-95618595D01*
X131927472Y-95618600D01*
X131884103Y-95661968D01*
X131880649Y-95665169D01*
X131834096Y-95705136D01*
X131813070Y-95732298D01*
X131807879Y-95738192D01*
X130235531Y-97310541D01*
X130170946Y-97371936D01*
X130135899Y-97422288D01*
X130133062Y-97426050D01*
X130094302Y-97473586D01*
X130094299Y-97473591D01*
X130078392Y-97504041D01*
X130074324Y-97510755D01*
X130054702Y-97538948D01*
X130030509Y-97595324D01*
X130028488Y-97599578D01*
X130000091Y-97653945D01*
X130000090Y-97653946D01*
X129990640Y-97686969D01*
X129988007Y-97694365D01*
X129974459Y-97725937D01*
X129962113Y-97786013D01*
X129960990Y-97790589D01*
X129944113Y-97849571D01*
X129944113Y-97849573D01*
X129941503Y-97883835D01*
X129940414Y-97891602D01*
X129935965Y-97913258D01*
X129933500Y-97925252D01*
X129933500Y-97986590D01*
X129933321Y-97991300D01*
X129930761Y-98024916D01*
X129906043Y-98090267D01*
X129849917Y-98131880D01*
X129807119Y-98139500D01*
X127755402Y-98139500D01*
X127750695Y-98139321D01*
X127745121Y-98138896D01*
X127689524Y-98134662D01*
X127669589Y-98137201D01*
X127655440Y-98139003D01*
X127647611Y-98139500D01*
X127242588Y-98139500D01*
X127175549Y-98119815D01*
X127171465Y-98117075D01*
X127133440Y-98090450D01*
X127017734Y-98009432D01*
X126978850Y-97991300D01*
X126811497Y-97913261D01*
X126811488Y-97913258D01*
X126591697Y-97854366D01*
X126591693Y-97854365D01*
X126591692Y-97854365D01*
X126591691Y-97854364D01*
X126591686Y-97854364D01*
X126365002Y-97834532D01*
X126364998Y-97834532D01*
X126138313Y-97854364D01*
X126138302Y-97854366D01*
X125918511Y-97913258D01*
X125918502Y-97913261D01*
X125712267Y-98009431D01*
X125712265Y-98009432D01*
X125525858Y-98139954D01*
X125364954Y-98300858D01*
X125234432Y-98487265D01*
X125234431Y-98487267D01*
X125138261Y-98693502D01*
X125138258Y-98693511D01*
X125079366Y-98913302D01*
X125079364Y-98913313D01*
X125059532Y-99139998D01*
X125059532Y-99140001D01*
X125079364Y-99366686D01*
X125079366Y-99366697D01*
X125138258Y-99586488D01*
X125138261Y-99586497D01*
X125234431Y-99792732D01*
X125234432Y-99792734D01*
X125364954Y-99979141D01*
X125525858Y-100140045D01*
X125535791Y-100147000D01*
X125712266Y-100270568D01*
X125918504Y-100366739D01*
X126138308Y-100425635D01*
X126300230Y-100439801D01*
X126364998Y-100445468D01*
X126365000Y-100445468D01*
X126365002Y-100445468D01*
X126421673Y-100440509D01*
X126591692Y-100425635D01*
X126811496Y-100366739D01*
X127017734Y-100270568D01*
X127171465Y-100162924D01*
X127237671Y-100140598D01*
X127242588Y-100140500D01*
X127249217Y-100140500D01*
X127316256Y-100160185D01*
X127336898Y-100176819D01*
X128638181Y-101478102D01*
X128671666Y-101539425D01*
X128674500Y-101565783D01*
X128674500Y-102600370D01*
X128674501Y-102600376D01*
X128680908Y-102659983D01*
X128731202Y-102794828D01*
X128731206Y-102794835D01*
X128817452Y-102910044D01*
X128817455Y-102910047D01*
X128932664Y-102996293D01*
X128932671Y-102996297D01*
X128943545Y-103000352D01*
X128963802Y-103007907D01*
X129019736Y-103049777D01*
X129044155Y-103115241D01*
X129029305Y-103183514D01*
X129018325Y-103200252D01*
X128907345Y-103342838D01*
X128907344Y-103342840D01*
X128792784Y-103554531D01*
X128792778Y-103554545D01*
X128714619Y-103782208D01*
X128696633Y-103889999D01*
X128696634Y-103890000D01*
X129680148Y-103890000D01*
X129631441Y-104027047D01*
X129621123Y-104177886D01*
X129651884Y-104325915D01*
X129685090Y-104390000D01*
X128696633Y-104390000D01*
X128714619Y-104497791D01*
X128792778Y-104725454D01*
X128792784Y-104725468D01*
X128907344Y-104937159D01*
X128907350Y-104937168D01*
X129055193Y-105127116D01*
X129055202Y-105127126D01*
X129232297Y-105290154D01*
X129232296Y-105290154D01*
X129256385Y-105305892D01*
X129301742Y-105359038D01*
X129311166Y-105428269D01*
X129281664Y-105491605D01*
X129256389Y-105513507D01*
X129231994Y-105529446D01*
X129231988Y-105529450D01*
X129147735Y-105607011D01*
X129111950Y-105639954D01*
X129104589Y-105646730D01*
X129041934Y-105677652D01*
X129020606Y-105679500D01*
X126524332Y-105679500D01*
X126457293Y-105659815D01*
X126411538Y-105607011D01*
X126401594Y-105537853D01*
X126430619Y-105474297D01*
X126489397Y-105436523D01*
X126513525Y-105431972D01*
X126591599Y-105425141D01*
X126591610Y-105425139D01*
X126811317Y-105366269D01*
X126811331Y-105366264D01*
X127017478Y-105270136D01*
X127090472Y-105219025D01*
X126409401Y-104537953D01*
X126490148Y-104525165D01*
X126603045Y-104467641D01*
X126692641Y-104378045D01*
X126750165Y-104265148D01*
X126762953Y-104184400D01*
X127444025Y-104865472D01*
X127495136Y-104792478D01*
X127591264Y-104586331D01*
X127591269Y-104586317D01*
X127650139Y-104366610D01*
X127650141Y-104366599D01*
X127669966Y-104140002D01*
X127669966Y-104139997D01*
X127650141Y-103913400D01*
X127650139Y-103913389D01*
X127591269Y-103693682D01*
X127591265Y-103693673D01*
X127495133Y-103487516D01*
X127495131Y-103487512D01*
X127444026Y-103414526D01*
X127444025Y-103414526D01*
X126762953Y-104095598D01*
X126750165Y-104014852D01*
X126692641Y-103901955D01*
X126603045Y-103812359D01*
X126490148Y-103754835D01*
X126409400Y-103742046D01*
X127090472Y-103060974D01*
X127090471Y-103060973D01*
X127017483Y-103009866D01*
X127017481Y-103009865D01*
X126811326Y-102913734D01*
X126811317Y-102913730D01*
X126591610Y-102854860D01*
X126591599Y-102854858D01*
X126365002Y-102835034D01*
X126364998Y-102835034D01*
X126138400Y-102854858D01*
X126138389Y-102854860D01*
X125918682Y-102913730D01*
X125918673Y-102913734D01*
X125712513Y-103009868D01*
X125639527Y-103060972D01*
X125639526Y-103060973D01*
X126320600Y-103742046D01*
X126239852Y-103754835D01*
X126126955Y-103812359D01*
X126037359Y-103901955D01*
X125979835Y-104014852D01*
X125967046Y-104095599D01*
X125285973Y-103414526D01*
X125285972Y-103414527D01*
X125234868Y-103487513D01*
X125138734Y-103693673D01*
X125138730Y-103693682D01*
X125079860Y-103913389D01*
X125079858Y-103913400D01*
X125060034Y-104139997D01*
X125060034Y-104140002D01*
X125079858Y-104366599D01*
X125079860Y-104366610D01*
X125138730Y-104586317D01*
X125138734Y-104586326D01*
X125234865Y-104792481D01*
X125234866Y-104792483D01*
X125285973Y-104865471D01*
X125285974Y-104865472D01*
X125967046Y-104184399D01*
X125979835Y-104265148D01*
X126037359Y-104378045D01*
X126126955Y-104467641D01*
X126239852Y-104525165D01*
X126320599Y-104537953D01*
X125639526Y-105219025D01*
X125639526Y-105219026D01*
X125712512Y-105270131D01*
X125712516Y-105270133D01*
X125918673Y-105366265D01*
X125918682Y-105366269D01*
X126138389Y-105425139D01*
X126138400Y-105425141D01*
X126216475Y-105431972D01*
X126281544Y-105457424D01*
X126322523Y-105514015D01*
X126326401Y-105583777D01*
X126291947Y-105644561D01*
X126230100Y-105677069D01*
X126205668Y-105679500D01*
X124120049Y-105679500D01*
X124053010Y-105659815D01*
X124032368Y-105643181D01*
X124029141Y-105639954D01*
X123842734Y-105509432D01*
X123842732Y-105509431D01*
X123636497Y-105413261D01*
X123636488Y-105413258D01*
X123416697Y-105354366D01*
X123416693Y-105354365D01*
X123416692Y-105354365D01*
X123416691Y-105354364D01*
X123416686Y-105354364D01*
X123190002Y-105334532D01*
X123189998Y-105334532D01*
X122963313Y-105354364D01*
X122963302Y-105354366D01*
X122743511Y-105413258D01*
X122743502Y-105413261D01*
X122537267Y-105509431D01*
X122537265Y-105509432D01*
X122496676Y-105537853D01*
X122403378Y-105603181D01*
X122383535Y-105617075D01*
X122317329Y-105639402D01*
X122312412Y-105639500D01*
X119870669Y-105639500D01*
X119803630Y-105619815D01*
X119782988Y-105603181D01*
X119446818Y-105267011D01*
X119413333Y-105205688D01*
X119410499Y-105179330D01*
X119410499Y-104497242D01*
X119410498Y-104497236D01*
X119410102Y-104493553D01*
X119404091Y-104437630D01*
X119386326Y-104390000D01*
X119353797Y-104302784D01*
X119353793Y-104302777D01*
X119267547Y-104187568D01*
X119267544Y-104187565D01*
X119152335Y-104101319D01*
X119152328Y-104101315D01*
X119017482Y-104051021D01*
X119017483Y-104051021D01*
X118957883Y-104044614D01*
X118957881Y-104044613D01*
X118957873Y-104044613D01*
X118957864Y-104044613D01*
X118954548Y-104044435D01*
X118954627Y-104042960D01*
X118893215Y-104024928D01*
X118847460Y-103972124D01*
X118839969Y-103928635D01*
X118154401Y-103243066D01*
X118235148Y-103230278D01*
X118348045Y-103172754D01*
X118437641Y-103083158D01*
X118495165Y-102970261D01*
X118507953Y-102889513D01*
X119189025Y-103570585D01*
X119240136Y-103497591D01*
X119336264Y-103291444D01*
X119336269Y-103291430D01*
X119395139Y-103071723D01*
X119395141Y-103071712D01*
X119414966Y-102845115D01*
X119414966Y-102845110D01*
X119395141Y-102618513D01*
X119395139Y-102618502D01*
X119336269Y-102398795D01*
X119336265Y-102398786D01*
X119240133Y-102192629D01*
X119240131Y-102192625D01*
X119189026Y-102119639D01*
X119189025Y-102119639D01*
X118507953Y-102800711D01*
X118495165Y-102719965D01*
X118437641Y-102607068D01*
X118348045Y-102517472D01*
X118235148Y-102459948D01*
X118154400Y-102447159D01*
X118835472Y-101766087D01*
X118835471Y-101766086D01*
X118762483Y-101714979D01*
X118762481Y-101714978D01*
X118601693Y-101640002D01*
X121885034Y-101640002D01*
X121904858Y-101866599D01*
X121904860Y-101866610D01*
X121963730Y-102086317D01*
X121963734Y-102086326D01*
X122059865Y-102292481D01*
X122059866Y-102292483D01*
X122110973Y-102365471D01*
X122110974Y-102365472D01*
X122792046Y-101684399D01*
X122804835Y-101765148D01*
X122862359Y-101878045D01*
X122951955Y-101967641D01*
X123064852Y-102025165D01*
X123145599Y-102037953D01*
X122464526Y-102719025D01*
X122464526Y-102719026D01*
X122537512Y-102770131D01*
X122537516Y-102770133D01*
X122743673Y-102866265D01*
X122743682Y-102866269D01*
X122963389Y-102925139D01*
X122963400Y-102925141D01*
X123189998Y-102944966D01*
X123190002Y-102944966D01*
X123416599Y-102925141D01*
X123416610Y-102925139D01*
X123636317Y-102866269D01*
X123636331Y-102866264D01*
X123842478Y-102770136D01*
X123915472Y-102719025D01*
X123234401Y-102037953D01*
X123315148Y-102025165D01*
X123428045Y-101967641D01*
X123517641Y-101878045D01*
X123575165Y-101765148D01*
X123587953Y-101684400D01*
X124269025Y-102365472D01*
X124320136Y-102292478D01*
X124416264Y-102086331D01*
X124416269Y-102086317D01*
X124475139Y-101866610D01*
X124475141Y-101866599D01*
X124494966Y-101640002D01*
X124494966Y-101639997D01*
X124475141Y-101413400D01*
X124475139Y-101413389D01*
X124416269Y-101193682D01*
X124416265Y-101193673D01*
X124320133Y-100987516D01*
X124320131Y-100987512D01*
X124269026Y-100914526D01*
X124269025Y-100914526D01*
X123587953Y-101595598D01*
X123575165Y-101514852D01*
X123517641Y-101401955D01*
X123428045Y-101312359D01*
X123315148Y-101254835D01*
X123234400Y-101242046D01*
X123915472Y-100560974D01*
X123915471Y-100560973D01*
X123842483Y-100509866D01*
X123842481Y-100509865D01*
X123636326Y-100413734D01*
X123636317Y-100413730D01*
X123416610Y-100354860D01*
X123416599Y-100354858D01*
X123190002Y-100335034D01*
X123189998Y-100335034D01*
X122963400Y-100354858D01*
X122963389Y-100354860D01*
X122743682Y-100413730D01*
X122743673Y-100413734D01*
X122537513Y-100509868D01*
X122464527Y-100560972D01*
X122464526Y-100560973D01*
X123145600Y-101242046D01*
X123064852Y-101254835D01*
X122951955Y-101312359D01*
X122862359Y-101401955D01*
X122804835Y-101514852D01*
X122792046Y-101595599D01*
X122110973Y-100914526D01*
X122110972Y-100914527D01*
X122059868Y-100987513D01*
X121963734Y-101193673D01*
X121963730Y-101193682D01*
X121904860Y-101413389D01*
X121904858Y-101413400D01*
X121885034Y-101639997D01*
X121885034Y-101640002D01*
X118601693Y-101640002D01*
X118556326Y-101618847D01*
X118556317Y-101618843D01*
X118336610Y-101559973D01*
X118336599Y-101559971D01*
X118110002Y-101540147D01*
X118109998Y-101540147D01*
X117883400Y-101559971D01*
X117883389Y-101559973D01*
X117663682Y-101618843D01*
X117663673Y-101618847D01*
X117457513Y-101714981D01*
X117384527Y-101766085D01*
X117384526Y-101766086D01*
X118065600Y-102447159D01*
X117984852Y-102459948D01*
X117871955Y-102517472D01*
X117782359Y-102607068D01*
X117724835Y-102719965D01*
X117712046Y-102800712D01*
X117030973Y-102119639D01*
X117030972Y-102119640D01*
X116979868Y-102192626D01*
X116883734Y-102398786D01*
X116883730Y-102398795D01*
X116824860Y-102618502D01*
X116824858Y-102618513D01*
X116805034Y-102845110D01*
X116805034Y-102845115D01*
X116824858Y-103071712D01*
X116824860Y-103071723D01*
X116883730Y-103291430D01*
X116883734Y-103291439D01*
X116979865Y-103497594D01*
X116979866Y-103497596D01*
X117030973Y-103570584D01*
X117030974Y-103570585D01*
X117712046Y-102889512D01*
X117724835Y-102970261D01*
X117782359Y-103083158D01*
X117871955Y-103172754D01*
X117984852Y-103230278D01*
X118065599Y-103243066D01*
X117379351Y-103929313D01*
X117369505Y-103978307D01*
X117320889Y-104028489D01*
X117265367Y-104043161D01*
X117265423Y-104044212D01*
X117265429Y-104044259D01*
X117265426Y-104044259D01*
X117265436Y-104044437D01*
X117262123Y-104044614D01*
X117202516Y-104051021D01*
X117067671Y-104101315D01*
X117067664Y-104101319D01*
X116952456Y-104187565D01*
X116952455Y-104187566D01*
X116952454Y-104187567D01*
X116872087Y-104294924D01*
X116816153Y-104336795D01*
X116772820Y-104344613D01*
X116759387Y-104344613D01*
X116692348Y-104324928D01*
X116646593Y-104272124D01*
X116635387Y-104220613D01*
X116635387Y-103836564D01*
X116635754Y-103822072D01*
X116637643Y-103747524D01*
X116626819Y-103687134D01*
X116626169Y-103682504D01*
X116619961Y-103621449D01*
X116609677Y-103588673D01*
X116607804Y-103581041D01*
X116601745Y-103547236D01*
X116601745Y-103547234D01*
X116578989Y-103490265D01*
X116577408Y-103485824D01*
X116559044Y-103427294D01*
X116542375Y-103397265D01*
X116539004Y-103390165D01*
X116526265Y-103358273D01*
X116526264Y-103358270D01*
X116492507Y-103307050D01*
X116490067Y-103303021D01*
X116479266Y-103283562D01*
X116460296Y-103249385D01*
X116460294Y-103249382D01*
X116437920Y-103223321D01*
X116433189Y-103217046D01*
X116414289Y-103188368D01*
X116370899Y-103144978D01*
X116367709Y-103141535D01*
X116327754Y-103094993D01*
X116327750Y-103094989D01*
X116300585Y-103073961D01*
X116294690Y-103068769D01*
X114424319Y-101198398D01*
X114390834Y-101137075D01*
X114388000Y-101110717D01*
X114388000Y-100032414D01*
X114407685Y-99965375D01*
X114460489Y-99919620D01*
X114529647Y-99909676D01*
X114577097Y-99926876D01*
X114648475Y-99970903D01*
X114648478Y-99970904D01*
X114648484Y-99970908D01*
X114812247Y-100025174D01*
X114913323Y-100035500D01*
X114976492Y-100035499D01*
X115001453Y-100038036D01*
X115110759Y-100060500D01*
X117285743Y-100060500D01*
X117361590Y-100052787D01*
X117437438Y-100045074D01*
X117449830Y-100041186D01*
X117486952Y-100035499D01*
X117571670Y-100035499D01*
X117571676Y-100035499D01*
X117672753Y-100025174D01*
X117836516Y-99970908D01*
X117983350Y-99880340D01*
X118022673Y-99841016D01*
X118083994Y-99807532D01*
X118153685Y-99812516D01*
X118198034Y-99841017D01*
X118236961Y-99879944D01*
X118236965Y-99879947D01*
X118383688Y-99970448D01*
X118383699Y-99970453D01*
X118547347Y-100024680D01*
X118648351Y-100034999D01*
X118735000Y-100034998D01*
X118735000Y-99310000D01*
X119235000Y-99310000D01*
X119235000Y-100034999D01*
X119321640Y-100034999D01*
X119321654Y-100034998D01*
X119422652Y-100024680D01*
X119586300Y-99970453D01*
X119586311Y-99970448D01*
X119733034Y-99879947D01*
X119733038Y-99879944D01*
X119854944Y-99758038D01*
X119854947Y-99758034D01*
X119945448Y-99611311D01*
X119945453Y-99611300D01*
X119999680Y-99447652D01*
X120009999Y-99346654D01*
X120010000Y-99346641D01*
X120010000Y-99310000D01*
X119235000Y-99310000D01*
X118735000Y-99310000D01*
X118735000Y-98085000D01*
X119235000Y-98085000D01*
X119235000Y-98810000D01*
X120009999Y-98810000D01*
X120009999Y-98773360D01*
X120009998Y-98773345D01*
X119999680Y-98672347D01*
X119945453Y-98508699D01*
X119945448Y-98508688D01*
X119854947Y-98361965D01*
X119854944Y-98361961D01*
X119733038Y-98240055D01*
X119733034Y-98240052D01*
X119586311Y-98149551D01*
X119586300Y-98149546D01*
X119422652Y-98095319D01*
X119321654Y-98085000D01*
X119235000Y-98085000D01*
X118735000Y-98085000D01*
X118734999Y-98084999D01*
X118648360Y-98085000D01*
X118648343Y-98085001D01*
X118547347Y-98095319D01*
X118383699Y-98149546D01*
X118383688Y-98149551D01*
X118236965Y-98240052D01*
X118236961Y-98240055D01*
X118198033Y-98278983D01*
X118136710Y-98312468D01*
X118067018Y-98307482D01*
X118022672Y-98278982D01*
X117983351Y-98239661D01*
X117983350Y-98239660D01*
X117876898Y-98174000D01*
X117836518Y-98149093D01*
X117836513Y-98149091D01*
X117835069Y-98148612D01*
X117672753Y-98094826D01*
X117672751Y-98094825D01*
X117571684Y-98084500D01*
X117571677Y-98084500D01*
X117471006Y-98084500D01*
X117446045Y-98081962D01*
X117336742Y-98059500D01*
X117336741Y-98059500D01*
X115161758Y-98059500D01*
X115161757Y-98059500D01*
X115010063Y-98074925D01*
X115010055Y-98074927D01*
X114997667Y-98078814D01*
X114960551Y-98084500D01*
X114913332Y-98084500D01*
X114913312Y-98084501D01*
X114812247Y-98094825D01*
X114648484Y-98149092D01*
X114648481Y-98149093D01*
X114501648Y-98239661D01*
X114387681Y-98353629D01*
X114326358Y-98387114D01*
X114256666Y-98382130D01*
X114212319Y-98353629D01*
X114098351Y-98239661D01*
X114098350Y-98239660D01*
X113991898Y-98174000D01*
X113951518Y-98149093D01*
X113951513Y-98149091D01*
X113950069Y-98148612D01*
X113787753Y-98094826D01*
X113787751Y-98094825D01*
X113686684Y-98084500D01*
X113686677Y-98084500D01*
X113627274Y-98084500D01*
X113596194Y-98080542D01*
X113539787Y-98065937D01*
X113404304Y-98059066D01*
X113336564Y-98055631D01*
X113336563Y-98055631D01*
X113336559Y-98055631D01*
X113157444Y-98083070D01*
X113138670Y-98084500D01*
X113088332Y-98084500D01*
X113088312Y-98084501D01*
X112987247Y-98094825D01*
X112823484Y-98149092D01*
X112823481Y-98149093D01*
X112676648Y-98239661D01*
X112554659Y-98361650D01*
X112500244Y-98449871D01*
X112448296Y-98496595D01*
X112379333Y-98507816D01*
X112315251Y-98479973D01*
X112289168Y-98449870D01*
X112234947Y-98361965D01*
X112234944Y-98361961D01*
X112113038Y-98240055D01*
X112113034Y-98240052D01*
X111966311Y-98149551D01*
X111966300Y-98149546D01*
X111802652Y-98095319D01*
X111701654Y-98085000D01*
X111615000Y-98085000D01*
X111615000Y-100034999D01*
X111701640Y-100034999D01*
X111701654Y-100034998D01*
X111802652Y-100024680D01*
X111966300Y-99970453D01*
X111966311Y-99970448D01*
X112113034Y-99879947D01*
X112113038Y-99879944D01*
X112175319Y-99817664D01*
X112236642Y-99784179D01*
X112306334Y-99789163D01*
X112362267Y-99831035D01*
X112386684Y-99896499D01*
X112387000Y-99905345D01*
X112387000Y-101563783D01*
X112384743Y-101652862D01*
X112384743Y-101652870D01*
X112395564Y-101713239D01*
X112396218Y-101717904D01*
X112402425Y-101778930D01*
X112402427Y-101778944D01*
X112412708Y-101811713D01*
X112414579Y-101819337D01*
X112420642Y-101853152D01*
X112420642Y-101853155D01*
X112443394Y-101910112D01*
X112444974Y-101914551D01*
X112463341Y-101973088D01*
X112463344Y-101973095D01*
X112480009Y-102003119D01*
X112483379Y-102010214D01*
X112491806Y-102031310D01*
X112495277Y-102040000D01*
X112496122Y-102042114D01*
X112496127Y-102042124D01*
X112529877Y-102093333D01*
X112532318Y-102097363D01*
X112562088Y-102150998D01*
X112562089Y-102150999D01*
X112562091Y-102151002D01*
X112584468Y-102177067D01*
X112589193Y-102183335D01*
X112595154Y-102192379D01*
X112608098Y-102212019D01*
X112651478Y-102255399D01*
X112654669Y-102258843D01*
X112694631Y-102305392D01*
X112694630Y-102305392D01*
X112721799Y-102326423D01*
X112727686Y-102331607D01*
X113687510Y-103291430D01*
X114598068Y-104201988D01*
X114631553Y-104263311D01*
X114634387Y-104289669D01*
X114634387Y-104879330D01*
X114614702Y-104946369D01*
X114598068Y-104967011D01*
X102167259Y-117397819D01*
X102105936Y-117431304D01*
X102053220Y-117431304D01*
X101885435Y-117394805D01*
X101885428Y-117394804D01*
X101600001Y-117374390D01*
X101599999Y-117374390D01*
X101314566Y-117394804D01*
X101034962Y-117455628D01*
X100766833Y-117555635D01*
X100515690Y-117692770D01*
X100515682Y-117692775D01*
X100286612Y-117864254D01*
X100286594Y-117864270D01*
X100084270Y-118066594D01*
X100084254Y-118066612D01*
X99912775Y-118295682D01*
X99912770Y-118295690D01*
X99775635Y-118546833D01*
X99675628Y-118814962D01*
X99614804Y-119094566D01*
X99594390Y-119379998D01*
X99594390Y-119380001D01*
X99614804Y-119665433D01*
X99675628Y-119945037D01*
X99675630Y-119945043D01*
X99675631Y-119945046D01*
X99762310Y-120177441D01*
X99775635Y-120213166D01*
X99912770Y-120464309D01*
X99912775Y-120464317D01*
X100000265Y-120581190D01*
X100024682Y-120646654D01*
X100009830Y-120714927D01*
X99960425Y-120764332D01*
X99900998Y-120779500D01*
X99385782Y-120779500D01*
X99318743Y-120759815D01*
X99298101Y-120743181D01*
X98556818Y-120001898D01*
X98523333Y-119940575D01*
X98520499Y-119914217D01*
X98520499Y-117832129D01*
X98520498Y-117832123D01*
X98520497Y-117832116D01*
X98514091Y-117772517D01*
X98508097Y-117756447D01*
X98463797Y-117637671D01*
X98463793Y-117637664D01*
X98377547Y-117522455D01*
X98377544Y-117522452D01*
X98262335Y-117436206D01*
X98262328Y-117436202D01*
X98127482Y-117385908D01*
X98127483Y-117385908D01*
X98067883Y-117379501D01*
X98067881Y-117379500D01*
X98067873Y-117379500D01*
X98067864Y-117379500D01*
X94972129Y-117379500D01*
X94972123Y-117379501D01*
X94912516Y-117385908D01*
X94777671Y-117436202D01*
X94777664Y-117436206D01*
X94662455Y-117522452D01*
X94662452Y-117522455D01*
X94576206Y-117637664D01*
X94576202Y-117637671D01*
X94525908Y-117772517D01*
X94519501Y-117832116D01*
X94519501Y-117832123D01*
X94519500Y-117832135D01*
X94519500Y-120927870D01*
X92634317Y-120927870D01*
X91773748Y-120067300D01*
X91783409Y-120063784D01*
X91931844Y-119966157D01*
X92053764Y-119836930D01*
X92125768Y-119712215D01*
X93020115Y-120606562D01*
X93020116Y-120606561D01*
X93126803Y-120464047D01*
X93263908Y-120212958D01*
X93363890Y-119944895D01*
X93424699Y-119665362D01*
X93445109Y-119380001D01*
X93445109Y-119379998D01*
X93424699Y-119094637D01*
X93363890Y-118815104D01*
X93263908Y-118547041D01*
X93126808Y-118295961D01*
X93126807Y-118295960D01*
X93020115Y-118153436D01*
X92124803Y-119048747D01*
X92102660Y-118997413D01*
X91996567Y-118854906D01*
X91860470Y-118740706D01*
X91770782Y-118695663D01*
X92666562Y-117799883D01*
X92666561Y-117799882D01*
X92524046Y-117693196D01*
X92524038Y-117693191D01*
X92272957Y-117556091D01*
X92272958Y-117556091D01*
X92004895Y-117456109D01*
X91725362Y-117395300D01*
X91440001Y-117374891D01*
X91439999Y-117374891D01*
X91154637Y-117395300D01*
X90875104Y-117456109D01*
X90607041Y-117556091D01*
X90355961Y-117693191D01*
X90355953Y-117693196D01*
X90213437Y-117799882D01*
X90213436Y-117799883D01*
X91106252Y-118692699D01*
X91096591Y-118696216D01*
X90948156Y-118793843D01*
X90826236Y-118923070D01*
X90754231Y-119047784D01*
X89859883Y-118153436D01*
X89859882Y-118153437D01*
X89753196Y-118295953D01*
X89753191Y-118295961D01*
X89616091Y-118547041D01*
X89516109Y-118815104D01*
X89455300Y-119094637D01*
X89434891Y-119379998D01*
X89434891Y-119380001D01*
X88360500Y-119380001D01*
X88360499Y-117832128D01*
X88354091Y-117772517D01*
X88348097Y-117756447D01*
X88303797Y-117637671D01*
X88303793Y-117637664D01*
X88217547Y-117522455D01*
X88217544Y-117522452D01*
X88102335Y-117436206D01*
X88102328Y-117436202D01*
X87967482Y-117385908D01*
X87967483Y-117385908D01*
X87907883Y-117379501D01*
X87907881Y-117379500D01*
X87907873Y-117379500D01*
X87907865Y-117379500D01*
X87484500Y-117379500D01*
X87417461Y-117359815D01*
X87371706Y-117307011D01*
X87360500Y-117255500D01*
X87360500Y-115400782D01*
X87380185Y-115333743D01*
X87396819Y-115313101D01*
X88008101Y-114701819D01*
X88069424Y-114668334D01*
X88095782Y-114665500D01*
X100952284Y-114665500D01*
X101041358Y-114667757D01*
X101041358Y-114667756D01*
X101041363Y-114667757D01*
X101101753Y-114656932D01*
X101106412Y-114656280D01*
X101148607Y-114651988D01*
X101167438Y-114650074D01*
X101200227Y-114639786D01*
X101207840Y-114637918D01*
X101241653Y-114631858D01*
X101298621Y-114609101D01*
X101303053Y-114607524D01*
X101319477Y-114602371D01*
X101361588Y-114589159D01*
X101391627Y-114572484D01*
X101398708Y-114569122D01*
X101430617Y-114556377D01*
X101481854Y-114522608D01*
X101485851Y-114520187D01*
X101539502Y-114490409D01*
X101565568Y-114468030D01*
X101571843Y-114463300D01*
X101600519Y-114444402D01*
X101643917Y-114401002D01*
X101647336Y-114397834D01*
X101693895Y-114357866D01*
X101714931Y-114330688D01*
X101720101Y-114324818D01*
X108648487Y-107396433D01*
X108713053Y-107335059D01*
X108748112Y-107284686D01*
X108750925Y-107280957D01*
X108789698Y-107233407D01*
X108805607Y-107202948D01*
X108809667Y-107196248D01*
X108829295Y-107168049D01*
X108853492Y-107111660D01*
X108855498Y-107107435D01*
X108883909Y-107053049D01*
X108893360Y-107020015D01*
X108895991Y-107012628D01*
X108909540Y-106981058D01*
X108921893Y-106920940D01*
X108923006Y-106916412D01*
X108939887Y-106857418D01*
X108942495Y-106823155D01*
X108943587Y-106815376D01*
X108948196Y-106792953D01*
X108950500Y-106781741D01*
X108950500Y-106720401D01*
X108950679Y-106715692D01*
X108955337Y-106654525D01*
X108950997Y-106620441D01*
X108950500Y-106612602D01*
X108950500Y-106275816D01*
X108970185Y-106208777D01*
X109022989Y-106163022D01*
X109092147Y-106153078D01*
X109155703Y-106182103D01*
X109193477Y-106240881D01*
X109195178Y-106247307D01*
X109196402Y-106252489D01*
X109246645Y-106387198D01*
X109246649Y-106387205D01*
X109332809Y-106502299D01*
X109332812Y-106502302D01*
X109447906Y-106588462D01*
X109447913Y-106588466D01*
X109582620Y-106638708D01*
X109582627Y-106638710D01*
X109642155Y-106645111D01*
X109642172Y-106645112D01*
X110240000Y-106645112D01*
X110240000Y-105660798D01*
X110251955Y-105672753D01*
X110364852Y-105730277D01*
X110458519Y-105745112D01*
X110521481Y-105745112D01*
X110615148Y-105730277D01*
X110728045Y-105672753D01*
X110740000Y-105660798D01*
X110740000Y-106645112D01*
X111337828Y-106645112D01*
X111337844Y-106645111D01*
X111397372Y-106638710D01*
X111397379Y-106638708D01*
X111532086Y-106588466D01*
X111532093Y-106588462D01*
X111647187Y-106502302D01*
X111647190Y-106502299D01*
X111733350Y-106387205D01*
X111733354Y-106387198D01*
X111783596Y-106252491D01*
X111783598Y-106252484D01*
X111789999Y-106192956D01*
X111790000Y-106192939D01*
X111790000Y-105595112D01*
X110805686Y-105595112D01*
X110817641Y-105583157D01*
X110875165Y-105470260D01*
X110894986Y-105345112D01*
X110875165Y-105219964D01*
X110817641Y-105107067D01*
X110805686Y-105095112D01*
X111790000Y-105095112D01*
X111790000Y-104497284D01*
X111789999Y-104497267D01*
X111783598Y-104437739D01*
X111783596Y-104437732D01*
X111733354Y-104303025D01*
X111733350Y-104303018D01*
X111647190Y-104187924D01*
X111647187Y-104187921D01*
X111532093Y-104101761D01*
X111532086Y-104101757D01*
X111397378Y-104051514D01*
X111391658Y-104050163D01*
X111330942Y-104015589D01*
X111298557Y-103953678D01*
X111304784Y-103884086D01*
X111332491Y-103841806D01*
X111490047Y-103684251D01*
X111620568Y-103497846D01*
X111716739Y-103291608D01*
X111775635Y-103071804D01*
X111795468Y-102845112D01*
X111793860Y-102826738D01*
X111785447Y-102730568D01*
X111775635Y-102618420D01*
X111716739Y-102398616D01*
X111620568Y-102192378D01*
X111490047Y-102005973D01*
X111490045Y-102005970D01*
X111329141Y-101845066D01*
X111142734Y-101714544D01*
X111142732Y-101714543D01*
X110936497Y-101618373D01*
X110936488Y-101618370D01*
X110716697Y-101559478D01*
X110716688Y-101559476D01*
X110654903Y-101554070D01*
X110589835Y-101528616D01*
X110578032Y-101518223D01*
X109961339Y-100901531D01*
X109899949Y-100836949D01*
X109899948Y-100836948D01*
X109899947Y-100836947D01*
X109867625Y-100814450D01*
X109849597Y-100801902D01*
X109845834Y-100799064D01*
X109798301Y-100760305D01*
X109798294Y-100760300D01*
X109767847Y-100744397D01*
X109761139Y-100740334D01*
X109732937Y-100720705D01*
X109732934Y-100720703D01*
X109732933Y-100720703D01*
X109732929Y-100720701D01*
X109676568Y-100696514D01*
X109672312Y-100694493D01*
X109617945Y-100666094D01*
X109617938Y-100666091D01*
X109617937Y-100666091D01*
X109611896Y-100664362D01*
X109584918Y-100656642D01*
X109577518Y-100654008D01*
X109545945Y-100640459D01*
X109545946Y-100640459D01*
X109485854Y-100628109D01*
X109481279Y-100626986D01*
X109422308Y-100610113D01*
X109422313Y-100610113D01*
X109388046Y-100607503D01*
X109380268Y-100606412D01*
X109346630Y-100599500D01*
X109346629Y-100599500D01*
X109285290Y-100599500D01*
X109280583Y-100599321D01*
X109275009Y-100598896D01*
X109219412Y-100594662D01*
X109200520Y-100597069D01*
X109185328Y-100599003D01*
X109177499Y-100599500D01*
X106534500Y-100599500D01*
X106467461Y-100579815D01*
X106421706Y-100527011D01*
X106410500Y-100475500D01*
X106410500Y-100032414D01*
X106430185Y-99965375D01*
X106482989Y-99919620D01*
X106552147Y-99909676D01*
X106599597Y-99926876D01*
X106670975Y-99970903D01*
X106670978Y-99970904D01*
X106670984Y-99970908D01*
X106834747Y-100025174D01*
X106935823Y-100035500D01*
X106998992Y-100035499D01*
X107023953Y-100038036D01*
X107133259Y-100060500D01*
X109665743Y-100060500D01*
X109741590Y-100052787D01*
X109817438Y-100045074D01*
X109829830Y-100041186D01*
X109866952Y-100035499D01*
X109951670Y-100035499D01*
X109951676Y-100035499D01*
X110052753Y-100025174D01*
X110216516Y-99970908D01*
X110363350Y-99880340D01*
X110402673Y-99841016D01*
X110463994Y-99807532D01*
X110533685Y-99812516D01*
X110578034Y-99841017D01*
X110616961Y-99879944D01*
X110616965Y-99879947D01*
X110763688Y-99970448D01*
X110763699Y-99970453D01*
X110927347Y-100024680D01*
X111028351Y-100034999D01*
X111115000Y-100034998D01*
X111115000Y-98085000D01*
X111114999Y-98084999D01*
X111028360Y-98085000D01*
X111028343Y-98085001D01*
X110927347Y-98095319D01*
X110763699Y-98149546D01*
X110763688Y-98149551D01*
X110616965Y-98240052D01*
X110616961Y-98240055D01*
X110578033Y-98278983D01*
X110516710Y-98312468D01*
X110447018Y-98307482D01*
X110402672Y-98278982D01*
X110363351Y-98239661D01*
X110363350Y-98239660D01*
X110256898Y-98174000D01*
X110216518Y-98149093D01*
X110216513Y-98149091D01*
X110215069Y-98148612D01*
X110052753Y-98094826D01*
X110052751Y-98094825D01*
X109951684Y-98084500D01*
X109951677Y-98084500D01*
X109851006Y-98084500D01*
X109826045Y-98081962D01*
X109716742Y-98059500D01*
X109716741Y-98059500D01*
X107184258Y-98059500D01*
X107184257Y-98059500D01*
X107032563Y-98074925D01*
X107032555Y-98074927D01*
X107020167Y-98078814D01*
X106983051Y-98084500D01*
X106935832Y-98084500D01*
X106935812Y-98084501D01*
X106834747Y-98094825D01*
X106670984Y-98149092D01*
X106670981Y-98149093D01*
X106524148Y-98239661D01*
X106410181Y-98353629D01*
X106348858Y-98387114D01*
X106279166Y-98382130D01*
X106234819Y-98353629D01*
X106120851Y-98239661D01*
X106120850Y-98239660D01*
X106014398Y-98174000D01*
X105974018Y-98149093D01*
X105974013Y-98149091D01*
X105972569Y-98148612D01*
X105810253Y-98094826D01*
X105810251Y-98094825D01*
X105709184Y-98084500D01*
X105709177Y-98084500D01*
X105649774Y-98084500D01*
X105618694Y-98080542D01*
X105562287Y-98065937D01*
X105426804Y-98059066D01*
X105359064Y-98055631D01*
X105359063Y-98055631D01*
X105359059Y-98055631D01*
X105179944Y-98083070D01*
X105161170Y-98084500D01*
X105110832Y-98084500D01*
X105110812Y-98084501D01*
X105009747Y-98094825D01*
X104845984Y-98149092D01*
X104845981Y-98149093D01*
X104699148Y-98239661D01*
X104577161Y-98361648D01*
X104486593Y-98508481D01*
X104486591Y-98508486D01*
X104463755Y-98577401D01*
X104432326Y-98672247D01*
X104432326Y-98672248D01*
X104432325Y-98672248D01*
X104422000Y-98773315D01*
X104422000Y-98884821D01*
X104419462Y-98909781D01*
X104409500Y-98958258D01*
X104409500Y-100475500D01*
X104389815Y-100542539D01*
X104337011Y-100588294D01*
X104285500Y-100599500D01*
X102394332Y-100599500D01*
X102327293Y-100579815D01*
X102281538Y-100527011D01*
X102271594Y-100457853D01*
X102300619Y-100394297D01*
X102359397Y-100356523D01*
X102383525Y-100351972D01*
X102461599Y-100345141D01*
X102461610Y-100345139D01*
X102681317Y-100286269D01*
X102681331Y-100286264D01*
X102887478Y-100190136D01*
X102960472Y-100139025D01*
X102279401Y-99457953D01*
X102360148Y-99445165D01*
X102473045Y-99387641D01*
X102562641Y-99298045D01*
X102620165Y-99185148D01*
X102632953Y-99104400D01*
X103314025Y-99785472D01*
X103365136Y-99712478D01*
X103461264Y-99506331D01*
X103461269Y-99506317D01*
X103520139Y-99286610D01*
X103520141Y-99286599D01*
X103539966Y-99060002D01*
X103539966Y-99059997D01*
X103520141Y-98833400D01*
X103520139Y-98833389D01*
X103461269Y-98613682D01*
X103461265Y-98613673D01*
X103365133Y-98407516D01*
X103365131Y-98407512D01*
X103314026Y-98334526D01*
X103314025Y-98334526D01*
X102632953Y-99015598D01*
X102620165Y-98934852D01*
X102562641Y-98821955D01*
X102473045Y-98732359D01*
X102360148Y-98674835D01*
X102279400Y-98662046D01*
X102960472Y-97980974D01*
X102960471Y-97980973D01*
X102887483Y-97929866D01*
X102887481Y-97929865D01*
X102681326Y-97833734D01*
X102681317Y-97833730D01*
X102461610Y-97774860D01*
X102461599Y-97774858D01*
X102235002Y-97755034D01*
X102234998Y-97755034D01*
X102008400Y-97774858D01*
X102008389Y-97774860D01*
X101788682Y-97833730D01*
X101788673Y-97833734D01*
X101582513Y-97929868D01*
X101509527Y-97980972D01*
X101509526Y-97980973D01*
X102190600Y-98662046D01*
X102109852Y-98674835D01*
X101996955Y-98732359D01*
X101907359Y-98821955D01*
X101849835Y-98934852D01*
X101837046Y-99015599D01*
X101155973Y-98334526D01*
X101155972Y-98334527D01*
X101104868Y-98407513D01*
X101008734Y-98613673D01*
X101008730Y-98613682D01*
X100949860Y-98833389D01*
X100949858Y-98833400D01*
X100930034Y-99059997D01*
X100930034Y-99060002D01*
X100949858Y-99286599D01*
X100949860Y-99286610D01*
X101008730Y-99506317D01*
X101008734Y-99506326D01*
X101104865Y-99712481D01*
X101104866Y-99712483D01*
X101155973Y-99785471D01*
X101155974Y-99785472D01*
X101837046Y-99104399D01*
X101849835Y-99185148D01*
X101907359Y-99298045D01*
X101996955Y-99387641D01*
X102109852Y-99445165D01*
X102190599Y-99457953D01*
X101509526Y-100139025D01*
X101509526Y-100139026D01*
X101582512Y-100190131D01*
X101582516Y-100190133D01*
X101788673Y-100286265D01*
X101788682Y-100286269D01*
X102008389Y-100345139D01*
X102008400Y-100345141D01*
X102086475Y-100351972D01*
X102151544Y-100377424D01*
X102192523Y-100434015D01*
X102196401Y-100503777D01*
X102161947Y-100564561D01*
X102100100Y-100597069D01*
X102075668Y-100599500D01*
X99579394Y-100599500D01*
X99512355Y-100579815D01*
X99495411Y-100566730D01*
X99493055Y-100564561D01*
X99368010Y-100449449D01*
X99166422Y-100317745D01*
X99166419Y-100317743D01*
X99166418Y-100317743D01*
X98945905Y-100221017D01*
X98712472Y-100161904D01*
X98568329Y-100149960D01*
X98532600Y-100147000D01*
X98317400Y-100147000D01*
X98284898Y-100149693D01*
X98137527Y-100161904D01*
X97904094Y-100221017D01*
X97683581Y-100317743D01*
X97481990Y-100449449D01*
X97311483Y-100606412D01*
X97304829Y-100612537D01*
X97292709Y-100628109D01*
X97156929Y-100802558D01*
X97118555Y-100873468D01*
X97069335Y-100923058D01*
X97001118Y-100938166D01*
X96935563Y-100913995D01*
X96893482Y-100858219D01*
X96885500Y-100814450D01*
X96885500Y-93800001D01*
X102294891Y-93800001D01*
X102315300Y-94085362D01*
X102376109Y-94364895D01*
X102476091Y-94632958D01*
X102613191Y-94884038D01*
X102613196Y-94884046D01*
X102719882Y-95026561D01*
X102719883Y-95026562D01*
X103622803Y-94123641D01*
X103646059Y-94177553D01*
X103750756Y-94318185D01*
X103885062Y-94430882D01*
X103976665Y-94476886D01*
X103073436Y-95380115D01*
X103215960Y-95486807D01*
X103215961Y-95486808D01*
X103467042Y-95623908D01*
X103467041Y-95623908D01*
X103735104Y-95723890D01*
X104014637Y-95784699D01*
X104299999Y-95805109D01*
X104300001Y-95805109D01*
X104585362Y-95784699D01*
X104864895Y-95723890D01*
X105132958Y-95623908D01*
X105384047Y-95486803D01*
X105526561Y-95380116D01*
X105526562Y-95380115D01*
X104625946Y-94479498D01*
X104638891Y-94474787D01*
X104785373Y-94378445D01*
X104905688Y-94250918D01*
X104978447Y-94124894D01*
X105880115Y-95026562D01*
X105880116Y-95026561D01*
X105986803Y-94884047D01*
X106123908Y-94632958D01*
X106223890Y-94364895D01*
X106284699Y-94085362D01*
X106305109Y-93800001D01*
X106305109Y-93799998D01*
X106284699Y-93514637D01*
X106223890Y-93235104D01*
X106123908Y-92967041D01*
X105986808Y-92715961D01*
X105986807Y-92715960D01*
X105880115Y-92573436D01*
X104977195Y-93476356D01*
X104953941Y-93422447D01*
X104849244Y-93281815D01*
X104714938Y-93169118D01*
X104623333Y-93123112D01*
X105526562Y-92219883D01*
X105526561Y-92219882D01*
X105384046Y-92113196D01*
X105384038Y-92113191D01*
X105132957Y-91976091D01*
X105132958Y-91976091D01*
X104864895Y-91876109D01*
X104585362Y-91815300D01*
X104300001Y-91794891D01*
X104299999Y-91794891D01*
X104014637Y-91815300D01*
X103735104Y-91876109D01*
X103467041Y-91976091D01*
X103215961Y-92113191D01*
X103215953Y-92113196D01*
X103073437Y-92219882D01*
X103073436Y-92219883D01*
X103974054Y-93120501D01*
X103961109Y-93125213D01*
X103814627Y-93221555D01*
X103694312Y-93349082D01*
X103621552Y-93475105D01*
X102719883Y-92573436D01*
X102719882Y-92573437D01*
X102613196Y-92715953D01*
X102613191Y-92715961D01*
X102476091Y-92967041D01*
X102376109Y-93235104D01*
X102315300Y-93514637D01*
X102294891Y-93799998D01*
X102294891Y-93800001D01*
X96885500Y-93800001D01*
X96885500Y-87642715D01*
X96887757Y-87553641D01*
X96887756Y-87553640D01*
X96887757Y-87553637D01*
X96876933Y-87493249D01*
X96876280Y-87488587D01*
X96870074Y-87427563D01*
X96870074Y-87427562D01*
X96859784Y-87394768D01*
X96857917Y-87387155D01*
X96855903Y-87375920D01*
X96851858Y-87353347D01*
X96829095Y-87296361D01*
X96827527Y-87291955D01*
X96818367Y-87262760D01*
X96809161Y-87233416D01*
X96809160Y-87233414D01*
X96792492Y-87203385D01*
X96789124Y-87196295D01*
X96776378Y-87164383D01*
X96742612Y-87113150D01*
X96740183Y-87109142D01*
X96710409Y-87055498D01*
X96688034Y-87029434D01*
X96683306Y-87023163D01*
X96664404Y-86994484D01*
X96664399Y-86994478D01*
X96642715Y-86972795D01*
X96621019Y-86951099D01*
X96617828Y-86947655D01*
X96577865Y-86901104D01*
X96550694Y-86880072D01*
X96544807Y-86874887D01*
X87276819Y-77606899D01*
X87243334Y-77545576D01*
X87240500Y-77519218D01*
X87240500Y-70021527D01*
X87260185Y-69954488D01*
X87294647Y-69919074D01*
X87303217Y-69913232D01*
X87395213Y-69827873D01*
X87490041Y-69739885D01*
X87490050Y-69739877D01*
X87648959Y-69540612D01*
X87776393Y-69319888D01*
X87869508Y-69082637D01*
X87926222Y-68834157D01*
X87945268Y-68580000D01*
X87942240Y-68539597D01*
X87927209Y-68339019D01*
X87926222Y-68325843D01*
X87869508Y-68077363D01*
X87839246Y-68000259D01*
X87833078Y-67930664D01*
X87865515Y-67868781D01*
X87926260Y-67834258D01*
X87996027Y-67838056D01*
X88042356Y-67867277D01*
X89133181Y-68958102D01*
X89166666Y-69019425D01*
X89169500Y-69045783D01*
X89169500Y-72377283D01*
X89167243Y-72466362D01*
X89167243Y-72466370D01*
X89178064Y-72526739D01*
X89178718Y-72531404D01*
X89184925Y-72592430D01*
X89184927Y-72592444D01*
X89195208Y-72625213D01*
X89197079Y-72632837D01*
X89203142Y-72666652D01*
X89203142Y-72666655D01*
X89225894Y-72723612D01*
X89227474Y-72728051D01*
X89245841Y-72786588D01*
X89245844Y-72786595D01*
X89262509Y-72816619D01*
X89265879Y-72823714D01*
X89278622Y-72855614D01*
X89278627Y-72855624D01*
X89312377Y-72906833D01*
X89314818Y-72910863D01*
X89344588Y-72964498D01*
X89344589Y-72964499D01*
X89344591Y-72964502D01*
X89366968Y-72990567D01*
X89371693Y-72996835D01*
X89384263Y-73015906D01*
X89390598Y-73025519D01*
X89433978Y-73068899D01*
X89437169Y-73072343D01*
X89477131Y-73118892D01*
X89477134Y-73118895D01*
X89504294Y-73139918D01*
X89510190Y-73145111D01*
X110863566Y-94498487D01*
X110924941Y-94563053D01*
X110924944Y-94563055D01*
X110924947Y-94563058D01*
X110955877Y-94584584D01*
X110975295Y-94598100D01*
X110979050Y-94600932D01*
X111026593Y-94639698D01*
X111057045Y-94655604D01*
X111063756Y-94659671D01*
X111091951Y-94679295D01*
X111148332Y-94703490D01*
X111152567Y-94705501D01*
X111206951Y-94733909D01*
X111239973Y-94743356D01*
X111247365Y-94745989D01*
X111278940Y-94759539D01*
X111278941Y-94759540D01*
X111292054Y-94762234D01*
X111339055Y-94771892D01*
X111343595Y-94773006D01*
X111402582Y-94789886D01*
X111436841Y-94792494D01*
X111444609Y-94793585D01*
X111478255Y-94800500D01*
X111478259Y-94800500D01*
X111539601Y-94800500D01*
X111544308Y-94800678D01*
X111580651Y-94803446D01*
X111605475Y-94805337D01*
X111605475Y-94805336D01*
X111605476Y-94805337D01*
X111639559Y-94800996D01*
X111647389Y-94800500D01*
X112493435Y-94800500D01*
X112560474Y-94820185D01*
X112602268Y-94865075D01*
X112612770Y-94884309D01*
X112612775Y-94884317D01*
X112784254Y-95113387D01*
X112784270Y-95113405D01*
X112986594Y-95315729D01*
X112986612Y-95315745D01*
X113215682Y-95487224D01*
X113215690Y-95487229D01*
X113466833Y-95624364D01*
X113466832Y-95624364D01*
X113466836Y-95624365D01*
X113466839Y-95624367D01*
X113734954Y-95724369D01*
X113734960Y-95724370D01*
X113734962Y-95724371D01*
X114014566Y-95785195D01*
X114014568Y-95785195D01*
X114014572Y-95785196D01*
X114268220Y-95803337D01*
X114299999Y-95805610D01*
X114300000Y-95805610D01*
X114300001Y-95805610D01*
X114328595Y-95803564D01*
X114585428Y-95785196D01*
X114814301Y-95735408D01*
X114865037Y-95724371D01*
X114865037Y-95724370D01*
X114865046Y-95724369D01*
X115133161Y-95624367D01*
X115384315Y-95487226D01*
X115613395Y-95315739D01*
X115815739Y-95113395D01*
X115987226Y-94884315D01*
X116124367Y-94633161D01*
X116224369Y-94365046D01*
X116249196Y-94250918D01*
X116285195Y-94085433D01*
X116285195Y-94085432D01*
X116285196Y-94085428D01*
X116305610Y-93800000D01*
X116285196Y-93514572D01*
X116265155Y-93422447D01*
X116224371Y-93234962D01*
X116224370Y-93234960D01*
X116224369Y-93234954D01*
X116124367Y-92966839D01*
X116003970Y-92746350D01*
X115987229Y-92715690D01*
X115987224Y-92715682D01*
X115815745Y-92486612D01*
X115815729Y-92486594D01*
X115613405Y-92284270D01*
X115613387Y-92284254D01*
X115384317Y-92112775D01*
X115384309Y-92112770D01*
X115133166Y-91975635D01*
X115133167Y-91975635D01*
X115025915Y-91935632D01*
X114865046Y-91875631D01*
X114865043Y-91875630D01*
X114865037Y-91875628D01*
X114585433Y-91814804D01*
X114300001Y-91794390D01*
X114299999Y-91794390D01*
X114014566Y-91814804D01*
X113734962Y-91875628D01*
X113466833Y-91975635D01*
X113215690Y-92112770D01*
X113215682Y-92112775D01*
X112986612Y-92284254D01*
X112986594Y-92284270D01*
X112784270Y-92486594D01*
X112784254Y-92486612D01*
X112612775Y-92715682D01*
X112612770Y-92715690D01*
X112602268Y-92734925D01*
X112552863Y-92784331D01*
X112493435Y-92799500D01*
X112045783Y-92799500D01*
X111978744Y-92779815D01*
X111958102Y-92763181D01*
X105994921Y-86800000D01*
X110694559Y-86800000D01*
X110714310Y-87176872D01*
X110773346Y-87549607D01*
X110773347Y-87549614D01*
X110871023Y-87914147D01*
X111006267Y-88266468D01*
X111177599Y-88602724D01*
X111383135Y-88919223D01*
X111535039Y-89106809D01*
X111620635Y-89212511D01*
X111887489Y-89479365D01*
X111887493Y-89479368D01*
X112180776Y-89716864D01*
X112497275Y-89922400D01*
X112497280Y-89922403D01*
X112833535Y-90093734D01*
X113185857Y-90228978D01*
X113550387Y-90326653D01*
X113923129Y-90385690D01*
X114205720Y-90400500D01*
X114394280Y-90400500D01*
X114676871Y-90385690D01*
X115049613Y-90326653D01*
X115414143Y-90228978D01*
X115766465Y-90093734D01*
X116102720Y-89922403D01*
X116419225Y-89716863D01*
X116712511Y-89479365D01*
X116979365Y-89212511D01*
X117216863Y-88919225D01*
X117422403Y-88602721D01*
X117593734Y-88266465D01*
X117728978Y-87914143D01*
X117826653Y-87549613D01*
X117885690Y-87176871D01*
X117905441Y-86800000D01*
X117885690Y-86423129D01*
X117826653Y-86050387D01*
X117728978Y-85685857D01*
X117593734Y-85333535D01*
X117422403Y-84997280D01*
X117216863Y-84680775D01*
X116979365Y-84387489D01*
X116712511Y-84120635D01*
X116635982Y-84058663D01*
X116419223Y-83883135D01*
X116102724Y-83677599D01*
X115766468Y-83506267D01*
X115414147Y-83371023D01*
X115049614Y-83273347D01*
X115049607Y-83273346D01*
X114676872Y-83214310D01*
X114394280Y-83199500D01*
X114205720Y-83199500D01*
X113923127Y-83214310D01*
X113550392Y-83273346D01*
X113550385Y-83273347D01*
X113185852Y-83371023D01*
X112833531Y-83506267D01*
X112497275Y-83677599D01*
X112180776Y-83883135D01*
X111887493Y-84120631D01*
X111887485Y-84120638D01*
X111620638Y-84387485D01*
X111620631Y-84387493D01*
X111383135Y-84680776D01*
X111177599Y-84997274D01*
X111006267Y-85333531D01*
X110871023Y-85685852D01*
X110773347Y-86050385D01*
X110773346Y-86050392D01*
X110714310Y-86423127D01*
X110694559Y-86799999D01*
X110694559Y-86800000D01*
X105994921Y-86800000D01*
X91206819Y-72011898D01*
X91173334Y-71950575D01*
X91170500Y-71924217D01*
X91170500Y-68592675D01*
X91172756Y-68503642D01*
X91172755Y-68503641D01*
X91172756Y-68503636D01*
X91161929Y-68443233D01*
X91161282Y-68438620D01*
X91155074Y-68377562D01*
X91155073Y-68377560D01*
X91155073Y-68377557D01*
X91144790Y-68344787D01*
X91142917Y-68337154D01*
X91136858Y-68303348D01*
X91114102Y-68246378D01*
X91112521Y-68241937D01*
X91094159Y-68183412D01*
X91094158Y-68183410D01*
X91094157Y-68183407D01*
X91077488Y-68153378D01*
X91074117Y-68146278D01*
X91061378Y-68114386D01*
X91061377Y-68114383D01*
X91027620Y-68063163D01*
X91025180Y-68059134D01*
X91007120Y-68026597D01*
X90995409Y-68005498D01*
X90995407Y-68005495D01*
X90973033Y-67979434D01*
X90968302Y-67973159D01*
X90949402Y-67944481D01*
X90906012Y-67901091D01*
X90902822Y-67897648D01*
X90862867Y-67851106D01*
X90862863Y-67851102D01*
X90835698Y-67830074D01*
X90829803Y-67824882D01*
X88786451Y-65781531D01*
X88725061Y-65716949D01*
X88725060Y-65716948D01*
X88725059Y-65716947D01*
X88697204Y-65697559D01*
X88674709Y-65681902D01*
X88670946Y-65679064D01*
X88623413Y-65640305D01*
X88623406Y-65640300D01*
X88592959Y-65624397D01*
X88586251Y-65620334D01*
X88558049Y-65600705D01*
X88558046Y-65600703D01*
X88558045Y-65600703D01*
X88558041Y-65600701D01*
X88501680Y-65576514D01*
X88497424Y-65574493D01*
X88443057Y-65546094D01*
X88443050Y-65546091D01*
X88443049Y-65546091D01*
X88437008Y-65544362D01*
X88410030Y-65536642D01*
X88402630Y-65534008D01*
X88371057Y-65520459D01*
X88371058Y-65520459D01*
X88310966Y-65508109D01*
X88306391Y-65506986D01*
X88247420Y-65490113D01*
X88247425Y-65490113D01*
X88213158Y-65487503D01*
X88205380Y-65486412D01*
X88171742Y-65479500D01*
X88171741Y-65479500D01*
X88110402Y-65479500D01*
X88105695Y-65479321D01*
X88100121Y-65478896D01*
X88044524Y-65474662D01*
X88024589Y-65477201D01*
X88010440Y-65479003D01*
X88002611Y-65479500D01*
X84662676Y-65479500D01*
X84618155Y-65478372D01*
X84573636Y-65477244D01*
X84573635Y-65477244D01*
X84573626Y-65477244D01*
X84513263Y-65488064D01*
X84508597Y-65488718D01*
X84447564Y-65494925D01*
X84414780Y-65505210D01*
X84407153Y-65507082D01*
X84373349Y-65513141D01*
X84316381Y-65535895D01*
X84311945Y-65537474D01*
X84253414Y-65555840D01*
X84253410Y-65555842D01*
X84223378Y-65572510D01*
X84216284Y-65575879D01*
X84184382Y-65588623D01*
X84184377Y-65588625D01*
X84133156Y-65622381D01*
X84129128Y-65624822D01*
X84075501Y-65654588D01*
X84049434Y-65676965D01*
X84043165Y-65681692D01*
X84014484Y-65700595D01*
X84014478Y-65700600D01*
X83971109Y-65743968D01*
X83967655Y-65747169D01*
X83921102Y-65787136D01*
X83900076Y-65814298D01*
X83894885Y-65820192D01*
X81851531Y-67863547D01*
X81786946Y-67924942D01*
X81751899Y-67975294D01*
X81749062Y-67979056D01*
X81710302Y-68026592D01*
X81710299Y-68026597D01*
X81694392Y-68057047D01*
X81690324Y-68063761D01*
X81670702Y-68091954D01*
X81646509Y-68148330D01*
X81644488Y-68152584D01*
X81616091Y-68206951D01*
X81616090Y-68206952D01*
X81606640Y-68239975D01*
X81604007Y-68247371D01*
X81590459Y-68278943D01*
X81578113Y-68339019D01*
X81576990Y-68343595D01*
X81560113Y-68402577D01*
X81560113Y-68402579D01*
X81557503Y-68436841D01*
X81556414Y-68444608D01*
X81550980Y-68471052D01*
X81549500Y-68478258D01*
X81549500Y-68539597D01*
X81549321Y-68544306D01*
X81544662Y-68605474D01*
X81546707Y-68621527D01*
X81549003Y-68639560D01*
X81549500Y-68647388D01*
X81549500Y-83354217D01*
X81529815Y-83421256D01*
X81513181Y-83441898D01*
X79049128Y-85905950D01*
X78987805Y-85939435D01*
X78942966Y-85940884D01*
X78867442Y-85929500D01*
X78867435Y-85929500D01*
X78612565Y-85929500D01*
X78612559Y-85929500D01*
X78455609Y-85953157D01*
X78360542Y-85967487D01*
X78360539Y-85967488D01*
X78360533Y-85967489D01*
X78116992Y-86042612D01*
X77887373Y-86153190D01*
X77887372Y-86153191D01*
X77676782Y-86296768D01*
X77489952Y-86470121D01*
X77489950Y-86470123D01*
X77331041Y-86669388D01*
X77203608Y-86890109D01*
X77110492Y-87127362D01*
X77110490Y-87127369D01*
X77053777Y-87375845D01*
X77034732Y-87629995D01*
X77034732Y-87630004D01*
X71120500Y-87630004D01*
X71120500Y-69827844D01*
X77040000Y-69827844D01*
X77046401Y-69887372D01*
X77046403Y-69887379D01*
X77096645Y-70022086D01*
X77096649Y-70022093D01*
X77182809Y-70137187D01*
X77182812Y-70137190D01*
X77297906Y-70223350D01*
X77297913Y-70223354D01*
X77432620Y-70273596D01*
X77432627Y-70273598D01*
X77492155Y-70279999D01*
X77492172Y-70280000D01*
X78490000Y-70280000D01*
X78490000Y-69125881D01*
X78583369Y-69164556D01*
X78700677Y-69180000D01*
X78779323Y-69180000D01*
X78896631Y-69164556D01*
X78990000Y-69125881D01*
X78990000Y-70280000D01*
X79987828Y-70280000D01*
X79987844Y-70279999D01*
X80047372Y-70273598D01*
X80047379Y-70273596D01*
X80182086Y-70223354D01*
X80182093Y-70223350D01*
X80297187Y-70137190D01*
X80297190Y-70137187D01*
X80383350Y-70022093D01*
X80383354Y-70022086D01*
X80433596Y-69887379D01*
X80433598Y-69887372D01*
X80439999Y-69827844D01*
X80440000Y-69827827D01*
X80440000Y-68830000D01*
X79285882Y-68830000D01*
X79324556Y-68736631D01*
X79345177Y-68580000D01*
X79324556Y-68423369D01*
X79285882Y-68330000D01*
X80440000Y-68330000D01*
X80440000Y-67332172D01*
X80439999Y-67332155D01*
X80433598Y-67272627D01*
X80433596Y-67272620D01*
X80383354Y-67137913D01*
X80383350Y-67137906D01*
X80297190Y-67022812D01*
X80297187Y-67022809D01*
X80182093Y-66936649D01*
X80182086Y-66936645D01*
X80047379Y-66886403D01*
X80047372Y-66886401D01*
X79987844Y-66880000D01*
X78990000Y-66880000D01*
X78990000Y-68034118D01*
X78896631Y-67995444D01*
X78779323Y-67980000D01*
X78700677Y-67980000D01*
X78583369Y-67995444D01*
X78490000Y-68034118D01*
X78490000Y-66880000D01*
X77492155Y-66880000D01*
X77432627Y-66886401D01*
X77432620Y-66886403D01*
X77297913Y-66936645D01*
X77297906Y-66936649D01*
X77182812Y-67022809D01*
X77182809Y-67022812D01*
X77096649Y-67137906D01*
X77096645Y-67137913D01*
X77046403Y-67272620D01*
X77046401Y-67272627D01*
X77040000Y-67332155D01*
X77040000Y-68330000D01*
X78194118Y-68330000D01*
X78155444Y-68423369D01*
X78134823Y-68580000D01*
X78155444Y-68736631D01*
X78194118Y-68830000D01*
X77040000Y-68830000D01*
X77040000Y-69827844D01*
X71120500Y-69827844D01*
X71120500Y-49530004D01*
X77154732Y-49530004D01*
X77173777Y-49784154D01*
X77186598Y-49840328D01*
X77230492Y-50032637D01*
X77323607Y-50269888D01*
X77451041Y-50490612D01*
X77609950Y-50689877D01*
X77796783Y-50863232D01*
X78007366Y-51006805D01*
X78007371Y-51006807D01*
X78007372Y-51006808D01*
X78007373Y-51006809D01*
X78129328Y-51065538D01*
X78236992Y-51117387D01*
X78236993Y-51117387D01*
X78236996Y-51117389D01*
X78480542Y-51192513D01*
X78732565Y-51230500D01*
X78987435Y-51230500D01*
X79239458Y-51192513D01*
X79483004Y-51117389D01*
X79712634Y-51006805D01*
X79923217Y-50863232D01*
X80015216Y-50777870D01*
X84659500Y-50777870D01*
X84659501Y-50777876D01*
X84665908Y-50837483D01*
X84716202Y-50972328D01*
X84716206Y-50972335D01*
X84802452Y-51087544D01*
X84802455Y-51087547D01*
X84917664Y-51173793D01*
X84917671Y-51173797D01*
X85052517Y-51224091D01*
X85052516Y-51224091D01*
X85059444Y-51224835D01*
X85112127Y-51230500D01*
X86594216Y-51230499D01*
X86661255Y-51250184D01*
X86681897Y-51266818D01*
X95168547Y-59753467D01*
X95229941Y-59818053D01*
X95229944Y-59818055D01*
X95229947Y-59818058D01*
X95264053Y-59841795D01*
X95280303Y-59853106D01*
X95284044Y-59855926D01*
X95331593Y-59894698D01*
X95362045Y-59910604D01*
X95368756Y-59914671D01*
X95396951Y-59934295D01*
X95453332Y-59958490D01*
X95457567Y-59960501D01*
X95511951Y-59988909D01*
X95544973Y-59998356D01*
X95552365Y-60000989D01*
X95583940Y-60014539D01*
X95583941Y-60014540D01*
X95597054Y-60017234D01*
X95644055Y-60026892D01*
X95648595Y-60028006D01*
X95707582Y-60044886D01*
X95741841Y-60047494D01*
X95749609Y-60048585D01*
X95783255Y-60055500D01*
X95783259Y-60055500D01*
X95844601Y-60055500D01*
X95849308Y-60055678D01*
X95876597Y-60057757D01*
X95910475Y-60060337D01*
X95910475Y-60060336D01*
X95910476Y-60060337D01*
X95944559Y-60055996D01*
X95952389Y-60055500D01*
X121454217Y-60055500D01*
X121521256Y-60075185D01*
X121541898Y-60091819D01*
X123263181Y-61813102D01*
X123296666Y-61874425D01*
X123299500Y-61900783D01*
X123299500Y-91993434D01*
X123279815Y-92060473D01*
X123234929Y-92102265D01*
X123215690Y-92112770D01*
X123215682Y-92112775D01*
X122986612Y-92284254D01*
X122986594Y-92284270D01*
X122784270Y-92486594D01*
X122784254Y-92486612D01*
X122612775Y-92715682D01*
X122612770Y-92715690D01*
X122475635Y-92966833D01*
X122375628Y-93234962D01*
X122314804Y-93514566D01*
X122294390Y-93799998D01*
X122294390Y-93800001D01*
X122314804Y-94085433D01*
X122375628Y-94365037D01*
X122375630Y-94365043D01*
X122375631Y-94365046D01*
X122463612Y-94600932D01*
X122475635Y-94633166D01*
X122612770Y-94884309D01*
X122612775Y-94884317D01*
X122784254Y-95113387D01*
X122784270Y-95113405D01*
X122986594Y-95315729D01*
X122986612Y-95315745D01*
X123215682Y-95487224D01*
X123215690Y-95487229D01*
X123466833Y-95624364D01*
X123466832Y-95624364D01*
X123466836Y-95624365D01*
X123466839Y-95624367D01*
X123734954Y-95724369D01*
X123734960Y-95724370D01*
X123734962Y-95724371D01*
X124014566Y-95785195D01*
X124014568Y-95785195D01*
X124014572Y-95785196D01*
X124268220Y-95803337D01*
X124299999Y-95805610D01*
X124300000Y-95805610D01*
X124300001Y-95805610D01*
X124328595Y-95803564D01*
X124585428Y-95785196D01*
X124814301Y-95735408D01*
X124865037Y-95724371D01*
X124865037Y-95724370D01*
X124865046Y-95724369D01*
X125133161Y-95624367D01*
X125384315Y-95487226D01*
X125613395Y-95315739D01*
X125815739Y-95113395D01*
X125987226Y-94884315D01*
X126124367Y-94633161D01*
X126224369Y-94365046D01*
X126249196Y-94250918D01*
X126285195Y-94085433D01*
X126285195Y-94085432D01*
X126285196Y-94085428D01*
X126305610Y-93800000D01*
X126285196Y-93514572D01*
X126265155Y-93422447D01*
X126224371Y-93234962D01*
X126224370Y-93234960D01*
X126224369Y-93234954D01*
X126124367Y-92966839D01*
X126003970Y-92746350D01*
X125987229Y-92715690D01*
X125987224Y-92715682D01*
X125815745Y-92486612D01*
X125815729Y-92486594D01*
X125613405Y-92284270D01*
X125613387Y-92284254D01*
X125384317Y-92112775D01*
X125384309Y-92112770D01*
X125365071Y-92102265D01*
X125315667Y-92052859D01*
X125300500Y-91993434D01*
X125300500Y-62220783D01*
X125320185Y-62153744D01*
X125336819Y-62133102D01*
X127378102Y-60091819D01*
X127439425Y-60058334D01*
X127465783Y-60055500D01*
X132822284Y-60055500D01*
X132911358Y-60057757D01*
X132911358Y-60057756D01*
X132911363Y-60057757D01*
X132971753Y-60046932D01*
X132976412Y-60046280D01*
X133018607Y-60041988D01*
X133037438Y-60040074D01*
X133070227Y-60029786D01*
X133077840Y-60027918D01*
X133111653Y-60021858D01*
X133168621Y-59999101D01*
X133173053Y-59997524D01*
X133231588Y-59979159D01*
X133261627Y-59962484D01*
X133268708Y-59959122D01*
X133300617Y-59946377D01*
X133351854Y-59912608D01*
X133355851Y-59910187D01*
X133409502Y-59880409D01*
X133435568Y-59858030D01*
X133441843Y-59853300D01*
X133442145Y-59853101D01*
X133470519Y-59834402D01*
X133513892Y-59791027D01*
X133517350Y-59787823D01*
X133520613Y-59785020D01*
X133563895Y-59747866D01*
X133584928Y-59720691D01*
X133590098Y-59714821D01*
X142050871Y-51254047D01*
X142112192Y-51220564D01*
X142157032Y-51219115D01*
X142190045Y-51224091D01*
X142232565Y-51230500D01*
X142487435Y-51230500D01*
X142739458Y-51192513D01*
X142983004Y-51117389D01*
X143212634Y-51006805D01*
X143423217Y-50863232D01*
X143515216Y-50777870D01*
X148159500Y-50777870D01*
X148159501Y-50777876D01*
X148165908Y-50837483D01*
X148216202Y-50972328D01*
X148216206Y-50972335D01*
X148302452Y-51087544D01*
X148302455Y-51087547D01*
X148417664Y-51173793D01*
X148417671Y-51173797D01*
X148552517Y-51224091D01*
X148552516Y-51224091D01*
X148559444Y-51224835D01*
X148612127Y-51230500D01*
X151107872Y-51230499D01*
X151167483Y-51224091D01*
X151302331Y-51173796D01*
X151417546Y-51087546D01*
X151503796Y-50972331D01*
X151554091Y-50837483D01*
X151560500Y-50777873D01*
X151560499Y-48282128D01*
X151554091Y-48222517D01*
X151544487Y-48196768D01*
X151503797Y-48087671D01*
X151503793Y-48087664D01*
X151417547Y-47972455D01*
X151417544Y-47972452D01*
X151302335Y-47886206D01*
X151302328Y-47886202D01*
X151167482Y-47835908D01*
X151167483Y-47835908D01*
X151107883Y-47829501D01*
X151107881Y-47829500D01*
X151107873Y-47829500D01*
X151107864Y-47829500D01*
X148612129Y-47829500D01*
X148612123Y-47829501D01*
X148552516Y-47835908D01*
X148417671Y-47886202D01*
X148417664Y-47886206D01*
X148302455Y-47972452D01*
X148302452Y-47972455D01*
X148216206Y-48087664D01*
X148216202Y-48087671D01*
X148165908Y-48222517D01*
X148159501Y-48282116D01*
X148159501Y-48282123D01*
X148159500Y-48282135D01*
X148159500Y-50777870D01*
X143515216Y-50777870D01*
X143610050Y-50689877D01*
X143768959Y-50490612D01*
X143896393Y-50269888D01*
X143989508Y-50032637D01*
X144046222Y-49784157D01*
X144065268Y-49530000D01*
X144046222Y-49275843D01*
X143989508Y-49027363D01*
X143896393Y-48790112D01*
X143768959Y-48569388D01*
X143610050Y-48370123D01*
X143423217Y-48196768D01*
X143212634Y-48053195D01*
X143212630Y-48053193D01*
X143212627Y-48053191D01*
X143212626Y-48053190D01*
X142983006Y-47942612D01*
X142983008Y-47942612D01*
X142739466Y-47867489D01*
X142739462Y-47867488D01*
X142739458Y-47867487D01*
X142618231Y-47849214D01*
X142487440Y-47829500D01*
X142487435Y-47829500D01*
X142232565Y-47829500D01*
X142232559Y-47829500D01*
X142075609Y-47853157D01*
X141980542Y-47867487D01*
X141980539Y-47867488D01*
X141980533Y-47867489D01*
X141736992Y-47942612D01*
X141507373Y-48053190D01*
X141507372Y-48053191D01*
X141296782Y-48196768D01*
X141109952Y-48370121D01*
X141109950Y-48370123D01*
X140951041Y-48569388D01*
X140823608Y-48790109D01*
X140730492Y-49027362D01*
X140730490Y-49027369D01*
X140673777Y-49275845D01*
X140654732Y-49529995D01*
X140654732Y-49530004D01*
X140670721Y-49743381D01*
X140656101Y-49811704D01*
X140634749Y-49840328D01*
X132456899Y-58018181D01*
X132395576Y-58051666D01*
X132369218Y-58054500D01*
X127012717Y-58054500D01*
X126923637Y-58052243D01*
X126923628Y-58052243D01*
X126863260Y-58063064D01*
X126858595Y-58063718D01*
X126797563Y-58069925D01*
X126797555Y-58069927D01*
X126764781Y-58080210D01*
X126757154Y-58082082D01*
X126723350Y-58088141D01*
X126666384Y-58110894D01*
X126661948Y-58112473D01*
X126603414Y-58130840D01*
X126603412Y-58130841D01*
X126573385Y-58147506D01*
X126566293Y-58150874D01*
X126534383Y-58163621D01*
X126483154Y-58197383D01*
X126479126Y-58199824D01*
X126425502Y-58229588D01*
X126425499Y-58229590D01*
X126399427Y-58251970D01*
X126393160Y-58256695D01*
X126364482Y-58275598D01*
X126364475Y-58275603D01*
X126321116Y-58318962D01*
X126317661Y-58322164D01*
X126271106Y-58362132D01*
X126271105Y-58362133D01*
X126250076Y-58389300D01*
X126244884Y-58395194D01*
X124547681Y-60092398D01*
X124486358Y-60125883D01*
X124416666Y-60120899D01*
X124372319Y-60092398D01*
X122636451Y-58356531D01*
X122575061Y-58291949D01*
X122575060Y-58291948D01*
X122575059Y-58291947D01*
X122547204Y-58272559D01*
X122524709Y-58256902D01*
X122520946Y-58254064D01*
X122473413Y-58215305D01*
X122473406Y-58215300D01*
X122442959Y-58199397D01*
X122436251Y-58195334D01*
X122408049Y-58175705D01*
X122408046Y-58175703D01*
X122408045Y-58175703D01*
X122408041Y-58175701D01*
X122351680Y-58151514D01*
X122347424Y-58149493D01*
X122293057Y-58121094D01*
X122293050Y-58121091D01*
X122293049Y-58121091D01*
X122287008Y-58119362D01*
X122260030Y-58111642D01*
X122252630Y-58109008D01*
X122221057Y-58095459D01*
X122221058Y-58095459D01*
X122160966Y-58083109D01*
X122156391Y-58081986D01*
X122097420Y-58065113D01*
X122097425Y-58065113D01*
X122063158Y-58062503D01*
X122055380Y-58061412D01*
X122021742Y-58054500D01*
X122021741Y-58054500D01*
X121960402Y-58054500D01*
X121955695Y-58054321D01*
X121950121Y-58053896D01*
X121894524Y-58049662D01*
X121874589Y-58052201D01*
X121860440Y-58054003D01*
X121852611Y-58054500D01*
X96350783Y-58054500D01*
X96283744Y-58034815D01*
X96263102Y-58018181D01*
X88096818Y-49851897D01*
X88063333Y-49790574D01*
X88060499Y-49764216D01*
X88060499Y-48282129D01*
X88060498Y-48282123D01*
X88060497Y-48282116D01*
X88054091Y-48222517D01*
X88044487Y-48196768D01*
X88003797Y-48087671D01*
X88003793Y-48087664D01*
X87917547Y-47972455D01*
X87917544Y-47972452D01*
X87802335Y-47886206D01*
X87802328Y-47886202D01*
X87667482Y-47835908D01*
X87667483Y-47835908D01*
X87607883Y-47829501D01*
X87607881Y-47829500D01*
X87607873Y-47829500D01*
X87607864Y-47829500D01*
X85112129Y-47829500D01*
X85112123Y-47829501D01*
X85052516Y-47835908D01*
X84917671Y-47886202D01*
X84917664Y-47886206D01*
X84802455Y-47972452D01*
X84802452Y-47972455D01*
X84716206Y-48087664D01*
X84716202Y-48087671D01*
X84665908Y-48222517D01*
X84659501Y-48282116D01*
X84659501Y-48282123D01*
X84659500Y-48282135D01*
X84659500Y-50777870D01*
X80015216Y-50777870D01*
X80110050Y-50689877D01*
X80268959Y-50490612D01*
X80396393Y-50269888D01*
X80489508Y-50032637D01*
X80546222Y-49784157D01*
X80565268Y-49530000D01*
X80546222Y-49275843D01*
X80489508Y-49027363D01*
X80396393Y-48790112D01*
X80268959Y-48569388D01*
X80110050Y-48370123D01*
X79923217Y-48196768D01*
X79712634Y-48053195D01*
X79712630Y-48053193D01*
X79712627Y-48053191D01*
X79712626Y-48053190D01*
X79483006Y-47942612D01*
X79483008Y-47942612D01*
X79239466Y-47867489D01*
X79239462Y-47867488D01*
X79239458Y-47867487D01*
X79118231Y-47849214D01*
X78987440Y-47829500D01*
X78987435Y-47829500D01*
X78732565Y-47829500D01*
X78732559Y-47829500D01*
X78575609Y-47853157D01*
X78480542Y-47867487D01*
X78480539Y-47867488D01*
X78480533Y-47867489D01*
X78236992Y-47942612D01*
X78007373Y-48053190D01*
X78007372Y-48053191D01*
X77796782Y-48196768D01*
X77609952Y-48370121D01*
X77609950Y-48370123D01*
X77451041Y-48569388D01*
X77323608Y-48790109D01*
X77230492Y-49027362D01*
X77230490Y-49027369D01*
X77173777Y-49275845D01*
X77154732Y-49529995D01*
X77154732Y-49530004D01*
X71120500Y-49530004D01*
X71120500Y-35560000D01*
X73764922Y-35560000D01*
X73785219Y-35947287D01*
X73845886Y-36330323D01*
X73845887Y-36330330D01*
X73946262Y-36704936D01*
X74085244Y-37066994D01*
X74261310Y-37412543D01*
X74472531Y-37737793D01*
X74681095Y-37995350D01*
X74681096Y-37995350D01*
X76172266Y-36504180D01*
X76335130Y-36694870D01*
X76525819Y-36857733D01*
X75034648Y-38348903D01*
X75034649Y-38348904D01*
X75292206Y-38557468D01*
X75617456Y-38768689D01*
X75963005Y-38944755D01*
X76325063Y-39083737D01*
X76699669Y-39184112D01*
X76699676Y-39184113D01*
X77082712Y-39244780D01*
X77469999Y-39265078D01*
X77470001Y-39265078D01*
X77857287Y-39244780D01*
X78240323Y-39184113D01*
X78240330Y-39184112D01*
X78614936Y-39083737D01*
X78976994Y-38944755D01*
X79322543Y-38768689D01*
X79647783Y-38557476D01*
X79647785Y-38557475D01*
X79905349Y-38348902D01*
X78414180Y-36857733D01*
X78604870Y-36694870D01*
X78767733Y-36504180D01*
X80258902Y-37995349D01*
X80467475Y-37737785D01*
X80467476Y-37737783D01*
X80678689Y-37412543D01*
X80854755Y-37066994D01*
X80993737Y-36704936D01*
X81094112Y-36330330D01*
X81094113Y-36330323D01*
X81154780Y-35947287D01*
X81175078Y-35560000D01*
X81175078Y-35559999D01*
X81154780Y-35172712D01*
X81094113Y-34789676D01*
X81094112Y-34789669D01*
X80993737Y-34415063D01*
X80854755Y-34053005D01*
X80678689Y-33707456D01*
X80467468Y-33382206D01*
X80258904Y-33124649D01*
X80258903Y-33124648D01*
X78767732Y-34615818D01*
X78604870Y-34425130D01*
X78414180Y-34262266D01*
X79905350Y-32771096D01*
X79905350Y-32771095D01*
X79647793Y-32562531D01*
X79322543Y-32351310D01*
X78976994Y-32175244D01*
X78614936Y-32036262D01*
X78240330Y-31935887D01*
X78240323Y-31935886D01*
X77857287Y-31875219D01*
X77470001Y-31854922D01*
X77469999Y-31854922D01*
X77082712Y-31875219D01*
X76699676Y-31935886D01*
X76699669Y-31935887D01*
X76325063Y-32036262D01*
X75963005Y-32175244D01*
X75617456Y-32351310D01*
X75292206Y-32562531D01*
X75034648Y-32771095D01*
X75034648Y-32771096D01*
X76525819Y-34262266D01*
X76335130Y-34425130D01*
X76172266Y-34615818D01*
X74681096Y-33124648D01*
X74681095Y-33124648D01*
X74472531Y-33382206D01*
X74261310Y-33707456D01*
X74085244Y-34053005D01*
X73946262Y-34415063D01*
X73845887Y-34789669D01*
X73845886Y-34789676D01*
X73785219Y-35172712D01*
X73764922Y-35559999D01*
X73764922Y-35560000D01*
X71120500Y-35560000D01*
X71120500Y-30736214D01*
X71120658Y-30731790D01*
X71125489Y-30664231D01*
X71137333Y-30513762D01*
X71138560Y-30505445D01*
X71143565Y-30482441D01*
X71159429Y-30409509D01*
X71187959Y-30290678D01*
X71190157Y-30283478D01*
X71226588Y-30185802D01*
X71271372Y-30077687D01*
X71274237Y-30071701D01*
X71324727Y-29979234D01*
X71326211Y-29976671D01*
X71385754Y-29879506D01*
X71388924Y-29874834D01*
X71452656Y-29789699D01*
X71455060Y-29786694D01*
X71528534Y-29700667D01*
X71531792Y-29697143D01*
X71607143Y-29621792D01*
X71610667Y-29618534D01*
X71696694Y-29545060D01*
X71699699Y-29542656D01*
X71784834Y-29478924D01*
X71789506Y-29475754D01*
X71886671Y-29416211D01*
X71889234Y-29414727D01*
X71981704Y-29364235D01*
X71987687Y-29361372D01*
X72095802Y-29316588D01*
X72193482Y-29280155D01*
X72200678Y-29277959D01*
X72244405Y-29267461D01*
X72319492Y-29249433D01*
X72415451Y-29228559D01*
X72423762Y-29227333D01*
X72574231Y-29215489D01*
X72641791Y-29210657D01*
X72646214Y-29210500D01*
X101476000Y-29210500D01*
X101543039Y-29230185D01*
G37*
G04 #@! TD.AperFunction*
M02*
